<svg width="467" height="484" viewBox="0 0 467 484" fill="none" xmlns="http://www.w3.org/2000/svg">
<path d="M104.199 446.369C113.105 440.004 122.324 434.069 131.692 428.411C150.705 416.922 170.42 406.655 190.273 396.705C200.714 391.47 211.435 386.736 222.051 381.865C232.729 376.966 243.429 372.108 254.132 367.256C263.911 362.82 273.689 358.385 283.457 353.926C315.985 284.885 351.894 206.614 347.488 206.614L14.2951 197.163C6.41282 197.163 0 203.576 0 211.456V442.828C0 450.711 6.41282 457.124 14.2951 457.124L112.534 457.758C117.576 454.056 99.1143 450.004 104.199 446.369Z" fill="#25221C"/>
<path d="M358.562 197.971H21.0951C13.6466 197.971 7.6084 204.009 7.6084 211.456V442.828C7.6084 450.276 13.6466 456.316 21.0951 456.316H358.562C366.01 456.316 372.047 450.276 372.047 442.828V211.456C372.047 204.009 366.01 197.971 358.562 197.971Z" fill="#FCF7ED"/>
<path d="M21.095 198.559C13.9834 198.559 8.19784 204.346 8.19784 211.456V442.828C8.19784 449.94 13.9834 455.725 21.095 455.725H358.562C365.672 455.725 371.458 449.94 371.458 442.828V211.456C371.458 204.346 365.672 198.559 358.562 198.559H21.095ZM358.562 456.905H21.095C13.3332 456.905 7.01855 450.59 7.01855 442.828V211.456C7.01855 203.694 13.3332 197.379 21.095 197.379H358.562C366.324 197.379 372.638 203.694 372.638 211.456V442.828C372.638 450.59 366.324 456.905 358.562 456.905Z" fill="#25221C"/>
<path d="M157.569 457.346H19.8051C14.2508 457.346 9.73242 461.865 9.73242 467.417C9.73242 472.972 14.2508 477.491 19.8051 477.491H161.683C167.239 477.491 157.569 457.346 157.569 457.346Z" fill="#25221C"/>
<path d="M436.588 457.346H111.384C105.821 457.346 101.312 461.855 101.312 467.417C101.312 472.98 105.821 477.491 111.384 477.491H436.588C442.15 477.491 446.659 472.98 446.659 467.417C446.659 461.855 442.15 457.346 436.588 457.346Z" fill="#FCF7ED"/>
<path d="M111.384 457.934C106.155 457.934 101.901 462.19 101.901 467.417C101.901 472.647 106.155 476.9 111.384 476.9H436.587C441.817 476.9 446.07 472.647 446.07 467.417C446.07 462.19 441.817 457.934 436.587 457.934H111.384ZM436.587 478.08H111.384C105.505 478.08 100.722 473.296 100.722 467.417C100.722 461.538 105.505 456.757 111.384 456.757H436.587C442.467 456.757 447.25 461.538 447.25 467.417C447.25 473.296 442.467 478.08 436.587 478.08Z" fill="#25221C"/>
<path d="M347.249 217.301H32.4047C29.1377 217.301 26.4893 219.949 26.4893 223.217V227.57C26.4893 230.836 29.1377 233.484 32.4047 233.484H347.249C350.518 233.484 353.165 230.836 353.165 227.57V223.217C353.165 219.949 350.518 217.301 347.249 217.301Z" fill="#25221C"/>
<path d="M345.724 225.393C345.724 227.544 343.979 229.289 341.827 229.289C339.676 229.289 337.931 227.544 337.931 225.393C337.931 223.241 339.676 221.496 341.827 221.496C343.979 221.496 345.724 223.241 345.724 225.393Z" fill="#FCF7ED"/>
<path d="M353.166 437.548H26.624V241.08H353.166V437.548Z" fill="#FCF7ED"/>
<path d="M27.2132 436.957H352.577V241.671H27.2132V436.957ZM353.166 438.137H26.6237C26.2982 438.137 26.0342 437.873 26.0342 437.548V241.079C26.0342 240.755 26.2982 240.491 26.6237 240.491H353.166C353.493 240.491 353.757 240.755 353.757 241.079V437.548C353.757 437.873 353.493 438.137 353.166 438.137Z" fill="#25221C"/>
<path d="M426.149 382.048H343.699L356.427 480.052C375.324 484.081 394.319 484.205 413.422 480.052L426.149 382.048Z" fill="#25221C"/>
<path d="M432.242 357.849H337.605L352.215 470.342C373.903 474.962 395.707 475.105 417.634 470.342L432.242 357.849Z" fill="#FCF7ED"/>
<path d="M352.746 469.851C374.304 474.387 395.952 474.387 417.101 469.854L431.571 358.441H338.276L352.746 469.851ZM385.081 474.435C374.112 474.435 363.09 473.262 352.091 470.918C351.848 470.865 351.661 470.665 351.629 470.419L337.022 357.926C336.998 357.76 337.051 357.588 337.162 357.461C337.276 357.335 337.437 357.261 337.606 357.261H432.242C432.411 357.261 432.574 357.335 432.685 357.461C432.796 357.588 432.849 357.76 432.828 357.926L418.218 470.419C418.186 470.665 418.002 470.865 417.759 470.918C406.972 473.262 396.053 474.435 385.081 474.435Z" fill="#25221C"/>
<path d="M426.283 346.463H343.564L340.589 356.249H429.259L426.283 346.463Z" fill="#25221C"/>
<path d="M341.386 355.658H428.463L425.847 347.052H343.999L341.386 355.658ZM429.258 356.838H340.588C340.404 356.838 340.227 356.748 340.116 356.601C340.005 356.45 339.971 356.257 340.026 356.078L342.999 346.291C343.075 346.043 343.302 345.874 343.564 345.874H426.283C426.544 345.874 426.771 346.043 426.848 346.291L429.823 356.078C429.876 356.257 429.844 356.45 429.731 356.601C429.62 356.748 429.446 356.838 429.258 356.838Z" fill="#FCF7ED"/>
<path d="M436.999 366.828H332.851V356.249H436.999V366.828Z" fill="#25221C"/>
<path d="M333.44 366.239H436.408V356.838H333.44V366.239ZM436.999 367.419H332.851C332.524 367.419 332.26 367.155 332.26 366.828V356.249C332.26 355.922 332.524 355.658 332.851 355.658H436.999C437.324 355.658 437.588 355.922 437.588 356.249V366.828C437.588 367.155 437.324 367.419 436.999 367.419Z" fill="#FCF7ED"/>
<path d="M341.057 394.791L348.538 452.214C348.538 452.214 385.868 463.6 421.495 452.214C425.592 424.417 428.744 394.791 428.744 394.791C428.744 394.791 385.467 400.665 341.057 394.791Z" fill="#25221C"/>
<path d="M394.086 442.4C394.046 442.4 394.009 442.4 393.97 442.398C392.246 442.324 391.314 440.666 390.408 439.063C389.582 437.596 388.801 436.21 387.56 436.078C386.132 435.93 384.785 437.519 383.481 439.056C382.058 440.737 380.714 442.327 379.048 441.92C377.786 441.614 377.335 440.381 376.899 439.188C376.477 438.029 376.076 436.936 375.033 436.519C374.032 436.12 373.132 436.579 371.625 437.424C370.397 438.113 369.003 438.897 367.195 439.129C363.974 439.547 360.468 438.013 356.759 434.581C356.521 434.359 356.505 433.987 356.727 433.747C356.949 433.506 357.321 433.493 357.561 433.715C360.999 436.901 364.191 438.33 367.044 437.96C368.626 437.757 369.914 437.033 371.047 436.397C372.514 435.573 373.9 434.797 375.469 435.423C377.002 436.035 377.559 437.559 378.008 438.781C378.425 439.924 378.721 440.626 379.326 440.774C380.284 441.004 381.451 439.628 382.581 438.295C384.012 436.606 385.638 434.684 387.684 434.905C389.527 435.101 390.543 436.899 391.435 438.483C392.217 439.866 392.953 441.173 394.02 441.22C395.097 441.247 395.979 440.027 396.924 438.715C398.067 437.128 399.363 435.333 401.428 435.162C403.376 435.001 405.401 436.355 407.468 439.182C407.661 439.446 407.603 439.816 407.339 440.006C407.077 440.199 406.708 440.141 406.515 439.879C404.707 437.403 403.028 436.21 401.525 436.336C400.002 436.463 398.922 437.957 397.88 439.404C396.818 440.877 395.72 442.4 394.086 442.4Z" fill="#FCF7ED"/>
<path d="M395.472 280.408C394.406 281.482 393.31 282.52 392.291 283.631C391.766 284.17 391.267 284.732 390.778 285.305L390.029 286.147L389.316 287.021C387.434 289.349 385.728 291.841 384.553 294.55C383.357 297.235 382.806 300.237 383.466 303.056C384.046 305.897 385.836 308.349 387.932 310.438C390.034 312.552 392.436 314.408 394.643 316.539C395.749 317.603 396.784 318.764 397.677 320.042C398.574 321.314 399.269 322.751 399.691 324.263C400.549 327.305 400.127 330.583 398.902 333.406C397.695 336.254 395.842 338.746 393.756 340.953C393.682 341.033 393.558 341.038 393.479 340.961C393.403 340.89 393.397 340.771 393.466 340.692C395.427 338.414 397.178 335.919 398.25 333.142C398.786 331.758 399.142 330.312 399.261 328.846C399.374 327.386 399.24 325.905 398.817 324.511C398.4 323.115 397.735 321.798 396.866 320.612C396.006 319.419 394.984 318.339 393.907 317.307C391.745 315.24 389.326 313.4 387.14 311.23C386.045 310.15 385.018 308.97 384.165 307.65C383.305 306.338 382.658 304.859 382.317 303.307C381.963 301.757 381.948 300.139 382.193 298.584C382.431 297.026 382.914 295.524 383.558 294.115C383.703 293.753 383.875 293.404 384.057 293.066C384.239 292.723 384.405 292.375 384.598 292.039C384.999 291.382 385.38 290.709 385.836 290.089L386.496 289.146C386.723 288.835 386.966 288.539 387.199 288.235L387.911 287.335L388.661 286.469L389.414 285.606L390.2 284.777C390.726 284.222 391.262 283.681 391.821 283.164C392.906 282.097 394.06 281.107 395.211 280.117C395.293 280.046 395.417 280.054 395.486 280.136C395.554 280.215 395.549 280.331 395.478 280.402L395.472 280.408Z" fill="#25221C"/>
<path d="M399.843 293.312C399.03 295.432 398.552 297.681 398.632 299.922C398.642 301.044 398.885 302.14 399.133 303.22C399.321 303.742 399.458 304.281 399.682 304.788L400.039 305.54C400.155 305.794 400.271 306.044 400.427 306.274C401.538 308.209 403.101 309.846 404.717 311.443C406.335 313.038 408.083 314.572 409.535 316.449C410.976 318.297 412.111 320.607 412.146 323.062C412.243 325.501 411.478 327.848 410.414 329.928C408.231 334.113 404.957 337.487 401.528 340.528C401.448 340.599 401.327 340.591 401.258 340.512C401.192 340.438 401.195 340.325 401.261 340.253C402.845 338.601 404.387 336.911 405.799 335.132C407.219 333.36 408.481 331.465 409.45 329.453C409.954 328.453 410.329 327.405 410.607 326.341C410.894 325.279 411.026 324.186 410.979 323.107C410.913 320.931 409.981 318.891 408.634 317.138C407.293 315.366 405.591 313.838 403.962 312.206C402.325 310.585 400.751 308.806 399.619 306.725C398.476 304.656 397.887 302.274 397.916 299.93C397.942 297.578 398.523 295.265 399.49 293.164C399.534 293.069 399.648 293.027 399.743 293.071C399.835 293.114 399.878 293.219 399.843 293.312Z" fill="#25221C"/>
<path d="M429.113 108.773H286.242C282.081 108.773 278.707 105.399 278.707 101.239V8.12331C278.707 3.96267 282.081 0.58879 286.242 0.58879H429.113C433.274 0.58879 436.648 3.96267 436.648 8.12331V101.239C436.648 105.399 433.274 108.773 429.113 108.773Z" fill="#FCF7ED"/>
<path d="M286.242 1.18006C282.414 1.18006 279.299 4.29526 279.299 8.12326V101.239C279.299 105.069 282.414 108.185 286.242 108.185H429.114C432.945 108.185 436.06 105.069 436.06 101.239V8.12326C436.06 4.29526 432.945 1.18006 429.114 1.18006H286.242ZM429.114 109.365H286.242C281.765 109.365 278.119 105.719 278.119 101.239V8.12326C278.119 3.64318 281.765 2.64473e-06 286.242 2.64473e-06H429.114C433.594 2.64473e-06 437.24 3.64318 437.24 8.12326V101.239C437.24 105.719 433.594 109.365 429.114 109.365Z" fill="#25221C"/>
<path d="M357.678 95.4941C357.353 95.4941 357.089 95.2301 357.089 94.9028V14.0316C357.089 13.7043 357.353 13.4403 357.678 13.4403C358.005 13.4403 358.269 13.7043 358.269 14.0316V94.9028C358.269 95.2301 358.005 95.4941 357.678 95.4941Z" fill="#25221C"/>
<path d="M418.901 63.6926H295.106C294.782 63.6926 294.518 63.4286 294.518 63.1013C294.518 62.7765 294.782 62.5126 295.106 62.5126H418.901C419.229 62.5126 419.493 62.7765 419.493 63.1013C419.493 63.4286 419.229 63.6926 418.901 63.6926Z" fill="#25221C"/>
<path d="M416.553 65.1022L418.554 63.101L416.553 61.1026H418.25L420.251 63.101L418.25 65.1022H416.553Z" fill="#25221C"/>
<path d="M357.957 90.0531C343.804 90.0531 332.288 78.5374 332.288 64.3817V49.508C332.288 36.0044 321.3 25.0193 307.797 25.0193H295.106C294.782 25.0193 294.518 24.7554 294.518 24.428C294.518 24.1033 294.782 23.8393 295.106 23.8393H307.797C321.95 23.8393 333.466 35.355 333.466 49.508V64.3817C333.466 77.8853 344.453 88.873 357.957 88.873C371.46 88.873 382.448 77.8853 382.448 64.3817V49.508C382.448 35.355 393.964 23.8393 408.117 23.8393H415.554C415.878 23.8393 416.142 24.1033 416.142 24.428C416.142 24.7554 415.878 25.0193 415.554 25.0193H408.117C394.613 25.0193 383.628 36.0044 383.628 49.508V64.3817C383.628 78.5374 372.112 90.0531 357.957 90.0531Z" fill="#25221C"/>
<path d="M209.632 169.301C203.782 171.117 200.801 162.74 189.977 161.439C179.436 160.169 176.949 167.476 165.607 167.727C152.679 168.01 138.165 158.907 137.305 149.646C136.556 141.578 146.497 136.961 144.321 131.48C142.314 126.427 133.526 129.492 124.701 122.947C117.125 117.332 111.883 106.387 114.507 98.5459C116.502 92.5822 121.437 93.221 123.941 86.3596C126.595 79.0864 122.058 76.0557 124.155 68.6373C126.314 60.9945 134.165 53.6395 141.756 53.5629C149.114 53.489 150.319 60.3161 158.531 60.8097C167.941 61.3773 171.74 52.7419 177.398 54.9146C183.501 57.2563 180.935 68.0143 189.035 72.6079C192.411 74.5219 193.367 73.0092 200.197 74.9601C203.679 75.9554 210.363 77.8641 214.466 82.2544C222.33 90.6681 215.023 102.105 221.816 107.585C226.879 111.669 232.405 106.508 239.897 111.123C244.528 113.977 249.356 120.22 248.319 125.677C246.687 134.265 232.289 131.654 222.209 143.751C212.974 154.833 216.657 167.115 209.632 169.301Z" fill="#25221C"/>
<path d="M111.728 263.606C111.709 263.606 111.689 263.606 111.669 263.604C111.346 263.572 111.109 263.284 111.141 262.96L112.832 245.768C112.864 245.443 113.147 245.214 113.476 245.237C113.8 245.269 114.037 245.559 114.006 245.884L112.314 263.076C112.284 263.379 112.028 263.606 111.728 263.606Z" fill="#25221C"/>
<path d="M413.02 107.15C410.39 104.658 407.317 104.581 403.719 105.027L402.452 104.232C399.672 102.495 396.308 101.957 393.125 102.738L368.053 108.897C367.002 109.153 366.049 108.219 366.286 107.166C366.767 105.061 367.482 101.904 368.037 99.4119C368.604 96.859 367.596 95.3568 366.746 94.5833C366.263 94.1424 365.51 94.19 365.08 94.6836C362.305 97.8648 352.057 110.04 352.382 116.06C352.756 123.021 357.532 143.291 357.532 143.291H378.84L374.663 129.64C374.37 128.684 374.882 127.668 375.825 127.332L406.251 116.572C406.8 116.379 406.979 115.698 406.602 115.257C405.926 114.465 404.857 113.333 403.693 112.548L412.344 109.13C413.131 108.818 413.453 107.876 413.02 107.15Z" fill="#FCF7ED"/>
<path d="M358 142.7H378.043L374.099 129.814C373.713 128.549 374.384 127.219 375.63 126.778L406.056 116.017C406.156 115.98 406.193 115.901 406.204 115.856C406.217 115.811 406.225 115.724 406.153 115.64C405.491 114.864 404.466 113.781 403.363 113.037C403.181 112.915 403.083 112.701 403.107 112.482C403.131 112.266 403.273 112.078 403.477 111.999L412.128 108.58C412.342 108.496 412.508 108.322 412.582 108.105C412.648 107.91 412.635 107.699 412.548 107.514C410.187 105.323 407.444 105.159 403.791 105.61C403.659 105.626 403.521 105.597 403.408 105.526L402.138 104.734C399.511 103.092 396.277 102.572 393.268 103.311L368.193 109.47C367.501 109.642 366.78 109.444 366.271 108.942C365.764 108.443 365.556 107.73 365.714 107.036C366.192 104.932 366.907 101.774 367.462 99.2823C367.961 97.0488 367.132 95.7315 366.35 95.0187C366.237 94.9157 366.086 94.8603 365.93 94.8709C365.775 94.8814 365.629 94.9527 365.524 95.0715C359.293 102.213 352.725 111.466 352.971 116.028C353.306 122.282 357.295 139.661 358 142.7ZM378.84 143.88H357.533C357.258 143.88 357.02 143.692 356.957 143.426C356.762 142.594 352.165 123.024 351.793 116.091C351.461 109.906 361.54 97.8462 364.637 94.2954C364.951 93.9363 365.387 93.7225 365.864 93.6934C366.332 93.6591 366.791 93.828 367.145 94.1475C367.974 94.8999 369.267 96.6054 368.613 99.5384C368.058 102.033 367.343 105.193 366.862 107.297C366.796 107.593 366.881 107.886 367.097 108.103C367.316 108.316 367.615 108.398 367.913 108.324L392.985 102.168C396.301 101.352 399.868 101.922 402.764 103.733L403.857 104.414C407.674 103.963 410.771 104.206 413.427 106.722C413.466 106.759 413.501 106.801 413.527 106.849C413.823 107.342 413.883 107.939 413.699 108.485C413.511 109.032 413.097 109.465 412.561 109.676L404.886 112.709C405.75 113.425 406.512 114.243 407.051 114.871C407.355 115.228 407.463 115.711 407.344 116.16C407.223 116.611 406.887 116.973 406.449 117.129L376.023 127.889C375.374 128.119 375.025 128.811 375.226 129.468L379.405 143.117C379.46 143.296 379.426 143.489 379.315 143.64C379.204 143.79 379.027 143.88 378.84 143.88Z" fill="#25221C"/>
<path d="M377.67 119.484C377.406 119.484 377.166 119.307 377.1 119.038C377.021 118.723 377.211 118.401 377.528 118.322L399.147 112.91C399.463 112.831 399.783 113.024 399.862 113.338C399.941 113.655 399.749 113.974 399.432 114.053L377.813 119.465C377.765 119.478 377.718 119.484 377.67 119.484Z" fill="#25221C"/>
<path d="M375.469 113.15C375.205 113.15 374.965 112.973 374.899 112.704C374.82 112.387 375.01 112.068 375.326 111.989L396.945 106.577C397.262 106.497 397.582 106.69 397.661 107.004C397.74 107.321 397.547 107.641 397.233 107.72L375.614 113.134C375.564 113.145 375.517 113.15 375.469 113.15Z" fill="#25221C"/>
<path d="M90.5264 201.511C96.5807 201.875 106.726 202.377 112.896 202.673C115.754 202.81 117.899 205.329 117.584 208.174L113.418 245.826C113.418 245.826 122.939 241.544 133.366 229.125C143.792 216.704 153.184 191.175 176.275 190.273C190.969 189.697 227.832 192.049 252.703 193.837C265.478 194.753 277.87 198.67 288.779 205.384C296.704 210.26 308.473 214.616 323.355 211.91C350.679 206.939 363.023 183.551 351.648 145.775C350.605 142.314 353.182 138.827 356.793 138.827H379.97C382.486 138.827 384.695 140.485 385.405 142.9C390.685 160.911 408.328 233.479 357.532 256.328C327.552 269.811 296.044 268.258 296.044 268.258L308.489 381.966C309.82 394.118 303.845 405.916 293.24 411.998C282.11 418.379 264.713 424.24 238.83 423.382C217.222 422.667 200.428 418.839 188.031 414.483C171.069 408.524 158.847 393.624 156.245 375.833C153.444 356.677 150.204 326.967 149.671 289.661C149.671 289.661 132.113 308.893 98.7032 302.665C57.4429 294.975 77.4172 225.369 83.807 206.062C84.7556 203.195 87.512 201.332 90.5264 201.511Z" fill="#FCF7ED"/>
<path d="M149.671 289.072C149.742 289.072 149.813 289.083 149.881 289.109C150.107 289.196 150.258 289.41 150.261 289.653C150.8 327.376 154.13 357.292 156.829 375.748C159.41 393.402 171.441 408.03 188.226 413.928C203.216 419.195 220.247 422.175 238.851 422.793C260.412 423.503 278.617 419.702 292.947 411.486C303.338 405.528 309.21 393.964 307.903 382.029L295.458 268.322C295.439 268.15 295.498 267.978 295.616 267.854C295.735 267.728 295.901 267.662 296.073 267.669C296.387 267.685 327.793 269.058 357.289 255.789C378.673 246.172 390.321 226.652 391.908 197.768C393.188 174.517 387.391 151.768 384.838 143.067C384.209 140.918 382.206 139.416 379.97 139.416H356.793C355.264 139.416 353.865 140.121 352.954 141.345C352.038 142.578 351.767 144.131 352.21 145.606C358.401 166.154 357.794 183.353 350.46 195.339C344.945 204.349 335.61 210.281 323.46 212.491C307.985 215.305 295.891 210.453 288.47 205.886C277.77 199.301 265.388 195.339 252.661 194.425C225.736 192.49 190.631 190.302 176.299 190.861C159.136 191.535 149.77 205.904 141.507 218.584C138.87 222.631 136.379 226.451 133.817 229.503C123.423 241.885 114.054 246.185 113.66 246.362C113.467 246.449 113.242 246.428 113.071 246.301C112.9 246.177 112.809 245.971 112.832 245.76L116.998 208.108C117.133 206.894 116.771 205.717 115.979 204.787C115.189 203.863 114.084 203.319 112.868 203.261C107.15 202.987 96.6401 202.472 90.4907 202.1C87.7335 201.926 85.2289 203.642 84.3667 206.247C79.8628 219.856 66.2275 266.054 79.8673 289.151C84.0087 296.163 90.3822 300.516 98.8112 302.087C131.519 308.186 149.063 289.452 149.236 289.262C149.35 289.138 149.509 289.072 149.671 289.072ZM243.907 424.055C242.228 424.055 240.53 424.029 238.811 423.971C220.089 423.35 202.939 420.346 187.836 415.04C170.636 408.997 158.307 394.007 155.662 375.92C152.991 357.651 149.702 328.178 149.102 291.036C144.89 294.898 127.521 308.637 98.5955 303.246C89.817 301.609 83.1742 297.069 78.852 289.75C64.959 266.225 78.7036 219.606 83.2473 205.878C84.2777 202.762 87.2982 200.722 90.5615 200.922C96.7047 201.295 107.21 201.809 112.924 202.084C114.469 202.158 115.872 202.847 116.876 204.022C117.881 205.202 118.341 206.699 118.171 208.238L114.124 244.804C116.771 243.381 124.587 238.664 132.914 228.745C135.43 225.749 137.902 221.955 140.518 217.94C148.521 205.661 158.481 190.378 176.254 189.684C190.634 189.122 225.788 191.313 252.745 193.248C265.66 194.175 278.227 198.198 289.088 204.882C296.334 209.341 308.141 214.077 323.249 211.329C335.058 209.183 344.118 203.438 349.454 194.724C356.608 183.031 357.171 166.164 351.083 145.944C350.528 144.11 350.866 142.177 352.009 140.643C353.145 139.115 354.89 138.236 356.793 138.236H379.97C382.726 138.236 385.194 140.086 385.97 142.734C388.539 151.494 394.376 174.398 393.085 197.831C391.472 227.19 379.589 247.051 357.772 256.867C330.446 269.156 301.504 268.992 296.704 268.871L309.078 381.9C310.435 394.302 304.334 406.317 293.533 412.508C280.156 420.18 263.482 424.055 243.907 424.055Z" fill="#25221C"/>
<path d="M112.628 177.733L109.92 174.731V154.522C109.92 152.555 108.326 150.96 106.359 150.96C104.393 150.96 102.798 152.555 102.798 154.522V176.281L83.8467 180.407V191.516C83.8467 196.355 86.6577 200.753 91.0491 202.786L91.9919 203.222C97.6763 205.854 104.316 205.363 109.552 201.926C112.079 200.265 113.75 197.58 114.125 194.581L115.207 185.925C115.579 182.949 114.638 179.958 112.628 177.733Z" fill="#FCF7ED"/>
<path d="M84.4359 180.882V191.516C84.4359 196.107 87.1292 200.323 91.2964 202.25L92.2392 202.688C97.7766 205.252 104.128 204.782 109.228 201.432C111.614 199.864 113.186 197.34 113.54 194.507L114.622 185.851C114.973 183.044 114.086 180.227 112.19 178.126L109.482 175.127C109.384 175.019 109.33 174.876 109.33 174.731V154.522C109.33 152.882 107.997 151.549 106.359 151.549C104.72 151.549 103.387 152.882 103.387 154.522V176.281C103.387 176.558 103.194 176.798 102.923 176.859L84.4359 180.882ZM99.6209 205.505C96.9513 205.505 94.2685 204.927 91.7439 203.758L90.8012 203.322C86.2181 201.2 83.2568 196.566 83.2568 191.516V180.407C83.2568 180.13 83.4498 179.889 83.7209 179.829L102.208 175.805V154.522C102.208 152.233 104.07 150.369 106.359 150.369C108.648 150.369 110.51 152.233 110.51 154.522V174.504L113.066 177.337C115.192 179.691 116.186 182.849 115.792 185.998L114.71 194.652C114.313 197.828 112.551 200.658 109.875 202.417C106.757 204.465 103.201 205.505 99.6209 205.505Z" fill="#25221C"/>
<path d="M99.8622 182.001H97.5438C96.0823 182.001 94.8975 180.819 94.8975 179.356V171.235C94.8975 169.773 96.0823 168.588 97.5438 168.588H99.156C101.007 168.588 102.509 170.09 102.509 171.94V179.356C102.509 180.819 101.324 182.001 99.8622 182.001Z" fill="#FCF7ED"/>
<path d="M97.5437 169.179C96.4096 169.179 95.4869 170.1 95.4869 171.235V179.356C95.4869 180.491 96.4096 181.413 97.5437 181.413H99.8622C100.996 181.413 101.919 180.491 101.919 179.356V171.94C101.919 170.417 100.68 169.179 99.156 169.179H97.5437ZM99.8622 182.593H97.5437C95.7594 182.593 94.3076 181.141 94.3076 179.356V171.235C94.3076 169.451 95.7594 167.999 97.5437 167.999H99.156C101.33 167.999 103.098 169.768 103.098 171.94V179.356C103.098 181.141 101.647 182.593 99.8622 182.593Z" fill="#25221C"/>
<path d="M92.2515 183.67H91.785C90.3235 183.67 89.1387 182.485 89.1387 181.025V173.107C89.1387 171.647 90.3235 170.462 91.785 170.462H92.2515C93.7127 170.462 94.8976 171.647 94.8976 173.107V181.025C94.8976 182.485 93.7127 183.67 92.2515 183.67Z" fill="#FCF7ED"/>
<path d="M91.7844 171.051C90.6505 171.051 89.7281 171.975 89.7281 173.107V181.025C89.7281 182.157 90.6505 183.081 91.7844 183.081H92.2512C93.3853 183.081 94.3075 182.157 94.3075 181.025V173.107C94.3075 171.975 93.3853 171.051 92.2512 171.051H91.7844ZM92.2512 184.261H91.7844C90.0003 184.261 88.5488 182.809 88.5488 181.025V173.107C88.5488 171.325 90.0003 169.873 91.7844 169.873H92.2512C94.0353 169.873 95.4867 171.325 95.4867 173.107V181.025C95.4867 182.809 94.0353 184.261 92.2512 184.261Z" fill="#25221C"/>
<path d="M86.493 185.756C85.0315 185.756 83.8467 184.57 83.8467 183.11V175.278C83.8467 173.815 85.0315 172.63 86.493 172.63C87.9545 172.63 89.1394 173.815 89.1394 175.278V183.11C89.1394 184.57 87.9545 185.756 86.493 185.756Z" fill="#FCF7ED"/>
<path d="M86.4927 173.221C85.3585 173.221 84.4359 174.142 84.4359 175.277V183.11C84.4359 184.243 85.3585 185.167 86.4927 185.167C87.6268 185.167 88.5495 184.243 88.5495 183.11V175.277C88.5495 174.142 87.6268 173.221 86.4927 173.221ZM86.4927 186.344C84.7083 186.344 83.2568 184.892 83.2568 183.11V175.277C83.2568 173.493 84.7083 172.041 86.4927 172.041C88.2771 172.041 89.7288 173.493 89.7288 175.277V183.11C89.7288 184.892 88.2771 186.344 86.4927 186.344Z" fill="#25221C"/>
<path d="M111.726 182.593C111.607 182.593 111.486 182.556 111.382 182.482L103.288 176.655C103.024 176.468 102.964 176.098 103.154 175.834C103.345 175.57 103.713 175.51 103.977 175.7L112.071 181.524C112.335 181.714 112.395 182.083 112.205 182.347C112.09 182.506 111.909 182.593 111.726 182.593Z" fill="#25221C"/>
<path d="M97.3456 196.284C97.0319 196.284 96.7711 196.036 96.7568 195.721C96.4625 189.111 100.683 186.413 102.579 185.539L99.4467 182.421C99.2163 182.191 99.2152 181.817 99.4451 181.587C99.6746 181.355 100.048 181.355 100.279 181.584L104.049 185.338C104.198 185.486 104.257 185.703 104.203 185.903C104.15 186.107 103.993 186.268 103.791 186.323C103.539 186.394 97.6008 188.163 97.9351 195.669C97.9493 195.993 97.6975 196.268 97.3722 196.284C97.3632 196.284 97.3543 196.284 97.3456 196.284Z" fill="#25221C"/>
<path d="M184.744 438.147C184.744 438.147 177.471 346.249 198.464 316.932L266.901 314.057C266.901 314.057 291.743 345.388 289.053 437.548L184.744 438.147Z" fill="#25221C"/>
<path d="M179.942 190.117L171.14 314.368C170.742 319.984 174.654 324.994 180.201 325.95C197.81 328.986 236.794 333.651 276.297 324.696C280.756 323.685 283.609 319.329 282.691 314.852L257.988 194.391C257.988 194.391 213.441 188.095 179.942 190.117Z" fill="#FCF7ED"/>
<path d="M180.495 190.674L171.727 314.411C171.35 319.751 175.035 324.461 180.299 325.369C199.476 328.675 237.426 332.904 276.168 324.121C280.36 323.17 282.971 319.15 282.113 314.97L257.495 194.919C252.939 194.299 211.784 188.873 180.495 190.674ZM226.798 330.523C207.449 330.523 190.843 328.382 180.101 326.531C174.235 325.52 170.13 320.274 170.552 314.329L179.354 190.075C179.375 189.779 179.613 189.544 179.908 189.528C213.08 187.522 257.625 193.744 258.071 193.808C258.319 193.842 258.517 194.029 258.567 194.272L283.27 314.733C284.257 319.548 281.253 324.176 276.43 325.272C259.206 329.176 242.139 330.523 226.798 330.523Z" fill="#25221C"/>
<path d="M205.011 311.752C204.761 311.752 204.526 311.591 204.449 311.338C204.351 311.026 204.526 310.696 204.837 310.601C239.255 299.959 255.583 260.473 255.744 260.074C255.866 259.773 256.211 259.628 256.512 259.749C256.813 259.871 256.959 260.217 256.837 260.518C256.673 260.919 240.131 300.923 205.186 311.726C205.127 311.744 205.069 311.752 205.011 311.752Z" fill="#25221C"/>
<path d="M237.473 147.333C235.438 144.886 234.059 141.953 233.473 138.822C232.431 133.249 231.295 128.312 231.295 128.312C222.969 135.216 213.584 130.466 213.584 130.466C205.743 136.559 207.163 145.137 207.163 145.137C207.163 145.137 199.869 144.339 200.381 149.044C200.888 153.717 207.918 154.886 208.024 154.905L199.462 189.476C198.926 191.64 200.275 193.832 202.453 194.307C215.635 197.184 223.898 196.105 228.075 194.99C229.294 194.663 229.666 193.156 228.766 192.269C224.17 187.728 223.394 174.752 223.41 166.23C227.663 167.181 231.588 166.333 233.537 162.423C234.928 159.628 235.298 156.687 235.134 152.27C235.105 151.494 237.98 148.231 237.473 147.333Z" fill="#FCF7ED"/>
<path d="M205.991 145.675C204.713 145.675 202.651 145.855 201.595 146.911C201.078 147.428 200.872 148.106 200.967 148.98C201.424 153.191 208.053 154.31 208.119 154.321C208.283 154.347 208.425 154.442 208.517 154.577C208.607 154.717 208.636 154.886 208.597 155.044L200.035 189.618C199.813 190.513 199.959 191.439 200.447 192.223C200.933 193 201.688 193.536 202.58 193.731C215.941 196.648 224.194 195.415 227.921 194.42C228.283 194.325 228.545 194.064 228.64 193.71C228.737 193.343 228.629 192.96 228.352 192.688C223.745 188.137 222.8 175.787 222.821 166.23C222.821 166.05 222.903 165.882 223.043 165.771C223.183 165.66 223.365 165.618 223.539 165.657C226.712 166.362 230.931 166.33 233.009 162.159C234.284 159.598 234.714 156.832 234.545 152.291C234.527 151.808 234.91 151.195 235.641 150.065C236.1 149.355 236.945 148.054 236.945 147.621C234.891 145.118 233.489 142.116 232.895 138.932C232.124 134.827 231.301 131.031 230.926 129.352C223.507 134.875 215.429 131.907 213.668 131.15C206.501 136.947 207.731 144.96 207.744 145.041C207.773 145.224 207.718 145.408 207.591 145.54C207.464 145.675 207.282 145.744 207.097 145.723C207.084 145.723 206.638 145.675 205.991 145.675ZM218.024 196.748C213.811 196.748 208.618 196.257 202.327 194.882C201.123 194.621 200.099 193.897 199.446 192.846C198.789 191.788 198.591 190.542 198.889 189.335L207.303 155.361C205.468 154.944 200.26 153.392 199.795 149.11C199.66 147.871 199.988 146.852 200.764 146.074C202.287 144.553 205.157 144.458 206.501 144.503C206.334 142.243 206.445 135.268 213.222 129.999C213.399 129.859 213.644 129.835 213.848 129.941C213.94 129.985 222.998 134.426 230.921 127.858C231.076 127.726 231.29 127.689 231.485 127.752C231.678 127.818 231.826 127.979 231.871 128.18C231.881 128.23 233.019 133.19 234.054 138.713C234.619 141.741 235.958 144.59 237.927 146.955C237.951 146.982 237.969 147.011 237.988 147.043C238.429 147.827 237.769 148.949 236.631 150.707C236.264 151.274 235.762 152.048 235.723 152.28C235.9 157.003 235.435 159.928 234.062 162.685C232.267 166.291 228.711 167.793 224.001 166.951C224.027 174.691 224.775 187.498 229.181 191.849C229.762 192.421 229.986 193.232 229.78 194.011C229.577 194.776 228.996 195.354 228.228 195.56C225.823 196.202 222.467 196.748 218.024 196.748Z" fill="#25221C"/>
<path d="M223.412 166.822C223.375 166.822 223.338 166.819 223.304 166.811C219.935 166.188 215.315 163.054 215.12 162.922C214.851 162.738 214.782 162.371 214.964 162.101C215.149 161.835 215.516 161.763 215.785 161.948C215.83 161.98 220.395 165.074 223.518 165.652C223.837 165.71 224.048 166.019 223.99 166.339C223.937 166.624 223.689 166.822 223.412 166.822Z" fill="#25221C"/>
<path d="M71.5867 184.816H27.5303C23.0524 184.816 19.4092 181.172 19.4092 176.695V83.4581C19.4092 78.9806 23.0524 75.3374 27.5303 75.3374H55.7158C56.0416 75.3374 56.3055 75.6014 56.3055 75.9261C56.3055 76.2535 56.0416 76.5175 55.7158 76.5175H27.5303C23.7026 76.5175 20.5885 79.6301 20.5885 83.4581V176.695C20.5885 180.523 23.7026 183.635 27.5303 183.635H71.5867C71.9124 183.635 72.1764 183.899 72.1764 184.227C72.1764 184.552 71.9124 184.816 71.5867 184.816Z" fill="#25221C"/>
<path d="M170.407 184.816H124.763C124.438 184.816 124.174 184.552 124.174 184.227C124.174 183.899 124.438 183.635 124.763 183.635H170.407C174.235 183.635 177.35 180.523 177.35 176.695V162.434C177.35 162.109 177.614 161.845 177.939 161.845C178.266 161.845 178.53 162.109 178.53 162.434V176.695C178.53 181.172 174.884 184.816 170.407 184.816Z" fill="#25221C"/>
<path d="M177.939 163.025C177.614 163.025 177.35 162.761 177.35 162.434V83.4582C177.35 79.6302 174.235 76.5176 170.407 76.5176H124.763C124.438 76.5176 124.174 76.2536 124.174 75.9262C124.174 75.6015 124.438 75.3375 124.763 75.3375H170.407C174.884 75.3375 178.53 78.9807 178.53 83.4582V162.434C178.53 162.761 178.266 163.025 177.939 163.025Z" fill="#FCF7ED"/>
<path d="M124.763 76.5177H74.7099C74.3841 76.5177 74.1201 76.2537 74.1201 75.9263C74.1201 75.6016 74.3841 75.3376 74.7099 75.3376H124.763C125.088 75.3376 125.352 75.6016 125.352 75.9263C125.352 76.2537 125.088 76.5177 124.763 76.5177Z" fill="#25221C"/>
<path d="M146.367 170.011H127.691C127.366 170.011 127.102 169.747 127.102 169.419C127.102 169.095 127.366 168.831 127.691 168.831H146.367C146.693 168.831 146.957 169.095 146.957 169.419C146.957 169.747 146.693 170.011 146.367 170.011Z" fill="#25221C"/>
<path d="M81.2616 170.011H43.4462C43.1204 170.011 42.8564 169.747 42.8564 169.419C42.8564 169.095 43.1204 168.831 43.4462 168.831H81.2616C81.5874 168.831 81.8514 169.095 81.8514 169.419C81.8514 169.747 81.5874 170.011 81.2616 170.011Z" fill="#25221C"/>
<path d="M47.5797 151.261H103.046L47.5797 94.0418V151.261ZM104.439 152.441H46.9902C46.6647 152.441 46.4004 152.177 46.4004 151.85V92.5872C46.4004 92.347 46.5461 92.1305 46.7687 92.0407C46.9912 91.951 47.246 92.0038 47.4134 92.178L104.862 151.441C105.027 151.612 105.074 151.863 104.982 152.082C104.889 152.299 104.676 152.441 104.439 152.441Z" fill="#25221C"/>
<path d="M52.4106 151.85C52.4106 154.846 49.9833 157.272 46.9896 157.272C43.9956 157.272 41.5684 154.846 41.5684 151.85C41.5684 148.856 43.9956 146.43 46.9896 146.43C49.9833 146.43 52.4106 148.856 52.4106 151.85Z" fill="#25221C"/>
<path d="M109.86 151.85C109.86 154.846 107.433 157.272 104.439 157.272C101.445 157.272 99.0176 154.846 99.0176 151.85C99.0176 148.856 101.445 146.43 104.439 146.43C107.433 146.43 109.86 148.856 109.86 151.85Z" fill="#25221C"/>
<path d="M52.4106 92.5873C52.4106 95.5811 49.9833 98.0099 46.9896 98.0099C43.9956 98.0099 41.5684 95.5811 41.5684 92.5873C41.5684 89.5936 43.9956 87.1674 46.9896 87.1674C49.9833 87.1674 52.4106 89.5936 52.4106 92.5873Z" fill="#25221C"/>
<path d="M62.0375 314.21C54.7788 314.21 48.8736 320.116 48.8736 327.373V417.643C48.8736 424.903 54.7788 430.808 62.0375 430.808H126.62C133.879 430.808 139.784 424.903 139.784 417.643V327.373C139.784 320.116 133.879 314.21 126.62 314.21H62.0375ZM126.62 431.986H62.0375C54.1285 431.986 47.6943 425.552 47.6943 417.643V327.373C47.6943 319.466 54.1285 313.03 62.0375 313.03H126.62C134.529 313.03 140.963 319.466 140.963 327.373V417.643C140.963 425.552 134.529 431.986 126.62 431.986Z" fill="#25221C"/>
<path d="M79.2915 413.202H59.2314V347.279H79.2915V413.202Z" fill="#25221C"/>
<path d="M104.359 413.202H84.2988V329.086H104.359V413.202Z" fill="#25221C"/>
<path d="M129.426 413.202H109.366V373.9H129.426V413.202Z" fill="#25221C"/>
<path d="M386.279 262.352C386.128 262.352 385.978 262.294 385.862 262.181C385.632 261.949 385.632 261.576 385.862 261.347L435.858 211.35C436.088 211.121 436.46 211.121 436.692 211.35C436.922 211.58 436.922 211.955 436.692 212.185L386.696 262.181C386.58 262.294 386.429 262.352 386.279 262.352Z" fill="#25221C"/>
<path d="M332.851 315.781C332.698 315.781 332.548 315.723 332.434 315.609C332.202 315.379 332.202 315.005 332.434 314.775L364.827 282.382C365.057 282.15 365.431 282.15 365.661 282.382C365.891 282.612 365.891 282.984 365.661 283.216L333.268 315.609C333.152 315.723 333.002 315.781 332.851 315.781Z" fill="#25221C"/>
<path d="M415.47 207.229C415.32 207.229 415.169 207.171 415.053 207.055C414.823 206.825 414.823 206.453 415.053 206.223L436.276 185.001C440.265 181.009 440.265 174.517 436.276 170.528C434.119 168.371 432.934 165.504 432.934 162.458C432.934 159.408 434.119 156.541 436.276 154.387L465.424 125.239C465.654 125.009 466.026 125.009 466.259 125.239C466.488 125.469 466.488 125.843 466.259 126.073L437.11 155.221C435.178 157.154 434.111 159.723 434.111 162.458C434.111 165.19 435.178 167.761 437.11 169.694C441.559 174.142 441.559 181.384 437.11 185.832L415.887 207.055C415.771 207.171 415.621 207.229 415.47 207.229Z" fill="#25221C"/>
<path d="M282.263 177.894C282.113 177.894 281.962 177.836 281.846 177.72C281.616 177.49 281.616 177.118 281.846 176.885L332.054 126.678C332.286 126.448 332.658 126.448 332.888 126.678C333.118 126.908 333.118 127.282 332.888 127.512L282.68 177.72C282.564 177.836 282.414 177.894 282.263 177.894Z" fill="#25221C"/>
<path d="M203.074 57.7367C202.923 57.7367 202.773 57.6786 202.657 57.5651C202.427 57.3328 202.427 56.9605 202.657 56.7309L243.331 16.059C243.561 15.8294 243.933 15.8294 244.163 16.059C244.395 16.2887 244.395 16.661 244.163 16.8906L203.491 57.5651C203.377 57.6786 203.224 57.7367 203.074 57.7367Z" fill="#25221C"/>
<path d="M404.923 223.507C401.494 223.507 398.706 220.725 398.706 217.301C398.706 213.877 401.494 211.094 404.923 211.094C405.248 211.094 405.512 211.358 405.512 211.683C405.512 212.008 405.248 212.272 404.923 212.272C402.146 212.272 399.886 214.529 399.886 217.301C399.886 220.073 402.146 222.33 404.923 222.33C407.701 222.33 409.96 220.073 409.96 217.301C409.96 216.976 410.224 216.712 410.549 216.712C410.874 216.712 411.138 216.976 411.138 217.301C411.138 220.725 408.35 223.507 404.923 223.507Z" fill="#25221C"/>
<path d="M324.43 167.838C324.276 167.838 324.126 167.78 324.012 167.664L321.444 165.092C321.211 164.86 321.211 164.488 321.444 164.258C321.673 164.028 322.046 164.028 322.278 164.258L324.847 166.829C325.076 167.062 325.076 167.434 324.844 167.664C324.731 167.78 324.58 167.838 324.43 167.838Z" fill="#25221C"/>
<path d="M333.418 176.838C333.267 176.838 333.117 176.782 333.001 176.666L330.432 174.095C330.202 173.862 330.202 173.49 330.432 173.261C330.664 173.031 331.037 173.031 331.266 173.261L333.835 175.832C334.065 176.064 334.065 176.436 333.835 176.666C333.719 176.782 333.568 176.838 333.418 176.838Z" fill="#25221C"/>
<path d="M321.861 176.838C321.708 176.838 321.557 176.782 321.444 176.666C321.211 176.436 321.211 176.064 321.444 175.832L324.012 173.261C324.242 173.028 324.614 173.031 324.844 173.261C325.076 173.49 325.076 173.862 324.847 174.095L322.278 176.666C322.162 176.782 322.011 176.838 321.861 176.838Z" fill="#25221C"/>
<path d="M330.849 167.838C330.699 167.838 330.548 167.78 330.432 167.664C330.202 167.434 330.202 167.062 330.432 166.829L333.001 164.258C333.23 164.028 333.605 164.028 333.835 164.258C334.065 164.488 334.065 164.86 333.835 165.092L331.266 167.664C331.153 167.78 331.002 167.838 330.849 167.838Z" fill="#25221C"/>
<path d="M233.49 40.6243C233.339 40.6243 233.189 40.5661 233.073 40.45C232.843 40.2203 232.843 39.8481 233.073 39.6184L263.623 9.06832C263.852 8.836 264.227 8.836 264.457 9.06832C264.687 9.298 264.687 9.67023 264.457 9.90255L233.907 40.45C233.791 40.5661 233.64 40.6243 233.49 40.6243Z" fill="#25221C"/>
</svg>
