<svg width="259" height="259" viewBox="0 0 259 259" fill="none" xmlns="http://www.w3.org/2000/svg">
<path d="M259 259H0V6.90669e-06H259V259Z" fill="#F8F1E3"/>
<path d="M78.8707 209.872C82.3656 207.374 85.9834 205.045 89.6596 202.825C97.1208 198.316 104.857 194.287 112.648 190.383C116.746 188.328 120.953 186.471 125.119 184.559C129.309 182.636 133.508 180.73 137.708 178.826C141.545 177.085 145.383 175.345 149.216 173.595C161.98 146.502 176.072 115.786 174.343 115.786L43.5902 112.078C40.497 112.078 37.9805 114.594 37.9805 117.686V208.482C37.9805 211.576 40.497 214.092 43.5902 214.092L82.1415 214.341C84.1202 212.889 76.8753 211.298 78.8707 209.872Z" fill="#25221C"/>
<path d="M178.69 112.395H46.2593C43.3363 112.395 40.9668 114.764 40.9668 117.686V208.482C40.9668 211.405 43.3363 213.775 46.2593 213.775H178.69C181.612 213.775 183.981 211.405 183.981 208.482V117.686C183.981 114.764 181.612 112.395 178.69 112.395Z" fill="#F8F1E3"/>
<path d="M46.2593 112.626C43.4685 112.626 41.1981 114.897 41.1981 117.687V208.483C41.1981 211.274 43.4685 213.543 46.2593 213.543H178.69C181.479 213.543 183.75 211.274 183.75 208.483V117.687C183.75 114.897 181.479 112.626 178.69 112.626H46.2593ZM178.69 214.007H46.2593C43.2134 214.007 40.7354 211.528 40.7354 208.483V117.687C40.7354 114.641 43.2134 112.163 46.2593 112.163H178.69C181.735 112.163 184.213 114.641 184.213 117.687V208.483C184.213 211.528 181.735 214.007 178.69 214.007Z" fill="#25221C"/>
<path d="M99.8146 214.179H45.7526C43.5729 214.179 41.7998 215.953 41.7998 218.132C41.7998 220.312 43.5729 222.085 45.7526 222.085H101.429C103.609 222.085 99.8146 214.179 99.8146 214.179Z" fill="#25221C"/>
<path d="M209.309 214.179H81.691C79.508 214.179 77.7383 215.949 77.7383 218.132C77.7383 220.315 79.508 222.085 81.691 222.085H209.309C211.492 222.085 213.261 220.315 213.261 218.132C213.261 215.949 211.492 214.179 209.309 214.179Z" fill="#F8F1E3"/>
<path d="M81.691 214.411C79.6389 214.411 77.9696 216.081 77.9696 218.132C77.9696 220.184 79.6389 221.853 81.691 221.853H209.309C211.361 221.853 213.03 220.184 213.03 218.132C213.03 216.081 211.361 214.411 209.309 214.411H81.691ZM209.309 222.316H81.691C79.3839 222.316 77.5068 220.439 77.5068 218.132C77.5068 215.825 79.3839 213.949 81.691 213.949H209.309C211.616 213.949 213.493 215.825 213.493 218.132C213.493 220.439 211.616 222.316 209.309 222.316Z" fill="#25221C"/>
<path d="M174.25 119.98H50.6973C49.4153 119.98 48.376 121.019 48.376 122.302V124.01C48.376 125.292 49.4153 126.331 50.6973 126.331H174.25C175.533 126.331 176.572 125.292 176.572 124.01V122.302C176.572 121.019 175.533 119.98 174.25 119.98Z" fill="#25221C"/>
<path d="M173.651 123.155C173.651 124 172.966 124.685 172.122 124.685C171.278 124.685 170.593 124 170.593 123.155C170.593 122.311 171.278 121.626 172.122 121.626C172.966 121.626 173.651 122.311 173.651 123.155Z" fill="#F8F1E3"/>
<path d="M176.572 206.411H48.4287V129.312H176.572V206.411Z" fill="#F8F1E3"/>
<path d="M48.6599 206.179H176.341V129.544H48.6599V206.179ZM176.572 206.642H48.4286C48.3009 206.642 48.1973 206.538 48.1973 206.411V129.311C48.1973 129.184 48.3009 129.08 48.4286 129.08H176.572C176.7 129.08 176.804 129.184 176.804 129.311V206.411C176.804 206.538 176.7 206.642 176.572 206.642Z" fill="#25221C"/>
<path d="M205.212 184.631H172.856L177.851 223.09C185.267 224.671 192.721 224.72 200.217 223.09L205.212 184.631Z" fill="#25221C"/>
<path d="M207.603 175.135H170.466L176.199 219.28C184.71 221.093 193.266 221.149 201.871 219.28L207.603 175.135Z" fill="#F8F1E3"/>
<path d="M176.407 219.087C184.867 220.867 193.362 220.867 201.662 219.088L207.34 175.367H170.729L176.407 219.087ZM189.096 220.885C184.791 220.885 180.466 220.426 176.15 219.506C176.055 219.485 175.981 219.406 175.969 219.31L170.237 175.165C170.227 175.099 170.248 175.032 170.291 174.982C170.336 174.933 170.399 174.904 170.466 174.904H207.603C207.669 174.904 207.734 174.933 207.777 174.982C207.821 175.032 207.841 175.099 207.833 175.165L202.1 219.31C202.087 219.406 202.015 219.485 201.92 219.506C197.686 220.426 193.402 220.885 189.096 220.885Z" fill="#25221C"/>
<path d="M205.264 170.667H172.803L171.636 174.507H206.432L205.264 170.667Z" fill="#25221C"/>
<path d="M171.949 174.275H206.12L205.094 170.898H172.975L171.949 174.275ZM206.432 174.738H171.636C171.564 174.738 171.494 174.703 171.451 174.645C171.407 174.586 171.394 174.51 171.416 174.44L172.582 170.599C172.612 170.502 172.701 170.436 172.804 170.436H205.265C205.367 170.436 205.456 170.502 205.486 170.599L206.654 174.44C206.675 174.51 206.662 174.586 206.618 174.645C206.574 174.703 206.506 174.738 206.432 174.738Z" fill="#F8F1E3"/>
<path d="M209.47 178.658H168.6V174.507H209.47V178.658Z" fill="#25221C"/>
<path d="M168.83 178.427H209.237V174.738H168.83V178.427ZM209.469 178.89H168.599C168.471 178.89 168.367 178.787 168.367 178.658V174.507C168.367 174.378 168.471 174.275 168.599 174.275H209.469C209.597 174.275 209.7 174.378 209.7 174.507V178.658C209.7 178.787 209.597 178.89 209.469 178.89Z" fill="#F8F1E3"/>
<path d="M171.819 189.631L174.755 212.165C174.755 212.165 189.404 216.634 203.385 212.165C204.993 201.257 206.23 189.631 206.23 189.631C206.23 189.631 189.247 191.937 171.819 189.631Z" fill="#25221C"/>
<path d="M192.629 208.315C192.614 208.315 192.599 208.315 192.584 208.314C191.907 208.285 191.541 207.634 191.186 207.005C190.862 206.429 190.555 205.885 190.068 205.833C189.508 205.775 188.979 206.399 188.468 207.002C187.909 207.662 187.382 208.286 186.728 208.126C186.233 208.006 186.056 207.522 185.885 207.054C185.719 206.599 185.562 206.17 185.152 206.006C184.76 205.85 184.407 206.03 183.815 206.362C183.333 206.632 182.786 206.94 182.077 207.031C180.813 207.195 179.437 206.593 177.981 205.246C177.888 205.159 177.882 205.013 177.969 204.919C178.056 204.824 178.202 204.819 178.296 204.906C179.645 206.157 180.898 206.717 182.017 206.572C182.638 206.492 183.144 206.209 183.588 205.959C184.164 205.636 184.708 205.331 185.323 205.577C185.925 205.817 186.144 206.415 186.32 206.894C186.484 207.343 186.6 207.619 186.837 207.677C187.213 207.767 187.671 207.227 188.114 206.704C188.676 206.041 189.314 205.286 190.117 205.373C190.84 205.45 191.239 206.156 191.589 206.777C191.896 207.32 192.185 207.833 192.603 207.852C193.026 207.862 193.372 207.383 193.743 206.868C194.192 206.246 194.7 205.541 195.51 205.474C196.275 205.411 197.07 205.942 197.881 207.052C197.956 207.155 197.934 207.3 197.83 207.375C197.727 207.451 197.582 207.428 197.507 207.325C196.797 206.354 196.138 205.885 195.549 205.935C194.951 205.985 194.527 206.571 194.118 207.139C193.701 207.717 193.271 208.315 192.629 208.315Z" fill="#F8F1E3"/>
<path d="M193.174 144.745C192.755 145.166 192.325 145.573 191.925 146.01C191.719 146.221 191.523 146.442 191.332 146.666L191.037 146.997L190.758 147.34C190.019 148.254 189.35 149.232 188.889 150.295C188.419 151.348 188.203 152.526 188.462 153.633C188.69 154.747 189.392 155.71 190.215 156.529C191.039 157.359 191.982 158.087 192.848 158.923C193.282 159.341 193.688 159.797 194.039 160.298C194.391 160.797 194.663 161.361 194.829 161.955C195.166 163.148 195 164.435 194.519 165.542C194.046 166.66 193.319 167.638 192.5 168.504C192.471 168.535 192.422 168.537 192.391 168.507C192.361 168.479 192.359 168.433 192.386 168.402C193.156 167.508 193.843 166.529 194.263 165.439C194.474 164.896 194.614 164.328 194.66 163.753C194.705 163.18 194.652 162.599 194.486 162.052C194.323 161.504 194.061 160.987 193.721 160.522C193.383 160.054 192.982 159.63 192.559 159.225C191.711 158.414 190.762 157.692 189.904 156.84C189.474 156.416 189.071 155.953 188.736 155.435C188.399 154.92 188.145 154.34 188.011 153.731C187.872 153.123 187.866 152.488 187.963 151.878C188.056 151.266 188.245 150.677 188.498 150.124C188.555 149.982 188.622 149.845 188.694 149.712C188.765 149.578 188.831 149.441 188.906 149.309C189.064 149.051 189.213 148.787 189.392 148.544L189.651 148.174C189.74 148.052 189.836 147.936 189.927 147.816L190.206 147.463L190.501 147.123L190.796 146.785L191.105 146.459C191.311 146.242 191.521 146.029 191.741 145.826C192.167 145.408 192.619 145.019 193.071 144.631C193.103 144.603 193.152 144.606 193.179 144.638C193.206 144.669 193.204 144.715 193.176 144.743L193.174 144.745Z" fill="#25221C"/>
<path d="M194.889 149.809C194.57 150.641 194.383 151.523 194.414 152.403C194.418 152.843 194.513 153.273 194.611 153.697C194.684 153.902 194.738 154.113 194.826 154.312L194.966 154.607C195.012 154.707 195.057 154.805 195.118 154.895C195.555 155.655 196.168 156.297 196.802 156.924C197.437 157.55 198.123 158.152 198.693 158.888C199.258 159.613 199.704 160.52 199.717 161.483C199.756 162.441 199.455 163.362 199.038 164.178C198.181 165.82 196.896 167.144 195.55 168.338C195.519 168.365 195.472 168.362 195.445 168.331C195.419 168.302 195.42 168.258 195.446 168.23C196.067 167.581 196.672 166.918 197.227 166.22C197.784 165.525 198.279 164.781 198.66 163.991C198.857 163.599 199.004 163.188 199.113 162.77C199.226 162.354 199.278 161.925 199.259 161.501C199.233 160.647 198.868 159.846 198.339 159.159C197.813 158.463 197.145 157.864 196.506 157.223C195.863 156.587 195.246 155.889 194.801 155.073C194.353 154.26 194.122 153.326 194.133 152.406C194.144 151.483 194.372 150.575 194.751 149.751C194.768 149.713 194.813 149.697 194.85 149.714C194.886 149.731 194.903 149.772 194.889 149.809Z" fill="#25221C"/>
<path d="M206.376 77.3914H150.309C148.677 77.3914 147.353 76.0674 147.353 74.4346V37.8939C147.353 36.2611 148.677 34.9371 150.309 34.9371H206.376C208.008 34.9371 209.332 36.2611 209.332 37.8939V74.4346C209.332 76.0674 208.008 77.3914 206.376 77.3914Z" fill="#F8F1E3"/>
<path d="M150.309 35.169C148.807 35.169 147.584 36.3915 147.584 37.8937V74.4345C147.584 75.9377 148.807 77.1602 150.309 77.1602H206.375C207.878 77.1602 209.101 75.9377 209.101 74.4345V37.8937C209.101 36.3915 207.878 35.169 206.375 35.169H150.309ZM206.375 77.6233H150.309C148.552 77.6233 147.121 76.1926 147.121 74.4345V37.8937C147.121 36.1356 148.552 34.706 150.309 34.706H206.375C208.133 34.706 209.564 36.1356 209.564 37.8937V74.4345C209.564 76.1926 208.133 77.6233 206.375 77.6233Z" fill="#25221C"/>
<path d="M178.342 72.1802C178.215 72.1802 178.111 72.0766 178.111 71.9481V40.2123C178.111 40.0839 178.215 39.9803 178.342 39.9803C178.471 39.9803 178.574 40.0839 178.574 40.2123V71.9481C178.574 72.0766 178.471 72.1802 178.342 72.1802Z" fill="#25221C"/>
<path d="M202.368 59.7004H153.788C153.66 59.7004 153.557 59.5968 153.557 59.4684C153.557 59.3409 153.66 59.2374 153.788 59.2374H202.368C202.496 59.2374 202.6 59.3409 202.6 59.4684C202.6 59.5968 202.496 59.7004 202.368 59.7004Z" fill="#25221C"/>
<path d="M201.446 60.2537L202.232 59.4684L201.446 58.6841H202.112L202.898 59.4684L202.112 60.2537H201.446Z" fill="#25221C"/>
<path d="M178.452 70.0449C172.898 70.0449 168.379 65.5259 168.379 59.9709V54.134C168.379 48.8349 164.067 44.5241 158.768 44.5241H153.788C153.66 44.5241 153.557 44.4205 153.557 44.292C153.557 44.1646 153.66 44.061 153.788 44.061H158.768C164.322 44.061 168.841 48.58 168.841 54.134V59.9709C168.841 65.27 173.153 69.5818 178.452 69.5818C183.751 69.5818 188.063 65.27 188.063 59.9709V54.134C188.063 48.58 192.582 44.061 198.136 44.061H201.054C201.182 44.061 201.285 44.1646 201.285 44.292C201.285 44.4205 201.182 44.5241 201.054 44.5241H198.136C192.837 44.5241 188.526 48.8349 188.526 54.134V59.9709C188.526 65.5259 184.007 70.0449 178.452 70.0449Z" fill="#25221C"/>
<path d="M120.246 101.144C117.95 101.856 116.78 98.5692 112.533 98.0585C108.396 97.5602 107.42 100.428 102.969 100.526C97.8958 100.637 92.2002 97.065 91.8627 93.4307C91.5686 90.2647 95.4699 88.4527 94.6157 86.302C93.8283 84.3191 90.3798 85.5218 86.9165 82.9536C83.9437 80.75 81.8865 76.4548 82.9161 73.3779C83.699 71.0375 85.6358 71.2882 86.6181 68.5957C87.6596 65.7415 85.8795 64.5522 86.7022 61.641C87.5495 58.6418 90.6304 55.7555 93.6094 55.7255C96.4969 55.6964 96.9695 58.3755 100.192 58.5693C103.885 58.792 105.376 55.4032 107.596 56.2559C109.991 57.1748 108.984 61.3965 112.163 63.1992C113.488 63.9503 113.863 63.3566 116.543 64.1222C117.909 64.5128 120.533 65.2618 122.142 66.9847C125.229 70.2864 122.361 74.7744 125.027 76.9251C127.014 78.5278 129.182 76.5024 132.122 78.3133C133.939 79.4333 135.834 81.8834 135.427 84.0248C134.787 87.3949 129.137 86.3703 125.181 91.1173C121.557 95.4664 123.002 100.286 120.246 101.144Z" fill="#25221C"/>
<path d="M81.8254 138.152C81.8178 138.152 81.8102 138.152 81.8024 138.151C81.6754 138.138 81.5823 138.025 81.5949 137.898L82.2586 131.151C82.2712 131.024 82.3822 130.934 82.5115 130.943C82.6387 130.956 82.7317 131.07 82.7191 131.197L82.0554 137.943C82.0437 138.063 81.943 138.152 81.8254 138.152Z" fill="#25221C"/>
<path d="M200.06 76.7542C199.028 75.7762 197.822 75.7462 196.41 75.9212L195.912 75.6094C194.822 74.9277 193.502 74.7164 192.252 75.023L182.413 77.44C182.001 77.5405 181.627 77.1738 181.72 76.7604C181.909 75.9347 182.19 74.6956 182.407 73.7177C182.63 72.7158 182.234 72.1264 181.901 71.8228C181.711 71.6498 181.416 71.6684 181.247 71.8622C180.158 73.1106 176.136 77.8886 176.264 80.2507C176.411 82.9826 178.285 90.937 178.285 90.937H186.646L185.008 85.5798C184.893 85.2048 185.094 84.806 185.463 84.6744L197.403 80.4516C197.619 80.376 197.689 80.1087 197.541 79.9357C197.276 79.6249 196.856 79.1805 196.399 78.8728L199.794 77.5312C200.103 77.4089 200.229 77.0391 200.06 76.7542Z" fill="#F8F1E3"/>
<path d="M178.469 90.7049H186.334L184.787 85.6482C184.635 85.1519 184.898 84.6298 185.387 84.4568L197.327 80.234C197.367 80.2195 197.381 80.1884 197.385 80.1708C197.391 80.1532 197.394 80.119 197.366 80.0859C197.106 79.7813 196.704 79.3565 196.271 79.0644C196.199 79.0167 196.161 78.9328 196.17 78.8468C196.179 78.7619 196.235 78.6883 196.315 78.6572L199.71 77.3156C199.794 77.2825 199.859 77.2141 199.888 77.1291C199.914 77.0525 199.909 76.9696 199.875 76.8971C198.949 76.0372 197.872 75.973 196.438 76.1501C196.387 76.1563 196.333 76.1449 196.288 76.117L195.79 75.8062C194.759 75.1618 193.49 74.9577 192.309 75.2478L182.469 77.6647C182.198 77.7321 181.915 77.6544 181.715 77.4575C181.516 77.2617 181.434 76.982 181.496 76.7096C181.684 75.8839 181.965 74.6448 182.182 73.6668C182.378 72.7904 182.053 72.2734 181.746 71.9937C181.701 71.9533 181.642 71.9315 181.581 71.9357C181.52 71.9398 181.463 71.9678 181.422 72.0144C178.977 74.8168 176.399 78.448 176.495 80.2382C176.627 82.6925 178.192 89.5124 178.469 90.7049ZM186.647 91.168H178.286C178.178 91.168 178.085 91.0944 178.06 90.9898C177.983 90.6634 176.18 82.9836 176.033 80.263C175.903 77.8357 179.858 73.1032 181.074 71.7098C181.197 71.5689 181.368 71.485 181.555 71.4736C181.739 71.4601 181.919 71.5264 182.058 71.6518C182.383 71.9471 182.891 72.6163 182.634 73.7673C182.416 74.7463 182.135 75.9864 181.947 76.8121C181.921 76.9282 181.954 77.0432 182.039 77.1281C182.125 77.212 182.242 77.2441 182.359 77.2151L192.198 74.7992C193.499 74.479 194.899 74.7028 196.035 75.4135L196.464 75.6808C197.962 75.5036 199.178 75.599 200.22 76.5863C200.235 76.6008 200.249 76.6174 200.259 76.636C200.375 76.8297 200.399 77.0639 200.327 77.2783C200.253 77.4928 200.09 77.6627 199.88 77.7456L196.868 78.9359C197.207 79.2167 197.507 79.5378 197.718 79.7844C197.837 79.9243 197.88 80.1138 197.833 80.29C197.785 80.4671 197.654 80.609 197.482 80.6702L185.542 84.8929C185.287 84.9831 185.15 85.2545 185.229 85.5124L186.869 90.8686C186.891 90.939 186.877 91.0146 186.834 91.0737C186.79 91.1327 186.721 91.168 186.647 91.168Z" fill="#25221C"/>
<path d="M186.188 81.5942C186.084 81.5942 185.99 81.5248 185.964 81.4192C185.933 81.2959 186.008 81.1695 186.132 81.1384L194.616 79.0146C194.74 78.9835 194.865 79.0591 194.896 79.1824C194.928 79.3067 194.852 79.4321 194.728 79.4632L186.244 81.587C186.225 81.5922 186.207 81.5942 186.188 81.5942Z" fill="#25221C"/>
<path d="M185.324 79.1089C185.22 79.1089 185.126 79.0395 185.1 78.9338C185.069 78.8095 185.143 78.6841 185.268 78.653L193.751 76.5292C193.876 76.4982 194.001 76.5738 194.032 76.6971C194.063 76.8214 193.988 76.9468 193.864 76.9778L185.381 79.1027C185.361 79.1068 185.342 79.1089 185.324 79.1089Z" fill="#25221C"/>
<path d="M73.5053 113.784C75.8812 113.927 79.8623 114.124 82.2838 114.24C83.4052 114.294 84.2471 115.282 84.1236 116.399L82.4886 131.174C82.4886 131.174 86.2249 129.494 90.3165 124.62C94.4081 119.746 98.0938 109.728 107.155 109.374C112.922 109.148 127.387 110.071 137.147 110.772C142.161 111.132 147.024 112.669 151.304 115.304C154.414 117.217 159.033 118.927 164.873 117.865C175.595 115.914 180.44 106.736 175.976 91.9118C175.566 90.5536 176.578 89.1851 177.995 89.1851H187.09C188.077 89.1851 188.944 89.8357 189.223 90.7836C191.295 97.8512 198.219 126.329 178.285 135.295C166.52 140.586 154.155 139.977 154.155 139.977L159.039 184.599C159.561 189.367 157.217 193.997 153.055 196.384C148.687 198.888 141.86 201.188 131.703 200.851C123.224 200.571 116.634 199.068 111.769 197.359C105.112 195.021 100.316 189.174 99.2951 182.192C98.1958 174.675 96.9244 163.016 96.7151 148.376C96.7151 148.376 89.8249 155.923 76.7141 153.479C60.5226 150.461 68.361 123.146 70.8685 115.57C71.2407 114.445 72.3224 113.713 73.5053 113.784Z" fill="#F8F1E3"/>
<path d="M96.7158 148.145C96.7434 148.145 96.7713 148.149 96.798 148.16C96.8867 148.194 96.9459 148.278 96.9473 148.373C97.1587 163.176 98.4655 174.916 99.5246 182.159C100.538 189.087 105.259 194.827 111.846 197.142C117.728 199.208 124.411 200.378 131.712 200.621C140.173 200.899 147.317 199.407 152.941 196.183C157.018 193.845 159.323 189.307 158.81 184.624L153.926 140.002C153.919 139.935 153.942 139.867 153.988 139.819C154.035 139.769 154.1 139.743 154.167 139.746C154.291 139.752 166.615 140.291 178.19 135.084C186.582 131.31 191.153 123.65 191.775 112.315C192.278 103.191 190.003 94.2637 189.001 90.8491C188.754 90.0058 187.968 89.4163 187.09 89.4163H177.995C177.396 89.4163 176.847 89.6929 176.489 90.1736C176.13 90.6574 176.023 91.2666 176.197 91.8457C178.626 99.9089 178.388 106.658 175.51 111.362C173.346 114.898 169.683 117.226 164.915 118.093C158.842 119.197 154.096 117.293 151.184 115.501C146.985 112.917 142.126 111.362 137.131 111.003C126.565 110.244 112.79 109.385 107.165 109.605C100.43 109.869 96.7545 115.508 93.5118 120.484C92.4772 122.072 91.4998 123.571 90.4943 124.769C86.4155 129.628 82.7386 131.315 82.5841 131.385C82.5086 131.419 82.4202 131.411 82.353 131.361C82.2858 131.312 82.2501 131.231 82.2592 131.148L83.8942 116.373C83.9468 115.896 83.8048 115.434 83.4941 115.07C83.1841 114.707 82.7506 114.494 82.2733 114.471C80.0295 114.363 75.9051 114.161 73.4919 114.015C72.4099 113.947 71.4271 114.62 71.0887 115.643C69.3213 120.983 63.9705 139.112 69.3231 148.176C70.9482 150.928 73.4494 152.636 76.7571 153.253C89.5924 155.646 96.477 148.294 96.5449 148.22C96.5897 148.171 96.6521 148.145 96.7158 148.145ZM133.696 201.116C133.037 201.116 132.371 201.105 131.697 201.083C124.349 200.839 117.619 199.66 111.692 197.578C104.943 195.206 100.105 189.324 99.0668 182.226C98.0185 175.057 96.728 163.491 96.4926 148.916C94.8394 150.431 88.0236 155.823 76.6725 153.707C73.2275 153.065 70.6208 151.283 68.9246 148.411C63.4727 139.179 68.8664 120.885 70.6495 115.498C71.0538 114.275 72.2391 113.474 73.5197 113.553C75.9305 113.699 80.0528 113.901 82.2954 114.009C82.9017 114.038 83.4524 114.308 83.8462 114.769C84.2405 115.232 84.421 115.82 84.3543 116.424L82.7663 130.773C83.8049 130.215 86.8723 128.364 90.1398 124.471C91.1274 123.296 92.0974 121.807 93.124 120.231C96.2645 115.413 100.173 109.415 107.148 109.143C112.791 108.922 126.586 109.782 137.165 110.541C142.233 110.905 147.164 112.484 151.426 115.107C154.27 116.857 158.903 118.715 164.832 117.637C169.466 116.795 173.022 114.54 175.115 111.12C177.923 106.532 178.144 99.913 175.755 91.9783C175.537 91.2583 175.67 90.4999 176.118 89.898C176.564 89.2982 177.248 88.9532 177.995 88.9532H187.09C188.172 88.9532 189.141 89.6794 189.445 90.7185C190.453 94.156 192.744 103.144 192.237 112.34C191.604 123.861 186.941 131.655 178.38 135.507C167.656 140.329 156.298 140.265 154.415 140.218L159.271 184.573C159.803 189.44 157.409 194.155 153.171 196.584C147.921 199.595 141.378 201.116 133.696 201.116Z" fill="#25221C"/>
<path d="M82.1785 104.453L81.1157 103.275V95.344C81.1157 94.5722 80.4901 93.9465 79.7183 93.9465C78.9466 93.9465 78.3208 94.5722 78.3208 95.344V103.883L70.8838 105.502V109.862C70.8838 111.76 71.9869 113.486 73.7102 114.284L74.0802 114.455C76.3109 115.488 78.9166 115.295 80.9711 113.946C81.9627 113.295 82.6188 112.241 82.7659 111.064L83.1904 107.667C83.3364 106.5 82.9671 105.326 82.1785 104.453Z" fill="#F8F1E3"/>
<path d="M71.115 105.689V109.862C71.115 111.663 72.1719 113.318 73.8073 114.074L74.1772 114.246C76.3502 115.252 78.8425 115.067 80.844 113.753C81.7804 113.137 82.3972 112.147 82.5363 111.035L82.9609 107.638C83.0985 106.537 82.7507 105.432 82.0066 104.607L80.9439 103.43C80.9054 103.388 80.8842 103.332 80.8842 103.275V95.3441C80.8842 94.7007 80.3611 94.1776 79.7181 94.1776C79.0751 94.1776 78.5521 94.7007 78.5521 95.3441V103.883C78.5521 103.992 78.4763 104.086 78.3699 104.11L71.115 105.689ZM77.074 115.351C76.0264 115.351 74.9736 115.124 73.9829 114.665L73.6129 114.495C71.8144 113.662 70.6523 111.843 70.6523 109.862V105.502C70.6523 105.393 70.7281 105.299 70.8345 105.275L78.0894 103.696V95.3441C78.0894 94.4459 78.82 93.7145 79.7181 93.7145C80.6163 93.7145 81.347 94.4459 81.347 95.3441V103.186L82.35 104.297C83.1844 105.221 83.5745 106.46 83.42 107.696L82.9954 111.092C82.8396 112.339 82.1479 113.449 81.0979 114.139C79.8744 114.943 78.4788 115.351 77.074 115.351Z" fill="#25221C"/>
<path d="M77.169 106.128H76.2592C75.6857 106.128 75.2207 105.664 75.2207 105.09V101.903C75.2207 101.329 75.6857 100.864 76.2592 100.864H76.8919C77.6184 100.864 78.2075 101.454 78.2075 102.18V105.09C78.2075 105.664 77.7425 106.128 77.169 106.128Z" fill="#F8F1E3"/>
<path d="M76.2592 101.096C75.8141 101.096 75.452 101.458 75.452 101.903V105.09C75.452 105.535 75.8141 105.897 76.2592 105.897H77.169C77.6141 105.897 77.9761 105.535 77.9761 105.09V102.18C77.9761 101.582 77.4897 101.096 76.8919 101.096H76.2592ZM77.169 106.36H76.2592C75.559 106.36 74.9893 105.79 74.9893 105.09V101.903C74.9893 101.203 75.559 100.633 76.2592 100.633H76.8919C77.7449 100.633 78.4389 101.327 78.4389 102.18V105.09C78.4389 105.79 77.8692 106.36 77.169 106.36Z" fill="#25221C"/>
<path d="M74.1825 106.783H73.9994C73.4259 106.783 72.9609 106.318 72.9609 105.745V102.638C72.9609 102.065 73.4259 101.6 73.9994 101.6H74.1825C74.7559 101.6 75.2209 102.065 75.2209 102.638V105.745C75.2209 106.318 74.7559 106.783 74.1825 106.783Z" fill="#F8F1E3"/>
<path d="M73.9992 101.831C73.5543 101.831 73.1923 102.193 73.1923 102.638V105.745C73.1923 106.189 73.5543 106.552 73.9992 106.552H74.1824C74.6274 106.552 74.9893 106.189 74.9893 105.745V102.638C74.9893 102.193 74.6274 101.831 74.1824 101.831H73.9992ZM74.1824 107.015H73.9992C73.2991 107.015 72.7295 106.445 72.7295 105.745V102.638C72.7295 101.938 73.2991 101.368 73.9992 101.368H74.1824C74.8825 101.368 75.4521 101.938 75.4521 102.638V105.745C75.4521 106.445 74.8825 107.015 74.1824 107.015Z" fill="#25221C"/>
<path d="M71.9223 107.601C71.3487 107.601 70.8838 107.136 70.8838 106.563V103.489C70.8838 102.915 71.3487 102.45 71.9223 102.45C72.4958 102.45 72.9608 102.915 72.9608 103.489V106.563C72.9608 107.136 72.4958 107.601 71.9223 107.601Z" fill="#F8F1E3"/>
<path d="M71.9222 102.682C71.4771 102.682 71.115 103.044 71.115 103.489V106.563C71.115 107.007 71.4771 107.37 71.9222 107.37C72.3672 107.37 72.7293 107.007 72.7293 106.563V103.489C72.7293 103.044 72.3672 102.682 71.9222 102.682ZM71.9222 107.832C71.2219 107.832 70.6523 107.262 70.6523 106.563V103.489C70.6523 102.789 71.2219 102.219 71.9222 102.219C72.6224 102.219 73.1921 102.789 73.1921 103.489V106.563C73.1921 107.262 72.6224 107.832 71.9222 107.832Z" fill="#25221C"/>
<path d="M81.8254 106.36C81.7787 106.36 81.7314 106.345 81.6905 106.316L78.5142 104.03C78.4105 103.956 78.3869 103.811 78.4616 103.708C78.5364 103.604 78.6808 103.58 78.7845 103.655L81.9608 105.94C82.0645 106.015 82.0881 106.16 82.0134 106.264C81.9682 106.326 81.8974 106.36 81.8254 106.36Z" fill="#25221C"/>
<path d="M76.1811 111.733C76.058 111.733 75.9557 111.635 75.9501 111.512C75.8346 108.918 77.4909 107.859 78.235 107.516L77.0057 106.293C76.9152 106.203 76.9148 106.055 77.005 105.965C77.0951 105.874 77.2415 105.874 77.3322 105.964L78.8117 107.437C78.8702 107.495 78.8932 107.58 78.8723 107.659C78.8515 107.739 78.7899 107.802 78.7104 107.824C78.6117 107.852 76.2813 108.546 76.4124 111.491C76.418 111.619 76.3192 111.726 76.1916 111.733C76.1881 111.733 76.1845 111.733 76.1811 111.733Z" fill="#25221C"/>
<path d="M110.479 206.646C110.479 206.646 107.625 170.583 115.863 159.078L142.719 157.95C142.719 157.95 152.468 170.245 151.413 206.411L110.479 206.646Z" fill="#25221C"/>
<path d="M108.595 109.313L105.141 158.072C104.984 160.276 106.52 162.242 108.696 162.617C115.607 163.808 130.905 165.639 146.407 162.125C148.157 161.728 149.277 160.019 148.916 158.262L139.222 110.99C139.222 110.99 121.741 108.519 108.595 109.313Z" fill="#F8F1E3"/>
<path d="M108.811 109.531L105.37 158.088C105.222 160.184 106.668 162.032 108.734 162.389C116.26 163.686 131.152 165.346 146.355 161.899C148.001 161.526 149.025 159.948 148.688 158.308L139.028 111.197C137.24 110.954 121.089 108.825 108.811 109.531ZM126.981 164.411C119.388 164.411 112.872 163.571 108.656 162.845C106.354 162.448 104.743 160.389 104.909 158.056L108.363 109.296C108.371 109.18 108.465 109.088 108.581 109.081C121.598 108.294 139.079 110.736 139.254 110.761C139.351 110.774 139.429 110.848 139.448 110.943L149.142 158.215C149.53 160.104 148.351 161.921 146.458 162.351C139.699 163.883 133.001 164.411 126.981 164.411Z" fill="#25221C"/>
<path d="M118.432 157.045C118.334 157.045 118.242 156.982 118.212 156.883C118.173 156.76 118.242 156.631 118.364 156.593C131.87 152.417 138.278 136.922 138.341 136.765C138.389 136.647 138.525 136.59 138.643 136.638C138.761 136.686 138.818 136.821 138.77 136.94C138.706 137.097 132.214 152.795 118.501 157.035C118.478 157.042 118.455 157.045 118.432 157.045Z" fill="#25221C"/>
<path d="M131.171 92.5231C130.373 91.5628 129.832 90.4118 129.602 89.1831C129.193 86.9961 128.747 85.0588 128.747 85.0588C125.48 87.7679 121.797 85.9041 121.797 85.9041C118.72 88.2952 119.277 91.6612 119.277 91.6612C119.277 91.6612 116.415 91.3483 116.616 93.1945C116.815 95.0282 119.573 95.4871 119.615 95.4944L116.255 109.061C116.045 109.91 116.574 110.77 117.429 110.957C122.602 112.086 125.844 111.662 127.483 111.225C127.962 111.097 128.108 110.505 127.755 110.157C125.951 108.375 125.646 103.283 125.653 99.9388C127.322 100.312 128.862 99.9792 129.627 98.4449C130.173 97.3478 130.318 96.1937 130.254 94.4605C130.242 94.1559 131.37 92.8754 131.171 92.5231Z" fill="#F8F1E3"/>
<path d="M118.817 91.8726C118.315 91.8726 117.506 91.943 117.092 92.3574C116.889 92.5605 116.808 92.8267 116.845 93.1697C117.024 94.8221 119.626 95.2613 119.652 95.2655C119.716 95.2758 119.772 95.3131 119.808 95.366C119.843 95.4209 119.855 95.4872 119.839 95.5494L116.479 109.117C116.392 109.468 116.449 109.832 116.641 110.139C116.832 110.444 117.128 110.654 117.478 110.731C122.721 111.876 125.96 111.392 127.423 111.001C127.565 110.964 127.667 110.861 127.704 110.723C127.743 110.579 127.7 110.428 127.591 110.322C125.784 108.536 125.413 103.689 125.421 99.9389C125.421 99.8684 125.453 99.8021 125.508 99.7586C125.563 99.7151 125.634 99.6985 125.703 99.7141C126.948 99.9907 128.604 99.9783 129.419 98.3414C129.919 97.3365 130.088 96.2507 130.022 94.4688C130.015 94.2792 130.165 94.0389 130.452 93.5955C130.632 93.3168 130.964 92.806 130.964 92.6361C130.158 91.654 129.608 90.4761 129.374 89.2266C129.072 87.6157 128.749 86.1259 128.602 85.467C125.69 87.6343 122.52 86.4699 121.829 86.1725C119.017 88.4476 119.499 91.5918 119.504 91.6239C119.516 91.6954 119.494 91.768 119.444 91.8198C119.395 91.8726 119.323 91.8995 119.251 91.8912C119.245 91.8912 119.07 91.8726 118.817 91.8726ZM123.539 111.915C121.885 111.915 119.847 111.722 117.379 111.183C116.906 111.08 116.504 110.796 116.248 110.384C115.99 109.968 115.913 109.479 116.03 109.006L119.331 95.6737C118.611 95.51 116.567 94.9008 116.385 93.2204C116.332 92.7345 116.461 92.3346 116.765 92.029C117.363 91.4323 118.489 91.395 119.017 91.4126C118.951 90.5258 118.995 87.7887 121.654 85.7208C121.724 85.6659 121.82 85.6566 121.9 85.698C121.936 85.7156 125.49 87.4582 128.6 84.8806C128.661 84.8288 128.745 84.8143 128.821 84.8392C128.897 84.8651 128.955 84.9283 128.972 85.007C128.977 85.0267 129.423 86.9734 129.829 89.1407C130.051 90.329 130.576 91.4468 131.349 92.375C131.358 92.3854 131.366 92.3968 131.373 92.4092C131.546 92.7169 131.287 93.1572 130.84 93.8472C130.696 94.0699 130.5 94.3735 130.484 94.4647C130.553 96.3181 130.371 97.466 129.832 98.5475C129.128 99.9627 127.732 100.552 125.884 100.222C125.895 103.259 126.188 108.285 127.917 109.992C128.145 110.217 128.233 110.535 128.152 110.841C128.072 111.141 127.844 111.368 127.543 111.449C126.599 111.701 125.282 111.915 123.539 111.915Z" fill="#25221C"/>
<path d="M125.653 100.171C125.638 100.171 125.624 100.17 125.611 100.167C124.289 99.9223 122.476 98.6925 122.399 98.6407C122.293 98.5682 122.266 98.4242 122.338 98.3185C122.41 98.2139 122.554 98.1859 122.66 98.2584C122.678 98.2709 124.469 99.4851 125.694 99.712C125.82 99.7347 125.903 99.856 125.88 99.9813C125.859 100.093 125.762 100.171 125.653 100.171Z" fill="#25221C"/>
<path d="M66.0734 107.232H48.7846C47.0273 107.232 45.5977 105.803 45.5977 104.045V67.457C45.5977 65.7 47.0273 64.2703 48.7846 64.2703H59.8452C59.9731 64.2703 60.0767 64.3739 60.0767 64.5013C60.0767 64.6298 59.9731 64.7334 59.8452 64.7334H48.7846C47.2825 64.7334 46.0604 65.9548 46.0604 67.457V104.045C46.0604 105.548 47.2825 106.769 48.7846 106.769H66.0734C66.2012 106.769 66.3048 106.873 66.3048 107.001C66.3048 107.129 66.2012 107.232 66.0734 107.232Z" fill="#25221C"/>
<path d="M104.853 107.232H86.9413C86.8136 107.232 86.71 107.129 86.71 107.001C86.71 106.873 86.8136 106.769 86.9413 106.769H104.853C106.355 106.769 107.578 105.548 107.578 104.045V98.449C107.578 98.3215 107.681 98.2179 107.809 98.2179C107.937 98.2179 108.041 98.3215 108.041 98.449V104.045C108.041 105.803 106.61 107.232 104.853 107.232Z" fill="#25221C"/>
<path d="M107.809 98.6812C107.681 98.6812 107.578 98.5775 107.578 98.4491V67.4572C107.578 65.955 106.355 64.7335 104.853 64.7335H86.9413C86.8136 64.7335 86.71 64.6299 86.71 64.5014C86.71 64.374 86.8136 64.2704 86.9413 64.2704H104.853C106.61 64.2704 108.041 65.7001 108.041 67.4572V98.4491C108.041 98.5775 107.937 98.6812 107.809 98.6812Z" fill="#F8F1E3"/>
<path d="M86.9408 64.7334H67.2988C67.171 64.7334 67.0674 64.6298 67.0674 64.5013C67.0674 64.3739 67.171 64.2703 67.2988 64.2703H86.9408C87.0686 64.2703 87.1722 64.3739 87.1722 64.5013C87.1722 64.6298 87.0686 64.7334 86.9408 64.7334Z" fill="#25221C"/>
<path d="M95.4186 101.422H88.0897C87.962 101.422 87.8584 101.319 87.8584 101.19C87.8584 101.063 87.962 100.959 88.0897 100.959H95.4186C95.5465 100.959 95.65 101.063 95.65 101.19C95.65 101.319 95.5465 101.422 95.4186 101.422Z" fill="#25221C"/>
<path d="M69.8699 101.422H55.0303C54.9024 101.422 54.7988 101.319 54.7988 101.19C54.7988 101.063 54.9024 100.959 55.0303 100.959H69.8699C69.9978 100.959 70.1014 101.063 70.1014 101.19C70.1014 101.319 69.9978 101.422 69.8699 101.422Z" fill="#25221C"/>
<path d="M56.6522 94.0647H78.4186L56.6522 71.6105V94.0647ZM78.9652 94.5278H56.4209C56.2932 94.5278 56.1895 94.4242 56.1895 94.2958V71.0396C56.1895 70.9454 56.2466 70.8604 56.334 70.8252C56.4213 70.79 56.5213 70.8107 56.587 70.8791L79.1314 94.1352C79.196 94.2025 79.2146 94.301 79.1783 94.3869C79.1419 94.4719 79.0581 94.5278 78.9652 94.5278Z" fill="#25221C"/>
<path d="M58.5477 94.2956C58.5477 95.4715 57.5952 96.4236 56.4204 96.4236C55.2455 96.4236 54.293 95.4715 54.293 94.2956C54.293 93.1208 55.2455 92.1687 56.4204 92.1687C57.5952 92.1687 58.5477 93.1208 58.5477 94.2956Z" fill="#25221C"/>
<path d="M81.0926 94.2956C81.0926 95.4715 80.1401 96.4236 78.9652 96.4236C77.7903 96.4236 76.8379 95.4715 76.8379 94.2956C76.8379 93.1208 77.7903 92.1687 78.9652 92.1687C80.1401 92.1687 81.0926 93.1208 81.0926 94.2956Z" fill="#25221C"/>
<path d="M58.5477 71.0395C58.5477 72.2144 57.5952 73.1675 56.4204 73.1675C55.2455 73.1675 54.293 72.2144 54.293 71.0395C54.293 69.8647 55.2455 68.9126 56.4204 68.9126C57.5952 68.9126 58.5477 69.8647 58.5477 71.0395Z" fill="#25221C"/>
<path d="M62.3259 158.01C59.4774 158.01 57.16 160.327 57.16 163.175V198.599C57.16 201.448 59.4774 203.766 62.3259 203.766H87.6697C90.5182 203.766 92.8355 201.448 92.8355 198.599V163.175C92.8355 160.327 90.5182 158.01 87.6697 158.01H62.3259ZM87.6697 204.228H62.3259C59.2222 204.228 56.6973 201.703 56.6973 198.599V163.175C56.6973 160.072 59.2222 157.547 62.3259 157.547H87.6697C90.7734 157.547 93.2983 160.072 93.2983 163.175V198.599C93.2983 201.703 90.7734 204.228 87.6697 204.228Z" fill="#25221C"/>
<path d="M69.0967 196.856H61.2246V170.986H69.0967V196.856Z" fill="#25221C"/>
<path d="M78.9337 196.856H71.0615V163.847H78.9337V196.856Z" fill="#25221C"/>
<path d="M88.7705 196.856H80.8984V181.434H88.7705V196.856Z" fill="#25221C"/>
<path d="M189.566 137.66C189.507 137.66 189.448 137.637 189.403 137.592C189.312 137.501 189.312 137.355 189.403 137.265L209.022 117.645C209.112 117.555 209.259 117.555 209.35 117.645C209.44 117.735 209.44 117.882 209.35 117.973L189.73 137.592C189.684 137.637 189.625 137.66 189.566 137.66Z" fill="#25221C"/>
<path d="M168.599 158.626C168.539 158.626 168.48 158.603 168.436 158.559C168.344 158.469 168.344 158.321 168.436 158.231L181.147 145.52C181.237 145.428 181.385 145.428 181.475 145.52C181.565 145.61 181.565 145.756 181.475 145.847L168.763 158.559C168.717 158.603 168.658 158.626 168.599 158.626Z" fill="#25221C"/>
<path d="M201.021 116.028C200.962 116.028 200.903 116.005 200.858 115.959C200.768 115.869 200.768 115.723 200.858 115.633L209.186 107.305C210.751 105.738 210.751 103.191 209.186 101.625C208.34 100.779 207.874 99.6539 207.874 98.4583C207.874 97.2617 208.34 96.1366 209.186 95.2913L220.625 83.8528C220.715 83.7627 220.861 83.7627 220.952 83.8528C221.042 83.9429 221.042 84.09 220.952 84.1802L209.513 95.6186C208.755 96.377 208.337 97.385 208.337 98.4583C208.337 99.5306 208.755 100.54 209.513 101.298C211.259 103.044 211.259 105.885 209.513 107.631L201.185 115.959C201.139 116.005 201.08 116.028 201.021 116.028Z" fill="#25221C"/>
<path d="M148.748 104.516C148.689 104.516 148.63 104.493 148.584 104.447C148.494 104.357 148.494 104.211 148.584 104.12L168.287 84.4175C168.378 84.3273 168.524 84.3273 168.614 84.4175C168.704 84.5076 168.704 84.6547 168.614 84.7448L148.912 104.447C148.866 104.493 148.807 104.516 148.748 104.516Z" fill="#25221C"/>
<path d="M117.672 57.3633C117.613 57.3633 117.554 57.3405 117.508 57.2959C117.418 57.2048 117.418 57.0587 117.508 56.9686L133.47 41.008C133.56 40.9178 133.706 40.9178 133.796 41.008C133.887 41.0981 133.887 41.2442 133.796 41.3343L117.835 57.2959C117.791 57.3405 117.731 57.3633 117.672 57.3633Z" fill="#25221C"/>
<path d="M196.882 122.416C195.536 122.416 194.442 121.324 194.442 119.98C194.442 118.636 195.536 117.544 196.882 117.544C197.01 117.544 197.113 117.648 197.113 117.776C197.113 117.903 197.01 118.007 196.882 118.007C195.792 118.007 194.905 118.892 194.905 119.98C194.905 121.068 195.792 121.954 196.882 121.954C197.972 121.954 198.859 121.068 198.859 119.98C198.859 119.853 198.962 119.749 199.09 119.749C199.217 119.749 199.321 119.853 199.321 119.98C199.321 121.324 198.227 122.416 196.882 122.416Z" fill="#25221C"/>
<path d="M165.295 100.57C165.235 100.57 165.176 100.547 165.131 100.501L164.123 99.4924C164.032 99.4012 164.032 99.2551 164.123 99.165C164.213 99.0749 164.359 99.0749 164.45 99.165L165.458 100.174C165.549 100.265 165.549 100.411 165.457 100.501C165.413 100.547 165.354 100.57 165.295 100.57Z" fill="#25221C"/>
<path d="M168.822 104.101C168.763 104.101 168.704 104.08 168.659 104.034L167.651 103.025C167.56 102.934 167.56 102.788 167.651 102.698C167.742 102.607 167.888 102.607 167.978 102.698L168.986 103.707C169.076 103.798 169.076 103.944 168.986 104.034C168.94 104.08 168.881 104.101 168.822 104.101Z" fill="#25221C"/>
<path d="M164.287 104.101C164.227 104.101 164.168 104.08 164.123 104.034C164.032 103.944 164.032 103.798 164.123 103.707L165.131 102.698C165.221 102.606 165.367 102.607 165.457 102.698C165.549 102.788 165.549 102.934 165.458 103.025L164.45 104.034C164.405 104.08 164.346 104.101 164.287 104.101Z" fill="#25221C"/>
<path d="M167.814 100.57C167.755 100.57 167.696 100.547 167.651 100.501C167.56 100.411 167.56 100.265 167.651 100.174L168.659 99.165C168.749 99.0749 168.896 99.0749 168.986 99.165C169.076 99.2551 169.076 99.4012 168.986 99.4924L167.978 100.501C167.933 100.547 167.874 100.57 167.814 100.57Z" fill="#25221C"/>
<path d="M129.607 50.6479C129.548 50.6479 129.489 50.6251 129.444 50.5796C129.353 50.4894 129.353 50.3433 129.444 50.2532L141.432 38.2646C141.522 38.1735 141.669 38.1735 141.76 38.2646C141.85 38.3548 141.85 38.5008 141.76 38.592L129.771 50.5796C129.725 50.6251 129.666 50.6479 129.607 50.6479Z" fill="#25221C"/>
</svg>
