<svg width="127" height="35" viewBox="0 0 127 35" fill="none" xmlns="http://www.w3.org/2000/svg">
<path d="M46.3849 25.6865H49.2803L48.8007 23.4426V10.0653H46.031V16.1667C45.1979 15.2023 44.052 14.6366 42.6989 14.6366C39.9289 14.6366 37.7843 16.9215 37.7843 20.2768C37.7843 23.6317 39.9289 25.9171 42.6989 25.9171C44.0735 25.9171 45.2601 25.3299 46.0937 24.323L46.3849 25.686V25.6865ZM101.135 17.6352C101.697 17.6352 102.218 17.7814 102.696 18.1165L104.009 15.1608C103.404 14.7827 102.696 14.6155 102.01 14.6155C100.76 14.6155 99.7188 15.18 99.053 16.2302L98.7608 14.8658H95.9075L96.3657 16.9837V25.6847H99.134V18.7873C99.5089 18.0741 100.217 17.6343 101.134 17.6343V17.6352H101.135ZM109.256 23.0024C107.654 23.0024 106.466 21.9335 106.466 20.2764C106.466 18.5992 107.654 17.5512 109.256 17.5512C110.881 17.5512 112.047 18.5992 112.047 20.2764C112.047 21.9335 110.881 23.0024 109.256 23.0024H109.256ZM40.4703 20.2764C40.4703 18.5992 41.6573 17.5512 43.2605 17.5512C44.8856 17.5512 46.0516 18.5992 46.0516 20.2764C46.0516 21.9335 44.8856 23.0024 43.2614 23.0024C41.6582 23.0024 40.4703 21.9335 40.4703 20.2764ZM121.523 23.0024C119.92 23.0024 118.733 21.9335 118.733 20.2764C118.733 18.5992 119.92 17.5512 121.523 17.5512C123.147 17.5512 124.313 18.5992 124.313 20.2764C124.313 21.9335 123.147 23.0024 121.523 23.0024ZM56.0062 17.3832C57.443 17.3832 58.3803 18.054 58.6716 19.291H53.3408C53.6531 18.054 54.5901 17.3832 56.0058 17.3832H56.0062ZM89.1386 17.3832C90.5762 17.3832 91.5136 18.054 91.8049 19.291H86.4741C86.7864 18.054 87.7234 17.3832 89.1391 17.3832H89.1386ZM75.6242 25.6865H80.0807L82.976 14.8672H79.9563L77.8327 23.6317L75.7083 14.8672H72.7297L75.625 25.686L75.6242 25.6865ZM68.4808 25.6865H71.2491V14.8667H68.4808V25.6865ZM56.4307 25.8869C57.9725 25.8869 59.4925 25.4668 60.7628 24.6494L59.701 22.2594C58.701 22.7837 57.5976 23.0983 56.4727 23.0983C55.0154 23.0983 53.9948 22.532 53.5572 21.4836H61.3453C61.4286 21.0854 61.4711 20.6873 61.4711 20.2046C61.4711 16.8498 59.1596 14.6064 56.0562 14.6064C52.933 14.6064 50.6421 16.8708 50.6421 20.2466C50.6421 23.685 52.912 25.8869 56.4315 25.8869H56.4307ZM127 20.2764C127 16.9215 124.668 14.6361 121.523 14.6361C118.378 14.6361 116.046 16.9215 116.046 20.2764C116.046 23.6317 118.378 25.9166 121.522 25.9166C124.668 25.9166 127 23.6317 127 20.2764H127ZM89.5145 25.9166C91.0546 25.9166 92.575 25.4975 93.8466 24.6796L92.7835 22.2883C91.7839 22.8125 90.6801 23.1267 89.5552 23.1267C88.0979 23.1267 87.0773 22.5614 86.6397 21.5121H94.4287C94.5119 21.1139 94.5531 20.7157 94.5531 20.2335C94.5531 16.8787 92.2412 14.6352 89.1382 14.6352C86.0151 14.6352 83.7242 16.8992 83.7242 20.2755C83.7242 23.7139 85.9945 25.9158 89.514 25.9158V25.9166H89.5145ZM109.256 25.9166C112.401 25.9166 114.733 23.6317 114.733 20.2764C114.733 16.9215 112.401 14.6361 109.256 14.6361C106.111 14.6361 103.779 16.9215 103.779 20.2764C103.779 23.6317 106.111 25.9166 109.255 25.9166H109.256ZM63.2328 25.686H66.002V10.0648H63.2324V25.686H63.2328ZM69.8755 13.3772C70.854 13.3772 71.6039 12.622 71.6039 11.6156C71.6039 10.6092 70.8549 9.85436 69.8759 9.85436C68.8764 9.85436 68.1264 10.6092 68.1264 11.6156C68.1264 12.622 68.8768 13.3768 69.8764 13.3768L69.8755 13.3772ZM22.2934 0.218211L20.7078 15.2102L18.0029 2.57058L9.52272 4.36199L12.2262 17.0007L0 19.5824L2.15948 29.6784L23.6596 34.2178L28.5765 23.247L30.9164 1.11917L22.2925 0.217773L22.2934 0.218649V0.218211ZM15.4996 21.9667C15.0563 22.3701 14.4702 22.333 13.8482 22.1273C13.2276 21.9225 12.9516 21.1765 13.1868 20.2746C13.362 19.6052 14.1868 19.5045 14.5995 19.4975C14.7563 19.4949 14.9105 19.5264 15.0528 19.5903C15.3445 19.7215 15.8386 20.0016 15.939 20.4287C16.0835 21.0448 15.9442 21.562 15.5009 21.9654H15.5V21.9663L15.4996 21.9667ZM21.724 22.6624C21.402 23.2182 20.5566 23.2917 19.7248 22.8874C19.1641 22.6143 19.1685 21.9195 19.2299 21.4959C19.2624 21.2649 19.3562 21.0467 19.5014 20.864C19.7016 20.612 20.0358 20.2834 20.4222 20.2733C21.0503 20.2567 21.5908 20.5367 21.8961 21.0434C22.2027 21.5484 22.0494 22.1054 21.7266 22.6624H21.724Z" fill="#FCF7ED"/>
</svg>
