<svg width="32" height="32" viewBox="0 0 32 32" fill="none" xmlns="http://www.w3.org/2000/svg">
<g clip-path="url(#clip0_248_1422)">
<path d="M7.84462 24.8704C7.44462 24.6037 7.10062 24.2637 6.69796 23.7824C6.48895 23.5266 6.28183 23.2692 6.07662 23.0104C5.45929 22.2437 5.06996 21.8904 4.66729 21.745C4.33436 21.6255 4.06254 21.3786 3.91163 21.0587C3.76073 20.7388 3.7431 20.372 3.86262 20.039C3.98215 19.7061 4.22904 19.4343 4.54897 19.2834C4.86891 19.1325 5.23569 19.1148 5.56862 19.2344C6.57129 19.5944 7.24996 20.2144 8.16462 21.3517C8.03929 21.1957 8.61796 21.921 8.74196 22.0704C8.99529 22.373 9.18196 22.557 9.32862 22.6544C9.60062 22.837 10.1113 22.9157 10.862 22.841C10.8926 22.3317 10.9873 21.837 11.1313 21.381C7.17396 20.413 4.93396 17.861 4.93396 12.853C4.93396 11.1997 5.42729 9.71171 6.34462 8.46371C6.05396 7.27171 6.09796 5.83037 6.74729 4.20771C6.82098 4.02415 6.93459 3.85929 7.07987 3.72508C7.22516 3.59086 7.39848 3.49065 7.58729 3.43171C7.69529 3.39971 7.75662 3.38504 7.86462 3.36904C8.93529 3.20504 10.4473 3.59571 12.418 4.83037C13.5924 4.55582 14.7946 4.41801 16.0006 4.41971C17.2166 4.41971 18.4246 4.55837 19.5793 4.83037C21.5486 3.58637 23.0633 3.19571 24.142 3.36904C24.2553 3.38637 24.3513 3.40904 24.4326 3.43571C24.6177 3.49674 24.7872 3.59762 24.9291 3.73123C25.071 3.86484 25.1819 4.02794 25.254 4.20904C25.9033 5.83037 25.9473 7.27171 25.6566 8.46237C26.578 9.71037 27.0673 11.189 27.0673 12.853C27.0673 17.8624 24.8353 20.4064 20.878 21.3757C21.0446 21.929 21.1313 22.5477 21.1313 23.2157C21.1314 24.4228 21.1261 25.63 21.1153 26.837C21.4147 26.9024 21.6825 27.0688 21.8736 27.3085C22.0647 27.5481 22.1674 27.8462 22.1644 28.1527C22.1614 28.4591 22.053 28.7552 21.8573 28.9911C21.6616 29.227 21.3906 29.3882 21.09 29.4477C19.5713 29.7517 18.446 28.7384 18.446 27.4144L18.4486 26.8197L18.4553 25.8797C18.462 24.9357 18.4646 24.0957 18.4646 23.2157C18.4646 22.2864 18.2206 21.6797 17.898 21.4024C17.0166 20.6424 17.4633 19.1957 18.618 19.0664C22.574 18.6224 24.4006 17.0904 24.4006 12.853C24.4006 11.5797 23.9846 10.5277 23.1833 9.64771C23.0145 9.4627 22.9012 9.23388 22.8563 8.98745C22.8115 8.74103 22.8371 8.48697 22.93 8.25437C23.1513 7.70237 23.246 6.97837 23.058 6.10237L23.0446 6.10637C22.39 6.29171 21.5646 6.69304 20.5673 7.37171C20.4065 7.48085 20.2237 7.55351 20.0319 7.5846C19.84 7.61569 19.6437 7.60447 19.4566 7.55171C18.3312 7.24009 17.1684 7.08353 16.0006 7.08637C14.814 7.08637 13.638 7.24504 12.5446 7.55304C12.3582 7.60538 12.1627 7.61651 11.9716 7.58566C11.7805 7.5548 11.5984 7.48271 11.438 7.37437C10.4353 6.69837 9.60596 6.29837 8.94729 6.11171C8.75529 6.98237 8.84996 7.70371 9.06996 8.25437C9.16303 8.48685 9.18876 8.74084 9.14419 8.98725C9.09963 9.23367 8.98657 9.46256 8.81796 9.64771C8.02196 10.5197 7.60062 11.5917 7.60062 12.853C7.60062 17.0824 9.42862 18.6237 13.3633 19.0664C14.5166 19.1957 14.9646 20.6357 14.0886 21.397C13.8326 21.621 13.5166 22.373 13.5166 23.2157V27.4157C13.5166 28.7304 12.4033 29.7157 10.9033 29.453C10.599 29.3996 10.3227 29.2422 10.1216 29.0076C9.92049 28.773 9.80711 28.4759 9.80081 28.167C9.79451 27.8581 9.89569 27.5566 10.0871 27.314C10.2784 27.0714 10.5481 26.9028 10.85 26.837V25.517C9.63662 25.5984 8.63396 25.3997 7.84462 24.8704V24.8704Z" fill="#FEFBF7"/>
</g>
<defs>
<clipPath id="clip0_248_1422">
<rect width="32" height="32" fill="white"/>
</clipPath>
</defs>
</svg>
