<svg width="660" height="660" viewBox="0 0 660 660" fill="none" xmlns="http://www.w3.org/2000/svg">
<path d="M660 660H0V3.57628e-06H660V660Z" fill="#F8F1E3"/>
<path d="M200.984 534.809C209.89 528.444 219.109 522.509 228.477 516.852C247.49 505.362 267.205 495.095 287.058 485.145C297.499 479.91 308.22 475.176 318.836 470.306C329.515 465.406 340.215 460.548 350.917 455.696C360.696 451.261 370.474 446.826 380.242 442.367C412.77 373.325 448.679 295.055 444.273 295.055L111.08 285.603C103.198 285.603 96.7852 292.016 96.7852 299.896V531.269C96.7852 539.152 103.198 545.564 111.08 545.564L209.319 546.198C214.361 542.496 195.899 538.444 200.984 534.809Z" fill="#25221C"/>
<path d="M455.347 286.411H117.88C110.432 286.411 104.394 292.449 104.394 299.896V531.269C104.394 538.716 110.432 544.756 117.88 544.756H455.347C462.795 544.756 468.832 538.716 468.832 531.269V299.896C468.832 292.449 462.795 286.411 455.347 286.411Z" fill="#FCF7ED"/>
<path d="M117.88 287C110.769 287 104.983 292.786 104.983 299.896V531.268C104.983 538.38 110.769 544.165 117.88 544.165H455.347C462.457 544.165 468.244 538.38 468.244 531.268V299.896C468.244 292.786 462.457 287 455.347 287H117.88ZM455.347 545.345H117.88C110.118 545.345 103.804 539.03 103.804 531.268V299.896C103.804 292.134 110.118 285.82 117.88 285.82H455.347C463.109 285.82 469.424 292.134 469.424 299.896V531.268C469.424 539.03 463.109 545.345 455.347 545.345Z" fill="#25221C"/>
<path d="M254.354 545.786H116.59C111.036 545.786 106.518 550.305 106.518 555.857C106.518 561.412 111.036 565.932 116.59 565.932H258.469C264.024 565.932 254.354 545.786 254.354 545.786Z" fill="#25221C"/>
<path d="M533.373 545.786H208.169C202.606 545.786 198.097 550.295 198.097 555.857C198.097 561.42 202.606 565.932 208.169 565.932H533.373C538.935 565.932 543.444 561.42 543.444 555.857C543.444 550.295 538.935 545.786 533.373 545.786Z" fill="#FCF7ED"/>
<path d="M208.169 546.375C202.94 546.375 198.686 550.63 198.686 555.858C198.686 561.087 202.94 565.34 208.169 565.34H533.372C538.602 565.34 542.855 561.087 542.855 555.858C542.855 550.63 538.602 546.375 533.372 546.375H208.169ZM533.372 566.521H208.169C202.29 566.521 197.507 561.737 197.507 555.858C197.507 549.978 202.29 545.197 208.169 545.197H533.372C539.252 545.197 544.035 549.978 544.035 555.858C544.035 561.737 539.252 566.521 533.372 566.521Z" fill="#25221C"/>
<path d="M444.034 305.741H129.19C125.923 305.741 123.274 308.389 123.274 311.657V316.011C123.274 319.276 125.923 321.924 129.19 321.924H444.034C447.303 321.924 449.951 319.276 449.951 316.011V311.657C449.951 308.389 447.303 305.741 444.034 305.741Z" fill="#25221C"/>
<path d="M442.509 313.833C442.509 315.984 440.764 317.729 438.612 317.729C436.461 317.729 434.716 315.984 434.716 313.833C434.716 311.681 436.461 309.936 438.612 309.936C440.764 309.936 442.509 311.681 442.509 313.833Z" fill="#FCF7ED"/>
<path d="M449.951 525.988H123.409V329.519H449.951V525.988Z" fill="#FCF7ED"/>
<path d="M123.998 525.397H449.362V330.111H123.998V525.397ZM449.951 526.577H123.409C123.083 526.577 122.819 526.313 122.819 525.988V329.52C122.819 329.195 123.083 328.931 123.409 328.931H449.951C450.278 328.931 450.542 329.195 450.542 329.52V525.988C450.542 526.313 450.278 526.577 449.951 526.577Z" fill="#25221C"/>
<path d="M522.934 470.488H440.484L453.212 568.492C472.109 572.521 491.104 572.645 510.207 568.492L522.934 470.488Z" fill="#25221C"/>
<path d="M529.027 446.289H434.391L449 558.782C470.688 563.402 492.492 563.545 514.42 558.782L529.027 446.289Z" fill="#FCF7ED"/>
<path d="M449.531 558.291C471.089 562.827 492.737 562.827 513.887 558.294L528.356 446.881H435.061L449.531 558.291ZM481.866 562.875C470.897 562.875 459.875 561.702 448.876 559.358C448.634 559.305 448.446 559.105 448.414 558.859L433.807 446.366C433.784 446.2 433.836 446.028 433.947 445.901C434.061 445.775 434.222 445.701 434.391 445.701H529.027C529.196 445.701 529.36 445.775 529.47 445.901C529.581 446.028 529.634 446.2 529.613 446.366L515.003 558.859C514.972 559.105 514.787 559.305 514.544 559.358C503.757 561.702 492.838 562.875 481.866 562.875Z" fill="#25221C"/>
<path d="M523.068 434.903H440.349L437.374 444.689H526.044L523.068 434.903Z" fill="#25221C"/>
<path d="M438.171 444.098H525.249L522.632 435.492H440.784L438.171 444.098ZM526.043 445.278H437.374C437.189 445.278 437.012 445.189 436.901 445.041C436.79 444.89 436.756 444.698 436.811 444.518L439.784 434.732C439.86 434.483 440.087 434.314 440.349 434.314H523.068C523.329 434.314 523.556 434.483 523.633 434.732L526.608 444.518C526.661 444.698 526.629 444.89 526.516 445.041C526.405 445.189 526.231 445.278 526.043 445.278Z" fill="#FCF7ED"/>
<path d="M533.784 455.268H429.636V444.69H533.784V455.268Z" fill="#25221C"/>
<path d="M430.225 454.679H533.193V445.278H430.225V454.679ZM533.784 455.859H429.636C429.309 455.859 429.045 455.595 429.045 455.268V444.69C429.045 444.362 429.309 444.098 429.636 444.098H533.784C534.109 444.098 534.373 444.362 534.373 444.69V455.268C534.373 455.595 534.109 455.859 533.784 455.859Z" fill="#FCF7ED"/>
<path d="M437.842 483.231L445.324 540.654C445.324 540.654 482.653 552.04 518.28 540.654C522.377 512.857 525.529 483.231 525.529 483.231C525.529 483.231 482.252 489.105 437.842 483.231Z" fill="#25221C"/>
<path d="M490.871 530.841C490.831 530.841 490.794 530.841 490.755 530.838C489.031 530.764 488.099 529.106 487.194 527.504C486.367 526.036 485.586 524.65 484.345 524.518C482.917 524.37 481.57 525.959 480.266 527.496C478.843 529.178 477.499 530.767 475.834 530.36C474.572 530.054 474.12 528.821 473.685 527.628C473.262 526.469 472.861 525.376 471.818 524.959C470.818 524.56 469.917 525.02 468.41 525.864C467.182 526.553 465.788 527.338 463.98 527.57C460.759 527.987 457.253 526.453 453.544 523.021C453.306 522.799 453.291 522.427 453.512 522.187C453.734 521.947 454.106 521.933 454.347 522.155C457.784 525.342 460.976 526.77 463.83 526.4C465.411 526.197 466.699 525.474 467.832 524.837C469.3 524.014 470.686 523.238 472.254 523.863C473.788 524.476 474.345 525.999 474.793 527.221C475.211 528.364 475.506 529.067 476.111 529.215C477.069 529.444 478.236 528.069 479.366 526.736C480.797 525.046 482.423 523.124 484.469 523.346C486.312 523.541 487.328 525.339 488.22 526.923C489.002 528.306 489.738 529.613 490.805 529.661C491.882 529.687 492.764 528.467 493.709 527.155C494.852 525.569 496.148 523.774 498.213 523.602C500.161 523.441 502.186 524.795 504.253 527.623C504.446 527.887 504.388 528.256 504.124 528.446C503.862 528.639 503.493 528.581 503.3 528.32C501.492 525.843 499.813 524.65 498.311 524.777C496.787 524.903 495.708 526.398 494.665 527.844C493.603 529.318 492.505 530.841 490.871 530.841Z" fill="#FCF7ED"/>
<path d="M492.257 368.848C491.191 369.922 490.095 370.96 489.076 372.071C488.551 372.61 488.052 373.172 487.564 373.745L486.814 374.587L486.101 375.461C484.219 377.789 482.513 380.282 481.338 382.99C480.143 385.675 479.591 388.677 480.251 391.496C480.832 394.337 482.621 396.79 484.718 398.878C486.819 400.992 489.221 402.848 491.428 404.979C492.535 406.043 493.57 407.204 494.462 408.482C495.359 409.755 496.054 411.191 496.476 412.703C497.334 415.745 496.912 419.024 495.687 421.846C494.48 424.694 492.627 427.187 490.541 429.394C490.468 429.473 490.343 429.478 490.264 429.401C490.188 429.33 490.182 429.211 490.251 429.132C492.213 426.854 493.963 424.359 495.035 421.582C495.571 420.198 495.927 418.752 496.046 417.287C496.159 415.827 496.025 414.346 495.602 412.952C495.185 411.555 494.52 410.238 493.651 409.052C492.791 407.859 491.769 406.779 490.692 405.747C488.53 403.68 486.112 401.84 483.926 399.67C482.83 398.59 481.803 397.41 480.95 396.09C480.09 394.778 479.443 393.3 479.102 391.747C478.749 390.198 478.733 388.579 478.978 387.024C479.216 385.467 479.699 383.964 480.343 382.555C480.488 382.193 480.66 381.845 480.842 381.507C481.024 381.163 481.191 380.815 481.383 380.48C481.785 379.822 482.165 379.149 482.621 378.529L483.281 377.586C483.508 377.275 483.751 376.979 483.984 376.675L484.696 375.775L485.446 374.909L486.199 374.046L486.985 373.217C487.511 372.663 488.047 372.121 488.606 371.604C489.691 370.537 490.845 369.547 491.996 368.557C492.078 368.486 492.202 368.494 492.271 368.576C492.339 368.655 492.334 368.771 492.263 368.843L492.257 368.848Z" fill="#25221C"/>
<path d="M496.628 381.752C495.815 383.872 495.338 386.121 495.417 388.362C495.427 389.484 495.67 390.58 495.918 391.66C496.106 392.182 496.243 392.721 496.467 393.228L496.824 393.98C496.94 394.234 497.056 394.485 497.212 394.714C498.323 396.649 499.886 398.286 501.502 399.883C503.12 401.478 504.868 403.012 506.32 404.889C507.761 406.737 508.897 409.047 508.931 411.502C509.029 413.941 508.263 416.288 507.199 418.369C505.016 422.553 501.742 425.927 498.313 428.968C498.234 429.04 498.112 429.032 498.044 428.952C497.978 428.878 497.98 428.765 498.046 428.694C499.63 427.041 501.172 425.351 502.584 423.572C504.005 421.801 505.267 419.905 506.235 417.893C506.74 416.893 507.115 415.845 507.392 414.781C507.679 413.72 507.811 412.627 507.764 411.547C507.698 409.372 506.766 407.331 505.42 405.578C504.079 403.806 502.376 402.278 500.747 400.646C499.11 399.025 497.537 397.246 496.404 395.166C495.261 393.096 494.672 390.715 494.701 388.37C494.728 386.018 495.308 383.705 496.275 381.604C496.32 381.509 496.433 381.467 496.528 381.512C496.621 381.554 496.663 381.659 496.628 381.752Z" fill="#25221C"/>
<path d="M525.898 197.213H383.027C378.866 197.213 375.492 193.84 375.492 189.679V96.5634C375.492 92.4027 378.866 89.0289 383.027 89.0289H525.898C530.059 89.0289 533.433 92.4027 533.433 96.5634V189.679C533.433 193.84 530.059 197.213 525.898 197.213Z" fill="#FCF7ED"/>
<path d="M383.027 89.6201C379.199 89.6201 376.083 92.7353 376.083 96.5633V189.679C376.083 193.509 379.199 196.625 383.027 196.625H525.898C529.729 196.625 532.844 193.509 532.844 189.679V96.5633C532.844 92.7353 529.729 89.6201 525.898 89.6201H383.027ZM525.898 197.805H383.027C378.549 197.805 374.903 194.159 374.903 189.679V96.5633C374.903 92.0832 378.549 88.4401 383.027 88.4401H525.898C530.378 88.4401 534.024 92.0832 534.024 96.5633V189.679C534.024 194.159 530.378 197.805 525.898 197.805Z" fill="#25221C"/>
<path d="M454.463 183.934C454.138 183.934 453.874 183.67 453.874 183.343V102.472C453.874 102.144 454.138 101.88 454.463 101.88C454.79 101.88 455.054 102.144 455.054 102.472V183.343C455.054 183.67 454.79 183.934 454.463 183.934Z" fill="#25221C"/>
<path d="M515.687 152.133H391.892C391.568 152.133 391.304 151.869 391.304 151.541C391.304 151.217 391.568 150.953 391.892 150.953H515.687C516.015 150.953 516.279 151.217 516.279 151.541C516.279 151.869 516.015 152.133 515.687 152.133Z" fill="#25221C"/>
<path d="M513.338 153.542L515.339 151.541L513.338 149.543H515.035L517.037 151.541L515.035 153.542H513.338Z" fill="#25221C"/>
<path d="M454.743 178.493C440.59 178.493 429.074 166.977 429.074 152.822V137.948C429.074 124.444 418.087 113.459 404.583 113.459H391.892C391.568 113.459 391.304 113.195 391.304 112.868C391.304 112.543 391.568 112.279 391.892 112.279H404.583C418.736 112.279 430.252 123.795 430.252 137.948V152.822C430.252 166.325 441.239 177.313 454.743 177.313C468.247 177.313 479.234 166.325 479.234 152.822V137.948C479.234 123.795 490.75 112.279 504.903 112.279H512.34C512.665 112.279 512.929 112.543 512.929 112.868C512.929 113.195 512.665 113.459 512.34 113.459H504.903C491.399 113.459 480.414 124.444 480.414 137.948V152.822C480.414 166.977 468.899 178.493 454.743 178.493Z" fill="#25221C"/>
<path d="M306.417 257.74C300.567 259.557 297.586 251.18 286.762 249.879C276.221 248.609 273.734 255.916 262.392 256.167C249.464 256.45 234.95 247.347 234.09 238.086C233.341 230.018 243.282 225.4 241.106 219.92C239.099 214.867 230.311 217.932 221.486 211.387C213.911 205.772 208.668 194.827 211.292 186.986C213.287 181.022 218.222 181.661 220.726 174.8C223.38 167.526 218.843 164.496 220.94 157.077C223.099 149.434 230.95 142.079 238.541 142.003C245.899 141.929 247.104 148.756 255.316 149.25C264.726 149.817 268.525 141.182 274.183 143.355C280.287 145.696 277.72 156.454 285.82 161.048C289.197 162.962 290.152 161.449 296.982 163.4C300.464 164.395 307.149 166.304 311.251 170.694C319.116 179.108 311.808 190.545 318.601 196.025C323.664 200.109 329.19 194.948 336.682 199.563C341.313 202.417 346.141 208.66 345.104 214.117C343.472 222.705 329.074 220.094 318.994 232.191C309.759 243.273 313.442 255.555 306.417 257.74Z" fill="#25221C"/>
<path d="M208.513 352.046C208.494 352.046 208.474 352.046 208.455 352.044C208.131 352.012 207.894 351.724 207.926 351.4L209.617 334.208C209.649 333.883 209.932 333.654 210.262 333.677C210.586 333.709 210.823 333.999 210.791 334.324L209.099 351.516C209.069 351.819 208.813 352.046 208.513 352.046Z" fill="#25221C"/>
<path d="M509.805 195.59C507.175 193.098 504.102 193.021 500.504 193.467L499.237 192.673C496.457 190.935 493.094 190.397 489.91 191.178L464.838 197.338C463.787 197.594 462.834 196.659 463.072 195.606C463.552 193.502 464.268 190.344 464.822 187.852C465.39 185.299 464.381 183.797 463.531 183.023C463.048 182.583 462.295 182.63 461.865 183.124C459.09 186.305 448.842 198.481 449.167 204.5C449.542 211.461 454.317 231.731 454.317 231.731H475.625L471.448 218.08C471.155 217.124 471.667 216.108 472.61 215.773L503.036 205.012C503.585 204.819 503.765 204.138 503.387 203.697C502.711 202.905 501.642 201.773 500.478 200.989L509.129 197.57C509.916 197.258 510.238 196.316 509.805 195.59Z" fill="#FCF7ED"/>
<path d="M454.785 231.14H474.828L470.884 218.254C470.498 216.989 471.169 215.659 472.415 215.218L502.841 204.457C502.941 204.42 502.978 204.341 502.989 204.296C503.002 204.251 503.01 204.164 502.939 204.08C502.276 203.304 501.252 202.221 500.148 201.477C499.966 201.355 499.868 201.141 499.892 200.922C499.916 200.706 500.058 200.518 500.262 200.439L508.913 197.02C509.127 196.936 509.293 196.762 509.367 196.545C509.433 196.35 509.42 196.139 509.333 195.954C506.973 193.763 504.23 193.599 500.576 194.05C500.444 194.066 500.307 194.037 500.193 193.966L498.923 193.174C496.296 191.532 493.062 191.012 490.053 191.751L464.978 197.91C464.286 198.082 463.566 197.884 463.056 197.382C462.549 196.883 462.341 196.17 462.499 195.476C462.977 193.372 463.692 190.214 464.247 187.722C464.746 185.489 463.917 184.171 463.135 183.459C463.022 183.356 462.871 183.3 462.716 183.311C462.56 183.321 462.415 183.393 462.309 183.511C456.079 190.653 449.51 199.906 449.756 204.468C450.091 210.722 454.08 228.101 454.785 231.14ZM475.625 232.32H454.318C454.043 232.32 453.806 232.132 453.742 231.866C453.547 231.034 448.951 211.464 448.578 204.531C448.246 198.346 458.325 186.286 461.422 182.735C461.736 182.376 462.172 182.162 462.65 182.133C463.117 182.099 463.576 182.268 463.93 182.587C464.759 183.34 466.053 185.045 465.398 187.978C464.843 190.473 464.128 193.633 463.647 195.737C463.581 196.033 463.666 196.326 463.882 196.543C464.102 196.756 464.4 196.838 464.698 196.764L489.77 190.608C493.086 189.792 496.653 190.362 499.549 192.173L500.642 192.854C504.459 192.403 507.556 192.646 510.212 195.162C510.251 195.199 510.286 195.241 510.312 195.289C510.608 195.782 510.669 196.379 510.484 196.925C510.296 197.472 509.882 197.905 509.346 198.116L501.671 201.149C502.535 201.865 503.298 202.683 503.836 203.311C504.14 203.668 504.248 204.151 504.129 204.6C504.008 205.051 503.673 205.413 503.234 205.569L472.808 216.329C472.159 216.559 471.81 217.251 472.011 217.908L476.19 231.557C476.246 231.736 476.211 231.929 476.1 232.08C475.989 232.23 475.813 232.32 475.625 232.32Z" fill="#25221C"/>
<path d="M474.455 207.924C474.191 207.924 473.951 207.747 473.885 207.478C473.806 207.163 473.996 206.841 474.313 206.762L495.932 201.35C496.249 201.271 496.568 201.464 496.647 201.778C496.726 202.095 496.534 202.414 496.217 202.493L474.598 207.905C474.55 207.919 474.503 207.924 474.455 207.924Z" fill="#25221C"/>
<path d="M472.254 201.59C471.99 201.59 471.75 201.413 471.684 201.144C471.605 200.827 471.795 200.508 472.112 200.429L493.731 195.017C494.047 194.938 494.367 195.13 494.446 195.444C494.525 195.761 494.333 196.081 494.018 196.16L472.399 201.575C472.349 201.585 472.302 201.59 472.254 201.59Z" fill="#25221C"/>
<path d="M187.312 289.951C193.366 290.315 203.511 290.817 209.681 291.113C212.539 291.25 214.684 293.768 214.37 296.614L210.203 334.266C210.203 334.266 219.724 329.984 230.151 317.565C240.577 305.144 249.97 279.615 273.06 278.713C287.755 278.137 324.617 280.489 349.488 282.277C362.263 283.193 374.655 287.11 385.564 293.824C393.489 298.7 405.258 303.056 420.14 300.35C447.464 295.379 459.809 271.991 448.433 234.215C447.39 230.754 449.967 227.267 453.578 227.267H476.755C479.271 227.267 481.48 228.925 482.191 231.34C487.471 249.35 505.114 321.919 454.317 344.768C424.338 358.25 392.829 356.698 392.829 356.698L405.274 470.406C406.605 482.557 400.63 494.356 390.025 500.438C378.895 506.819 361.498 512.68 335.615 511.822C314.007 511.106 297.214 507.278 284.816 502.922C267.854 496.964 255.632 482.064 253.031 464.273C250.229 445.117 246.989 415.406 246.456 378.101C246.456 378.101 228.898 397.333 195.488 391.105C154.228 383.415 174.202 313.809 180.592 294.502C181.541 291.635 184.297 289.771 187.312 289.951Z" fill="#FCF7ED"/>
<path d="M246.456 377.512C246.527 377.512 246.598 377.522 246.666 377.549C246.892 377.636 247.043 377.85 247.046 378.093C247.585 415.816 250.915 445.732 253.614 464.188C256.195 481.842 268.226 496.47 285.012 502.368C300.001 507.635 317.032 510.615 335.636 511.233C357.197 511.943 375.403 508.142 389.732 499.926C400.123 493.968 405.995 482.404 404.688 470.469L392.243 356.762C392.225 356.59 392.283 356.418 392.401 356.294C392.52 356.168 392.687 356.102 392.858 356.109C393.172 356.125 424.578 357.498 454.075 344.229C475.459 334.612 487.106 315.092 488.693 286.208C489.973 262.957 484.176 240.208 481.623 231.507C480.995 229.358 478.991 227.856 476.755 227.856H453.578C452.05 227.856 450.65 228.56 449.74 229.785C448.824 231.018 448.552 232.571 448.995 234.046C455.186 254.594 454.579 271.793 447.245 283.779C441.73 292.789 432.395 298.721 420.246 300.931C404.77 303.745 392.676 298.893 385.255 294.326C374.555 287.741 362.173 283.779 349.446 282.865C322.521 280.93 287.417 278.742 273.084 279.301C255.921 279.974 246.555 294.344 238.292 307.024C235.655 311.071 233.165 314.891 230.602 317.943C220.209 330.325 210.839 334.625 210.445 334.802C210.253 334.889 210.027 334.868 209.856 334.741C209.685 334.617 209.594 334.411 209.617 334.2L213.784 296.548C213.918 295.334 213.556 294.157 212.764 293.227C211.974 292.303 210.869 291.759 209.653 291.701C203.935 291.427 193.425 290.912 187.276 290.54C184.519 290.365 182.014 292.082 181.152 294.687C176.648 308.296 163.013 354.494 176.653 377.591C180.794 384.603 187.167 388.956 195.596 390.527C228.304 396.626 245.848 377.892 246.021 377.702C246.135 377.578 246.294 377.512 246.456 377.512ZM340.692 512.495C339.013 512.495 337.315 512.469 335.597 512.411C316.874 511.79 299.724 508.786 284.621 503.48C267.421 497.437 255.092 482.447 252.447 464.36C249.776 446.091 246.487 416.618 245.888 379.476C241.675 383.338 224.306 397.077 195.381 391.686C186.602 390.049 179.959 385.508 175.637 378.19C161.744 354.665 175.489 308.046 180.032 294.318C181.063 291.202 184.083 289.162 187.347 289.362C193.49 289.735 203.995 290.249 209.71 290.524C211.254 290.598 212.658 291.287 213.661 292.462C214.666 293.642 215.126 295.139 214.956 296.678L210.909 333.244C213.556 331.821 221.373 327.104 229.699 317.185C232.216 314.189 234.687 310.395 237.304 306.38C245.306 294.101 255.266 278.818 273.039 278.124C287.419 277.561 322.573 279.753 349.531 281.688C362.445 282.614 375.012 286.638 385.873 293.322C393.12 297.781 404.926 302.517 420.034 299.769C431.843 297.623 440.904 291.878 446.239 283.164C453.393 271.471 453.956 254.604 447.868 234.384C447.313 232.549 447.651 230.617 448.795 229.083C449.93 227.555 451.675 226.675 453.578 226.675H476.755C479.511 226.675 481.979 228.526 482.755 231.174C485.324 239.934 491.161 262.838 489.87 286.271C488.257 315.63 476.375 335.491 454.558 345.307C427.231 357.596 398.289 357.432 393.489 357.311L405.863 470.34C407.22 482.742 401.119 494.757 390.319 500.948C376.942 508.62 360.267 512.495 340.692 512.495Z" fill="#25221C"/>
<path d="M209.414 266.173L206.706 263.171V242.962C206.706 240.995 205.111 239.401 203.144 239.401C201.178 239.401 199.583 240.995 199.583 242.962V264.721L180.632 268.847V279.956C180.632 284.796 183.443 289.194 187.834 291.227L188.777 291.662C194.461 294.294 201.102 293.803 206.337 290.366C208.864 288.705 210.536 286.021 210.911 283.021L211.992 274.365C212.364 271.39 211.423 268.399 209.414 266.173Z" fill="#FCF7ED"/>
<path d="M181.221 269.322V279.956C181.221 284.547 183.914 288.763 188.082 290.69L189.024 291.128C194.562 293.692 200.913 293.222 206.013 289.872C208.399 288.304 209.971 285.78 210.325 282.947L211.407 274.291C211.758 271.484 210.872 268.667 208.976 266.566L206.267 263.567C206.17 263.459 206.115 263.316 206.115 263.171V242.962C206.115 241.322 204.782 239.989 203.144 239.989C201.505 239.989 200.173 241.322 200.173 242.962V264.721C200.173 264.998 199.98 265.238 199.708 265.299L181.221 269.322ZM196.406 293.945C193.736 293.945 191.054 293.367 188.529 292.198L187.586 291.762C183.003 289.639 180.042 285.006 180.042 279.956V268.847C180.042 268.57 180.235 268.329 180.506 268.269L198.993 264.245V242.962C198.993 240.673 200.855 238.809 203.144 238.809C205.433 238.809 207.295 240.673 207.295 242.962V262.944L209.851 265.777C211.977 268.131 212.971 271.289 212.577 274.438L211.495 283.092C211.098 286.268 209.336 289.098 206.66 290.857C203.542 292.905 199.986 293.945 196.406 293.945Z" fill="#25221C"/>
<path d="M196.647 270.441H194.329C192.867 270.441 191.683 269.259 191.683 267.796V259.675C191.683 258.213 192.867 257.028 194.329 257.028H195.941C197.793 257.028 199.294 258.53 199.294 260.38V267.796C199.294 269.259 198.109 270.441 196.647 270.441Z" fill="#FCF7ED"/>
<path d="M194.329 257.619C193.195 257.619 192.272 258.54 192.272 259.675V267.796C192.272 268.931 193.195 269.853 194.329 269.853H196.647C197.781 269.853 198.704 268.931 198.704 267.796V260.38C198.704 258.857 197.465 257.619 195.941 257.619H194.329ZM196.647 271.033H194.329C192.545 271.033 191.093 269.581 191.093 267.796V259.675C191.093 257.891 192.545 256.439 194.329 256.439H195.941C198.115 256.439 199.883 258.208 199.883 260.38V267.796C199.883 269.581 198.432 271.033 196.647 271.033Z" fill="#25221C"/>
<path d="M189.037 272.11H188.57C187.109 272.11 185.924 270.924 185.924 269.465V261.547C185.924 260.087 187.109 258.902 188.57 258.902H189.037C190.498 258.902 191.683 260.087 191.683 261.547V269.465C191.683 270.924 190.498 272.11 189.037 272.11Z" fill="#FCF7ED"/>
<path d="M188.571 259.491C187.437 259.491 186.514 260.415 186.514 261.547V269.465C186.514 270.597 187.437 271.521 188.571 271.521H189.037C190.171 271.521 191.094 270.597 191.094 269.465V261.547C191.094 260.415 190.171 259.491 189.037 259.491H188.571ZM189.037 272.701H188.571C186.786 272.701 185.335 271.249 185.335 269.465V261.547C185.335 259.765 186.786 258.313 188.571 258.313H189.037C190.821 258.313 192.273 259.765 192.273 261.547V269.465C192.273 271.249 190.821 272.701 189.037 272.701Z" fill="#25221C"/>
<path d="M183.278 274.196C181.817 274.196 180.632 273.01 180.632 271.551V263.718C180.632 262.255 181.817 261.07 183.278 261.07C184.74 261.07 185.925 262.255 185.925 263.718V271.551C185.925 273.01 184.74 274.196 183.278 274.196Z" fill="#FCF7ED"/>
<path d="M183.278 261.661C182.144 261.661 181.221 262.582 181.221 263.717V271.55C181.221 272.683 182.144 273.607 183.278 273.607C184.412 273.607 185.335 272.683 185.335 271.55V263.717C185.335 262.582 184.412 261.661 183.278 261.661ZM183.278 274.784C181.493 274.784 180.042 273.332 180.042 271.55V263.717C180.042 261.933 181.493 260.481 183.278 260.481C185.062 260.481 186.514 261.933 186.514 263.717V271.55C186.514 273.332 185.062 274.784 183.278 274.784Z" fill="#25221C"/>
<path d="M208.511 271.033C208.392 271.033 208.272 270.996 208.167 270.922L200.073 265.095C199.809 264.908 199.749 264.538 199.939 264.274C200.13 264.01 200.498 263.95 200.762 264.14L208.856 269.964C209.12 270.154 209.181 270.523 208.99 270.787C208.875 270.946 208.695 271.033 208.511 271.033Z" fill="#25221C"/>
<path d="M194.131 284.724C193.817 284.724 193.556 284.475 193.542 284.161C193.248 277.551 197.468 274.853 199.365 273.979L196.232 270.861C196.001 270.631 196 270.256 196.23 270.027C196.46 269.794 196.833 269.794 197.064 270.024L200.834 273.778C200.983 273.926 201.042 274.143 200.989 274.343C200.936 274.546 200.778 274.707 200.576 274.763C200.324 274.834 194.386 276.603 194.72 284.109C194.734 284.433 194.483 284.708 194.157 284.724C194.148 284.724 194.139 284.724 194.131 284.724Z" fill="#25221C"/>
<path d="M281.53 526.587C281.53 526.587 274.257 434.689 295.25 405.372L363.687 402.497C363.687 402.497 388.529 433.828 385.839 525.988L281.53 526.587Z" fill="#25221C"/>
<path d="M276.727 278.557L267.925 402.808C267.527 408.424 271.439 413.434 276.986 414.39C294.595 417.426 333.58 422.091 373.082 413.136C377.541 412.125 380.395 407.769 379.476 403.291L354.773 282.831C354.773 282.831 310.226 276.534 276.727 278.557Z" fill="#FCF7ED"/>
<path d="M277.28 279.114L268.512 402.851C268.135 408.192 271.82 412.901 277.084 413.81C296.261 417.115 334.211 421.344 372.953 412.561C377.146 411.61 379.757 407.59 378.899 403.411L354.281 283.359C349.724 282.739 308.569 277.314 277.28 279.114ZM323.583 418.963C304.234 418.963 287.628 416.822 276.886 414.971C271.02 413.96 266.915 408.714 267.337 402.769L276.139 278.515C276.16 278.219 276.398 277.984 276.694 277.968C309.865 275.962 354.41 282.185 354.856 282.248C355.104 282.282 355.302 282.47 355.352 282.712L380.055 403.173C381.042 407.988 378.038 412.616 373.215 413.712C355.991 417.617 338.924 418.963 323.583 418.963Z" fill="#25221C"/>
<path d="M301.797 400.192C301.546 400.192 301.311 400.031 301.234 399.778C301.137 399.466 301.311 399.136 301.622 399.041C336.04 388.4 352.368 348.913 352.529 348.514C352.651 348.213 352.997 348.068 353.298 348.19C353.599 348.311 353.744 348.657 353.622 348.958C353.459 349.359 336.916 389.363 301.971 400.166C301.913 400.184 301.855 400.192 301.797 400.192Z" fill="#25221C"/>
<path d="M334.258 235.773C332.223 233.326 330.845 230.393 330.259 227.262C329.216 221.689 328.081 216.752 328.081 216.752C319.754 223.656 310.369 218.907 310.369 218.907C302.528 225 303.948 233.577 303.948 233.577C303.948 233.577 296.654 232.78 297.166 237.484C297.673 242.157 304.703 243.326 304.809 243.345L296.247 277.916C295.711 280.081 297.061 282.272 299.239 282.747C312.42 285.625 320.683 284.545 324.86 283.431C326.079 283.103 326.452 281.596 325.551 280.709C320.955 276.168 320.179 263.192 320.195 254.671C324.448 255.621 328.374 254.774 330.322 250.864C331.713 248.068 332.083 245.127 331.919 240.71C331.89 239.934 334.765 236.671 334.258 235.773Z" fill="#FCF7ED"/>
<path d="M302.776 234.115C301.498 234.115 299.437 234.295 298.381 235.351C297.863 235.868 297.657 236.546 297.752 237.42C298.209 241.631 304.838 242.75 304.904 242.761C305.068 242.787 305.21 242.882 305.303 243.017C305.392 243.157 305.421 243.326 305.382 243.484L296.82 278.058C296.599 278.953 296.744 279.879 297.232 280.664C297.718 281.44 298.473 281.976 299.365 282.171C312.726 285.088 320.979 283.855 324.707 282.86C325.068 282.765 325.33 282.504 325.425 282.15C325.522 281.783 325.414 281.4 325.137 281.128C320.53 276.577 319.585 264.227 319.606 254.67C319.606 254.491 319.688 254.322 319.828 254.211C319.968 254.1 320.15 254.058 320.324 254.097C323.498 254.802 327.716 254.77 329.794 250.599C331.069 248.038 331.499 245.272 331.33 240.731C331.312 240.248 331.695 239.635 332.426 238.505C332.885 237.795 333.73 236.494 333.73 236.061C331.676 233.558 330.274 230.556 329.68 227.372C328.91 223.267 328.086 219.471 327.711 217.792C320.293 223.315 312.214 220.347 310.453 219.59C303.286 225.387 304.516 233.4 304.529 233.481C304.558 233.664 304.503 233.848 304.376 233.98C304.249 234.115 304.067 234.184 303.882 234.163C303.869 234.163 303.423 234.115 302.776 234.115ZM314.809 285.188C310.596 285.188 305.403 284.697 299.112 283.322C297.908 283.061 296.884 282.337 296.232 281.287C295.574 280.228 295.376 278.982 295.675 277.775L304.088 243.801C302.253 243.384 297.045 241.832 296.58 237.55C296.445 236.312 296.773 235.292 297.549 234.514C299.072 232.993 301.942 232.898 303.286 232.943C303.119 230.683 303.23 223.708 310.007 218.439C310.184 218.299 310.43 218.275 310.633 218.381C310.725 218.426 319.783 222.866 327.706 216.298C327.861 216.166 328.075 216.129 328.271 216.192C328.463 216.258 328.611 216.419 328.656 216.62C328.667 216.67 329.804 221.631 330.839 227.153C331.404 230.181 332.743 233.03 334.712 235.395C334.736 235.422 334.754 235.451 334.773 235.483C335.214 236.267 334.554 237.389 333.416 239.147C333.049 239.714 332.547 240.488 332.508 240.72C332.685 245.443 332.22 248.368 330.847 251.125C329.052 254.731 325.496 256.233 320.786 255.391C320.813 263.131 321.56 275.938 325.966 280.289C326.547 280.862 326.771 281.672 326.565 282.451C326.362 283.216 325.781 283.795 325.013 284C322.608 284.642 319.252 285.188 314.809 285.188Z" fill="#25221C"/>
<path d="M320.197 255.262C320.16 255.262 320.123 255.259 320.089 255.251C316.72 254.628 312.1 251.494 311.905 251.362C311.636 251.178 311.567 250.811 311.749 250.541C311.934 250.275 312.301 250.203 312.57 250.388C312.615 250.42 317.18 253.514 320.303 254.092C320.622 254.15 320.833 254.459 320.775 254.779C320.723 255.064 320.474 255.262 320.197 255.262Z" fill="#25221C"/>
<path d="M168.372 273.256H124.316C119.838 273.256 116.194 269.613 116.194 265.135V171.898C116.194 167.421 119.838 163.778 124.316 163.778H152.501C152.827 163.778 153.091 164.042 153.091 164.366C153.091 164.694 152.827 164.958 152.501 164.958H124.316C120.488 164.958 117.374 168.07 117.374 171.898V265.135C117.374 268.963 120.488 272.076 124.316 272.076H168.372C168.698 272.076 168.962 272.34 168.962 272.667C168.962 272.992 168.698 273.256 168.372 273.256Z" fill="#25221C"/>
<path d="M267.192 273.256H221.548C221.223 273.256 220.959 272.992 220.959 272.667C220.959 272.34 221.223 272.076 221.548 272.076H267.192C271.02 272.076 274.135 268.963 274.135 265.135V250.874C274.135 250.549 274.399 250.285 274.724 250.285C275.051 250.285 275.315 250.549 275.315 250.874V265.135C275.315 269.613 271.669 273.256 267.192 273.256Z" fill="#25221C"/>
<path d="M274.724 251.465C274.399 251.465 274.135 251.201 274.135 250.874V171.898C274.135 168.07 271.02 164.958 267.192 164.958H221.548C221.223 164.958 220.959 164.694 220.959 164.366C220.959 164.042 221.223 163.778 221.548 163.778H267.192C271.669 163.778 275.315 167.421 275.315 171.898V250.874C275.315 251.201 275.051 251.465 274.724 251.465Z" fill="#FCF7ED"/>
<path d="M221.548 164.958H171.495C171.169 164.958 170.905 164.694 170.905 164.367C170.905 164.042 171.169 163.778 171.495 163.778H221.548C221.874 163.778 222.138 164.042 222.138 164.367C222.138 164.694 221.874 164.958 221.548 164.958Z" fill="#25221C"/>
<path d="M243.152 258.451H224.476C224.151 258.451 223.887 258.187 223.887 257.859C223.887 257.535 224.151 257.271 224.476 257.271H243.152C243.478 257.271 243.742 257.535 243.742 257.859C243.742 258.187 243.478 258.451 243.152 258.451Z" fill="#25221C"/>
<path d="M178.047 258.451H140.231C139.906 258.451 139.642 258.187 139.642 257.859C139.642 257.535 139.906 257.271 140.231 257.271H178.047C178.373 257.271 178.637 257.535 178.637 257.859C178.637 258.187 178.373 258.451 178.047 258.451Z" fill="#25221C"/>
<path d="M144.365 239.701H199.831L144.365 182.482V239.701ZM201.224 240.881H143.775C143.45 240.881 143.186 240.617 143.186 240.29V181.027C143.186 180.787 143.331 180.571 143.554 180.481C143.776 180.391 144.031 180.444 144.199 180.618L201.648 239.881C201.812 240.052 201.86 240.303 201.767 240.522C201.674 240.739 201.461 240.881 201.224 240.881Z" fill="#25221C"/>
<path d="M149.196 240.29C149.196 243.286 146.769 245.712 143.775 245.712C140.781 245.712 138.354 243.286 138.354 240.29C138.354 237.296 140.781 234.87 143.775 234.87C146.769 234.87 149.196 237.296 149.196 240.29Z" fill="#25221C"/>
<path d="M206.645 240.29C206.645 243.286 204.218 245.712 201.224 245.712C198.23 245.712 195.803 243.286 195.803 240.29C195.803 237.296 198.23 234.87 201.224 234.87C204.218 234.87 206.645 237.296 206.645 240.29Z" fill="#25221C"/>
<path d="M149.196 181.028C149.196 184.021 146.769 186.45 143.775 186.45C140.781 186.45 138.354 184.021 138.354 181.028C138.354 178.034 140.781 175.608 143.775 175.608C146.769 175.608 149.196 178.034 149.196 181.028Z" fill="#25221C"/>
<path d="M158.823 402.65C151.564 402.65 145.659 408.556 145.659 415.813V506.083C145.659 513.343 151.564 519.248 158.823 519.248H223.405C230.664 519.248 236.569 513.343 236.569 506.083V415.813C236.569 408.556 230.664 402.65 223.405 402.65H158.823ZM223.405 520.426H158.823C150.914 520.426 144.479 513.992 144.479 506.083V415.813C144.479 407.906 150.914 401.47 158.823 401.47H223.405C231.314 401.47 237.749 407.906 237.749 415.813V506.083C237.749 513.992 231.314 520.426 223.405 520.426Z" fill="#25221C"/>
<path d="M176.077 501.642H156.017V435.719H176.077V501.642Z" fill="#25221C"/>
<path d="M201.144 501.642H181.084V417.526H201.144V501.642Z" fill="#25221C"/>
<path d="M226.211 501.642H206.151V462.34H226.211V501.642Z" fill="#25221C"/>
<path d="M483.065 350.792C482.915 350.792 482.764 350.734 482.648 350.621C482.418 350.389 482.418 350.016 482.648 349.787L532.644 299.79C532.874 299.561 533.246 299.561 533.478 299.79C533.708 300.02 533.708 300.395 533.478 300.625L483.482 350.621C483.366 350.734 483.215 350.792 483.065 350.792Z" fill="#25221C"/>
<path d="M429.636 404.221C429.483 404.221 429.333 404.163 429.219 404.049C428.987 403.819 428.987 403.445 429.219 403.215L461.612 370.822C461.842 370.59 462.217 370.59 462.446 370.822C462.676 371.052 462.676 371.424 462.446 371.656L430.053 404.049C429.937 404.163 429.787 404.221 429.636 404.221Z" fill="#25221C"/>
<path d="M512.255 295.669C512.105 295.669 511.954 295.611 511.838 295.495C511.609 295.266 511.609 294.893 511.838 294.664L533.061 273.441C537.05 269.449 537.05 262.957 533.061 258.968C530.904 256.811 529.719 253.944 529.719 250.898C529.719 247.848 530.904 244.981 533.061 242.827L562.209 213.679C562.439 213.449 562.811 213.449 563.044 213.679C563.273 213.909 563.273 214.284 563.044 214.513L533.895 243.661C531.963 245.594 530.896 248.163 530.896 250.898C530.896 253.63 531.963 256.201 533.895 258.134C538.344 262.582 538.344 269.824 533.895 274.272L512.673 295.495C512.556 295.611 512.406 295.669 512.255 295.669Z" fill="#25221C"/>
<path d="M379.048 266.334C378.898 266.334 378.747 266.276 378.631 266.16C378.402 265.93 378.402 265.558 378.631 265.325L428.839 215.118C429.071 214.888 429.443 214.888 429.673 215.118C429.903 215.348 429.903 215.723 429.673 215.952L379.465 266.16C379.349 266.276 379.199 266.334 379.048 266.334Z" fill="#25221C"/>
<path d="M299.859 146.177C299.708 146.177 299.558 146.119 299.442 146.005C299.212 145.773 299.212 145.401 299.442 145.171L340.116 104.499C340.346 104.269 340.718 104.269 340.948 104.499C341.18 104.729 341.18 105.101 340.948 105.331L300.276 146.005C300.163 146.119 300.009 146.177 299.859 146.177Z" fill="#25221C"/>
<path d="M501.708 311.948C498.279 311.948 495.491 309.165 495.491 305.741C495.491 302.317 498.279 299.534 501.708 299.534C502.033 299.534 502.297 299.798 502.297 300.123C502.297 300.448 502.033 300.712 501.708 300.712C498.931 300.712 496.671 302.969 496.671 305.741C496.671 308.513 498.931 310.77 501.708 310.77C504.486 310.77 506.746 308.513 506.746 305.741C506.746 305.416 507.01 305.152 507.334 305.152C507.659 305.152 507.923 305.416 507.923 305.741C507.923 309.165 505.135 311.948 501.708 311.948Z" fill="#25221C"/>
<path d="M421.215 256.278C421.062 256.278 420.911 256.22 420.798 256.104L418.229 253.532C417.997 253.3 417.997 252.928 418.229 252.698C418.459 252.468 418.831 252.468 419.063 252.698L421.632 255.269C421.862 255.502 421.862 255.874 421.629 256.104C421.516 256.22 421.365 256.278 421.215 256.278Z" fill="#25221C"/>
<path d="M430.204 265.278C430.054 265.278 429.903 265.222 429.787 265.106L427.218 262.535C426.988 262.303 426.988 261.93 427.218 261.701C427.45 261.471 427.823 261.471 428.052 261.701L430.621 264.272C430.851 264.504 430.851 264.877 430.621 265.106C430.505 265.222 430.354 265.278 430.204 265.278Z" fill="#25221C"/>
<path d="M418.646 265.278C418.493 265.278 418.342 265.222 418.229 265.106C417.997 264.877 417.997 264.504 418.229 264.272L420.798 261.701C421.027 261.468 421.4 261.471 421.629 261.701C421.862 261.93 421.862 262.303 421.632 262.535L419.063 265.106C418.947 265.222 418.797 265.278 418.646 265.278Z" fill="#25221C"/>
<path d="M427.635 256.278C427.485 256.278 427.334 256.22 427.218 256.104C426.988 255.874 426.988 255.502 427.218 255.269L429.787 252.698C430.017 252.468 430.391 252.468 430.621 252.698C430.851 252.928 430.851 253.3 430.621 253.532L428.052 256.104C427.939 256.22 427.788 256.278 427.635 256.278Z" fill="#25221C"/>
<path d="M330.275 129.064C330.124 129.064 329.974 129.006 329.858 128.89C329.628 128.66 329.628 128.288 329.858 128.059L360.408 97.5085C360.638 97.2762 361.012 97.2762 361.242 97.5085C361.472 97.7382 361.472 98.1104 361.242 98.3427L330.692 128.89C330.576 129.006 330.425 129.064 330.275 129.064Z" fill="#25221C"/>
</svg>
