<svg width="32" height="32" viewBox="0 0 32 32" fill="none" xmlns="http://www.w3.org/2000/svg">
<g clip-path="url(#clip0_248_1425)">
<path d="M16.0003 11.9992C14.9395 11.9992 13.922 12.4206 13.1719 13.1708C12.4218 13.9209 12.0003 14.9383 12.0003 15.9992C12.0003 17.0601 12.4218 18.0775 13.1719 18.8276C13.922 19.5778 14.9395 19.9992 16.0003 19.9992C17.0612 19.9992 18.0786 19.5778 18.8288 18.8276C19.5789 18.0775 20.0003 17.0601 20.0003 15.9992C20.0003 14.9383 19.5789 13.9209 18.8288 13.1708C18.0786 12.4206 17.0612 11.9992 16.0003 11.9992ZM16.0003 9.33253C17.7684 9.33253 19.4641 10.0349 20.7144 11.2852C21.9646 12.5354 22.667 14.2311 22.667 15.9992C22.667 17.7673 21.9646 19.463 20.7144 20.7132C19.4641 21.9635 17.7684 22.6659 16.0003 22.6659C14.2322 22.6659 12.5365 21.9635 11.2863 20.7132C10.036 19.463 9.33366 17.7673 9.33366 15.9992C9.33366 14.2311 10.036 12.5354 11.2863 11.2852C12.5365 10.0349 14.2322 9.33253 16.0003 9.33253V9.33253ZM24.667 8.9992C24.667 9.44122 24.4914 9.86515 24.1788 10.1777C23.8663 10.4903 23.4424 10.6659 23.0003 10.6659C22.5583 10.6659 22.1344 10.4903 21.8218 10.1777C21.5093 9.86515 21.3337 9.44122 21.3337 8.9992C21.3337 8.55717 21.5093 8.13325 21.8218 7.82068C22.1344 7.50812 22.5583 7.33253 23.0003 7.33253C23.4424 7.33253 23.8663 7.50812 24.1788 7.82068C24.4914 8.13325 24.667 8.55717 24.667 8.9992V8.9992ZM16.0003 5.33253C12.7017 5.33253 12.163 5.34186 10.6283 5.40986C9.58299 5.4592 8.88166 5.5992 8.23099 5.85253C7.65233 6.07653 7.23499 6.34453 6.79099 6.78986C6.37367 7.19306 6.0528 7.68531 5.85233 8.22986C5.59899 8.8832 5.45899 9.5832 5.41099 10.6272C5.34166 12.0992 5.33366 12.6139 5.33366 15.9992C5.33366 19.2979 5.34299 19.8365 5.41099 21.3712C5.46033 22.4152 5.60033 23.1179 5.85233 23.7672C6.07899 24.3472 6.34566 24.7645 6.78833 25.2072C7.23766 25.6552 7.65499 25.9232 8.22833 26.1445C8.88699 26.3992 9.58833 26.5405 10.6283 26.5885C12.1003 26.6579 12.615 26.6659 16.0003 26.6659C19.299 26.6659 19.8377 26.6565 21.3723 26.5885C22.415 26.5392 23.1177 26.3992 23.7683 26.1472C24.3457 25.9219 24.7657 25.6539 25.2083 25.2112C25.6577 24.7619 25.9257 24.3445 26.147 23.7712C26.4003 23.1139 26.5417 22.4112 26.5897 21.3712C26.659 19.8992 26.667 19.3845 26.667 15.9992C26.667 12.7005 26.6577 12.1619 26.5897 10.6272C26.5403 9.58453 26.4003 8.88053 26.147 8.22986C25.946 7.68586 25.6258 7.19381 25.2097 6.78986C24.8066 6.37232 24.3143 6.05142 23.7697 5.8512C23.1163 5.59786 22.415 5.45786 21.3723 5.40986C19.9003 5.34053 19.3857 5.33253 16.0003 5.33253ZM16.0003 2.66586C19.623 2.66586 20.075 2.6792 21.4963 2.74586C22.9163 2.81253 23.883 3.0352 24.7337 3.36586C25.6137 3.70453 26.355 4.1632 27.0963 4.9032C27.7743 5.56972 28.2989 6.37598 28.6337 7.26586C28.963 8.1152 29.187 9.0832 29.2537 10.5032C29.3163 11.9245 29.3337 12.3765 29.3337 15.9992C29.3337 19.6219 29.3203 20.0739 29.2537 21.4952C29.187 22.9152 28.963 23.8819 28.6337 24.7325C28.2999 25.6229 27.7752 26.4294 27.0963 27.0952C26.4296 27.773 25.6234 28.2975 24.7337 28.6325C23.8843 28.9619 22.9163 29.1859 21.4963 29.2525C20.075 29.3152 19.623 29.3325 16.0003 29.3325C12.3777 29.3325 11.9257 29.3192 10.5043 29.2525C9.08432 29.1859 8.11766 28.9619 7.26699 28.6325C6.37676 28.2985 5.57036 27.7738 4.90433 27.0952C4.2262 26.4288 3.70157 25.6225 3.36699 24.7325C3.03633 23.8832 2.81366 22.9152 2.74699 21.4952C2.68433 20.0739 2.66699 19.6219 2.66699 15.9992C2.66699 12.3765 2.68033 11.9245 2.74699 10.5032C2.81366 9.08186 3.03633 8.11653 3.36699 7.26586C3.70064 6.37544 4.2254 5.56896 4.90433 4.9032C5.57055 4.22484 6.3769 3.70017 7.26699 3.36586C8.11766 3.0352 9.08299 2.81253 10.5043 2.74586C11.9257 2.6832 12.3777 2.66586 16.0003 2.66586Z" fill="#FEFBF7"/>
</g>
<defs>
<clipPath id="clip0_248_1425">
<rect width="32" height="32" fill="white"/>
</clipPath>
</defs>
</svg>
