<svg width="18" height="19" viewBox="0 0 18 19" fill="none" xmlns="http://www.w3.org/2000/svg">
<path d="M15.75 9.12502C15.7526 10.1149 15.5213 11.0914 15.075 11.975C14.5458 13.0338 13.7323 13.9244 12.7256 14.547C11.7189 15.1696 10.5587 15.4996 9.375 15.5C8.3851 15.5026 7.40859 15.2713 6.525 14.825L2.25 16.25L3.675 11.975C3.2287 11.0914 2.99742 10.1149 3 9.12502C3.00046 7.94134 3.33046 6.78116 3.95304 5.77443C4.57562 4.76771 5.46619 3.9542 6.525 3.42502C7.40859 2.97872 8.3851 2.74744 9.375 2.75002H9.75C11.3133 2.83627 12.7898 3.49609 13.8969 4.60317C15.0039 5.71024 15.6638 7.18676 15.75 8.75002V9.12502Z" stroke="#25221C" stroke-width="2" stroke-linecap="round" stroke-linejoin="round"/>
</svg>
