<svg width="116" height="36" viewBox="0 0 116 36" fill="none" xmlns="http://www.w3.org/2000/svg">
<path d="M10.2876 18.2645L8.21446 9.34863H0.981994L0 26.3855H5.59581L5.76727 17.2825L7.84037 26.3855H12.7347L14.8078 17.2825L14.9949 26.3855H20.5907L19.6087 9.34863H12.3762L10.2876 18.2645Z" fill="#FCF7ED"/>
<path d="M52.6904 19.5681C53.5009 19.0849 55.4805 17.8224 55.4805 14.4555C55.4805 12.7098 54.7167 11.1666 53.3607 10.2314C52.1604 9.38968 50.5861 9 48.4195 9H41V26.0368H46.6893V20.4098H47.2661L49.9626 26.0368H56.5093L52.6904 19.5681ZM49.7444 14.7049C49.7444 15.3908 49.4327 15.609 49.1677 15.8116C49.0118 15.9363 48.6689 16.0922 47.9987 16.0922H46.6737V13.3177H47.9831C48.5286 13.3177 48.9027 13.4112 49.1521 13.6138L49.1677 13.6294C49.4171 13.8009 49.7444 14.0191 49.7444 14.7049V14.7049Z" fill="#FCF7ED"/>
<path d="M67.2747 9.34863V15.7862C67.2747 16.6746 67.3371 17.8748 67.3682 18.4827L62.6453 9.39539L62.6297 9.34863H56.5195V26.3855H62.0374V19.9479C62.0374 19.0595 61.9751 17.8281 61.9439 17.2358L66.9162 26.3387L66.9318 26.3855H72.8082V9.34863H67.2747Z" fill="#FCF7ED"/>
<path d="M74.4912 9.34863H80.1805V26.3855H74.4912V9.34863Z" fill="#FCF7ED"/>
<path d="M92.6038 9.34863V15.7862C92.6038 16.6746 92.6662 17.8748 92.6973 18.4827L87.9744 9.39539L87.9588 9.34863H81.8486V26.3855H87.3821V19.9479C87.3821 19.0595 87.3197 17.8281 87.2886 17.2358L92.2609 26.3387L92.2765 26.3855H98.1529V9.34863H92.6038Z" fill="#FCF7ED"/>
<path d="M107.77 16.0198V20.2596H110.342V21.3818C110.264 21.4754 109.796 21.943 108.097 21.943C106.024 21.943 104.683 20.3375 104.683 17.8591C104.683 15.3808 106.024 13.7753 108.097 13.7753C110.014 13.7753 111.105 14.8664 111.464 15.2249L111.511 15.2717L115.298 12.1075L115.236 12.0451L115.111 11.9204C114.457 11.219 112.446 9.09912 108.081 9.09912C105.619 9.09912 103.374 9.84731 101.769 11.219C99.9293 12.7777 98.9629 15.069 98.9629 17.8747C98.9629 23.9381 103.483 26.6659 107.972 26.6659C112.446 26.6659 114.457 24.8422 115.781 23.6264L115.875 23.5329V16.0198H107.77Z" fill="#FCF7ED"/>
<path d="M30.8475 27.3986C35.9954 27.3986 40.1687 23.2254 40.1687 18.0775C40.1687 12.9296 35.9954 8.75635 30.8475 8.75635C25.6996 8.75635 21.5264 12.9296 21.5264 18.0775C21.5264 23.2254 25.6996 27.3986 30.8475 27.3986Z" fill="#FCF7ED"/>
<path d="M30.8473 27.4764C25.6724 27.4764 21.4482 23.2679 21.4482 18.0773C21.4482 12.8868 25.6568 8.67822 30.8473 8.67822C36.0223 8.67822 40.2464 12.8868 40.2464 18.0773C40.2464 23.2679 36.0379 27.4764 30.8473 27.4764V27.4764ZM30.8473 8.84968C25.7503 8.84968 21.6041 12.9959 21.6041 18.0929C21.6041 23.1899 25.7503 27.3361 30.8473 27.3361C35.9443 27.3361 40.0905 23.1899 40.0905 18.0929C40.0905 12.9959 35.9443 8.84968 30.8473 8.84968V8.84968Z" fill="#FCF7ED"/>
<path d="M2.2754 7.6652H4.67583V2.58377H6.28132V0.682129H0.669922V2.58377H2.2754V7.6652Z" fill="#FCF7ED"/>
<path d="M9.00984 0.682129H6.625V7.6652H9.00984V5.14007H10.7244V7.6652H13.1093V0.682129H10.7244V3.16049H9.00984V0.682129Z" fill="#FCF7ED"/>
<path d="M18.705 5.09331V3.19167H16.2267V2.59936H18.8609V0.682129H13.8574V7.6652H18.9544V5.73238H16.2267V5.09331H18.705Z" fill="#FCF7ED"/>
<path d="M87.4442 31.2642C87.1636 31.0304 86.7116 30.7966 86.1348 30.5939C85.9634 30.5316 85.6984 30.4536 85.4802 30.3913C85.3711 30.3601 85.2776 30.3289 85.2152 30.3134L85.1529 30.2978C84.997 30.251 84.732 30.1731 84.732 30.0328C84.732 29.9237 84.7943 29.799 85.2775 29.799C85.6828 29.799 86.4934 30.0172 87.0545 30.516L87.1324 30.5783L88.1768 28.6455L88.13 28.5988C87.4286 28.022 86.3531 27.6479 85.3243 27.6479C84.3579 27.6479 83.5318 27.8973 83.0018 28.3338C82.7212 28.5676 82.0822 29.2067 82.0822 30.2666C82.0822 31.233 82.503 31.7006 82.8148 31.9656C83.1733 32.2618 83.563 32.4176 83.8124 32.5112L83.9059 32.5423C84.1241 32.6203 84.7476 32.8229 85.0282 32.9008C85.2931 32.9788 85.5269 33.0567 85.5269 33.2282C85.5269 33.4464 85.184 33.4776 85.0282 33.4776C84.6852 33.4776 83.7032 33.2282 83.0174 32.6514L82.9395 32.5891L81.7393 34.631L81.8016 34.6778C82.7368 35.3636 83.75 35.7221 84.8255 35.7221C85.7919 35.7221 86.5557 35.5039 87.148 35.0519C87.8027 34.5375 88.1768 33.7893 88.1768 32.9788C88.1924 32.2773 87.943 31.7006 87.4442 31.2642V31.2642Z" fill="#FCF7ED"/>
<path d="M91.2786 27.7573H88.5977V35.6289H91.2786V32.7764H93.227V35.6289H95.9081V27.7573H93.227V30.5474H91.2786V27.7573Z" fill="#FCF7ED"/>
<path d="M100.522 27.6323C97.9656 27.6323 96.251 29.269 96.251 31.7006C96.251 34.1322 97.9656 35.7533 100.522 35.7533C103.078 35.7533 104.793 34.1166 104.793 31.7006C104.793 29.269 103.078 27.6323 100.522 27.6323ZM100.522 33.3684C99.5866 33.3684 98.9476 32.6826 98.9476 31.6538C98.9476 30.6251 99.5866 29.9392 100.522 29.9392C101.473 29.9392 102.081 30.6095 102.081 31.6538C102.096 32.6826 101.473 33.3684 100.522 33.3684Z" fill="#FCF7ED"/>
<path d="M111.433 27.7573H108.783L107.91 31.7788L107.022 27.7573H104.216L106.429 35.5665L106.445 35.6289H109.141L110.108 31.5294L111.074 35.6289H113.771L116 27.7573H113.21L112.321 31.7788L111.433 27.7573Z" fill="#FCF7ED"/>
</svg>
