<svg width="105" height="36" viewBox="0 0 105 36" fill="none" xmlns="http://www.w3.org/2000/svg">
<path d="M55.7317 11.5708C55.593 11.739 55.5145 11.9268 55.5145 12.2533V21.2318H55.4648C55.4648 21.2318 50.5505 12.4705 50.313 12.0655C50.1448 11.7782 49.957 11.5806 49.7097 11.432C49.4623 11.294 49.2051 11.205 48.7111 11.205H47.0896C46.7133 11.205 46.4765 11.3332 46.3083 11.5316C46.1696 11.699 46.0904 11.8875 46.0904 12.2134V24.94C46.0904 25.2666 46.1696 25.4544 46.3083 25.6225C46.4765 25.8201 46.7133 25.9483 47.0896 25.9483H48.009C48.3846 25.9483 48.6221 25.8201 48.7903 25.6225C48.9283 25.4544 49.0075 25.2666 49.0075 24.94V15.7436H49.0573C49.0573 15.7436 54.1593 24.7816 54.3674 25.118C54.654 25.5924 55.1382 25.9483 55.8305 25.9483H57.403C57.7786 25.9483 58.0161 25.8201 58.1843 25.6225C58.3223 25.4544 58.4015 25.2666 58.4015 24.94V13.4592H79.0583C79.2664 13.4592 79.4241 13.4004 79.5432 13.3016C79.6714 13.1825 79.731 13.0241 79.731 12.7873V11.9169C79.731 11.6794 79.6714 11.521 79.5432 11.4026C79.4241 11.3038 79.2664 11.2443 79.0583 11.2443H56.513C56.1374 11.2443 55.8999 11.3732 55.7317 11.5708M64.7501 14.9721C61.3187 14.9721 59.3902 17.6524 59.3902 20.4806C59.3902 23.4965 61.4574 26.1467 64.7697 26.1467C66.4213 26.1467 68.0428 25.5237 68.972 24.4257C69.3777 23.9513 69.7043 23.2884 69.7043 22.8834C69.7043 22.7446 69.6741 22.6262 69.5957 22.5372C69.5165 22.4384 69.3974 22.3788 69.19 22.3788H67.5979C67.2811 22.3788 67.0639 22.4973 66.9056 22.7348C66.441 23.4173 65.7683 23.7733 64.7796 23.7733C63.2961 23.7733 62.3375 22.6458 62.2681 21.4097H69.1507C69.4569 21.4097 69.6741 21.3404 69.8227 21.1925C69.9909 21.0341 70.0701 20.8064 70.0701 20.3811C70.0701 19.0861 69.6643 17.7414 68.8144 16.7127C67.9441 15.6743 66.619 14.9721 64.7501 14.9721M75.3599 14.9721C72.6509 14.9721 70.871 16.258 70.871 18.3146C70.871 19.0462 71.138 19.6397 71.5731 20.1043C72.0777 20.6488 72.7994 21.0243 73.8477 21.2913L76.1118 21.8645C76.7347 22.0229 77.2883 22.2107 77.2883 22.7544C77.2883 23.5953 76.3983 23.8819 75.4496 23.8819C74.9843 23.8819 74.5001 23.7929 74.1042 23.5953C73.8274 23.4566 73.5905 23.2589 73.4223 22.992C73.2738 22.7642 73.2247 22.5961 72.997 22.4678C72.8583 22.3887 72.6901 22.3788 72.463 22.3788H71.2368C70.9698 22.3788 70.8416 22.458 70.7526 22.5666C70.6636 22.6752 70.6335 22.8336 70.6335 22.992C70.6335 23.3872 70.7722 23.8819 71.0987 24.3269C71.8499 25.3352 73.4224 26.1467 75.4292 26.1467C77.4074 26.1467 80.1466 25.3254 80.1466 22.6753C80.1466 21.9935 79.9482 21.4097 79.5825 20.9353C79.1179 20.332 78.4557 19.9165 77.3282 19.6299L75.0838 19.056C74.1539 18.8191 73.7187 18.651 73.7187 18.0771C73.7187 17.5235 74.2135 17.0785 75.3599 17.0785C76.0326 17.0785 76.6457 17.2271 77.0416 17.6426C77.3674 17.9888 77.3086 18.1668 77.5658 18.3048C77.7234 18.384 77.9014 18.384 78.1789 18.384H79.2959C79.4739 18.384 79.6028 18.3546 79.7009 18.2452C79.7808 18.1562 79.8298 18.0182 79.8298 17.7905C79.8298 17.2761 79.4935 16.614 78.9006 16.1094C78.1095 15.4269 76.8636 14.9721 75.3599 14.9721M81.5207 15.3484H80.9671C80.7597 15.3484 80.6013 15.4073 80.4829 15.5061C80.354 15.6252 80.2944 15.7836 80.2944 16.0204V16.7029C80.2944 16.9405 80.354 17.0982 80.4829 17.2173C80.6013 17.3161 80.7597 17.3757 80.9671 17.3757H81.5207V22.3095C81.5207 23.575 81.8668 24.3661 82.5094 24.9996C83.1029 25.5826 83.8744 25.9483 85.2191 25.9483H86.0593C86.2674 25.9483 86.4251 25.8895 86.5442 25.7907C86.6724 25.6716 86.7516 25.5132 86.7516 25.2764V24.4159C86.7516 24.1783 86.6724 24.0207 86.5442 23.9015C86.4251 23.8027 86.2674 23.7432 86.0593 23.7432H85.9409C85.4069 23.7432 85.0412 23.6051 84.7938 23.3676C84.4974 23.0908 84.3488 22.6654 84.3488 22.1119V17.3757H86.149C86.3564 17.3757 86.5148 17.3161 86.6332 17.2173C86.7614 17.0982 86.821 16.9405 86.821 16.7029V16.0204C86.821 15.7836 86.7614 15.6252 86.6332 15.5061C86.5148 15.4073 86.3564 15.3484 86.149 15.3484H84.3586V12.1244C84.3586 11.8672 84.2795 11.6794 84.161 11.5316C84.0125 11.3536 83.8051 11.2443 83.4988 11.2443H82.3812C82.0742 11.2443 81.8668 11.3536 81.7183 11.5316C81.5999 11.6794 81.5207 11.8672 81.5207 12.1244V15.3484ZM87.5729 25.0682C87.5729 25.3254 87.6514 25.5132 87.7705 25.6617C87.9183 25.8397 88.1265 25.9483 88.4327 25.9483H89.6092C89.9161 25.9483 90.1235 25.8397 90.2721 25.6617C90.3905 25.5132 90.4697 25.3254 90.4697 25.0682V12.1251C90.4697 11.8679 90.3905 11.6801 90.2721 11.5316C90.1235 11.3536 89.9161 11.2443 89.6092 11.2443H88.4327C88.1265 11.2443 87.9183 11.3536 87.7705 11.5316C87.6514 11.6801 87.5729 11.8679 87.5729 12.1251V25.0682ZM62.2878 19.3033C62.416 18.0869 63.3459 17.1773 64.7599 17.1773C66.1446 17.1773 67.1032 18.0869 67.2321 19.3033H62.2878ZM101.179 13.4592C101.386 13.4592 101.545 13.4004 101.663 13.3016C101.792 13.1825 101.852 13.0241 101.852 12.7873V11.8672C101.852 11.5112 101.782 11.3332 101.663 11.205C101.555 11.0859 101.377 11.0172 101.179 11.0172C101.021 11.0172 100.863 11.0368 100.596 11.0663L92.7043 11.8476C92.4773 11.8672 92.3687 11.9366 92.2895 12.0256C92.2005 12.1244 92.1606 12.2533 92.1606 12.4313V12.9449C92.1606 13.1433 92.2005 13.2322 92.2698 13.3114C92.3581 13.4102 92.4871 13.4592 92.6651 13.4592H101.179ZM96.8183 14.9721C93.3868 14.9721 91.4584 17.6524 91.4584 20.4806C91.4584 23.4965 93.5256 26.1467 96.8379 26.1467C98.4896 26.1467 100.111 25.5237 101.04 24.4257C101.446 23.9513 101.772 23.2884 101.772 22.8834C101.772 22.7446 101.742 22.6262 101.663 22.5372C101.585 22.4384 101.466 22.3788 101.258 22.3788H99.6661C99.3494 22.3788 99.1321 22.4973 98.9737 22.7348C98.5092 23.4173 97.8365 23.7733 96.8477 23.7733C95.3643 23.7733 94.405 22.6458 94.3363 21.4097H101.238C101.545 21.4097 101.763 21.3404 101.911 21.1925C102.079 21.0341 102.158 20.8064 102.158 20.3811C102.158 19.0861 101.752 17.7414 100.902 16.7127C100.032 15.6743 98.6871 14.9721 96.8183 14.9721M94.356 19.3033C94.4849 18.0869 95.414 17.1773 96.8281 17.1773C98.2127 17.1773 99.1713 18.0869 99.3003 19.3033H94.356ZM34.9379 13.5778C32.3782 9.75957 30.1288 8.473 29.4961 7.86757C28.801 7.19977 28.2712 6.443 27.9341 6.07862C27.1844 5.25947 26.2139 4.24832 24.6176 4.24832C23.0767 4.24832 22.0585 5.25247 21.7278 6.11998C21.6318 6.36734 21.5561 6.67002 21.4874 6.78003C21.3361 7.02809 20.655 8.19062 20.3726 8.6517H21.6458L21.0264 9.82122C21.7488 9.66285 22.2645 9.54583 22.9527 9.54583C23.5651 9.54583 24.0052 9.69087 24.1979 10.0756C24.5559 10.7917 24.5559 12.9584 25.1614 14.5897C25.7254 16.1229 27.1017 17.6231 28.6496 18.7723C28.6698 18.786 28.6938 18.7931 28.7183 18.7926C28.7939 18.7926 28.8423 18.738 28.8423 18.6826C28.8423 18.6413 28.8283 18.614 28.7939 18.5797C27.5004 17.2861 26.4479 15.8552 25.8838 14.287C25.326 12.7594 25.4157 10.6123 24.9273 9.65583C24.6036 9.02307 23.9162 8.8584 23.2827 8.8584C22.774 8.8584 22.2989 8.96143 22.0789 9.00907L22.6359 8.06657H21.6934C21.8932 7.71621 22.0992 7.39247 22.2029 7.19977C22.2919 7.0344 22.3269 6.82842 22.4369 6.54673C22.7943 5.64489 23.5854 5.07376 24.6176 5.07376C25.9111 5.07376 26.6679 5.90625 27.4177 6.73872C27.7618 7.12412 28.3259 7.92924 28.9796 8.52767C29.4267 8.9404 30.2802 9.40148 31.5941 10.7574C32.3508 11.5415 33.2317 12.5597 34.1601 13.9219C37.4837 18.7856 39.6644 23.072 40.8822 26.4159L40.8619 26.4299C37.3737 24.0629 34.3528 21.8268 31.9178 19.068C30.1905 17.1074 28.6909 14.837 27.3834 11.9402C27.2937 11.7475 27.2187 11.5688 27.136 11.3831C27.1017 11.3075 27.0673 11.2864 27.012 11.2864C26.9433 11.2864 26.895 11.3348 26.895 11.4035C26.895 11.4791 26.9293 11.6445 27.005 11.9746C27.7001 14.9744 29.6264 17.6645 31.6838 19.9005C33.7341 22.1232 36.0521 24.0355 37.9581 25.4257L39.4443 29.6771C39.4787 29.7808 39.52 29.8908 39.52 29.9938C39.52 30.0695 39.499 30.1311 39.4513 30.1725C39.41 30.2138 39.3553 30.2349 39.2313 30.2349H38.7842C38.5915 30.2349 38.5151 30.2068 38.4465 30.1522C38.3778 30.0968 38.3302 30.0141 38.2951 29.9181C38.1648 29.5187 37.38 27.2827 37.2293 26.8286C37.2013 26.7466 37.1529 26.7186 37.0983 26.7186C37.0829 26.7185 37.0676 26.7215 37.0534 26.7273C37.0392 26.7332 37.0262 26.7418 37.0153 26.7527C37.0045 26.7635 36.9958 26.7765 36.99 26.7907C36.9841 26.805 36.9812 26.8202 36.9813 26.8356C36.9813 26.891 37.0016 26.9527 37.0366 27.1454C37.2356 28.1635 37.4697 29.3057 37.5657 29.7394C37.6077 29.9384 37.6554 30.1249 37.6554 30.2622C37.6554 30.3855 37.628 30.4549 37.525 30.5579L37.0639 31.026C36.9539 31.136 36.8916 31.1633 36.8026 31.1633C36.6926 31.1633 36.6029 31.0876 36.5615 30.8949C36.0388 28.4522 35.2477 25.4258 35.0409 24.5856C34.9926 24.4006 34.9583 24.2969 34.8482 24.2969C34.7522 24.2969 34.7179 24.3656 34.7179 24.4483C34.7179 24.5099 34.7312 24.5856 34.7382 24.6409C34.8623 25.5077 35.3647 28.6659 35.9077 31.5487C36.0044 32.0442 36.1901 32.3188 36.6169 32.3188C36.8096 32.3188 36.9946 32.2432 37.167 32.0785C37.4493 31.7961 37.5313 31.7204 37.8691 31.3904C38.1094 31.1563 38.2748 31.0603 38.6875 31.0603H39.7057C39.9468 31.0603 40.0771 30.9987 40.1941 30.888C40.3041 30.785 40.3728 30.6406 40.3728 30.4339C40.3728 30.2209 40.3181 30.0492 40.2425 29.8355C39.9811 29.134 39.1416 26.76 38.8935 26.0929L38.9146 26.0788C39.7744 26.7326 41.0266 27.5651 41.5773 27.5651C41.749 27.5651 41.8527 27.4894 41.8527 27.221C41.8527 25.9555 39.747 20.747 34.9379 13.5778M11.3185 5.58301C11.4629 5.26628 11.7796 5.04622 12.158 5.04622C12.6737 5.04622 13.0865 5.44567 13.0865 5.97542C13.0865 6.28444 12.9421 6.55352 12.7151 6.71819C12.7634 6.89758 12.7978 7.05521 12.7978 7.20657C12.7978 7.78467 12.4537 8.19043 11.8209 8.40415C11.7383 8.75451 11.5869 9.07121 11.3388 9.30525C10.9261 9.70397 10.5064 9.704 10.5064 9.86938C10.5064 9.95907 10.5687 10.0137 10.7404 10.0137C11.5042 10.0137 12.254 9.58768 12.3437 8.87854C13.0731 8.63119 13.5132 7.89469 13.5132 7.31029C13.5132 7.15823 13.4992 7.02791 13.4375 6.90458C13.6372 6.71118 13.8713 6.38111 13.8713 5.8927C13.8713 5.46596 13.6849 5.03294 13.3548 4.71621C13.0661 4.43382 12.6597 4.2481 12.1853 4.2481C11.4972 4.2481 11.0501 4.62021 10.7958 4.98459C10.0453 4.98459 9.07548 5.81703 9.07548 7.00757H8.97247C8.9031 6.59484 8.47707 6.31877 8.11899 6.29845C7.83029 5.43165 7.1765 4.68888 6.10299 4.68888C5.97966 4.68888 5.82831 4.69589 5.69728 4.71621C5.38125 4.42681 5.03017 4.2481 4.54176 4.2481C3.60559 4.2481 2.8418 4.99857 2.8418 5.94736C2.8418 6.53948 3.11017 6.9452 3.6196 7.30327C3.6196 7.30327 3.6126 7.37898 3.6126 7.41332C3.6126 8.1701 4.43806 9.35362 5.66293 9.35362C5.66293 9.54562 5.90398 9.8077 6.17236 9.85535V9.95205H6.06866C4.38341 9.95205 3.66795 10.7642 3.66795 11.3072C3.16552 11.5139 2.8418 12.0711 2.8418 12.5868C2.8418 13.612 3.59227 14.3414 4.5831 14.3414C4.91314 14.3414 5.2502 14.2111 5.48424 14.0317C5.65592 14.0933 5.87595 14.1277 6.10299 14.1277C6.57808 14.1277 7.10785 13.963 7.47923 13.4193C7.53459 13.4263 7.58223 13.4263 7.63758 13.4263C8.24302 13.4263 8.76575 13.0268 9.04114 12.5041C9.10981 12.3737 9.13716 12.2708 9.13716 12.1944C9.13716 12.1194 9.10281 12.057 9.02713 12.057C8.93113 12.057 8.91711 12.1467 8.74543 12.3051C8.36003 12.6561 7.76791 12.7865 7.16248 12.7865C6.86678 13.2202 6.50241 13.4473 6.08267 13.4473C5.77295 13.4473 5.53259 13.3646 5.28453 13.1992C5.08483 13.4192 4.83747 13.5089 4.59642 13.5089C4.05336 13.5089 3.66795 13.1306 3.66795 12.5798C3.66795 12.1944 3.91532 11.851 4.25938 11.72C4.32104 11.0389 5.05049 10.5778 5.95864 10.5778C6.07566 10.5778 6.19267 10.5848 6.3167 10.5988C6.45405 10.3788 6.78411 10.1447 7.25219 10.0824C7.34889 10.0691 7.42387 10.062 7.47923 10.0347C7.53459 10.0067 7.56191 9.95206 7.56191 9.88969C7.56191 9.83503 7.54088 9.78665 7.48623 9.75232C7.43787 9.72499 7.35519 9.71171 7.25919 9.69069C6.82543 9.608 6.3097 9.33961 6.04833 8.68583C5.00915 8.68583 4.24535 7.85335 4.24535 6.91788V6.85621C3.90129 6.71816 3.66795 6.38814 3.66795 5.99573C3.66795 5.48 4.07367 5.06726 4.58941 5.06726C4.89913 5.06726 5.16752 5.2186 5.3399 5.44564C5.48425 5.40429 5.64892 5.39029 5.80728 5.39029C6.57808 5.39029 7.40354 5.8787 7.56191 6.82819C8.55274 6.91788 8.78678 7.75738 8.84844 8.10844C8.88278 8.28713 8.91011 8.43845 9.02713 8.43845C9.15116 8.43845 9.17849 8.30042 9.21983 8.11473C9.29551 7.76437 9.42654 7.48199 9.68792 7.26196C9.68792 6.36012 10.362 5.58301 11.3185 5.58301ZM13.3205 10.9769C12.9968 11.438 12.7634 11.665 12.027 12.5318C11.0571 13.681 10.5477 14.6102 9.70124 16.6739C9.83928 16.6598 10.039 16.6465 10.259 16.6465C10.369 16.6465 10.458 16.6465 10.6031 16.6528L10.7061 16.4328C11.1812 15.4147 11.8202 14.0384 12.7151 12.9789L13.0248 12.6145C13.9462 11.5347 14.5174 10.8942 14.8754 9.42201C14.9995 8.89927 15.1024 8.43187 15.4535 8.09411C15.7695 7.7914 16.169 7.66108 16.5747 7.66108C16.9187 7.66108 17.1738 7.74378 17.5452 7.90144C17.8823 8.04579 18.0056 8.0738 18.3637 8.0738C18.4877 8.0738 18.5767 8.06678 18.6594 8.05977L18.178 8.70657L18.8317 9.16766C18.0126 9.40801 17.5795 10.1998 17.4345 10.5642C17.4072 10.6399 17.3938 10.6882 17.3938 10.7366C17.3938 10.7919 17.4212 10.8466 17.5039 10.8466C17.5929 10.8466 17.6615 10.7779 17.7786 10.6399C18.178 10.1585 18.4947 9.82773 19.9662 9.36735L18.9277 8.58254L19.7119 7.43406H18.9761C18.508 7.43406 18.1983 7.42703 17.7926 7.24134C17.2418 6.98698 16.9601 6.87695 16.4717 6.87695C15.8733 6.87695 15.3295 7.08997 14.8824 7.5027C14.366 7.9771 14.2076 8.61056 14.0226 9.30568C13.8776 9.84174 13.7059 10.4339 13.3205 10.9769" fill="#FCF7ED"/>
<path d="M14.9027 15.6623C14.5103 16.192 13.9736 16.8864 13.5609 17.6229C13.6919 17.6853 14.1256 17.9193 14.277 18.0013C14.7514 17.2859 15.4122 16.4058 15.8452 15.738C16.2376 15.1325 16.396 14.8711 16.4233 14.059C16.4303 13.9216 16.4303 13.7906 16.4437 13.6603C16.478 13.2406 16.5887 12.8138 16.9874 12.4221C17.2831 12.1257 17.7099 11.975 18.1366 11.975C18.5494 11.975 18.7897 12.0913 19.1478 12.0913C19.4021 12.0913 19.5878 12.0297 19.7532 11.968L19.8842 11.9197L19.5675 12.6772L20.3103 12.9792C19.8359 13.2749 18.7967 14.5481 18.7967 16.0547C18.7967 16.5984 18.8794 17.1002 18.9964 17.5472C19.0104 17.5956 19.0378 17.6439 19.1134 17.6439C19.1821 17.6439 19.2305 17.6026 19.2375 17.5269L19.2445 17.3685C19.2648 16.9075 19.2991 16.1787 19.4848 15.5249C19.7945 14.4241 20.627 13.3919 21.4595 12.8965L20.2759 12.3808L20.7854 11.1355L20.2283 11.2526C19.8912 11.3213 19.6432 11.3829 19.3475 11.3829C19.1548 11.3829 18.9348 11.3556 18.6734 11.2932C18.4737 11.2456 18.26 11.2042 17.9579 11.2042C17.4142 11.2042 16.8291 11.4102 16.4304 11.7956C15.7009 12.4908 15.6595 13.2406 15.6112 13.9083C15.5495 14.7955 15.3842 15.0155 14.9027 15.6623M32.5572 16.0819C32.5089 16.0202 32.4675 15.9922 32.4129 15.9922C32.3302 15.9922 32.2888 16.0475 32.2888 16.1092C32.2888 16.2059 32.3575 16.3229 32.5299 16.6123C33.0526 17.4994 33.6994 18.3936 34.4975 19.2337C35.3573 20.1482 36.3685 21.001 37.449 21.7648L37.786 21.9988C37.8344 22.0338 37.8687 22.0542 37.9101 22.0542C37.9788 22.0542 38.0271 21.9855 38.0271 21.9302C38.0271 21.8958 38.0131 21.8608 37.9718 21.8265C36.9676 20.912 35.8871 19.7971 34.8759 18.7243C34.0841 17.8778 33.2726 16.9837 32.5572 16.0819M10.417 12.9654C10.52 12.7937 10.8297 12.374 10.9537 12.2429C10.424 11.1701 9.55718 10.145 9.17879 9.73853L8.86204 10.0482C9.22712 10.578 9.83887 11.6032 10.417 12.9654M5.3739 6.75278C5.31153 6.69742 5.29822 6.66307 5.29822 6.62173C5.29822 6.57408 5.33254 6.51874 5.40822 6.51874C5.43555 6.51874 5.46289 6.52573 5.49793 6.53974C6.00666 6.74576 6.4404 6.98681 6.8258 7.28251C7.14884 7.52987 7.46557 7.83331 7.77459 8.19769L7.48588 8.52774C7.12851 8.23133 5.97232 7.26221 5.3739 6.75278M10.2519 9.05756L9.88048 8.8305C10.1208 8.25941 10.4173 7.73668 10.7676 7.34427C11.0157 7.06258 11.2497 6.83485 11.5111 6.60852C11.5728 6.56017 11.6071 6.51879 11.6687 6.51879C11.7381 6.51879 11.7865 6.57417 11.7865 6.62883C11.7865 6.65616 11.7725 6.69048 11.7451 6.73182C11.3254 7.3856 10.5062 8.67917 10.2519 9.05756M5.58725 12.2498C5.49756 12.2841 5.45623 12.3051 5.40858 12.3051C5.3329 12.3051 5.29785 12.2428 5.29785 12.1944C5.29785 12.1468 5.31887 12.1194 5.36722 12.0774C6.213 11.4173 6.95649 11.156 7.98166 10.9836L8.10498 11.397L5.58725 12.2498ZM23.2346 6.91115C23.2346 6.6701 23.3586 6.23634 23.8057 6.23634C23.957 6.23634 24.1014 6.27067 24.2184 6.32603C24.3838 6.4017 24.4938 6.51172 24.4938 6.62875C24.4938 6.75277 24.3697 6.87681 24.1841 7.02817C23.9914 7.18583 23.744 7.33089 23.5443 7.33089C23.3039 7.33089 23.2346 7.10315 23.2346 6.91115M16.2513 8.91997C16.2513 8.62426 16.43 8.30055 16.774 8.30055C16.9254 8.30055 17.1041 8.36221 17.2351 8.48694C17.3108 8.55561 17.3451 8.6306 17.3451 8.70698C17.3451 8.87235 17.1868 9.03001 17.0011 9.14002C16.8567 9.22271 16.7054 9.27808 16.575 9.27808C16.3613 9.27808 16.2513 9.14631 16.2513 8.91997Z" fill="#FCF7ED"/>
<path d="M17.8681 13.1652C17.8681 13.0966 17.8751 13.0138 17.9024 12.9311C17.9578 12.7525 18.0741 12.5801 18.3635 12.5801C18.4946 12.5801 18.6382 12.6145 18.7552 12.6978C18.8589 12.7665 18.9003 12.8555 18.9003 12.9452C18.9003 13.2409 18.4049 13.585 18.1568 13.585C17.9781 13.585 17.8681 13.4126 17.8681 13.1652M15.1573 21.8477C14.2289 21.8477 13.8154 21.4076 13.8154 20.8505C13.8154 19.873 15.5287 18.9172 17.0696 18.3251L17.469 18.8415C16.5196 19.2192 14.6073 20.0321 14.6073 20.7335C14.6073 20.9809 14.7516 21.1603 15.329 21.1603C16.3339 21.1603 17.4144 20.6711 18.4115 20.1827C18.4872 20.1484 18.5769 20.1141 18.6596 20.1141C18.7899 20.1141 18.8726 20.1554 18.9686 20.2927L19.134 20.5198C17.9715 21.1603 16.5196 21.8477 15.1573 21.8477" fill="#FCF7ED"/>
<path d="M17.7168 22.109C16.8086 22.6177 15.8661 22.9555 15.0337 22.9555C14.1045 22.9555 13.279 22.556 12.5909 21.5168C12.3022 21.0768 12.0752 20.5267 11.7998 20.0383C11.4698 19.4602 11.1117 19.1505 10.4859 19.1505C9.91483 19.1505 9.35704 19.3845 8.76562 19.6389L8.79295 19.7699C8.8413 19.983 8.924 20.1343 9.123 20.1343C9.2127 20.1343 9.30238 20.0937 9.35073 20.0797C9.68077 19.976 9.92114 19.8863 10.2589 19.8863C10.7746 19.8863 11.022 20.1897 11.373 20.9325L11.5041 21.2078C11.146 21.3319 10.3065 21.3935 9.68078 21.3935H9.38507L9.43342 21.6893C9.45374 21.8133 9.50209 21.9163 9.6051 21.9646C9.72843 22.0263 9.90781 22.0333 10.2175 22.0333C11.0016 22.0333 11.5727 21.9373 11.9028 21.8539C12.7493 23.1138 13.9118 23.5952 15.0337 23.5952C15.9894 23.5952 16.9599 23.2442 17.8891 22.7354L17.7168 22.109ZM18.6522 22.4186L18.4875 21.7851C19.9044 21.022 21.198 20.4096 23.2623 20.2099C23.3037 21.001 23.2483 21.9988 23.8334 21.9988C24.3695 21.9988 25.539 20.6156 26.8879 18.882C27.0119 18.999 27.2109 19.123 27.3903 19.2604L27.0463 19.7075C25.7317 21.4004 24.6105 22.8453 23.6884 22.8453C22.8286 22.8453 22.5048 21.8335 22.4915 21.0767C21.1777 21.2077 19.9388 21.6477 18.6522 22.4186M36.8572 8.61011C36.3205 8.61011 36.1691 8.3137 36.1691 7.89467C36.1691 7.02786 36.7129 5.78267 37.057 5.07353H36.2238C35.7907 5.913 34.0845 8.6031 33.1623 9.71796L33.6921 10.2884C34.1875 9.7383 34.7312 8.80284 35.3226 7.88068H35.4326C35.4326 7.92903 35.4264 7.98369 35.4264 8.03204C35.4264 8.80985 35.8251 9.38722 36.8089 9.38722C37.4143 9.38722 38.3638 9.0845 39.2586 8.78178C40.0014 8.52742 40.6825 8.26606 41.0196 8.17006V7.34461C40.6342 7.46093 39.8501 7.76363 39.0379 8.04603C38.1851 8.34173 37.3457 8.61011 36.8572 8.61011M38.6941 11.1074C39.5195 10.7571 40.9988 10.165 41.8523 9.85525V9.01577C40.139 9.64923 37.1321 10.8945 35.0818 12.0093C35.1371 12.0773 35.4952 12.5797 35.5359 12.642C36.4027 12.284 37.1805 12.0499 37.8819 12.0499C38.8664 12.0499 39.6709 12.0499 41.0198 11.7332V11.1004C40.263 11.2385 39.4579 11.4031 38.9351 11.4031C38.6254 11.4031 38.5357 11.3618 38.5357 11.2588C38.5357 11.1971 38.5771 11.1558 38.6941 11.1074" fill="#FCF7ED"/>
<path d="M21.0671 14.9731L20.7363 15.6066H24.2526L23.9912 14.9731H21.0671Z" fill="#FCF7ED"/>
</svg>
