<svg width="105" height="36" viewBox="0 0 105 36" fill="none" xmlns="http://www.w3.org/2000/svg">
<path d="M55.7317 11.5706C55.593 11.7387 55.5145 11.9265 55.5145 12.2531V21.2315H55.4648C55.4648 21.2315 50.5505 12.4703 50.313 12.0653C50.1448 11.778 49.957 11.5803 49.7097 11.4318C49.4623 11.2937 49.2051 11.2048 48.7111 11.2048H47.0896C46.7133 11.2048 46.4765 11.333 46.3083 11.5313C46.1696 11.6988 46.0904 11.8873 46.0904 12.2131V24.9398C46.0904 25.2663 46.1696 25.4541 46.3083 25.6223C46.4765 25.8199 46.7133 25.9481 47.0896 25.9481H48.009C48.3846 25.9481 48.6221 25.8199 48.7903 25.6223C48.9283 25.4541 49.0075 25.2663 49.0075 24.9398V15.7434H49.0573C49.0573 15.7434 54.1593 24.7814 54.3674 25.1177C54.654 25.5921 55.1382 25.9481 55.8305 25.9481H57.403C57.7786 25.9481 58.0161 25.8199 58.1843 25.6223C58.3223 25.4541 58.4015 25.2663 58.4015 24.9398V13.459H79.0583C79.2664 13.459 79.4241 13.4002 79.5432 13.3014C79.6714 13.1822 79.731 13.0239 79.731 12.787V11.9167C79.731 11.6792 79.6714 11.5208 79.5432 11.4024C79.4241 11.3036 79.2664 11.244 79.0583 11.244H56.513C56.1374 11.244 55.8999 11.373 55.7317 11.5706M64.7501 14.9719C61.3187 14.9719 59.3902 17.6522 59.3902 20.4803C59.3902 23.4963 61.4574 26.1464 64.7697 26.1464C66.4213 26.1464 68.0428 25.5235 68.972 24.4254C69.3777 23.951 69.7043 23.2882 69.7043 22.8831C69.7043 22.7444 69.6741 22.626 69.5957 22.537C69.5165 22.4382 69.3974 22.3786 69.19 22.3786H67.5979C67.2811 22.3786 67.0639 22.497 66.9056 22.7346C66.441 23.4171 65.7683 23.773 64.7796 23.773C63.2961 23.773 62.3375 22.6456 62.2681 21.4095H69.1507C69.4569 21.4095 69.6741 21.3401 69.8227 21.1923C69.9909 21.0339 70.0701 20.8062 70.0701 20.3808C70.0701 19.0859 69.6643 17.7412 68.8144 16.7125C67.9441 15.674 66.619 14.9719 64.7501 14.9719M75.3599 14.9719C72.6509 14.9719 70.871 16.2577 70.871 18.3144C70.871 19.0459 71.138 19.6395 71.5731 20.104C72.0777 20.6485 72.7994 21.0241 73.8477 21.2911L76.1118 21.8642C76.7347 22.0226 77.2883 22.2104 77.2883 22.7542C77.2883 23.5951 76.3983 23.8817 75.4496 23.8817C74.9843 23.8817 74.5001 23.7927 74.1042 23.5951C73.8274 23.4563 73.5905 23.2587 73.4223 22.9917C73.2738 22.764 73.2247 22.5958 72.997 22.4676C72.8583 22.3884 72.6901 22.3786 72.463 22.3786H71.2368C70.9698 22.3786 70.8416 22.4578 70.7526 22.5664C70.6636 22.675 70.6335 22.8334 70.6335 22.9917C70.6335 23.3869 70.7722 23.8817 71.0987 24.3266C71.8499 25.335 73.4224 26.1464 75.4292 26.1464C77.4074 26.1464 80.1466 25.3252 80.1466 22.675C80.1466 21.9932 79.9482 21.4095 79.5825 20.9351C79.1179 20.3318 78.4557 19.9162 77.3282 19.6296L75.0838 19.0557C74.1539 18.8189 73.7187 18.6507 73.7187 18.0768C73.7187 17.5233 74.2135 17.0783 75.3599 17.0783C76.0326 17.0783 76.6457 17.2268 77.0416 17.6424C77.3674 17.9885 77.3086 18.1665 77.5658 18.3046C77.7234 18.3838 77.9014 18.3837 78.1789 18.3837H79.2959C79.4739 18.3837 79.6028 18.3543 79.7009 18.245C79.7808 18.156 79.8298 18.018 79.8298 17.7902C79.8298 17.2759 79.4935 16.6137 78.9006 16.1092C78.1095 15.4267 76.8636 14.9719 75.3599 14.9719M81.5207 15.3482H80.9671C80.7597 15.3482 80.6013 15.407 80.4829 15.5058C80.354 15.625 80.2944 15.7833 80.2944 16.0202V16.7027C80.2944 16.9402 80.354 17.0979 80.4829 17.217C80.6013 17.3158 80.7597 17.3754 80.9671 17.3754H81.5207V22.3092C81.5207 23.5747 81.8668 24.3658 82.5094 24.9993C83.1029 25.5823 83.8744 25.9481 85.2191 25.9481H86.0593C86.2674 25.9481 86.4251 25.8893 86.5442 25.7905C86.6724 25.6713 86.7516 25.513 86.7516 25.2761V24.4156C86.7516 24.1781 86.6724 24.0204 86.5442 23.9013C86.4251 23.8025 86.2674 23.7429 86.0593 23.7429H85.9409C85.4069 23.7429 85.0412 23.6049 84.7938 23.3673C84.4974 23.0905 84.3488 22.6652 84.3488 22.1116V17.3754H86.149C86.3564 17.3754 86.5148 17.3158 86.6332 17.217C86.7614 17.0979 86.821 16.9402 86.821 16.7027V16.0202C86.821 15.7833 86.7614 15.625 86.6332 15.5058C86.5148 15.407 86.3564 15.3482 86.149 15.3482H84.3586V12.1241C84.3586 11.867 84.2795 11.6792 84.161 11.5313C84.0125 11.3533 83.8051 11.244 83.4988 11.244H82.3812C82.0742 11.244 81.8668 11.3533 81.7183 11.5313C81.5999 11.6792 81.5207 11.867 81.5207 12.1241V15.3482ZM87.5729 25.068C87.5729 25.3252 87.6514 25.5129 87.7705 25.6615C87.9183 25.8395 88.1265 25.9481 88.4327 25.9481H89.6092C89.9161 25.9481 90.1235 25.8395 90.2721 25.6615C90.3905 25.5129 90.4697 25.3252 90.4697 25.068V12.1248C90.4697 11.8677 90.3905 11.6799 90.2721 11.5313C90.1235 11.3533 89.9161 11.244 89.6092 11.244H88.4327C88.1265 11.244 87.9183 11.3533 87.7705 11.5313C87.6514 11.6799 87.5729 11.8677 87.5729 12.1248V25.068ZM62.2878 19.3031C62.416 18.0866 63.3459 17.1771 64.7599 17.1771C66.1446 17.1771 67.1032 18.0866 67.2321 19.3031H62.2878ZM101.179 13.459C101.386 13.459 101.545 13.4002 101.663 13.3014C101.792 13.1822 101.852 13.0239 101.852 12.787V11.867C101.852 11.511 101.782 11.333 101.663 11.2048C101.555 11.0856 101.377 11.017 101.179 11.017C101.021 11.017 100.863 11.0366 100.596 11.066L92.7043 11.8473C92.4773 11.867 92.3687 11.9363 92.2895 12.0253C92.2005 12.1241 92.1606 12.2531 92.1606 12.431V12.9447C92.1606 13.143 92.2005 13.232 92.2698 13.3111C92.3581 13.41 92.4871 13.459 92.6651 13.459H101.179ZM96.8183 14.9719C93.3868 14.9719 91.4584 17.6522 91.4584 20.4803C91.4584 23.4963 93.5256 26.1464 96.8379 26.1464C98.4896 26.1464 100.111 25.5235 101.04 24.4254C101.446 23.951 101.772 23.2882 101.772 22.8831C101.772 22.7444 101.742 22.626 101.663 22.537C101.585 22.4382 101.466 22.3786 101.258 22.3786H99.6661C99.3494 22.3786 99.1321 22.497 98.9737 22.7346C98.5092 23.4171 97.8365 23.773 96.8477 23.773C95.3643 23.773 94.405 22.6456 94.3363 21.4095H101.238C101.545 21.4095 101.763 21.3401 101.911 21.1923C102.079 21.0339 102.158 20.8062 102.158 20.3808C102.158 19.0859 101.752 17.7412 100.902 16.7125C100.032 15.674 98.6871 14.9719 96.8183 14.9719M94.356 19.3031C94.4849 18.0866 95.414 17.1771 96.8281 17.1771C98.2127 17.1771 99.1713 18.0866 99.3003 19.3031H94.356ZM34.9379 13.5776C32.3782 9.75933 30.1288 8.47275 29.4961 7.86732C28.801 7.19953 28.2712 6.44275 27.9341 6.07838C27.1844 5.25922 26.2139 4.24807 24.6176 4.24807C23.0767 4.24807 22.0585 5.25223 21.7278 6.11973C21.6318 6.36709 21.5561 6.66977 21.4874 6.77979C21.3361 7.02785 20.655 8.19037 20.3726 8.65145H21.6458L21.0264 9.82097C21.7488 9.66261 22.2645 9.54558 22.9527 9.54558C23.5651 9.54558 24.0052 9.69062 24.1979 10.0753C24.5559 10.7915 24.5559 12.9581 25.1614 14.5894C25.7254 16.1226 27.1017 17.6229 28.6496 18.7721C28.6698 18.7858 28.6938 18.7929 28.7183 18.7924C28.7939 18.7924 28.8423 18.7378 28.8423 18.6824C28.8423 18.6411 28.8283 18.6137 28.7939 18.5794C27.5004 17.2859 26.4479 15.8549 25.8838 14.2867C25.326 12.7591 25.4157 10.6121 24.9273 9.65559C24.6036 9.02283 23.9162 8.85816 23.2827 8.85816C22.774 8.85816 22.2989 8.96118 22.0789 9.00883L22.6359 8.06633H21.6934C21.8932 7.71596 22.0992 7.39223 22.2029 7.19953C22.2919 7.03415 22.3269 6.82818 22.4369 6.54648C22.7943 5.64465 23.5854 5.07352 24.6176 5.07352C25.9111 5.07352 26.6679 5.90601 27.4177 6.73847C27.7618 7.12388 28.3259 7.929 28.9796 8.52742C29.4267 8.94015 30.2802 9.40124 31.5941 10.7571C32.3508 11.5413 33.2317 12.5594 34.1601 13.9216C37.4837 18.7854 39.6644 23.0718 40.8822 26.4157L40.8619 26.4297C37.3737 24.0626 34.3528 21.8266 31.9178 19.0678C30.1905 17.1071 28.6909 14.8368 27.3834 11.94C27.2937 11.7473 27.2187 11.5686 27.136 11.3829C27.1017 11.3072 27.0673 11.2862 27.012 11.2862C26.9433 11.2862 26.895 11.3345 26.895 11.4032C26.895 11.4789 26.9293 11.6443 27.005 11.9743C27.7001 14.9741 29.6264 17.6642 31.6838 19.9002C33.7341 22.123 36.0521 24.0353 37.9581 25.4255L39.4443 29.6768C39.4787 29.7805 39.52 29.8906 39.52 29.9936C39.52 30.0693 39.499 30.1309 39.4513 30.1722C39.41 30.2136 39.3553 30.2346 39.2313 30.2346H38.7842C38.5915 30.2346 38.5151 30.2066 38.4465 30.1519C38.3778 30.0966 38.3302 30.0139 38.2951 29.9179C38.1648 29.5185 37.38 27.2824 37.2293 26.8284C37.2013 26.7464 37.1529 26.7184 37.0983 26.7184C37.0829 26.7183 37.0676 26.7212 37.0534 26.7271C37.0392 26.7329 37.0262 26.7415 37.0153 26.7524C37.0045 26.7633 36.9958 26.7762 36.99 26.7905C36.9841 26.8047 36.9812 26.82 36.9813 26.8354C36.9813 26.8907 37.0016 26.9524 37.0366 27.1451C37.2356 28.1633 37.4697 29.3054 37.5657 29.7392C37.6077 29.9382 37.6554 30.1246 37.6554 30.262C37.6554 30.3853 37.628 30.4547 37.525 30.5577L37.0639 31.0257C36.9539 31.1358 36.8916 31.1631 36.8026 31.1631C36.6926 31.1631 36.6029 31.0874 36.5615 30.8947C36.0388 28.4519 35.2477 25.4255 35.0409 24.5853C34.9926 24.4004 34.9583 24.2967 34.8482 24.2967C34.7522 24.2967 34.7179 24.3653 34.7179 24.448C34.7179 24.5097 34.7312 24.5853 34.7382 24.6407C34.8623 25.5075 35.3647 28.6657 35.9077 31.5485C36.0044 32.0439 36.1901 32.3186 36.6169 32.3186C36.8096 32.3186 36.9946 32.2429 37.167 32.0782C37.4493 31.7958 37.5313 31.7202 37.8691 31.3901C38.1094 31.1561 38.2748 31.0601 38.6875 31.0601H39.7057C39.9468 31.0601 40.0771 30.9984 40.1941 30.8877C40.3041 30.7847 40.3728 30.6404 40.3728 30.4336C40.3728 30.2206 40.3181 30.0489 40.2425 29.8352C39.9811 29.1338 39.1416 26.7597 38.8935 26.0926L38.9146 26.0786C39.7744 26.7324 41.0266 27.5649 41.5773 27.5649C41.749 27.5649 41.8527 27.4892 41.8527 27.2208C41.8527 25.9553 39.747 20.7468 34.9379 13.5776M11.3185 5.58277C11.4629 5.26604 11.7796 5.04597 12.158 5.04597C12.6737 5.04597 13.0865 5.44542 13.0865 5.97517C13.0865 6.2842 12.9421 6.55327 12.7151 6.71795C12.7634 6.89733 12.7978 7.05497 12.7978 7.20633C12.7978 7.78443 12.4537 8.19018 11.8209 8.4039C11.7383 8.75427 11.5869 9.07096 11.3388 9.30501C10.9261 9.70372 10.5064 9.70376 10.5064 9.86913C10.5064 9.95883 10.5687 10.0135 10.7404 10.0135C11.5042 10.0135 12.254 9.58744 12.3437 8.8783C13.0731 8.63094 13.5132 7.89445 13.5132 7.31004C13.5132 7.15798 13.4992 7.02766 13.4375 6.90433C13.6372 6.71093 13.8713 6.38087 13.8713 5.89246C13.8713 5.46571 13.6849 5.03269 13.3548 4.71597C13.0661 4.43357 12.6597 4.24786 12.1853 4.24786C11.4972 4.24786 11.0501 4.61996 10.7958 4.98434C10.0453 4.98434 9.07548 5.81678 9.07548 7.00732H8.97247C8.9031 6.59459 8.47707 6.31853 8.11899 6.29821C7.83029 5.43141 7.1765 4.68864 6.10299 4.68864C5.97966 4.68864 5.82831 4.69564 5.69728 4.71597C5.38125 4.42656 5.03017 4.24786 4.54176 4.24786C3.60559 4.24786 2.8418 4.99833 2.8418 5.94712C2.8418 6.53923 3.11017 6.94495 3.6196 7.30303C3.6196 7.30303 3.6126 7.37874 3.6126 7.41307C3.6126 8.16986 4.43806 9.35338 5.66293 9.35338C5.66293 9.54538 5.90398 9.80745 6.17236 9.8551V9.9518H6.06866C4.38341 9.9518 3.66795 10.7639 3.66795 11.307C3.16552 11.5137 2.8418 12.0708 2.8418 12.5866C2.8418 13.6117 3.59227 14.3412 4.5831 14.3412C4.91314 14.3412 5.2502 14.2108 5.48424 14.0314C5.65592 14.0931 5.87595 14.1274 6.10299 14.1274C6.57808 14.1274 7.10785 13.9628 7.47923 13.419C7.53459 13.426 7.58223 13.426 7.63758 13.426C8.24302 13.426 8.76575 13.0266 9.04114 12.5038C9.10981 12.3735 9.13716 12.2705 9.13716 12.1941C9.13716 12.1192 9.10281 12.0568 9.02713 12.0568C8.93113 12.0568 8.91711 12.1465 8.74543 12.3048C8.36003 12.6559 7.76791 12.7862 7.16248 12.7862C6.86678 13.22 6.50241 13.447 6.08267 13.447C5.77295 13.447 5.53259 13.3643 5.28453 13.199C5.08483 13.419 4.83747 13.5087 4.59642 13.5087C4.05336 13.5087 3.66795 13.1303 3.66795 12.5795C3.66795 12.1941 3.91532 11.8508 4.25938 11.7198C4.32104 11.0386 5.05049 10.5776 5.95864 10.5776C6.07566 10.5776 6.19267 10.5845 6.3167 10.5986C6.45405 10.3785 6.78411 10.1445 7.25219 10.0821C7.34889 10.0688 7.42387 10.0618 7.47923 10.0345C7.53459 10.0064 7.56191 9.95181 7.56191 9.88945C7.56191 9.83479 7.54088 9.78641 7.48623 9.75207C7.43787 9.72474 7.35519 9.71146 7.25919 9.69044C6.82543 9.60776 6.3097 9.33936 6.04833 8.68558C5.00915 8.68558 4.24535 7.85311 4.24535 6.91763V6.85596C3.90129 6.71792 3.66795 6.3879 3.66795 5.99549C3.66795 5.47975 4.07367 5.06701 4.58941 5.06701C4.89913 5.06701 5.16752 5.21836 5.3399 5.44539C5.48425 5.40405 5.64892 5.39005 5.80728 5.39005C6.57808 5.39005 7.40354 5.87846 7.56191 6.82795C8.55274 6.91764 8.78678 7.75713 8.84844 8.1082C8.88278 8.28688 8.91011 8.43821 9.02713 8.43821C9.15116 8.43821 9.17849 8.30018 9.21983 8.11449C9.29551 7.76412 9.42654 7.48174 9.68792 7.26171C9.68792 6.35987 10.362 5.58277 11.3185 5.58277ZM13.3205 10.9767C12.9968 11.4378 12.7634 11.6648 12.027 12.5316C11.0571 13.6808 10.5477 14.61 9.70124 16.6736C9.83928 16.6596 10.039 16.6463 10.259 16.6463C10.369 16.6463 10.458 16.6463 10.6031 16.6526L10.7061 16.4326C11.1812 15.4144 11.8202 14.0382 12.7151 12.9787L13.0248 12.6143C13.9462 11.5344 14.5174 10.894 14.8754 9.42177C14.9995 8.89902 15.1024 8.43162 15.4535 8.09387C15.7695 7.79116 16.169 7.66083 16.5747 7.66083C16.9187 7.66083 17.1738 7.74353 17.5452 7.9012C17.8823 8.04555 18.0056 8.07356 18.3637 8.07356C18.4877 8.07356 18.5767 8.06653 18.6594 8.05953L18.178 8.70632L18.8317 9.16742C18.0126 9.40777 17.5795 10.1996 17.4345 10.564C17.4072 10.6396 17.3938 10.688 17.3938 10.7363C17.3938 10.7917 17.4212 10.8464 17.5039 10.8464C17.5929 10.8464 17.6615 10.7777 17.7786 10.6396C18.178 10.1582 18.4947 9.82749 19.9662 9.36711L18.9277 8.58229L19.7119 7.43381H18.9761C18.508 7.43381 18.1983 7.42679 17.7926 7.2411C17.2418 6.98673 16.9601 6.8767 16.4717 6.8767C15.8733 6.8767 15.3295 7.08973 14.8824 7.50246C14.366 7.97685 14.2076 8.61031 14.0226 9.30543C13.8776 9.84149 13.7059 10.4336 13.3205 10.9767" fill="#25221C"/>
<path d="M14.9027 15.662C14.5103 16.1918 13.9736 16.8862 13.5609 17.6226C13.6919 17.685 14.1256 17.9191 14.277 18.0011C14.7514 17.2856 15.4122 16.4055 15.8452 15.7377C16.2376 15.1323 16.396 14.8709 16.4233 14.0587C16.4303 13.9214 16.4303 13.7904 16.4437 13.66C16.478 13.2403 16.5887 12.8135 16.9874 12.4218C17.2831 12.1254 17.7099 11.9748 18.1366 11.9748C18.5494 11.9748 18.7897 12.0911 19.1478 12.0911C19.4021 12.0911 19.5878 12.0295 19.7532 11.9678L19.8842 11.9194L19.5675 12.6769L20.3103 12.9789C19.8359 13.2747 18.7967 14.5479 18.7967 16.0544C18.7967 16.5982 18.8794 17.0999 18.9964 17.547C19.0104 17.5953 19.0378 17.6437 19.1134 17.6437C19.1821 17.6437 19.2305 17.6024 19.2375 17.5267L19.2445 17.3683C19.2648 16.9072 19.2991 16.1785 19.4848 15.5247C19.7945 14.4238 20.627 13.3916 21.4595 12.8962L20.2759 12.3805L20.7854 11.1353L20.2283 11.2524C19.8912 11.321 19.6432 11.3827 19.3475 11.3827C19.1548 11.3827 18.9348 11.3554 18.6734 11.293C18.4737 11.2453 18.26 11.204 17.9579 11.204C17.4142 11.204 16.8291 11.41 16.4304 11.7954C15.7009 12.4905 15.6595 13.2403 15.6112 13.9081C15.5495 14.7952 15.3842 15.0153 14.9027 15.662M32.5572 16.0816C32.5089 16.02 32.4675 15.9919 32.4129 15.9919C32.3302 15.9919 32.2888 16.0473 32.2888 16.109C32.2888 16.2057 32.3575 16.3227 32.5299 16.6121C33.0526 17.4992 33.6994 18.3933 34.4975 19.2335C35.3573 20.148 36.3685 21.0007 37.449 21.7645L37.786 21.9986C37.8344 22.0336 37.8687 22.054 37.9101 22.054C37.9788 22.054 38.0271 21.9853 38.0271 21.9299C38.0271 21.8956 38.0131 21.8605 37.9718 21.8262C36.9676 20.9118 35.8871 19.7969 34.8759 18.7241C34.0841 17.8776 33.2726 16.9835 32.5572 16.0816M10.417 12.9651C10.52 12.7935 10.8297 12.3737 10.9537 12.2427C10.424 11.1699 9.55718 10.1447 9.17879 9.73829L8.86204 10.048C9.22712 10.5777 9.83887 11.6029 10.417 12.9651M5.3739 6.75253C5.31153 6.69717 5.29822 6.66283 5.29822 6.62149C5.29822 6.57384 5.33254 6.5185 5.40822 6.5185C5.43555 6.5185 5.46289 6.52548 5.49793 6.5395C6.00666 6.74551 6.4404 6.98656 6.8258 7.28227C7.14884 7.52963 7.46557 7.83306 7.77459 8.19744L7.48588 8.52749C7.12851 8.23108 5.97232 7.26196 5.3739 6.75253M10.2519 9.05732L9.88048 8.83026C10.1208 8.25916 10.4173 7.73644 10.7676 7.34403C11.0157 7.06234 11.2497 6.83461 11.5111 6.60827C11.5728 6.55992 11.6071 6.51854 11.6687 6.51854C11.7381 6.51854 11.7865 6.57393 11.7865 6.62859C11.7865 6.65592 11.7725 6.69023 11.7451 6.73157C11.3254 7.38536 10.5062 8.67892 10.2519 9.05732M5.58725 12.2496C5.49756 12.2839 5.45623 12.3049 5.40858 12.3049C5.3329 12.3049 5.29785 12.2425 5.29785 12.1942C5.29785 12.1465 5.31887 12.1192 5.36722 12.0772C6.213 11.4171 6.95649 11.1557 7.98166 10.9833L8.10498 11.3967L5.58725 12.2496ZM23.2346 6.91091C23.2346 6.66985 23.3586 6.23609 23.8057 6.23609C23.957 6.23609 24.1014 6.27042 24.2184 6.32578C24.3838 6.40146 24.4938 6.51148 24.4938 6.6285C24.4938 6.75253 24.3697 6.87656 24.1841 7.02792C23.9914 7.18559 23.744 7.33064 23.5443 7.33064C23.3039 7.33064 23.2346 7.10291 23.2346 6.91091M16.2513 8.91973C16.2513 8.62402 16.43 8.3003 16.774 8.3003C16.9254 8.3003 17.1041 8.36196 17.2351 8.48669C17.3108 8.55536 17.3451 8.63036 17.3451 8.70674C17.3451 8.87211 17.1868 9.02976 17.0011 9.13978C16.8567 9.22246 16.7054 9.27783 16.575 9.27783C16.3613 9.27783 16.2513 9.14606 16.2513 8.91973Z" fill="#25221C"/>
<path d="M17.8681 13.1647C17.8681 13.0961 17.8751 13.0133 17.9024 12.9307C17.9578 12.752 18.0741 12.5796 18.3635 12.5796C18.4946 12.5796 18.6382 12.614 18.7552 12.6974C18.8589 12.766 18.9003 12.855 18.9003 12.9447C18.9003 13.2404 18.4049 13.5845 18.1568 13.5845C17.9781 13.5845 17.8681 13.4121 17.8681 13.1647M15.1573 21.8472C14.2289 21.8472 13.8154 21.4071 13.8154 20.85C13.8154 19.8725 15.5287 18.9167 17.0696 18.3246L17.469 18.8411C16.5196 19.2187 14.6073 20.0316 14.6073 20.733C14.6073 20.9804 14.7516 21.1598 15.329 21.1598C16.3339 21.1598 17.4144 20.6707 18.4115 20.1823C18.4872 20.1479 18.5769 20.1136 18.6596 20.1136C18.7899 20.1136 18.8726 20.1549 18.9686 20.2923L19.134 20.5193C17.9715 21.1598 16.5196 21.8472 15.1573 21.8472" fill="#25221C"/>
<path d="M17.7168 22.109C16.8086 22.6177 15.8661 22.9555 15.0337 22.9555C14.1045 22.9555 13.279 22.556 12.5909 21.5168C12.3022 21.0768 12.0752 20.5267 11.7998 20.0383C11.4698 19.4602 11.1117 19.1505 10.4859 19.1505C9.91483 19.1505 9.35704 19.3845 8.76562 19.6389L8.79295 19.7699C8.8413 19.983 8.924 20.1343 9.123 20.1343C9.2127 20.1343 9.30238 20.0937 9.35073 20.0797C9.68077 19.976 9.92114 19.8863 10.2589 19.8863C10.7746 19.8863 11.022 20.1897 11.373 20.9325L11.5041 21.2078C11.146 21.3319 10.3065 21.3935 9.68078 21.3935H9.38507L9.43342 21.6893C9.45374 21.8133 9.50209 21.9163 9.6051 21.9646C9.72843 22.0263 9.90781 22.0333 10.2175 22.0333C11.0016 22.0333 11.5727 21.9373 11.9028 21.8539C12.7493 23.1138 13.9118 23.5952 15.0337 23.5952C15.9894 23.5952 16.9599 23.2442 17.8891 22.7354L17.7168 22.109ZM18.6522 22.4186L18.4875 21.7851C19.9044 21.022 21.198 20.4096 23.2623 20.2099C23.3037 21.001 23.2483 21.9988 23.8334 21.9988C24.3695 21.9988 25.539 20.6156 26.8879 18.882C27.0119 18.999 27.2109 19.123 27.3903 19.2604L27.0463 19.7075C25.7317 21.4004 24.6105 22.8453 23.6884 22.8453C22.8286 22.8453 22.5048 21.8335 22.4915 21.0767C21.1777 21.2077 19.9388 21.6477 18.6522 22.4186M36.8572 8.61011C36.3205 8.61011 36.1691 8.3137 36.1691 7.89467C36.1691 7.02786 36.7129 5.78267 37.057 5.07353H36.2238C35.7907 5.913 34.0845 8.6031 33.1623 9.71796L33.6921 10.2884C34.1875 9.7383 34.7312 8.80284 35.3226 7.88068H35.4326C35.4326 7.92903 35.4264 7.98369 35.4264 8.03204C35.4264 8.80985 35.8251 9.38722 36.8089 9.38722C37.4143 9.38722 38.3638 9.0845 39.2586 8.78178C40.0014 8.52742 40.6825 8.26606 41.0196 8.17006V7.34461C40.6342 7.46093 39.8501 7.76363 39.0379 8.04603C38.1851 8.34173 37.3457 8.61011 36.8572 8.61011M38.6941 11.1074C39.5195 10.7571 40.9988 10.165 41.8523 9.85525V9.01577C40.139 9.64923 37.1321 10.8945 35.0818 12.0093C35.1371 12.0773 35.4952 12.5797 35.5359 12.642C36.4027 12.284 37.1805 12.0499 37.8819 12.0499C38.8664 12.0499 39.6709 12.0499 41.0198 11.7332V11.1004C40.263 11.2385 39.4579 11.4031 38.9351 11.4031C38.6254 11.4031 38.5357 11.3618 38.5357 11.2588C38.5357 11.1971 38.5771 11.1558 38.6941 11.1074" fill="#25221C"/>
<path d="M21.0671 14.9731L20.7363 15.6066H24.2526L23.9912 14.9731H21.0671Z" fill="#25221C"/>
</svg>
