<svg width="146" height="35" viewBox="0 0 146 35" fill="none" xmlns="http://www.w3.org/2000/svg">
<path fill-rule="evenodd" clip-rule="evenodd" d="M37.4735 22.2901H40.8523C42.1706 22.2901 42.672 22.745 42.672 23.8593C42.672 24.9322 42.1704 25.3866 40.8523 25.3866H37.4733L37.4735 22.2901ZM32.2388 33.5601H37.4738V28.9773H43.081C46.7934 28.9773 48.1298 26.7904 48.1298 23.963C48.1298 20.6809 46.7554 18.8236 43.043 18.8236H32.2388V33.5601ZM63.9457 22.4141H55.0914V24.3956H63.3156V27.9876H55.0914V29.9688H63.9457V33.5601H49.8565V18.8236H63.9455L63.9457 22.4141ZM71.3719 22.2901H74.7506C76.0688 22.2901 76.5703 22.745 76.5703 23.8593C76.5703 24.9322 76.0688 25.3866 74.7506 25.3866H71.3719V22.2901ZM66.1369 33.5601H71.3719V28.9773H76.9781C80.6916 28.9773 82.0285 26.7904 82.0285 23.963C82.0285 20.6809 80.654 18.8236 76.9408 18.8236H66.1369V33.5601ZM87.0955 27.3062C84.5341 26.8721 83.4767 25.221 83.4767 23.1576C83.4767 19.3386 86.8366 18.3076 91.1425 18.3076C97.0453 18.3076 99.4777 20.02 99.6636 23.1371H93.5743C93.5743 22.5383 93.2586 22.1661 92.7768 21.9599C92.3125 21.7335 91.7189 21.6511 91.1427 21.6511C89.5832 21.6511 89.0456 22.0839 89.0456 22.7037C89.0456 23.1158 89.2119 23.3851 89.7318 23.4672L95.9877 24.4988C98.6241 24.9322 100.258 26.2944 100.258 28.7912C100.258 32.3837 97.6217 34.0761 91.7366 34.0761C87.7084 34.0761 83.3085 33.4571 83.2903 29.1226H89.6019C89.6197 29.6174 89.7876 29.9475 90.1593 30.1747C90.5481 30.3814 91.1239 30.4849 91.9405 30.4849C93.5736 30.4849 94.0199 29.9891 94.0199 29.2872C94.0199 28.8538 93.7782 28.4207 93.074 28.2975L87.0955 27.3062ZM107.2 33.5601H101.965V18.8236H107.2L107.2 33.5601ZM126.601 27.8222C126.266 29.7624 125.671 31.3311 124.372 32.404C123.092 33.4774 121.086 34.0761 117.894 34.0761C114.72 34.0761 108.835 33.8278 108.835 26.1922C108.835 18.5551 114.72 18.3073 117.894 18.3073C121.049 18.3073 125.913 18.761 126.601 24.6028H120.697C120.549 23.5491 119.916 22.0221 117.894 22.0221C115.758 22.0221 114.403 23.1984 114.403 26.192C114.403 29.1847 115.721 30.3604 117.633 30.3604C119.286 30.3604 120.27 29.5968 120.697 27.822H126.601V27.8222ZM133.45 26.1925C133.45 23.1987 134.806 22.0226 136.941 22.0226C139.075 22.0226 140.431 23.1989 140.431 26.1925C140.431 29.1853 139.075 30.3609 136.941 30.3609C134.806 30.3606 133.45 29.185 133.45 26.1925ZM127.88 26.1925C127.88 33.8278 133.765 34.0763 136.941 34.0763C140.115 34.0763 146 33.8281 146 26.1925C146 18.5553 140.115 18.3076 136.941 18.3076C133.765 18.3076 127.88 18.5551 127.88 26.1925H127.88ZM24.3286 18.9697C24.6666 11.8996 18.5695 3.93758 10.2573 2.95343L10.2715 2.85681C18.466 2.85681 24.748 10.443 24.748 16.4278C24.7401 17.6736 24.6415 18.4455 24.4663 19.0059L24.3286 18.9697ZM23.8321 19.8684C23.2869 20.5345 22.6012 21.2053 21.7978 21.842C20.3197 13.3422 14.0737 5.90969 9.65808 3.74029L9.56349 3.80622C14.0045 7.45096 19.3011 14.5297 21.3612 22.1755C20.3105 22.9473 19.1755 23.5973 17.9781 24.1128C13.7874 19.3338 9.88047 10.1171 8.62144 4.2685L8.49338 4.30705C8.52178 9.98425 12.5525 19.6219 17.4677 24.3246C16.3404 24.7707 15.1684 25.0945 13.972 25.2905C9.26021 23.4239 5.90608 17.4454 5.90608 11.3211C5.90608 7.32316 7.12505 4.84997 7.36088 4.34382L7.26046 4.30401C6.97518 4.7356 5.18945 7.20752 5.18945 11.5237C5.18945 18.4463 8.60343 23.7375 13.136 25.4038C11.5151 25.5821 9.87636 25.5052 8.27935 25.1759L8.24563 25.2814C8.73048 25.4599 10.3755 26.1504 12.8849 26.1504C18.5608 26.1504 22.3978 22.6238 23.9424 19.9432L23.8321 19.8684Z" fill="#25221C"/>
<path fill-rule="evenodd" clip-rule="evenodd" d="M12.3178 0.358765C8.015 0.358765 2.96973 3.46413 2.96973 6.30273C2.96973 7.40075 3.97391 8.32835 6.05303 8.32835C10.8787 8.32835 15.3625 5.01276 15.3625 2.43459C15.3623 1.07792 14.0596 0.358765 12.3178 0.358765ZM14.0356 2.35446C14.0356 4.52766 9.86235 7.18419 6.37382 7.18419C4.83254 7.18419 3.99978 6.57762 3.99978 5.57673C3.99978 3.37234 8.2204 0.760946 11.4926 0.760946C13.626 0.760946 14.0356 1.84653 14.0356 2.35446V2.35446Z" fill="#25221C"/>
<path fill-rule="evenodd" clip-rule="evenodd" d="M1.25569 7.61708C1.13473 7.82629 0.650391 8.77469 0.650391 9.74641C0.650391 11.5486 2.47111 13.2218 5.82068 13.2218C12.264 13.2218 19.7081 8.47901 19.7081 4.07657C19.7081 2.1004 17.8374 1.02597 16.5383 0.803833L16.5142 0.880922C16.9182 1.00873 18.3981 1.6967 18.3981 3.45706C18.3981 6.96487 11.8253 11.7444 5.27852 11.7444C2.77211 11.7444 1.19306 10.5072 1.19306 8.70495C1.19306 8.1349 1.31173 7.75934 1.34318 7.65056L1.25569 7.61708Z" fill="#25221C"/>
<path fill-rule="evenodd" clip-rule="evenodd" d="M22.3642 4.40564C22.5409 4.53978 23.6022 5.42428 23.6022 7.09691C23.6022 12.8 14.6664 18.4079 6.76657 18.4079C2.05552 18.4079 -0.0920723 16.0818 0.00302104 14.0164H0.0874639C0.272072 15.0891 1.80168 17.0084 5.92493 17.0084C13.8347 17.0084 22.6662 11.2057 22.6662 6.12163C22.6662 5.24956 22.4293 4.70613 22.2954 4.46447L22.3642 4.40564Z" fill="#25221C"/>
<path fill-rule="evenodd" clip-rule="evenodd" d="M25.3509 9.72986C25.3882 9.85132 25.5807 10.3973 25.5807 11.2524C25.5807 17.5965 16.5377 23.0277 8.67281 23.0277C4.62487 23.0277 2.51076 21.0614 2.06445 20.2629L2.13672 20.2097C3.2568 21.1892 5.46296 21.9335 8.03758 21.9335C14.9837 21.9335 25.3484 16.6489 25.2558 9.75293L25.3509 9.72986Z" fill="#25221C"/>
</svg>
