<svg width="146" height="35" viewBox="0 0 146 35" fill="none" xmlns="http://www.w3.org/2000/svg">
<path fill-rule="evenodd" clip-rule="evenodd" d="M37.4735 22.2902H40.8523C42.1706 22.2902 42.672 22.7451 42.672 23.8594C42.672 24.9323 42.1704 25.3867 40.8523 25.3867H37.4733L37.4735 22.2902ZM32.2388 33.5602H37.4738V28.9774H43.081C46.7934 28.9774 48.1298 26.7905 48.1298 23.9631C48.1298 20.681 46.7554 18.8237 43.043 18.8237H32.2388V33.5602ZM63.9457 22.4142H55.0914V24.3957H63.3156V27.9877H55.0914V29.9689H63.9457V33.5602H49.8565V18.8237H63.9455L63.9457 22.4142ZM71.3719 22.2902H74.7506C76.0688 22.2902 76.5703 22.7451 76.5703 23.8594C76.5703 24.9323 76.0688 25.3867 74.7506 25.3867H71.3719V22.2902ZM66.1369 33.5602H71.3719V28.9774H76.9781C80.6916 28.9774 82.0285 26.7905 82.0285 23.9631C82.0285 20.681 80.654 18.8237 76.9408 18.8237H66.1369V33.5602ZM87.0955 27.3063C84.5341 26.8722 83.4767 25.2211 83.4767 23.1577C83.4767 19.3388 86.8366 18.3077 91.1425 18.3077C97.0453 18.3077 99.4777 20.0201 99.6636 23.1372H93.5743C93.5743 22.5385 93.2586 22.1662 92.7768 21.9601C92.3125 21.7336 91.7189 21.6512 91.1427 21.6512C89.5832 21.6512 89.0456 22.0841 89.0456 22.7038C89.0456 23.1159 89.2119 23.3852 89.7318 23.4673L95.9877 24.4989C98.6241 24.9323 100.258 26.2945 100.258 28.7913C100.258 32.3838 97.6217 34.0762 91.7366 34.0762C87.7084 34.0762 83.3085 33.4572 83.2903 29.1227H89.6019C89.6197 29.6175 89.7876 29.9476 90.1593 30.1749C90.5481 30.3815 91.1239 30.485 91.9405 30.485C93.5736 30.485 94.0199 29.9892 94.0199 29.2873C94.0199 28.8539 93.7782 28.4208 93.074 28.2976L87.0955 27.3063ZM107.2 33.5602H101.965V18.8237H107.2L107.2 33.5602ZM126.601 27.8224C126.266 29.7625 125.671 31.3312 124.372 32.4041C123.092 33.4775 121.086 34.0762 117.894 34.0762C114.72 34.0762 108.835 33.828 108.835 26.1923C108.835 18.5552 114.72 18.3075 117.894 18.3075C121.049 18.3075 125.913 18.7611 126.601 24.6029H120.697C120.549 23.5493 119.916 22.0222 117.894 22.0222C115.758 22.0222 114.403 23.1985 114.403 26.1921C114.403 29.1849 115.721 30.3605 117.633 30.3605C119.286 30.3605 120.27 29.5969 120.697 27.8221H126.601V27.8224ZM133.45 26.1926C133.45 23.1988 134.806 22.0227 136.941 22.0227C139.075 22.0227 140.431 23.1991 140.431 26.1926C140.431 29.1854 139.075 30.361 136.941 30.361C134.806 30.3607 133.45 29.1851 133.45 26.1926ZM127.88 26.1926C127.88 33.828 133.765 34.0765 136.941 34.0765C140.115 34.0765 146 33.8282 146 26.1926C146 18.5555 140.115 18.3077 136.941 18.3077C133.765 18.3077 127.88 18.5552 127.88 26.1926H127.88ZM24.3286 18.9698C24.6666 11.8997 18.5695 3.9377 10.2573 2.95355L10.2715 2.85693C18.466 2.85693 24.748 10.4431 24.748 16.4279C24.7401 17.6737 24.6415 18.4457 24.4663 19.0061L24.3286 18.9698ZM23.8321 19.8685C23.2869 20.5347 22.6012 21.2054 21.7978 21.8421C20.3197 13.3423 14.0737 5.90981 9.65808 3.74041L9.56349 3.80635C14.0045 7.45108 19.3011 14.5298 21.3612 22.1756C20.3105 22.9474 19.1755 23.5974 17.9781 24.113C13.7874 19.334 9.88047 10.1172 8.62144 4.26863L8.49338 4.30717C8.52178 9.98437 12.5525 19.622 17.4677 24.3247C16.3404 24.7708 15.1684 25.0946 13.972 25.2906C9.26021 23.424 5.90608 17.4455 5.90608 11.3213C5.90608 7.32328 7.12505 4.85009 7.36088 4.34394L7.26046 4.30413C6.97518 4.73573 5.18945 7.20765 5.18945 11.5239C5.18945 18.4464 8.60343 23.7377 13.136 25.404C11.5151 25.5822 9.87636 25.5053 8.27935 25.176L8.24563 25.2815C8.73048 25.46 10.3755 26.1505 12.8849 26.1505C18.5608 26.1505 22.3978 22.6239 23.9424 19.9433L23.8321 19.8685Z" fill="#FCF7ED"/>
<path fill-rule="evenodd" clip-rule="evenodd" d="M12.3173 0.358887C8.01451 0.358887 2.96924 3.46426 2.96924 6.30286C2.96924 7.40087 3.97342 8.32847 6.05255 8.32847C10.8782 8.32847 15.3621 5.01288 15.3621 2.43471C15.3618 1.07805 14.0592 0.358887 12.3173 0.358887ZM14.0351 2.35458C14.0351 4.52778 9.86186 7.18431 6.37333 7.18431C4.83205 7.18431 3.99929 6.57774 3.99929 5.57685C3.99929 3.37246 8.21991 0.761068 11.4921 0.761068C13.6255 0.761068 14.0351 1.84665 14.0351 2.35458V2.35458Z" fill="#FCF7ED"/>
<path fill-rule="evenodd" clip-rule="evenodd" d="M1.2552 7.61696C1.13424 7.82617 0.649902 8.77456 0.649902 9.74629C0.649902 11.5485 2.47062 13.2216 5.82019 13.2216C12.2635 13.2216 19.7076 8.47889 19.7076 4.07644C19.7076 2.10028 17.837 1.02585 16.5379 0.803711L16.5138 0.8808C16.9177 1.00861 18.3976 1.69657 18.3976 3.45694C18.3976 6.96475 11.8248 11.7443 5.27803 11.7443C2.77163 11.7443 1.19257 10.507 1.19257 8.70483C1.19257 8.13478 1.31125 7.75922 1.34269 7.65043L1.2552 7.61696Z" fill="#FCF7ED"/>
<path fill-rule="evenodd" clip-rule="evenodd" d="M22.3642 4.40576C22.5409 4.53991 23.6022 5.4244 23.6022 7.09703C23.6022 12.8001 14.6664 18.4081 6.76657 18.4081C2.05552 18.4081 -0.0920723 16.082 0.00302104 14.0165H0.0874639C0.272072 15.0892 1.80168 17.0085 5.92493 17.0085C13.8347 17.0085 22.6662 11.2058 22.6662 6.12175C22.6662 5.24968 22.4293 4.70626 22.2954 4.46459L22.3642 4.40576Z" fill="#FCF7ED"/>
<path fill-rule="evenodd" clip-rule="evenodd" d="M25.3504 9.72998C25.3877 9.85145 25.5802 10.3974 25.5802 11.2525C25.5802 17.5966 16.5372 23.0278 8.67232 23.0278C4.62439 23.0278 2.51027 21.0616 2.06396 20.263L2.13624 20.2098C3.25631 21.1894 5.46248 21.9336 8.0371 21.9336C14.9832 21.9336 25.3479 16.649 25.2553 9.75306L25.3504 9.72998Z" fill="#FCF7ED"/>
</svg>
