<svg width="18" height="19" viewBox="0 0 18 19" fill="none" xmlns="http://www.w3.org/2000/svg">
<path d="M16.5001 13.1901V15.4401C16.5009 15.6489 16.4581 15.8557 16.3745 16.0471C16.2908 16.2385 16.168 16.4103 16.0141 16.5515C15.8602 16.6927 15.6785 16.8002 15.4806 16.8671C15.2828 16.934 15.0731 16.9589 14.8651 16.9401C12.5572 16.6893 10.3403 15.9007 8.39257 14.6376C6.58044 13.4861 5.04407 11.9497 3.89257 10.1376C2.62506 8.18098 1.83625 5.95332 1.59007 3.63507C1.57133 3.42767 1.59598 3.21864 1.66245 3.02129C1.72892 2.82394 1.83575 2.64259 1.97615 2.48879C2.11654 2.33499 2.28743 2.2121 2.47792 2.12796C2.6684 2.04382 2.87433 2.00027 3.08257 2.00007H5.33257C5.69655 1.99649 6.04942 2.12538 6.32539 2.36272C6.60137 2.60006 6.78163 2.92966 6.83257 3.29007C6.92754 4.01012 7.10366 4.71712 7.35757 5.39757C7.45848 5.66602 7.48032 5.95776 7.4205 6.23823C7.36069 6.51871 7.22172 6.77616 7.02007 6.98007L6.06757 7.93257C7.13524 9.81023 8.68991 11.3649 10.5676 12.4326L11.5201 11.4801C11.724 11.2784 11.9814 11.1395 12.2619 11.0796C12.5424 11.0198 12.8341 11.0417 13.1026 11.1426C13.783 11.3965 14.49 11.5726 15.2101 11.6676C15.5744 11.719 15.9071 11.9025 16.145 12.1832C16.3828 12.4639 16.5092 12.8223 16.5001 13.1901Z" stroke="#25221C" stroke-width="2" stroke-linecap="round" stroke-linejoin="round"/>
</svg>
