<svg width="580" height="600" viewBox="0 0 580 600" fill="none" xmlns="http://www.w3.org/2000/svg">
<g opacity="0.4">
<path d="M449.865 554.356C438.804 546.451 427.355 539.081 415.721 532.055C392.108 517.786 367.623 505.035 342.968 492.678C330 486.176 316.686 480.297 303.502 474.248C290.24 468.163 276.951 462.13 263.66 456.104C251.515 450.596 239.371 445.088 227.24 439.55C186.843 353.806 142.247 256.599 147.719 256.599L561.519 244.862C571.308 244.862 579.272 252.826 579.272 262.612V549.959C579.272 559.75 571.308 567.714 561.519 567.714L439.514 568.5C433.252 563.904 456.18 558.871 449.865 554.356Z" fill="#FCF7ED"/>
<path d="M133.965 245.865H553.074C562.324 245.865 569.823 253.364 569.823 262.613V549.96C569.823 559.209 562.324 566.711 553.074 566.711H133.965C124.716 566.711 117.217 559.209 117.217 549.96V262.613C117.217 253.364 124.716 245.865 133.965 245.865Z" fill="#25221C"/>
<path d="M553.074 246.597C561.906 246.597 569.091 253.784 569.091 262.613V549.961C569.091 558.793 561.906 565.977 553.074 565.977H133.965C125.135 565.977 117.949 558.793 117.949 549.961V262.613C117.949 253.784 125.135 246.597 133.965 246.597H553.074ZM133.965 567.442H553.074C562.713 567.442 570.556 559.6 570.556 549.961V262.613C570.556 252.974 562.713 245.132 553.074 245.132H133.965C124.326 245.132 116.483 252.974 116.483 262.613V549.961C116.483 559.6 124.326 567.442 133.965 567.442Z" fill="#FCF7ED"/>
<path d="M383.583 567.989H554.676C561.574 567.989 567.186 573.602 567.186 580.497C567.186 587.395 561.574 593.009 554.676 593.009H378.474C371.574 593.009 383.583 567.989 383.583 567.989Z" fill="#FCF7ED"/>
<path d="M37.0634 567.989H440.942C447.851 567.989 453.451 573.589 453.451 580.497C453.451 587.405 447.851 593.009 440.942 593.009H37.0634C30.1552 593.009 24.5552 587.405 24.5552 580.497C24.5552 573.589 30.1552 567.989 37.0634 567.989Z" fill="#25221C"/>
<path d="M440.942 568.721C447.436 568.721 452.719 574.006 452.719 580.498C452.719 586.993 447.436 592.275 440.942 592.275H37.0637C30.5686 592.275 25.2867 586.993 25.2867 580.498C25.2867 574.006 30.5686 568.721 37.0637 568.721H440.942ZM37.0637 593.74H440.942C448.243 593.74 454.184 587.799 454.184 580.498C454.184 573.196 448.243 567.258 440.942 567.258H37.0637C29.7621 567.258 23.8211 573.196 23.8211 580.498C23.8211 587.799 29.7621 593.74 37.0637 593.74Z" fill="#FCF7ED"/>
<path d="M148.014 269.872H539.027C543.085 269.872 546.374 273.16 546.374 277.219V282.626C546.374 286.681 543.085 289.97 539.027 289.97H148.014C143.955 289.97 140.667 286.681 140.667 282.626V277.219C140.667 273.16 143.955 269.872 148.014 269.872Z" fill="#FCF7ED"/>
<path d="M149.909 279.921C149.909 282.593 152.076 284.76 154.749 284.76C157.421 284.76 159.588 282.593 159.588 279.921C159.588 277.249 157.421 275.081 154.749 275.081C152.076 275.081 149.909 277.249 149.909 279.921Z" fill="#25221C"/>
<path d="M140.666 543.403H546.207V299.403H140.666V543.403Z" fill="#25221C"/>
<path d="M545.475 542.669H141.398V300.138H545.475V542.669ZM140.666 544.134H546.207C546.612 544.134 546.939 543.806 546.939 543.403V299.404C546.939 299 546.612 298.672 546.207 298.672H140.666C140.26 298.672 139.932 299 139.932 299.404V543.403C139.932 543.806 140.26 544.134 140.666 544.134Z" fill="#FCF7ED"/>
<path d="M50.0273 474.475H152.424L136.617 596.189C113.149 601.193 89.5584 601.347 65.8338 596.189L50.0273 474.475Z" fill="#FCF7ED"/>
<path d="M42.4602 444.423H159.991L141.847 584.131C114.913 589.868 87.8339 590.045 60.6012 584.131L42.4602 444.423Z" fill="#25221C"/>
<path d="M141.188 583.52C114.414 589.153 87.5289 589.153 61.2634 583.523L43.2929 445.157H159.158L141.188 583.52ZM101.031 589.212C114.653 589.212 128.342 587.756 142.001 584.845C142.303 584.779 142.535 584.53 142.575 584.225L160.716 444.517C160.745 444.311 160.68 444.097 160.542 443.94C160.401 443.783 160.201 443.691 159.991 443.691H42.4601C42.2503 443.691 42.0471 443.783 41.9094 443.94C41.7716 444.097 41.7061 444.311 41.7323 444.517L59.8765 584.225C59.9159 584.53 60.1453 584.779 60.447 584.845C73.8437 587.756 87.4043 589.212 101.031 589.212Z" fill="#FCF7ED"/>
<path d="M49.8601 430.282H152.591L156.286 442.436H46.165L49.8601 430.282Z" fill="#FCF7ED"/>
<path d="M155.296 441.701H47.1516L50.4008 431.012H152.05L155.296 441.701ZM46.1647 443.167H156.286C156.515 443.167 156.735 443.055 156.873 442.871C157.01 442.685 157.053 442.445 156.984 442.222L153.292 430.068C153.197 429.76 152.915 429.55 152.591 429.55H49.8598C49.5353 429.55 49.2533 429.76 49.1582 430.068L45.4631 442.222C45.3975 442.445 45.4368 442.685 45.5778 442.871C45.7155 443.055 45.9319 443.167 46.1647 443.167Z" fill="#25221C"/>
<path d="M36.5515 455.573H165.896V442.435H36.5515V455.573Z" fill="#FCF7ED"/>
<path d="M165.164 454.842H37.2859V443.166H165.164V454.842ZM36.5514 456.307H165.895C166.302 456.307 166.63 455.979 166.63 455.573V442.435C166.63 442.029 166.302 441.701 165.895 441.701H36.5514C36.1481 441.701 35.8203 442.029 35.8203 442.435V455.573C35.8203 455.979 36.1481 456.307 36.5514 456.307Z" fill="#25221C"/>
<path d="M155.706 490.301L146.414 561.616C146.414 561.616 100.054 575.757 55.8079 561.616C50.7194 527.095 46.8046 490.301 46.8046 490.301C46.8046 490.301 100.552 497.596 155.706 490.301Z" fill="#FCF7ED"/>
<path d="M89.847 549.428C89.8962 549.428 89.9421 549.428 89.9913 549.425C92.1323 549.333 93.2896 547.274 94.4142 545.284C95.4404 543.461 96.4109 541.74 97.9519 541.576C99.7256 541.392 101.398 543.366 103.017 545.274C104.785 547.363 106.454 549.336 108.522 548.832C110.09 548.451 110.65 546.92 111.191 545.438C111.716 543.999 112.214 542.641 113.509 542.123C114.752 541.628 115.87 542.199 117.742 543.248C119.267 544.104 120.998 545.077 123.244 545.366C127.244 545.884 131.598 543.979 136.204 539.717C136.499 539.441 136.519 538.979 136.244 538.681C135.968 538.382 135.506 538.366 135.208 538.641C130.939 542.599 126.975 544.373 123.431 543.914C121.467 543.661 119.867 542.763 118.46 541.973C116.637 540.95 114.916 539.986 112.968 540.763C111.063 541.523 110.372 543.415 109.814 544.933C109.296 546.353 108.929 547.225 108.178 547.409C106.988 547.694 105.539 545.986 104.135 544.33C102.358 542.232 100.339 539.845 97.7978 540.12C95.5093 540.363 94.247 542.596 93.1388 544.563C92.1683 546.281 91.2536 547.904 89.929 547.963C88.5913 547.995 87.4962 546.481 86.3224 544.851C84.9027 542.881 83.2929 540.651 80.729 540.438C78.3093 540.238 75.7946 541.92 73.2273 545.432C72.988 545.759 73.0601 546.218 73.388 546.455C73.7126 546.694 74.1716 546.622 74.4109 546.297C76.6568 543.222 78.7421 541.74 80.6076 541.897C82.4994 542.055 83.8404 543.91 85.1355 545.707C86.4535 547.536 87.8175 549.428 89.847 549.428Z" fill="#25221C"/>
<path d="M88.1256 348.245C89.4502 349.579 90.8109 350.868 92.0764 352.248C92.7289 352.917 93.3485 353.615 93.9551 354.327L94.8862 355.373L95.7715 356.458C98.1092 359.35 100.227 362.445 101.686 365.809C103.171 369.143 103.857 372.871 103.037 376.373C102.316 379.901 100.093 382.947 97.4895 385.54C94.8797 388.166 91.8961 390.471 89.1551 393.117C87.7814 394.438 86.4961 395.881 85.3879 397.468C84.2732 399.048 83.4108 400.832 82.8862 402.71C81.8207 406.487 82.3453 410.56 83.8666 414.065C85.3649 417.602 87.6666 420.697 90.2568 423.438C90.3486 423.537 90.5027 423.543 90.601 423.448C90.6961 423.36 90.7027 423.212 90.6174 423.114C88.1813 420.284 86.0075 417.186 84.6764 413.737C84.0108 412.019 83.5682 410.222 83.4207 408.402C83.2797 406.589 83.4469 404.75 83.9715 403.019C84.4895 401.284 85.3158 399.648 86.3944 398.176C87.4633 396.694 88.7321 395.353 90.0698 394.071C92.7551 391.504 95.7584 389.219 98.4731 386.524C99.8338 385.183 101.109 383.717 102.168 382.078C103.237 380.448 104.04 378.612 104.463 376.684C104.903 374.76 104.922 372.75 104.617 370.819C104.322 368.884 103.722 367.019 102.922 365.268C102.742 364.819 102.529 364.386 102.303 363.966C102.076 363.54 101.87 363.107 101.631 362.691C101.132 361.874 100.66 361.038 100.093 360.268L99.2731 359.097C98.9912 358.711 98.6895 358.343 98.401 357.966L97.5158 356.848L96.5846 355.773L95.6502 354.701L94.6731 353.671C94.0207 352.983 93.3551 352.311 92.66 351.668C91.3125 350.343 89.8797 349.114 88.4502 347.884C88.3486 347.796 88.1945 347.806 88.1092 347.907C88.024 348.006 88.0305 348.15 88.119 348.238L88.1256 348.245Z" fill="#FCF7ED"/>
<path d="M82.6961 364.271C83.7059 366.904 84.2993 369.697 84.201 372.481C84.1879 373.874 83.8862 375.235 83.578 376.576C83.3452 377.225 83.1748 377.894 82.8961 378.524L82.4535 379.458C82.3092 379.773 82.1649 380.084 81.9715 380.37C80.5911 382.773 78.6502 384.806 76.6436 386.789C74.6338 388.77 72.4633 390.674 70.66 393.006C68.8699 395.301 67.4601 398.17 67.4174 401.219C67.2961 404.248 68.2469 407.163 69.5683 409.747C72.2797 414.943 76.3453 419.133 80.6043 422.91C80.7026 422.999 80.8534 422.989 80.9387 422.891C81.0207 422.799 81.0174 422.658 80.9354 422.569C78.9682 420.517 77.0534 418.419 75.2993 416.209C73.5354 414.009 71.9682 411.655 70.765 409.156C70.1387 407.914 69.6731 406.612 69.3289 405.291C68.9715 403.973 68.8076 402.615 68.8666 401.274C68.9486 398.573 70.106 396.038 71.7781 393.861C73.4437 391.661 75.5584 389.763 77.5814 387.737C79.6141 385.724 81.5682 383.514 82.9748 380.93C84.3945 378.36 85.1256 375.402 85.0895 372.491C85.0568 369.57 84.3354 366.697 83.1354 364.088C83.0797 363.97 82.9387 363.917 82.8207 363.973C82.7059 364.025 82.6535 364.156 82.6961 364.271Z" fill="#FCF7ED"/>
<path d="M46.3456 135.089H223.781C228.949 135.089 233.139 130.898 233.139 125.731V10.0888C233.139 4.92156 228.949 0.731457 223.781 0.731457H46.3456C41.1784 0.731457 36.9882 4.92156 36.9882 10.0888V125.731C36.9882 130.898 41.1784 135.089 46.3456 135.089Z" fill="#25221C"/>
<path d="M223.781 1.46554C228.535 1.46554 232.404 5.33439 232.404 10.0885V125.731C232.404 130.488 228.535 134.357 223.781 134.357H46.3449C41.5875 134.357 37.7187 130.488 37.7187 125.731V10.0885C37.7187 5.33439 41.5875 1.46554 46.3449 1.46554H223.781ZM46.3449 135.823H223.781C229.341 135.823 233.869 131.295 233.869 125.731V10.0885C233.869 4.52455 229.341 -6.06571e-06 223.781 -6.06571e-06H46.3449C40.781 -6.06571e-06 36.2532 4.52455 36.2532 10.0885V125.731C36.2532 131.295 40.781 135.823 46.3449 135.823Z" fill="#FCF7ED"/>
<path d="M135.063 118.596C135.466 118.596 135.794 118.269 135.794 117.862V17.4262C135.794 17.0197 135.466 16.6918 135.063 16.6918C134.656 16.6918 134.328 17.0197 134.328 17.4262V117.862C134.328 118.269 134.656 118.596 135.063 118.596Z" fill="#FCF7ED"/>
<path d="M59.0268 79.1013H212.771C213.174 79.1013 213.502 78.7734 213.502 78.3668C213.502 77.9635 213.174 77.6357 212.771 77.6357H59.0268C58.6203 77.6357 58.2924 77.9635 58.2924 78.3668C58.2924 78.7734 58.6203 79.1013 59.0268 79.1013Z" fill="#FCF7ED"/>
<path d="M61.9453 80.8522L59.46 78.3669L61.9453 75.885H59.8371L57.3519 78.3669L59.8371 80.8522H61.9453Z" fill="#FCF7ED"/>
<path d="M134.715 111.839C152.292 111.839 166.594 97.5374 166.594 79.9571V61.4851C166.594 44.7146 180.24 31.072 197.01 31.072H212.771C213.174 31.072 213.502 30.7441 213.502 30.3376C213.502 29.9343 213.174 29.6064 212.771 29.6064H197.01C179.433 29.6064 165.132 43.9081 165.132 61.4851V79.9571C165.132 96.7276 151.486 110.374 134.715 110.374C117.945 110.374 104.299 96.7276 104.299 79.9571V61.4851C104.299 43.9081 89.9973 29.6064 72.4202 29.6064H63.1841C62.7809 29.6064 62.453 29.9343 62.453 30.3376C62.453 30.7441 62.7809 31.072 63.1841 31.072H72.4202C89.1907 31.072 102.833 44.7146 102.833 61.4851V79.9571C102.833 97.5374 117.135 111.839 134.715 111.839Z" fill="#FCF7ED"/>
<path d="M318.925 210.259C326.191 212.515 329.893 202.111 343.335 200.495C356.427 198.918 359.516 207.993 373.602 208.305C389.657 208.656 407.682 197.351 408.75 185.849C409.681 175.829 397.334 170.095 400.037 163.288C402.53 157.013 413.443 160.82 424.404 152.692C433.812 145.718 440.322 132.125 437.064 122.387C434.586 114.98 428.457 115.774 425.348 107.252C422.052 98.2196 427.686 94.4557 425.082 85.2426C422.4 75.7508 412.65 66.6164 403.222 66.5214C394.084 66.4295 392.588 74.9082 382.389 75.5213C370.702 76.2263 365.984 65.5017 358.958 68.2C351.378 71.1082 354.565 84.4689 344.506 90.1738C340.312 92.5508 339.125 90.6721 330.643 93.0951C326.319 94.3311 318.017 96.7016 312.922 102.154C303.155 112.603 312.23 126.806 303.794 133.613C297.506 138.685 290.644 132.275 281.339 138.006C275.588 141.551 269.591 149.305 270.88 156.082C272.906 166.747 290.788 163.505 303.306 178.528C314.775 192.292 310.201 207.544 318.925 210.259Z" fill="#FCF7ED"/>
<path d="M440.515 327.38C440.539 327.38 440.563 327.38 440.588 327.376C440.99 327.337 441.284 326.98 441.244 326.576L439.144 305.226C439.104 304.822 438.753 304.537 438.343 304.566C437.941 304.606 437.647 304.966 437.686 305.37L439.787 326.721C439.824 327.098 440.143 327.38 440.515 327.38Z" fill="#FCF7ED"/>
<path d="M66.332 133.072C69.5975 129.977 73.4139 129.882 77.8828 130.436L79.4566 129.449C82.909 127.292 87.0861 126.623 91.0402 127.593L122.178 135.243C123.483 135.561 124.666 134.4 124.371 133.092C123.775 130.479 122.886 126.557 122.197 123.462C121.493 120.292 122.745 118.426 123.801 117.466C124.401 116.918 125.335 116.977 125.87 117.59C129.315 121.541 142.043 136.662 141.64 144.138C141.174 152.784 135.243 177.957 135.243 177.957H108.781L113.968 161.003C114.332 159.816 113.696 158.554 112.525 158.138L74.7385 144.774C74.0566 144.534 73.8336 143.689 74.3025 143.141C75.1418 142.157 76.4697 140.751 77.9156 139.777L67.1714 135.531C66.1943 135.144 65.7943 133.974 66.332 133.072Z" fill="#25221C"/>
<path d="M134.663 177.222H109.771L114.669 161.219C115.148 159.649 114.315 157.996 112.768 157.449L74.9808 144.085C74.8562 144.039 74.8103 143.94 74.7972 143.885C74.7808 143.829 74.771 143.721 74.8595 143.616C75.6825 142.652 76.9546 141.308 78.3251 140.383C78.5513 140.232 78.6726 139.967 78.6431 139.695C78.6136 139.426 78.4365 139.193 78.1841 139.095L67.4398 134.849C67.1743 134.744 66.9677 134.527 66.8759 134.259C66.794 134.016 66.8103 133.754 66.9185 133.524C69.8497 130.803 73.2563 130.6 77.794 131.16C77.9579 131.18 78.1284 131.144 78.2694 131.055L79.8464 130.072C83.1087 128.032 87.1251 127.386 90.8628 128.304L122.004 135.954C122.863 136.167 123.758 135.921 124.391 135.298C125.02 134.678 125.279 133.793 125.082 132.931C124.489 130.318 123.6 126.396 122.912 123.301C122.292 120.527 123.322 118.891 124.292 118.006C124.433 117.878 124.62 117.809 124.814 117.822C125.007 117.836 125.187 117.924 125.318 118.072C133.056 126.94 141.214 138.432 140.909 144.098C140.492 151.865 135.538 173.449 134.663 177.222ZM108.781 178.688H135.243C135.584 178.688 135.879 178.455 135.958 178.124C136.2 177.091 141.909 152.786 142.371 144.177C142.784 136.495 130.266 121.518 126.42 117.108C126.03 116.662 125.489 116.396 124.895 116.36C124.315 116.318 123.745 116.527 123.305 116.924C122.276 117.859 120.669 119.977 121.482 123.619C122.171 126.718 123.059 130.642 123.656 133.255C123.738 133.622 123.633 133.986 123.364 134.255C123.092 134.521 122.722 134.622 122.351 134.531L91.2136 126.885C87.0955 125.872 82.666 126.58 79.0693 128.829L77.712 129.675C72.971 129.114 69.1251 129.416 65.8268 132.54C65.7776 132.586 65.7349 132.639 65.7021 132.698C65.3349 133.311 65.2595 134.052 65.489 134.731C65.7218 135.409 66.2366 135.947 66.9021 136.209L76.4333 139.977C75.3612 140.865 74.4136 141.881 73.7448 142.662C73.3677 143.104 73.2333 143.704 73.3808 144.262C73.5316 144.822 73.948 145.272 74.4923 145.465L112.279 158.829C113.086 159.114 113.518 159.973 113.269 160.79L108.079 177.74C108.01 177.963 108.053 178.203 108.191 178.39C108.328 178.576 108.548 178.688 108.781 178.688Z" fill="#FCF7ED"/>
<path d="M110.233 148.39C110.561 148.39 110.86 148.17 110.942 147.836C111.04 147.445 110.804 147.045 110.41 146.947L83.5612 140.226C83.1678 140.127 82.7711 140.367 82.6727 140.757C82.5744 141.15 82.8137 141.547 83.2072 141.645L110.056 148.367C110.115 148.383 110.174 148.39 110.233 148.39Z" fill="#FCF7ED"/>
<path d="M112.968 140.524C113.296 140.524 113.594 140.305 113.676 139.97C113.774 139.577 113.538 139.18 113.145 139.082L86.2957 132.36C85.9022 132.262 85.5055 132.501 85.4072 132.891C85.3088 133.285 85.5481 133.682 85.9383 133.78L112.787 140.505C112.85 140.518 112.909 140.524 112.968 140.524Z" fill="#FCF7ED"/>
<path d="M466.844 250.262C459.325 250.715 446.726 251.338 439.063 251.705C435.514 251.875 432.849 255.003 433.24 258.538L438.415 305.298C438.415 305.298 426.59 299.98 413.641 284.557C400.692 269.131 389.028 237.426 360.351 236.305C342.102 235.59 296.321 238.512 265.433 240.731C249.567 241.869 234.177 246.734 220.63 255.072C210.787 261.128 196.171 266.538 177.689 263.177C143.755 257.003 128.423 227.957 142.551 181.043C143.846 176.744 140.646 172.413 136.161 172.413H107.378C104.253 172.413 101.509 174.472 100.627 177.472C94.0693 199.84 72.1579 289.964 135.243 318.341C172.476 335.085 211.607 333.157 211.607 333.157L196.151 474.373C194.499 489.465 201.918 504.118 215.089 511.672C228.912 519.596 250.518 526.875 282.662 525.809C309.498 524.921 330.354 520.167 345.751 514.757C366.816 507.357 381.996 488.852 385.226 466.757C388.705 442.967 392.729 406.069 393.391 359.738C393.391 359.738 415.197 383.623 456.689 375.888C507.932 366.338 483.125 279.892 475.189 255.915C474.011 252.354 470.588 250.039 466.844 250.262Z" fill="#25221C"/>
<path d="M393.391 359.006C393.304 359.006 393.216 359.019 393.131 359.052C392.851 359.16 392.663 359.426 392.659 359.728C391.99 406.577 387.854 443.731 384.502 466.652C381.296 488.577 366.355 506.744 345.509 514.068C326.892 520.609 305.742 524.311 282.637 525.078C255.86 525.96 233.25 521.239 215.453 511.036C202.548 503.636 195.256 489.275 196.879 474.452L212.335 333.236C212.358 333.023 212.286 332.81 212.138 332.656C211.991 332.498 211.784 332.416 211.571 332.426C211.181 332.446 172.178 334.151 135.545 317.672C108.988 305.728 94.5222 281.485 92.5518 245.613C90.9616 216.738 98.1615 188.485 101.332 177.679C102.112 175.01 104.601 173.144 107.378 173.144H136.161C138.06 173.144 139.798 174.02 140.929 175.541C142.066 177.072 142.404 179 141.853 180.833C134.165 206.351 134.919 227.711 144.027 242.597C150.876 253.787 162.47 261.154 177.558 263.898C196.778 267.393 211.797 261.367 221.014 255.695C234.302 247.518 249.679 242.597 265.486 241.462C298.925 239.059 342.522 236.341 360.322 237.036C381.637 237.872 393.269 255.718 403.531 271.466C406.806 276.492 409.899 281.236 413.081 285.026C425.989 300.403 437.626 305.744 438.115 305.964C438.354 306.072 438.633 306.046 438.846 305.888C439.059 305.734 439.172 305.479 439.143 305.216L433.969 258.456C433.802 256.948 434.251 255.485 435.235 254.331C436.216 253.184 437.588 252.508 439.098 252.436C446.199 252.095 459.252 251.456 466.889 250.993C470.313 250.777 473.424 252.908 474.495 256.144C480.088 273.046 497.022 330.42 480.083 359.105C474.939 367.813 467.024 373.219 456.556 375.17C415.935 382.744 394.147 359.478 393.932 359.242C393.791 359.088 393.593 359.006 393.391 359.006ZM276.358 526.645C278.443 526.645 280.551 526.613 282.686 526.54C305.938 525.77 327.237 522.039 345.994 515.449C367.355 507.944 382.667 489.327 385.951 466.865C389.269 444.177 393.353 407.573 394.098 361.446C399.33 366.242 420.9 383.305 456.824 376.61C467.726 374.577 475.976 368.937 481.344 359.849C498.598 330.633 481.528 272.734 475.885 255.685C474.605 251.816 470.854 249.282 466.801 249.531C459.172 249.993 446.126 250.633 439.028 250.974C437.109 251.066 435.367 251.921 434.12 253.38C432.872 254.846 432.301 256.705 432.512 258.616L437.538 304.029C434.251 302.262 424.544 296.403 414.203 284.085C411.077 280.364 408.008 275.652 404.758 270.665C394.82 255.416 382.451 236.436 360.377 235.574C342.518 234.875 298.86 237.597 265.381 240C249.342 241.151 233.735 246.148 220.247 254.449C211.247 259.987 196.584 265.869 177.82 262.456C163.155 259.79 151.902 252.656 145.276 241.833C136.391 227.311 135.693 206.364 143.253 181.253C143.942 178.974 143.522 176.574 142.102 174.669C140.693 172.771 138.525 171.679 136.161 171.679H107.378C103.955 171.679 100.889 173.977 99.9255 177.266C96.7354 188.144 89.4862 216.59 91.0895 245.692C93.0927 282.154 107.85 306.82 134.945 319.01C168.883 334.272 204.827 334.069 210.788 333.918L195.42 474.291C193.735 489.695 201.312 504.616 214.725 512.304C231.338 521.832 252.047 526.645 276.358 526.645Z" fill="#FCF7ED"/>
<path d="M439.397 220.731L442.76 217.003V191.904C442.76 189.462 444.74 187.482 447.183 187.482C449.625 187.482 451.605 189.462 451.605 191.904V218.927L475.142 224.052V237.849C475.142 243.859 471.65 249.321 466.197 251.845L465.026 252.386C457.966 255.655 449.72 255.045 443.218 250.777C440.08 248.714 438.003 245.38 437.538 241.655L436.194 230.904C435.732 227.209 436.901 223.495 439.397 220.731Z" fill="#25221C"/>
<path d="M474.409 224.642V237.849C474.409 243.55 471.064 248.787 465.888 251.18L464.718 251.724C457.841 254.908 449.953 254.324 443.619 250.164C440.655 248.216 438.704 245.082 438.263 241.564L436.92 230.813C436.484 227.328 437.585 223.829 439.94 221.219L443.303 217.495C443.425 217.36 443.492 217.183 443.492 217.003V191.905C443.492 189.869 445.147 188.213 447.182 188.213C449.217 188.213 450.872 189.869 450.872 191.905V218.928C450.872 219.272 451.112 219.57 451.449 219.646L474.409 224.642ZM455.55 255.223C458.866 255.223 462.197 254.505 465.333 253.052L466.504 252.511C472.195 249.875 475.873 244.121 475.873 237.849V224.052C475.873 223.708 475.633 223.41 475.297 223.334L452.337 218.337V191.905C452.337 189.062 450.025 186.747 447.182 186.747C444.34 186.747 442.027 189.062 442.027 191.905V216.721L438.853 220.239C436.212 223.164 434.978 227.085 435.467 230.996L436.81 241.744C437.303 245.688 439.492 249.203 442.815 251.387C446.688 253.931 451.104 255.223 455.55 255.223Z" fill="#FCF7ED"/>
<path d="M455.25 226.033H458.129C459.945 226.033 461.416 224.564 461.416 222.747V212.662C461.416 210.846 459.945 209.374 458.129 209.374H456.127C453.828 209.374 451.964 211.239 451.964 213.538V222.747C451.964 224.564 453.435 226.033 455.25 226.033Z" fill="#25221C"/>
<path d="M458.129 210.108C459.538 210.108 460.684 211.252 460.684 212.662V222.747C460.684 224.157 459.538 225.301 458.129 225.301H455.25C453.842 225.301 452.696 224.157 452.696 222.747V213.537C452.696 211.645 454.235 210.108 456.127 210.108H458.129ZM455.25 226.767H458.129C460.345 226.767 462.148 224.963 462.148 222.747V212.662C462.148 210.445 460.345 208.642 458.129 208.642H456.127C453.427 208.642 451.231 210.839 451.231 213.537V222.747C451.231 224.963 453.034 226.767 455.25 226.767Z" fill="#FCF7ED"/>
<path d="M464.702 228.105H465.282C467.097 228.105 468.568 226.633 468.568 224.82V214.987C468.568 213.174 467.097 211.702 465.282 211.702H464.702C462.888 211.702 461.416 213.174 461.416 214.987V224.82C461.416 226.633 462.888 228.105 464.702 228.105Z" fill="#25221C"/>
<path d="M465.281 212.433C466.69 212.433 467.835 213.58 467.835 214.987V224.819C467.835 226.226 466.69 227.374 465.281 227.374H464.702C463.293 227.374 462.148 226.226 462.148 224.819V214.987C462.148 213.58 463.293 212.433 464.702 212.433H465.281ZM464.702 228.839H465.281C467.497 228.839 469.3 227.036 469.3 224.819V214.987C469.3 212.774 467.497 210.97 465.281 210.97H464.702C462.486 210.97 460.683 212.774 460.683 214.987V224.819C460.683 227.036 462.486 228.839 464.702 228.839Z" fill="#FCF7ED"/>
<path d="M471.855 230.695C473.67 230.695 475.142 229.223 475.142 227.41V217.682C475.142 215.866 473.67 214.393 471.855 214.393C470.04 214.393 468.568 215.866 468.568 217.682V227.41C468.568 229.223 470.04 230.695 471.855 230.695Z" fill="#25221C"/>
<path d="M471.854 215.128C473.263 215.128 474.409 216.272 474.409 217.682V227.41C474.409 228.816 473.263 229.964 471.854 229.964C470.446 229.964 469.3 228.816 469.3 227.41V217.682C469.3 216.272 470.446 215.128 471.854 215.128ZM471.854 231.426C474.07 231.426 475.873 229.623 475.873 227.41V217.682C475.873 215.465 474.07 213.662 471.854 213.662C469.638 213.662 467.835 215.465 467.835 217.682V227.41C467.835 229.623 469.638 231.426 471.854 231.426Z" fill="#FCF7ED"/>
<path d="M440.516 226.767C440.664 226.767 440.814 226.721 440.943 226.629L450.995 219.393C451.323 219.16 451.398 218.701 451.162 218.373C450.925 218.045 450.468 217.97 450.14 218.206L440.088 225.439C439.759 225.675 439.685 226.134 439.921 226.462C440.064 226.658 440.288 226.767 440.516 226.767Z" fill="#FCF7ED"/>
<path d="M458.377 243.77C458.766 243.77 459.09 243.462 459.108 243.072C459.473 234.862 454.231 231.511 451.877 230.426L455.767 226.554C456.053 226.269 456.055 225.803 455.769 225.518C455.484 225.229 455.021 225.229 454.734 225.515L450.051 230.177C449.866 230.36 449.794 230.629 449.86 230.878C449.926 231.131 450.121 231.331 450.372 231.4C450.685 231.488 458.06 233.685 457.645 243.006C457.627 243.41 457.94 243.751 458.344 243.77C458.355 243.77 458.366 243.77 458.377 243.77Z" fill="#FCF7ED"/>
<path d="M349.833 544.147C349.833 544.147 358.866 430.016 332.794 393.607L247.801 390.036C247.801 390.036 216.948 428.948 220.289 543.403L349.833 544.147Z" fill="#FCF7ED"/>
<path d="M355.797 236.111L366.728 390.423C367.223 397.396 362.364 403.619 355.476 404.806C333.607 408.577 285.19 414.37 236.132 403.249C230.594 401.993 227.05 396.583 228.191 391.023L258.869 241.42C258.869 241.42 314.194 233.6 355.797 236.111Z" fill="#25221C"/>
<path d="M355.112 236.803L366 390.475C366.469 397.107 361.892 402.957 355.354 404.085C331.538 408.189 284.407 413.442 236.292 402.534C231.086 401.353 227.843 396.36 228.908 391.17L259.482 242.075C265.141 241.304 316.253 234.567 355.112 236.803ZM297.607 410.484C321.636 410.484 342.259 407.825 355.6 405.527C362.885 404.271 367.984 397.757 367.459 390.373L356.528 236.059C356.502 235.691 356.207 235.4 355.839 235.38C314.643 232.888 259.322 240.616 258.767 240.695C258.459 240.737 258.213 240.97 258.151 241.272L227.472 390.875C226.246 396.855 229.977 402.603 235.967 403.963C257.358 408.812 278.554 410.484 297.607 410.484Z" fill="#FCF7ED"/>
<path d="M324.662 387.173C324.974 387.173 325.266 386.973 325.361 386.658C325.482 386.272 325.266 385.862 324.879 385.744C282.135 372.527 261.856 323.488 261.656 322.993C261.505 322.619 261.076 322.439 260.702 322.59C260.328 322.741 260.148 323.17 260.299 323.544C260.502 324.042 281.046 373.724 324.446 387.14C324.518 387.163 324.59 387.173 324.662 387.173Z" fill="#FCF7ED"/>
<path d="M284.348 182.977C286.876 179.938 288.587 176.295 289.315 172.407C290.61 165.485 292.02 159.354 292.02 159.354C302.361 167.928 314.017 162.03 314.017 162.03C323.754 169.597 321.99 180.249 321.99 180.249C321.99 180.249 331.049 179.259 330.413 185.102C329.784 190.905 321.053 192.357 320.921 192.38L331.554 235.315C332.22 238.003 330.544 240.725 327.84 241.315C311.469 244.888 301.207 243.548 296.02 242.164C294.505 241.757 294.043 239.885 295.161 238.784C300.869 233.144 301.833 217.03 301.813 206.446C296.531 207.626 291.656 206.574 289.236 201.718C287.508 198.246 287.049 194.594 287.253 189.108C287.289 188.144 283.718 184.092 284.348 182.977Z" fill="#25221C"/>
<path d="M323.447 180.918C325.034 180.918 327.594 181.141 328.906 182.453C329.548 183.096 329.804 183.938 329.686 185.023C329.119 190.253 320.886 191.643 320.804 191.656C320.601 191.689 320.424 191.807 320.309 191.974C320.197 192.148 320.161 192.358 320.211 192.555L330.843 235.492C331.119 236.604 330.938 237.754 330.332 238.728C329.729 239.692 328.791 240.358 327.683 240.6C311.089 244.223 300.84 242.692 296.211 241.456C295.761 241.338 295.437 241.013 295.319 240.574C295.197 240.118 295.332 239.643 295.676 239.305C301.397 233.653 302.571 218.315 302.545 206.446C302.545 206.223 302.443 206.014 302.27 205.876C302.096 205.738 301.87 205.686 301.653 205.735C297.712 206.61 292.473 206.571 289.893 201.391C288.309 198.21 287.775 194.774 287.984 189.135C288.007 188.535 287.532 187.774 286.624 186.371C286.053 185.489 285.004 183.873 285.004 183.335C287.555 180.227 289.296 176.499 290.034 172.545C290.991 167.446 292.014 162.732 292.479 160.646C301.693 167.505 311.725 163.82 313.912 162.879C322.814 170.079 321.286 180.03 321.27 180.132C321.234 180.358 321.302 180.587 321.46 180.751C321.617 180.918 321.843 181.004 322.073 180.977C322.089 180.977 322.643 180.918 323.447 180.918ZM308.502 244.348C313.735 244.348 320.184 243.738 327.997 242.03C329.493 241.705 330.765 240.807 331.574 239.502C332.391 238.187 332.637 236.64 332.266 235.141L321.817 192.948C324.096 192.43 330.565 190.502 331.142 185.184C331.309 183.646 330.902 182.381 329.938 181.414C328.047 179.525 324.483 179.407 322.814 179.463C323.02 176.656 322.883 167.994 314.466 161.45C314.247 161.276 313.942 161.246 313.689 161.378C313.575 161.433 302.325 166.948 292.486 158.791C292.293 158.627 292.027 158.581 291.784 158.659C291.545 158.741 291.361 158.941 291.306 159.191C291.293 159.253 289.879 165.414 288.594 172.273C287.893 176.033 286.23 179.571 283.784 182.509C283.755 182.541 283.732 182.577 283.709 182.617C283.161 183.591 283.981 184.984 285.394 187.168C285.85 187.873 286.473 188.833 286.522 189.122C286.302 194.987 286.879 198.62 288.584 202.043C290.814 206.522 295.23 208.387 301.079 207.341C301.047 216.954 300.119 232.859 294.647 238.263C293.925 238.974 293.647 239.981 293.902 240.948C294.155 241.899 294.876 242.617 295.83 242.872C298.817 243.669 302.984 244.348 308.502 244.348Z" fill="#FCF7ED"/>
<path d="M301.811 207.18C301.856 207.18 301.902 207.177 301.945 207.167C306.129 206.393 311.866 202.501 312.109 202.337C312.443 202.108 312.529 201.652 312.302 201.318C312.073 200.987 311.617 200.898 311.283 201.128C311.227 201.167 305.558 205.01 301.679 205.728C301.283 205.8 301.02 206.183 301.093 206.58C301.158 206.934 301.466 207.18 301.811 207.18Z" fill="#FCF7ED"/>
<path d="M490.366 229.527H545.081C550.642 229.527 555.167 225.003 555.167 219.442V103.649C555.167 98.0884 550.642 93.5638 545.081 93.5638H510.077C509.672 93.5638 509.344 93.8917 509.344 94.2949C509.344 94.7015 509.672 95.0294 510.077 95.0294H545.081C549.835 95.0294 553.702 98.8949 553.702 103.649V219.442C553.702 224.196 549.835 228.062 545.081 228.062H490.366C489.962 228.062 489.634 228.39 489.634 228.796C489.634 229.2 489.962 229.527 490.366 229.527Z" fill="#FCF7ED"/>
<path d="M367.64 229.527H424.325C424.73 229.527 425.058 229.2 425.058 228.796C425.058 228.39 424.73 228.062 424.325 228.062H367.64C362.886 228.062 359.017 224.196 359.017 219.442V201.731C359.017 201.328 358.689 201 358.286 201C357.879 201 357.551 201.328 357.551 201.731V219.442C357.551 225.003 362.079 229.527 367.64 229.527Z" fill="#FCF7ED"/>
<path d="M358.286 202.466C358.689 202.466 359.017 202.138 359.017 201.731V103.649C359.017 98.8954 362.886 95.0298 367.64 95.0298H424.325C424.73 95.0298 425.058 94.7019 425.058 94.2953C425.058 93.8921 424.73 93.5642 424.325 93.5642H367.64C362.079 93.5642 357.551 98.0888 357.551 103.649V201.731C357.551 202.138 357.879 202.466 358.286 202.466Z" fill="#25221C"/>
<path d="M424.325 95.0294H486.487C486.892 95.0294 487.22 94.7015 487.22 94.295C487.22 93.8917 486.892 93.5638 486.487 93.5638H424.325C423.921 93.5638 423.593 93.8917 423.593 94.295C423.593 94.7015 423.921 95.0294 424.325 95.0294Z" fill="#FCF7ED"/>
<path d="M397.495 211.141H420.689C421.093 211.141 421.421 210.813 421.421 210.407C421.421 210.003 421.093 209.676 420.689 209.676H397.495C397.09 209.676 396.762 210.003 396.762 210.407C396.762 210.813 397.09 211.141 397.495 211.141Z" fill="#FCF7ED"/>
<path d="M478.352 211.141H525.315C525.72 211.141 526.048 210.813 526.048 210.407C526.048 210.003 525.72 209.676 525.315 209.676H478.352C477.947 209.676 477.619 210.003 477.619 210.407C477.619 210.813 477.947 211.141 478.352 211.141Z" fill="#FCF7ED"/>
<path d="M520.182 187.856H451.297L520.182 116.794V187.856ZM449.567 189.322H520.914C521.318 189.322 521.646 188.994 521.646 188.587V114.987C521.646 114.689 521.465 114.42 521.189 114.309C520.913 114.197 520.596 114.263 520.388 114.479L449.041 188.079C448.836 188.292 448.778 188.604 448.893 188.876C449.008 189.144 449.273 189.322 449.567 189.322Z" fill="#FCF7ED"/>
<path d="M514.181 188.587C514.181 192.308 517.196 195.321 520.914 195.321C524.632 195.321 527.646 192.308 527.646 188.587C527.646 184.869 524.632 181.856 520.914 181.856C517.196 181.856 514.181 184.869 514.181 188.587Z" fill="#FCF7ED"/>
<path d="M442.834 188.587C442.834 192.308 445.848 195.321 449.566 195.321C453.285 195.321 456.299 192.308 456.299 188.587C456.299 184.869 453.285 181.856 449.566 181.856C445.848 181.856 442.834 184.869 442.834 188.587Z" fill="#FCF7ED"/>
<path d="M514.181 114.987C514.181 118.705 517.196 121.721 520.914 121.721C524.632 121.721 527.646 118.705 527.646 114.987C527.646 111.269 524.632 108.256 520.914 108.256C517.196 108.256 514.181 111.269 514.181 114.987Z" fill="#FCF7ED"/>
<path d="M502.227 390.226C511.242 390.226 518.575 397.56 518.575 406.573V518.681C518.575 527.697 511.242 535.032 502.227 535.032H422.02C413.005 535.032 405.671 527.697 405.671 518.681V406.573C405.671 397.56 413.005 390.226 422.02 390.226H502.227ZM422.02 536.494H502.227C512.049 536.494 520.04 528.504 520.04 518.681V406.573C520.04 396.753 512.049 388.76 502.227 388.76H422.02C412.198 388.76 404.207 396.753 404.207 406.573V518.681C404.207 528.504 412.198 536.494 422.02 536.494Z" fill="#FCF7ED"/>
<path d="M480.798 513.166H505.711V431.294H480.798V513.166Z" fill="#FCF7ED"/>
<path d="M449.666 513.166H474.579V408.701H449.666V513.166Z" fill="#FCF7ED"/>
<path d="M418.535 513.166H443.448V464.356H418.535V513.166Z" fill="#FCF7ED"/>
<path d="M99.5414 325.823C99.7283 325.823 99.9152 325.751 100.06 325.61C100.345 325.322 100.345 324.859 100.06 324.574L37.9678 262.482C37.6825 262.197 37.2202 262.197 36.9317 262.482C36.6465 262.768 36.6465 263.233 36.9317 263.518L99.0235 325.61C99.1677 325.751 99.3546 325.823 99.5414 325.823Z" fill="#FCF7ED"/>
<path d="M165.895 392.176C166.086 392.176 166.273 392.104 166.413 391.963C166.702 391.678 166.702 391.212 166.413 390.927L126.184 350.697C125.899 350.409 125.433 350.409 125.148 350.697C124.863 350.983 124.863 351.445 125.148 351.733L165.377 391.963C165.522 392.104 165.709 392.176 165.895 392.176Z" fill="#FCF7ED"/>
<path d="M63.2896 257.363C63.4764 257.363 63.6633 257.291 63.8076 257.147C64.0928 256.862 64.0928 256.4 63.8076 256.114L37.4503 229.757C32.4962 224.8 32.4962 216.737 37.4503 211.783C40.129 209.105 41.6011 205.544 41.6011 201.76C41.6011 197.973 40.129 194.413 37.4503 191.737L1.25028 155.537C0.965037 155.252 0.502756 155.252 0.214232 155.537C-0.0710137 155.823 -0.0710137 156.288 0.214232 156.574L36.4142 192.773C38.8142 195.173 40.1388 198.364 40.1388 201.76C40.1388 205.154 38.8142 208.347 36.4142 210.747C30.8896 216.272 30.8896 225.265 36.4142 230.79L62.7715 257.147C62.9158 257.291 63.1027 257.363 63.2896 257.363Z" fill="#FCF7ED"/>
<path d="M228.722 220.931C228.909 220.931 229.096 220.859 229.24 220.715C229.525 220.43 229.525 219.967 229.24 219.679L166.886 157.325C166.598 157.04 166.135 157.04 165.85 157.325C165.565 157.61 165.565 158.076 165.85 158.361L228.204 220.715C228.348 220.859 228.535 220.931 228.722 220.931Z" fill="#FCF7ED"/>
<path d="M327.07 71.7049C327.257 71.7049 327.444 71.6328 327.588 71.4918C327.873 71.2033 327.873 70.741 327.588 70.4558L277.073 19.9444C276.788 19.6591 276.326 19.6591 276.04 19.9444C275.752 20.2296 275.752 20.6919 276.04 20.9772L326.552 71.4918C326.693 71.6328 326.883 71.7049 327.07 71.7049Z" fill="#FCF7ED"/>
<path d="M76.3881 277.58C80.6471 277.58 84.1094 274.124 84.1094 269.872C84.1094 265.619 80.6471 262.163 76.3881 262.163C75.9848 262.163 75.6569 262.491 75.6569 262.895C75.6569 263.298 75.9848 263.626 76.3881 263.626C79.8373 263.626 82.6438 266.429 82.6438 269.872C82.6438 273.314 79.8373 276.117 76.3881 276.117C72.9389 276.117 70.1323 273.314 70.1323 269.872C70.1323 269.468 69.8045 269.14 69.4012 269.14C68.9979 269.14 68.67 269.468 68.67 269.872C68.67 274.124 72.1323 277.58 76.3881 277.58Z" fill="#FCF7ED"/>
<path d="M176.355 208.443C176.545 208.443 176.732 208.371 176.873 208.226L180.063 205.033C180.351 204.745 180.351 204.282 180.063 203.997C179.778 203.712 179.315 203.712 179.027 203.997L175.837 207.19C175.551 207.479 175.551 207.941 175.84 208.226C175.981 208.371 176.168 208.443 176.355 208.443Z" fill="#FCF7ED"/>
<path d="M165.191 219.619C165.378 219.619 165.565 219.55 165.709 219.406L168.899 216.212C169.185 215.924 169.185 215.462 168.899 215.176C168.611 214.891 168.149 214.891 167.863 215.176L164.673 218.37C164.388 218.658 164.388 219.121 164.673 219.406C164.817 219.55 165.004 219.619 165.191 219.619Z" fill="#FCF7ED"/>
<path d="M179.545 219.619C179.735 219.619 179.922 219.55 180.063 219.406C180.351 219.121 180.351 218.658 180.063 218.37L176.873 215.176C176.588 214.888 176.125 214.891 175.84 215.176C175.551 215.462 175.551 215.924 175.837 216.212L179.027 219.406C179.171 219.55 179.358 219.619 179.545 219.619Z" fill="#FCF7ED"/>
<path d="M168.381 208.443C168.568 208.443 168.755 208.371 168.899 208.226C169.185 207.941 169.185 207.479 168.899 207.19L165.709 203.997C165.424 203.712 164.958 203.712 164.673 203.997C164.388 204.282 164.388 204.745 164.673 205.033L167.863 208.226C168.004 208.371 168.191 208.443 168.381 208.443Z" fill="#FCF7ED"/>
<path d="M289.295 50.4524C289.482 50.4524 289.669 50.3802 289.813 50.2359C290.099 49.9507 290.099 49.4884 289.813 49.2032L251.872 11.2623C251.587 10.9737 251.122 10.9737 250.836 11.2623C250.551 11.5475 250.551 12.0098 250.836 12.2983L288.777 50.2359C288.922 50.3802 289.108 50.4524 289.295 50.4524Z" fill="#FCF7ED"/>
</g>
</svg>
