<svg width="41" height="31" viewBox="0 0 41 31" fill="none" xmlns="http://www.w3.org/2000/svg">
<path d="M29.3497 14.7732C30.3579 10.8524 33.4945 7.2677 41 5.69939V0.546387C29.7978 2.45076 22.5164 9.28409 22.5164 19.142C22.5164 25.4152 26.6612 30.1202 32.4863 30.1202C36.8552 30.1202 40.2158 27.4316 40.2158 22.8387C40.2158 18.0218 35.735 14.6611 29.3497 14.7732ZM6.83333 14.7732C7.84153 10.8524 10.9781 7.2677 18.3716 5.69939V0.546387C7.28142 2.45076 0 9.28409 0 19.142C0 25.4152 4.14481 30.1202 9.96995 30.1202C14.3388 30.1202 17.6995 27.4316 17.6995 22.8387C17.6995 18.0218 13.2186 14.6611 6.83333 14.7732Z" fill="#FCF7ED"/>
</svg>
