<svg width="48" height="48" viewBox="0 0 48 48" fill="none" xmlns="http://www.w3.org/2000/svg">
<g clip-path="url(#clip0_175_2065)">
<path d="M31.004 40.0002C29.6809 43.1648 27.1646 45.681 24 47.0042C20.8354 45.681 18.3191 43.1648 16.996 40.0002H21.516C22.168 40.9782 23.01 41.8242 24 42.4862C24.99 41.8262 25.832 40.9782 26.486 40.0002H31.004ZM36 29.6102L40 34.1462V38.0002H8V34.1462L12 29.6102V18.0002C12 11.0342 17.008 5.10616 24 2.91016C30.992 5.10616 36 11.0342 36 18.0002V29.6102ZM34.54 34.0002L32 31.1202V18.0002C32 13.3642 28.86 9.14016 24 7.16016C19.14 9.14016 16 13.3622 16 18.0002V31.1202L13.46 34.0002H34.54ZM24 22.0002C22.9391 22.0002 21.9217 21.5787 21.1716 20.8286C20.4214 20.0784 20 19.061 20 18.0002C20 16.9393 20.4214 15.9219 21.1716 15.1717C21.9217 14.4216 22.9391 14.0002 24 14.0002C25.0609 14.0002 26.0783 14.4216 26.8284 15.1717C27.5786 15.9219 28 16.9393 28 18.0002C28 19.061 27.5786 20.0784 26.8284 20.8286C26.0783 21.5787 25.0609 22.0002 24 22.0002Z" fill="#FCF7ED"/>
</g>
<defs>
<clipPath id="clip0_175_2065">
<rect width="48" height="48" fill="white"/>
</clipPath>
</defs>
</svg>
