<svg width="144" height="37" viewBox="0 0 144 37" fill="none" xmlns="http://www.w3.org/2000/svg">
<path d="M49.4346 27.6976L51.0142 24.0288C52.7212 25.3027 54.9887 25.9651 57.2307 25.9651C58.8868 25.9651 59.9313 25.3282 59.9313 24.36C59.9059 21.6594 50.0206 23.7741 49.9441 16.997C49.9186 13.5576 52.976 10.9079 57.3072 10.9079C59.8804 10.9079 62.4536 11.5448 64.288 12.9971L62.8103 16.7423C61.1288 15.6722 59.0396 14.9079 57.0524 14.9079C55.7021 14.9079 54.8103 15.5448 54.8103 16.3601C54.8358 19.0098 64.7976 17.5575 64.8995 24.0288C64.8995 27.5447 61.9186 30.0161 57.6384 30.0161C54.5046 30.0161 51.6256 29.2772 49.4346 27.6976ZM110.046 22.704C109.256 24.0798 107.778 25.0225 106.071 25.0225C103.549 25.0225 101.511 22.9843 101.511 20.462C101.511 17.9397 103.549 15.9015 106.071 15.9015C107.778 15.9015 109.256 16.8442 110.046 18.2199L114.402 15.7996C112.772 12.8951 109.638 10.9079 106.071 10.9079C100.797 10.9079 96.5172 15.1881 96.5172 20.462C96.5172 25.7358 100.797 30.0161 106.071 30.0161C109.664 30.0161 112.772 28.0543 114.402 25.1244L110.046 22.704ZM67.0906 2.98438H72.5428V29.6594H67.0906V2.98438ZM116.543 2.98438V29.6594H121.995V21.6594L128.466 29.6594H135.447L127.218 20.1562L134.836 11.2901H128.16L121.995 18.6531V2.98438H116.543ZM88.7465 22.755C87.9567 24.0543 86.3262 25.0225 84.4918 25.0225C81.9695 25.0225 79.9313 22.9843 79.9313 20.462C79.9313 17.9397 81.9695 15.9015 84.4918 15.9015C86.3262 15.9015 87.9567 16.9206 88.7465 18.2454V22.755ZM88.7465 11.2901V13.4556C87.8548 11.9525 85.6383 10.9079 83.3198 10.9079C78.53 10.9079 74.7593 15.1372 74.7593 20.4365C74.7593 25.7358 78.53 30.0161 83.3198 30.0161C85.6383 30.0161 87.8548 28.9715 88.7465 27.4683V29.6339H94.1987V11.2901H88.7465Z" fill="#FCF7ED"/>
<path d="M15.7271 22.7292C15.7271 24.5891 14.2239 26.0923 12.364 26.0923C10.5042 26.0923 9.00098 24.5891 9.00098 22.7292C9.00098 20.8694 10.5042 19.3662 12.364 19.3662H15.7271V22.7292ZM17.4086 22.7292C17.4086 20.8694 18.9118 19.3662 20.7716 19.3662C22.6315 19.3662 24.1347 20.8694 24.1347 22.7292V31.1368C24.1347 32.9967 22.6315 34.4999 20.7716 34.4999C18.9118 34.4999 17.4086 32.9967 17.4086 31.1368V22.7292Z" fill="#FCF7ED"/>
<path d="M20.7717 9.22607C18.9119 9.22607 17.4087 7.7229 17.4087 5.86304C17.4087 4.00318 18.9119 2.5 20.7717 2.5C22.6316 2.5 24.1348 4.00318 24.1348 5.86304V9.22607H20.7717ZM20.7717 10.9331C22.6316 10.9331 24.1348 12.4362 24.1348 14.2961C24.1348 16.156 22.6316 17.6591 20.7717 17.6591H12.3386C10.4788 17.6591 8.97559 16.156 8.97559 14.2961C8.97559 12.4362 10.4788 10.9331 12.3386 10.9331H20.7717Z" fill="#FCF7ED"/>
<path d="M34.2494 14.2961C34.2494 12.4362 35.7526 10.9331 37.6125 10.9331C39.4723 10.9331 40.9755 12.4362 40.9755 14.2961C40.9755 16.156 39.4723 17.6591 37.6125 17.6591H34.2494V14.2961ZM32.5679 14.2961C32.5679 16.156 31.0647 17.6591 29.2048 17.6591C27.345 17.6591 25.8418 16.156 25.8418 14.2961V5.86304C25.8418 4.00318 27.345 2.5 29.2048 2.5C31.0647 2.5 32.5679 4.00318 32.5679 5.86304V14.2961Z" fill="#FCF7ED"/>
<path d="M29.2048 27.7738C31.0647 27.7738 32.5679 29.277 32.5679 31.1368C32.5679 32.9967 31.0647 34.4999 29.2048 34.4999C27.345 34.4999 25.8418 32.9967 25.8418 31.1368V27.7738H29.2048ZM29.2048 26.0923C27.345 26.0923 25.8418 24.5891 25.8418 22.7292C25.8418 20.8694 27.345 19.3662 29.2048 19.3662H37.6379C39.4978 19.3662 41.001 20.8694 41.001 22.7292C41.001 24.5891 39.4978 26.0923 37.6379 26.0923H29.2048Z" fill="#FCF7ED"/>
</svg>
