<svg width="144" height="37" viewBox="0 0 144 37" fill="none" xmlns="http://www.w3.org/2000/svg">
<path d="M47.7998 27.9898L49.4781 24.0917C51.2918 25.4452 53.7011 26.149 56.0832 26.149C57.8428 26.149 58.9527 25.4723 58.9527 24.4436C58.9256 21.5742 48.4224 23.821 48.3412 16.6204C48.3141 12.9659 51.5625 10.1506 56.1645 10.1506C58.8985 10.1506 61.6326 10.8274 63.5816 12.3704L62.0116 16.3497C60.225 15.2127 58.0052 14.4006 55.8938 14.4006C54.459 14.4006 53.5116 15.0774 53.5116 15.9436C53.5387 18.7589 64.123 17.2159 64.2313 24.0917C64.2313 27.8274 61.0641 30.4532 56.5164 30.4532C53.1867 30.4532 50.1278 29.6681 47.7998 27.9898ZM112.199 22.6841C111.36 24.1458 109.79 25.1474 107.977 25.1474C105.297 25.1474 103.131 22.9818 103.131 20.3019C103.131 17.6219 105.297 15.4563 107.977 15.4563C109.79 15.4563 111.36 16.4579 112.199 17.9197L116.828 15.3481C115.096 12.2621 111.766 10.1506 107.977 10.1506C102.373 10.1506 97.8253 14.6984 97.8253 20.3019C97.8253 25.9054 102.373 30.4532 107.977 30.4532C111.793 30.4532 115.096 28.3688 116.828 25.2557L112.199 22.6841ZM66.5594 1.73181H72.3523V30.0742H66.5594V1.73181ZM119.102 1.73181V30.0742H124.895V21.5742L131.771 30.0742H139.188L130.445 19.977L138.539 10.5567H131.446L124.895 18.3799V1.73181H119.102ZM89.5689 22.7382C88.7297 24.1188 86.9972 25.1474 85.0482 25.1474C82.3683 25.1474 80.2027 22.9818 80.2027 20.3019C80.2027 17.6219 82.3683 15.4563 85.0482 15.4563C86.9972 15.4563 88.7297 16.5391 89.5689 17.9468V22.7382ZM89.5689 10.5567V12.8576C88.6215 11.2605 86.2664 10.1506 83.803 10.1506C78.7138 10.1506 74.7074 14.6442 74.7074 20.2748C74.7074 25.9054 78.7138 30.4532 83.803 30.4532C86.2664 30.4532 88.6215 29.3433 89.5689 27.7462V30.0471H95.3619V10.5567H89.5689Z" fill="#25221C"/>
<path d="M11.9863 22.7112C11.9863 24.6873 10.3892 26.2844 8.41309 26.2844C6.43698 26.2844 4.83984 24.6873 4.83984 22.7112C4.83984 20.7351 6.43698 19.1379 8.41309 19.1379H11.9863V22.7112ZM13.773 22.7112C13.773 20.7351 15.3701 19.1379 17.3462 19.1379C19.3223 19.1379 20.9195 20.7351 20.9195 22.7112V31.6443C20.9195 33.6204 19.3223 35.2176 17.3462 35.2176C15.3701 35.2176 13.773 33.6204 13.773 31.6443V22.7112Z" fill="#25221C"/>
<path d="M17.3459 8.36403C15.3698 8.36403 13.7727 6.76689 13.7727 4.79078C13.7727 2.81466 15.3698 1.21753 17.3459 1.21753C19.3221 1.21753 20.9192 2.81466 20.9192 4.79078V8.36403H17.3459ZM17.3459 10.1777C19.3221 10.1777 20.9192 11.7749 20.9192 13.751C20.9192 15.7271 19.3221 17.3242 17.3459 17.3242H8.38575C6.40963 17.3242 4.8125 15.7271 4.8125 13.751C4.8125 11.7749 6.40963 10.1777 8.38575 10.1777H17.3459Z" fill="#25221C"/>
<path d="M31.6665 13.751C31.6665 11.7749 33.2637 10.1777 35.2398 10.1777C37.2159 10.1777 38.813 11.7749 38.813 13.751C38.813 15.7271 37.2159 17.3242 35.2398 17.3242H31.6665V13.751ZM29.8799 13.751C29.8799 15.7271 28.2828 17.3242 26.3066 17.3242C24.3305 17.3242 22.7334 15.7271 22.7334 13.751V4.79078C22.7334 2.81466 24.3305 1.21753 26.3066 1.21753C28.2828 1.21753 29.8799 2.81466 29.8799 4.79078V13.751Z" fill="#25221C"/>
<path d="M26.3066 28.0711C28.2828 28.0711 29.8799 29.6682 29.8799 31.6443C29.8799 33.6204 28.2828 35.2176 26.3066 35.2176C24.3305 35.2176 22.7334 33.6204 22.7334 31.6443V28.0711H26.3066ZM26.3066 26.2844C24.3305 26.2844 22.7334 24.6873 22.7334 22.7112C22.7334 20.7351 24.3305 19.1379 26.3066 19.1379H35.2668C37.243 19.1379 38.8401 20.7351 38.8401 22.7112C38.8401 24.6873 37.243 26.2844 35.2668 26.2844H26.3066Z" fill="#25221C"/>
</svg>
