<svg width="52" height="52" viewBox="0 0 52 52" fill="none" xmlns="http://www.w3.org/2000/svg">
<g clip-path="url(#clip0_146_1349)">
<path d="M28.1663 45.5V49.8333H23.833V45.5H6.49967C5.92504 45.5 5.37394 45.2717 4.96761 44.8654C4.56128 44.4591 4.33301 43.908 4.33301 43.3333V13H47.6663V43.3333C47.6663 43.908 47.4381 44.4591 47.0317 44.8654C46.6254 45.2717 46.0743 45.5 45.4997 45.5H28.1663ZM8.66634 41.1667H43.333V17.3333H8.66634V41.1667ZM28.1663 21.6667H38.9997V26H28.1663V21.6667ZM28.1663 30.3333H38.9997V34.6667H28.1663V30.3333ZM19.4997 21.6667V28.1667H25.9997C25.9997 29.4522 25.6185 30.709 24.9042 31.7779C24.19 32.8468 23.1748 33.6799 21.9871 34.1719C20.7994 34.6639 19.4925 34.7926 18.2316 34.5418C16.9707 34.291 15.8125 33.6719 14.9035 32.7629C13.9944 31.8538 13.3754 30.6956 13.1246 29.4348C12.8738 28.1739 13.0025 26.8669 13.4945 25.6792C13.9864 24.4915 14.8195 23.4763 15.8885 22.7621C16.9574 22.0479 18.2141 21.6667 19.4997 21.6667ZM4.33301 6.5H47.6663V10.8333H4.33301V6.5Z" fill="#25221C"/>
</g>
<defs>
<clipPath id="clip0_146_1349">
<rect width="52" height="52" fill="white"/>
</clipPath>
</defs>
</svg>
