<svg width="138" height="24" viewBox="0 0 138 24" fill="none" xmlns="http://www.w3.org/2000/svg">
<path d="M12 0L15.6819 6.93232L23.4127 8.2918L17.9574 13.9357L19.0534 21.7082L12 18.264L4.94658 21.7082L6.04259 13.9357L0.587322 8.2918L8.31812 6.93232L12 0Z" fill="#D19039"/>
<path d="M40.3633 0L44.0452 6.93232L51.776 8.2918L46.3207 13.9357L47.4167 21.7082L40.3633 18.264L33.3099 21.7082L34.4059 13.9357L28.9506 8.2918L36.6814 6.93232L40.3633 0Z" fill="#D19039"/>
<path d="M68.7276 0L72.4094 6.93232L80.1402 8.2918L74.685 13.9357L75.781 21.7082L68.7276 18.264L61.6741 21.7082L62.7701 13.9357L57.3149 8.2918L65.0457 6.93232L68.7276 0Z" fill="#D19039"/>
<path d="M97.0908 0L100.773 6.93232L108.504 8.2918L103.048 13.9357L104.144 21.7082L97.0908 18.264L90.0374 21.7082L91.1334 13.9357L85.6781 8.2918L93.4089 6.93232L97.0908 0Z" fill="#D19039"/>
<path d="M125.455 0L129.137 6.93232L136.868 8.2918L131.413 13.9357L132.509 21.7082L125.455 18.264L118.402 21.7082L119.498 13.9357L114.042 8.2918L121.773 6.93232L125.455 0Z" fill="#D19039"/>
</svg>
