<svg width="259" height="259" viewBox="0 0 259 259" fill="none" xmlns="http://www.w3.org/2000/svg">
<path d="M259 259H0V6.90669e-06H259V259Z" fill="#F8F1E3"/>
<path d="M127.268 138.971C128.018 136.381 132.882 119.129 129.001 109.588C128.462 108.261 127.622 106.199 125.561 104.674C121.442 101.63 117.797 104.687 114.538 102.485C110.239 99.5825 114.266 92.7045 109.078 83.712C107.834 81.555 105.896 78.1963 102.134 76.7449C97.9328 75.1246 95.7804 77.5488 91.6718 76.375C86.5488 74.9112 86.6855 70.2253 81.621 65.986C76.2858 61.5209 66.3634 58.5434 59.6076 63.0075C53.7167 66.9008 52.4674 74.9744 53.223 80.3616C54.3394 88.3212 60.3895 94.389 66.3961 96.9137C75.0305 100.544 83.1249 96.6661 84.4995 99.714C85.7793 102.552 78.8159 106.034 79.6593 111.481C80.2484 115.284 84.434 118.691 88.4666 119.32C94.0556 120.191 96.8411 115.331 100.257 116.799C103.84 118.338 102.438 124.395 105.345 129.529C107.743 133.764 113.416 137.98 127.268 138.971Z" fill="#F8F1E3"/>
<path d="M98.9175 116.29C99.385 116.29 99.8584 116.379 100.348 116.589C102.485 117.507 102.936 119.921 103.458 122.716C103.852 124.827 104.298 127.218 105.543 129.417C108.57 134.762 115.822 137.896 127.101 138.731C128.147 135.075 132.468 118.714 128.79 109.674C128.251 108.347 127.435 106.344 125.425 104.858C123.269 103.264 121.256 103.393 119.309 103.518C117.594 103.628 115.976 103.732 114.411 102.675C112.235 101.205 112.101 98.7732 111.931 95.6942C111.752 92.4515 111.529 88.4153 108.881 83.8258C107.63 81.6564 105.739 78.3796 102.052 76.9571C99.8924 76.1242 98.3139 76.3842 96.6422 76.6598C95.146 76.9074 93.5987 77.1623 91.6096 76.5935C88.5982 75.7336 87.3464 73.7787 85.8969 71.514C84.8286 69.845 83.6177 67.9543 81.4751 66.161C75.7877 61.4005 66.1006 58.9908 59.7336 63.198C54.2415 66.8271 52.6197 74.4169 53.4489 80.3304C54.6474 88.8742 61.2202 94.4904 66.4848 96.7033C71.0282 98.6137 75.504 98.4199 78.7715 98.278C81.8077 98.1464 84.0003 98.0522 84.7076 99.6196C85.3438 101.031 84.1819 102.513 82.8364 104.229C81.2438 106.26 79.4385 108.563 79.8848 111.446C80.4273 114.949 84.3736 118.452 88.5019 119.094C91.3271 119.535 93.4232 118.471 95.2732 117.531C96.5591 116.878 97.7188 116.29 98.9175 116.29ZM127.268 139.199C127.263 139.199 127.257 139.199 127.252 139.199C115.707 138.372 108.269 135.156 105.147 129.641C103.864 127.376 103.41 124.945 103.01 122.799C102.491 120.023 102.081 117.83 100.168 117.008C98.6195 116.343 97.1646 117.082 95.4794 117.937C93.5681 118.908 91.4017 120.007 88.4318 119.545C84.0506 118.862 80.0145 115.261 79.4344 111.516C78.958 108.438 80.9096 105.949 82.4779 103.948C83.732 102.348 84.815 100.966 84.292 99.8071C83.7116 98.5204 81.6476 98.6095 78.7913 98.7338C75.4805 98.8768 70.946 99.0737 66.3081 97.1239C60.9334 94.8644 54.2225 89.127 52.9978 80.3935C52.1486 74.3392 53.8244 66.5567 59.4824 62.8178C66.0265 58.4935 75.9523 60.9437 81.7676 65.8108C83.9638 67.6497 85.1947 69.5715 86.2807 71.2684C87.7381 73.5445 88.8891 75.343 91.7348 76.1553C93.6255 76.6961 95.1213 76.4495 96.5681 76.2102C98.226 75.9367 99.9409 75.6549 102.216 76.5324C106.054 78.0128 107.993 81.3736 109.276 83.5979C111.979 88.2827 112.205 92.378 112.386 95.6694C112.555 98.737 112.677 100.954 114.665 102.297C116.102 103.266 117.645 103.168 119.28 103.063C121.214 102.939 123.406 102.799 125.696 104.491C127.809 106.053 128.654 108.128 129.212 109.501C132.915 118.603 128.828 134.407 127.487 139.035C127.459 139.133 127.369 139.199 127.268 139.199Z" fill="#25221C"/>
<path d="M127.284 137.05C127.187 137.05 127.096 136.987 127.066 136.889C120.448 115.05 105.182 100.325 93.5395 91.8185C80.9157 82.595 69.7123 78.4883 69.6006 78.4479C69.4824 78.4054 69.421 78.2739 69.4638 78.1558C69.5066 78.0377 69.6369 77.9765 69.7556 78.019C69.8679 78.0594 81.1219 82.1837 93.7969 91.4425C101.242 96.8815 107.716 103.002 113.04 109.636C119.697 117.932 124.562 127.056 127.503 136.757C127.539 136.877 127.47 137.005 127.35 137.041C127.328 137.047 127.306 137.05 127.284 137.05Z" fill="#25221C"/>
<path d="M127.268 138.971C137.013 110.367 134.389 98.4563 129.52 92.9976C128.066 91.368 124.718 88.3916 122.372 82.9402C119.331 75.8684 120.931 71.5069 120.17 65.4867C118.68 53.7125 109.106 43.1432 99.0959 38.5154C92.1028 35.2821 78.9151 32.1813 71.5682 39.0852C68.4616 42.0036 65.563 47.4976 67.3563 51.1277C69.9226 56.3212 80.1722 52.4714 85.8076 59.2676C88.8826 62.9764 86.7303 65.1728 90.0286 69.0837C95.226 75.2448 102.989 72.6568 104.964 77.1759C106.877 81.553 100.013 85.1313 101.521 90.8303C103.242 97.3323 113.033 97.3944 113.994 103.718C114.566 107.484 111.212 108.238 111.4 112.654C111.629 118.025 116.719 119.844 121.942 127.41C124.871 131.653 126.294 135.787 127.268 138.971Z" fill="#F8F1E3"/>
<path d="M83.6449 35.1556C79.2495 35.1556 74.9374 36.232 71.7244 39.2509C68.4461 42.3319 65.9221 47.7098 67.5608 51.0261C68.7224 53.3767 71.5814 53.7984 74.8921 54.2863C78.6731 54.8437 82.9589 55.4746 85.9832 59.1224C87.5309 60.9893 87.7921 62.508 88.0447 63.9771C88.3113 65.528 88.563 66.9918 90.2028 68.9364C92.8795 72.1097 96.2205 72.9136 99.1681 73.6233C101.862 74.2718 104.188 74.8312 105.173 77.0845C106.157 79.3358 104.948 81.3549 103.67 83.4922C102.355 85.6875 100.997 87.9574 101.742 90.7722C102.568 93.8937 105.359 95.5171 108.059 97.0866C110.841 98.7048 113.717 100.377 114.219 103.684C114.517 105.647 113.8 106.818 113.038 108.057C112.3 109.26 111.537 110.503 111.628 112.643C111.763 115.795 113.642 117.715 116.242 120.374C118.024 122.195 120.045 124.26 122.13 127.281C124.794 131.14 126.242 134.947 127.278 138.233C131.555 125.541 133.697 115.139 133.646 107.307C133.607 101.064 132.161 96.3003 129.35 93.1488C129.127 92.8991 128.862 92.6204 128.554 92.2961C126.911 90.5681 124.162 87.6745 122.163 83.0291C120.128 78.3008 120.151 74.8416 120.175 71.1793C120.186 69.386 120.199 67.5316 119.943 65.5155C118.364 53.0286 107.98 42.8738 99.0005 38.7215C95.2386 36.9831 89.3712 35.1556 83.6449 35.1556ZM127.269 139.199C127.268 139.199 127.267 139.199 127.264 139.199C127.166 139.198 127.079 139.133 127.05 139.038C126.01 135.638 124.567 131.613 121.755 127.54C119.692 124.551 117.687 122.501 115.916 120.692C113.245 117.962 111.315 115.989 111.173 112.663C111.076 110.383 111.912 109.02 112.65 107.819C113.397 106.601 114.042 105.551 113.768 103.752C113.299 100.661 110.643 99.1161 107.83 97.4803C105.051 95.8641 102.176 94.192 101.301 90.8892C100.507 87.888 101.979 85.4285 103.278 83.2581C104.548 81.1363 105.645 79.3037 104.755 77.2669C103.861 75.2208 101.743 74.7111 99.0615 74.0656C96.0458 73.3404 92.6275 72.5179 89.8546 69.2306C88.1348 67.1918 87.8607 65.5964 87.5956 64.0548C87.342 62.5795 87.1025 61.1861 85.6324 59.4135C82.7196 55.9004 78.5257 55.2819 74.8255 54.737C71.3882 54.2304 68.4196 53.7932 67.1523 51.2281C65.2189 47.3151 68.4796 41.6741 71.4124 38.9193C78.9877 31.801 92.4384 35.1856 99.1918 38.3081C104.309 40.6743 109.214 44.5345 113.005 49.1768C117.132 54.2325 119.687 59.8621 120.396 65.4575C120.655 67.5036 120.642 69.3736 120.631 71.1825C120.607 74.795 120.585 78.2076 122.582 82.8499C124.548 87.4197 127.262 90.2759 128.885 91.9822C129.195 92.3086 129.462 92.5904 129.69 92.8452C132.577 96.0817 134.062 100.947 134.102 107.304C134.154 115.323 131.927 126.002 127.484 139.045C127.453 139.138 127.366 139.199 127.269 139.199Z" fill="#25221C"/>
<path d="M127.337 136.351C127.213 136.351 127.111 136.251 127.109 136.126C126.792 112.463 120.863 87.8207 111.25 70.2097C104.618 58.0585 97.0416 50.8303 91.8544 46.9059C86.2342 42.6542 82.1292 41.2566 82.0883 41.2432C81.9691 41.2038 81.9046 41.0743 81.9443 40.9552C81.9841 40.836 82.1125 40.7708 82.2324 40.8112C82.2739 40.8246 86.4337 42.2377 92.1091 46.5268C97.3379 50.4791 104.972 57.758 111.65 69.9911C115.997 77.9559 119.755 87.8134 122.516 98.4987C125.696 110.807 127.395 123.465 127.565 136.12C127.567 136.245 127.466 136.349 127.34 136.351C127.339 136.351 127.338 136.351 127.337 136.351Z" fill="#25221C"/>
<path d="M206.778 41.8325C207.658 41.8325 207.659 40.465 206.778 40.465C205.897 40.465 205.896 41.8325 206.778 41.8325Z" fill="#F8F1E3"/>
<path d="M92.651 200.21H61.5928C60.3853 200.21 59.4062 199.231 59.4062 198.023V196.226C59.4062 195.018 60.3853 194.039 61.5928 194.039H92.651C93.8584 194.039 94.8373 195.018 94.8373 196.226V198.023C94.8373 199.231 93.8584 200.21 92.651 200.21Z" fill="#25221C"/>
<path d="M93.3981 169.165H60.8445C59.6102 169.165 58.6094 168.165 58.6094 166.93V165.228C58.6094 163.995 59.6102 162.994 60.8445 162.994H93.3981C94.6326 162.994 95.6332 163.995 95.6332 165.228V166.93C95.6332 168.165 94.6326 169.165 93.3981 169.165Z" fill="#25221C"/>
<path d="M96.2333 223.806L97.2894 223.683C98.0558 223.594 98.6049 222.901 98.5161 222.134L92.2148 167.822C92.1259 167.056 91.4326 166.507 90.6662 166.595L89.6101 166.718C88.8438 166.806 88.2946 167.501 88.3835 168.266L94.6847 222.58C94.7736 223.345 95.4669 223.894 96.2333 223.806Z" fill="#25221C"/>
<path d="M58.0099 223.806L56.9539 223.683C56.1875 223.594 55.6383 222.901 55.7272 222.134L62.0285 167.822C62.1174 167.056 62.8108 166.507 63.5771 166.595L64.6332 166.718C65.3996 166.806 65.9487 167.501 65.8598 168.266L59.5586 222.58C59.4698 223.345 58.7764 223.894 58.0099 223.806Z" fill="#25221C"/>
<path d="M67.3194 69.0515C65.8248 71.081 66.0302 72.2755 64.5969 72.9727C62.1813 74.1496 60.2217 71.426 57.4868 72.0548C54.2193 72.8049 51.6954 77.9145 52.1811 82.4335C52.6774 87.0509 56.3739 91.5928 59.4917 91.3949C62.5273 91.2032 64.0461 86.5795 66.6843 87.1504C68.0623 87.4487 68.2114 88.8318 69.6321 89.155C71.6865 89.6223 72.5437 86.189 75.3115 85.6212C77.1498 85.2431 78.1109 86.3734 80.1263 87.0323C85.466 88.778 93.4369 85.6565 94.5116 81.1364C95.1557 78.4273 93.1797 75.8124 92.0353 74.2978C89.5937 71.0665 87.182 72.089 82.3665 68.52C78.821 65.8927 79.0255 64.6692 76.9427 64.2755C73.6173 63.6466 69.5042 66.0833 67.3194 69.0515Z" fill="#25221C"/>
<path d="M86.4644 73.7083C86.4644 73.7083 89.6762 68.7138 85.3137 65.5664C80.951 62.419 75.1212 62.5744 71.7039 67.3048C68.2866 72.0362 69.2377 81.5622 77.2827 79.2924C80.4764 78.391 86.4644 73.7083 86.4644 73.7083Z" fill="#25221C"/>
<path d="M79.8818 158.133L83.0878 158.77L84.5852 154.636L80.9583 153.085L79.8818 158.133ZM83.2354 159.26C83.2208 159.26 83.2059 159.258 83.1909 159.255L79.5663 158.535C79.5064 158.523 79.4539 158.487 79.4204 158.437C79.3869 158.386 79.3751 158.324 79.3878 158.264L80.5703 152.719C80.5845 152.652 80.6278 152.595 80.6882 152.564C80.7488 152.532 80.8201 152.529 80.8828 152.556L84.9624 154.302C85.0736 154.349 85.1282 154.475 85.0872 154.589L83.4497 159.11C83.4164 159.201 83.3297 159.26 83.2354 159.26Z" fill="#25221C"/>
<path d="M79.0564 157.095C79.0564 157.095 79.8765 157.528 81.5362 158.298C83.1958 159.066 83.855 157.361 85.7131 157.095C86.9551 156.917 89.916 159.612 91.7433 161.419C92.3284 161.997 91.9189 162.994 91.0961 162.994H79.7362C78.5677 162.994 77.6669 161.97 77.8099 160.81C77.9714 159.499 78.317 157.93 79.0564 157.095Z" fill="#F8F1E3"/>
<path d="M79.1158 157.382C78.6046 158.055 78.2325 159.243 78.0361 160.838C77.9758 161.328 78.1281 161.82 78.4542 162.189C78.7787 162.556 79.2461 162.766 79.7363 162.766H91.0961C91.4385 162.766 91.6518 162.544 91.737 162.337C91.8223 162.13 91.8266 161.822 91.5832 161.581C88.7223 158.751 86.5955 157.199 85.7456 157.321C85.0243 157.424 84.4968 157.758 83.9869 158.081C83.2353 158.558 82.5259 159.007 81.4404 158.504C80.2118 157.934 79.4345 157.544 79.1158 157.382ZM91.0961 163.222H79.7363C79.1155 163.222 78.5239 162.955 78.1128 162.49C77.7002 162.024 77.5076 161.401 77.5837 160.782C77.8088 158.956 78.2469 157.666 78.8861 156.944C78.9557 156.865 79.07 156.844 79.163 156.893C79.1711 156.898 79.9985 157.333 81.6322 158.09C82.4913 158.489 83.0164 158.157 83.7429 157.696C84.2679 157.363 84.8628 156.986 85.6809 156.869C86.7144 156.722 88.8093 158.197 91.9037 161.257C92.2412 161.591 92.3389 162.071 92.1586 162.51C91.9781 162.949 91.571 163.222 91.0961 163.222Z" fill="#25221C"/>
<path d="M90.0999 161.434H79.0559C78.9301 161.434 78.8281 161.331 78.8281 161.206C78.8281 161.079 78.9301 160.978 79.0559 160.978H90.0999C90.2258 160.978 90.3278 161.079 90.3278 161.206C90.3278 161.331 90.2258 161.434 90.0999 161.434Z" fill="#25221C"/>
<path d="M86.1752 159.907C86.1087 159.907 86.0427 159.878 85.9977 159.822C85.9188 159.723 85.9341 159.58 86.0322 159.502L87.7471 158.12C87.8453 158.041 87.9885 158.056 88.0675 158.155C88.1464 158.252 88.1311 158.396 88.0331 158.475L86.3181 159.856C86.2759 159.89 86.2254 159.907 86.1752 159.907Z" fill="#25221C"/>
<path d="M78.9589 155.16C78.9589 155.16 82.6486 155.605 85.2575 155.096C85.2575 155.096 87.8862 148.725 88.9737 137.513C90.0611 126.301 87.1002 114.507 87.1002 114.507L75.044 116.69C75.044 116.69 73.9303 122.948 77.2772 133.14C80.5658 143.154 78.9589 155.16 78.9589 155.16Z" fill="#25221C"/>
<path d="M64.9853 158.133L68.1912 158.77L69.6886 154.636L66.0617 153.085L64.9853 158.133ZM68.3388 159.26C68.3242 159.26 68.3093 159.258 68.2944 159.255L64.6698 158.535C64.6099 158.523 64.5574 158.487 64.5238 158.437C64.4904 158.386 64.4787 158.324 64.4913 158.264L65.6737 152.719C65.688 152.652 65.7313 152.595 65.7917 152.564C65.8522 152.532 65.9235 152.529 65.9861 152.556L70.0658 154.302C70.177 154.349 70.2316 154.475 70.1905 154.589L68.553 159.11C68.5199 159.201 68.4331 159.26 68.3388 159.26Z" fill="#25221C"/>
<path d="M64.16 157.095C64.16 157.095 64.9801 157.528 66.6398 158.298C68.2994 159.066 68.9585 157.361 70.8167 157.095C72.0586 156.917 75.0197 159.612 76.8469 161.419C77.432 161.997 77.0225 162.994 76.1996 162.994H64.8397C63.6712 162.994 62.7704 161.97 62.9134 160.81C63.0749 159.499 63.4206 157.93 64.16 157.095Z" fill="#F8F1E3"/>
<path d="M64.2185 157.382C63.7072 158.055 63.3352 159.243 63.1387 160.838C63.0784 161.328 63.2307 161.82 63.5568 162.189C63.8814 162.556 64.3486 162.766 64.8388 162.766H76.1987C76.5412 162.766 76.7543 162.544 76.8397 162.337C76.9249 162.129 76.9292 161.822 76.6858 161.581C73.8249 158.751 71.6986 157.199 70.8483 157.321C70.1268 157.424 69.5994 157.758 69.0895 158.081C68.3379 158.557 67.6279 159.007 66.5432 158.504C65.3145 157.934 64.5371 157.544 64.2185 157.382ZM76.1987 163.222H64.8388C64.2182 163.222 63.6264 162.955 63.2153 162.49C62.8029 162.024 62.6101 161.401 62.6862 160.782C62.9114 158.956 63.3495 157.666 63.9886 156.944C64.0583 156.865 64.1726 156.844 64.2655 156.893C64.2736 156.898 65.101 157.333 66.7347 158.09C67.5945 158.489 68.1192 158.157 68.8456 157.696C69.3705 157.363 69.9654 156.986 70.7834 156.869C71.8191 156.722 73.9118 158.197 77.0062 161.257C77.3439 161.591 77.4416 162.071 77.2611 162.51C77.0807 162.949 76.6737 163.222 76.1987 163.222Z" fill="#25221C"/>
<path d="M75.2035 161.434H64.1595C64.0336 161.434 63.9316 161.331 63.9316 161.206C63.9316 161.079 64.0336 160.978 64.1595 160.978H75.2035C75.3293 160.978 75.4313 161.079 75.4313 161.206C75.4313 161.331 75.3293 161.434 75.2035 161.434Z" fill="#25221C"/>
<path d="M71.2787 159.907C71.2122 159.907 71.1462 159.878 71.1012 159.822C71.0223 159.723 71.0377 159.58 71.1357 159.502L72.8507 158.12C72.9486 158.041 73.0919 158.056 73.1711 158.155C73.2499 158.252 73.2346 158.396 73.1366 158.475L71.4216 159.856C71.3794 159.89 71.3289 159.907 71.2787 159.907Z" fill="#25221C"/>
<path d="M64.7139 153.386C64.7139 153.386 68.1598 154.778 70.8111 154.967C70.8111 154.967 75.0098 149.502 78.9827 138.961C82.9557 128.42 83.1717 116.262 83.1717 116.262L70.9636 115.226C70.9636 115.226 68.2567 120.978 68.8307 131.69C69.3948 142.215 64.7139 153.386 64.7139 153.386Z" fill="#25221C"/>
<path d="M79.0929 138.891C79.0565 138.891 79.0194 138.883 78.9852 138.864C78.8744 138.804 78.8329 138.667 78.8924 138.556C81.2249 134.22 81.393 127.108 81.3943 127.036C81.397 126.911 81.4999 126.811 81.6267 126.813C81.7526 126.816 81.8524 126.919 81.8501 127.046C81.8441 127.341 81.6789 134.338 79.2938 138.771C79.2526 138.848 79.1741 138.891 79.0929 138.891Z" fill="#F8F1E3"/>
<path d="M107.213 86.7017C107.213 86.7017 98.1582 89.7341 90.1443 87.3813C82.1305 85.0275 75.0174 87.3658 72.9028 89.098C69.3784 91.9843 70.4346 105.333 67.6749 111.688C64.9154 118.043 62.7598 122.469 67.9849 124.619C73.21 126.771 81.3617 120.373 87.7006 122.392C94.0396 124.41 91.3755 125.329 93.7098 123.631C96.044 121.934 88.9588 94.3246 88.9588 94.3246C88.9588 94.3246 97.5769 100.051 106.185 91.3016L107.213 86.7017Z" fill="#F8F1E3"/>
<path d="M83.2005 86.6012C78.1799 86.6012 74.37 88.1904 73.0467 89.2741C71.1598 90.8198 70.6235 95.5864 70.0558 100.634C69.5972 104.709 69.1232 108.924 67.8836 111.779L67.5905 112.452C65.8096 116.541 64.4028 119.771 65.3042 121.997C65.7205 123.025 66.6256 123.813 68.0713 124.409C70.5722 125.439 73.7985 124.44 77.2143 123.382C80.7905 122.275 84.4883 121.13 87.7693 122.174C90.6749 123.099 91.7067 123.795 92.2027 124.129C92.3132 124.203 92.4387 124.288 92.4747 124.291C92.5171 124.285 92.6635 124.163 92.805 124.047C92.9802 123.903 93.2202 123.706 93.5755 123.448C93.9781 123.154 94.6297 121.101 91.9864 108.389C90.525 101.361 88.7554 94.4499 88.7376 94.3805C88.7142 94.2893 88.7496 94.193 88.8263 94.1391C88.9033 94.0842 89.0059 94.0821 89.0843 94.135C89.1055 94.1484 91.2447 95.546 94.3876 95.8692C97.2703 96.1666 101.616 95.5926 105.976 91.1876L106.905 87.0353C105.093 87.5719 97.1432 89.6739 90.0797 87.5999C87.6364 86.8819 85.3112 86.6012 83.2005 86.6012ZM70.4732 125.298C69.5634 125.298 68.7009 125.161 67.8978 124.831C66.3329 124.186 65.3464 123.315 64.8819 122.168C63.9087 119.764 65.3491 116.457 67.1728 112.27L67.4655 111.597C68.6779 108.805 69.1482 104.624 69.6029 100.582C70.1813 95.4403 70.7276 90.5846 72.7579 88.9218C74.6957 87.3347 81.78 84.6877 90.208 87.1627C98.0628 89.4688 107.051 86.5162 107.14 86.4862C107.217 86.4603 107.303 86.4779 107.365 86.5328C107.426 86.5877 107.453 86.6716 107.435 86.7514L106.406 91.3512C106.397 91.3927 106.376 91.431 106.346 91.4611C101.836 96.0454 97.3166 96.6338 94.3196 96.3209C91.9254 96.0702 90.1288 95.2404 89.3133 94.797C89.7546 96.5488 91.2023 102.38 92.4324 108.295C95.4214 122.668 94.2336 123.533 93.8434 123.815C93.4993 124.066 93.2655 124.259 93.0947 124.399C92.5804 124.822 92.472 124.86 91.948 124.506C91.4698 124.184 90.4744 123.514 87.6312 122.608C84.4866 121.608 80.8583 122.731 77.3491 123.817C74.9114 124.573 72.5678 125.298 70.4732 125.298Z" fill="#25221C"/>
<path d="M77.5872 80.5522C77.6768 80.8952 78.3032 83.5141 77.751 85.4411C77.3848 86.7195 75.5837 87.8322 75.5837 87.8322C75.5837 87.8322 81.2165 89.209 84.4614 88.2518C87.7064 87.2945 87.3257 87.021 87.3257 87.021L84.7176 85.668C83.8546 85.149 83.9089 84.4165 83.9305 83.7338L83.9428 83.3401C84.3756 83.3971 85.806 83.5297 87.0873 82.617C88.8241 81.379 88.878 79.2241 88.8624 78.6263C88.8308 77.4121 88.3387 77.6494 87.7838 75.4945C87.3072 73.6442 87.4524 72.6786 86.6167 71.3039C86.3074 70.7941 85.983 70.4264 85.7719 70.2057C84.6679 70.3248 83.5463 70.6698 82.6387 71.4624C81.6724 72.3057 81.8092 72.9034 80.8445 73.5696C79.4373 74.5393 78.0721 74.0078 77.6811 74.7973C77.5368 75.0884 77.5107 75.5888 78.0957 76.4984C78.0957 76.4984 76.6571 75.6716 75.7403 76.286C75.3842 76.5243 75.2061 76.9003 75.1404 77.1749C74.8919 78.2098 75.8846 79.5597 77.5872 80.5522Z" fill="#F8F1E3"/>
<path d="M76.1427 87.7232C77.5895 88.0278 81.8078 88.7975 84.3966 88.033C86.0481 87.546 86.7349 87.2352 86.9863 87.1016L84.6124 85.8698C83.6508 85.2917 83.6782 84.4608 83.7002 83.7936L83.7148 83.3326C83.7168 83.2684 83.7459 83.2083 83.7951 83.1658C83.8442 83.1244 83.9078 83.1057 83.9725 83.114C84.6103 83.199 85.8451 83.2218 86.9548 82.4313C88.5751 81.2761 88.65 79.2311 88.6345 78.6323C88.62 78.076 88.5054 77.8656 88.3157 77.5155C88.1173 77.1498 87.8458 76.6494 87.5629 75.5512C87.3981 74.912 87.3062 74.3733 87.225 73.8988C87.0716 73.0006 86.9503 72.2909 86.4218 71.4217C86.2106 71.0736 85.9628 70.7462 85.6842 70.4448C84.5006 70.5898 83.5268 70.9897 82.7883 71.6341C82.3572 72.0102 82.1595 72.3334 81.9684 72.6473C81.7487 73.0068 81.5215 73.3787 80.9737 73.7569C80.221 74.2759 79.4894 74.3878 78.9016 74.479C78.3263 74.567 78.0199 74.6261 77.885 74.8985C77.6881 75.2953 77.9951 75.9211 78.2872 76.3748C78.3439 76.4629 78.3329 76.5789 78.2606 76.6556C78.1883 76.7312 78.0734 76.7478 77.9822 76.696C77.969 76.6887 76.6538 75.948 75.8668 76.4753C75.5081 76.7147 75.3894 77.1114 75.3616 77.2275C75.1397 78.1526 76.0801 79.4093 77.7017 80.3552C77.7541 80.3852 77.7921 80.4349 77.8074 80.494C77.8384 80.6131 78.5632 83.4331 77.9699 85.5041C77.6979 86.4531 76.7226 87.2932 76.1427 87.7232ZM81.5941 88.8203C78.7124 88.8203 75.7 88.0951 75.5294 88.0537C75.4402 88.0319 75.3729 87.9584 75.3585 87.8682C75.3441 87.7771 75.3855 87.6869 75.4636 87.6382C75.4809 87.6279 77.1944 86.5556 77.5318 85.3787C78.0411 83.6009 77.5103 81.2005 77.389 80.6991C75.6172 79.6413 74.6492 78.2438 74.9186 77.1218C74.9666 76.9208 75.1307 76.4194 75.6132 76.0961C76.23 75.6828 77.0239 75.8299 77.5708 76.0184C77.3316 75.4859 77.3013 75.0498 77.4767 74.6955C77.723 74.1982 78.2371 74.1195 78.8323 74.0283C79.4023 73.9402 80.0483 73.8408 80.7149 73.3808C81.1831 73.0586 81.3667 72.7571 81.5793 72.409C81.7788 72.0827 82.0048 71.7128 82.4886 71.2902C83.3221 70.5629 84.4184 70.1216 85.7473 69.9796C85.8185 69.9713 85.8872 69.9972 85.936 70.048C86.269 70.3951 86.5635 70.7773 86.8111 71.1845C87.3848 72.1283 87.5125 72.8763 87.6743 73.8221C87.754 74.2883 87.8442 74.8167 88.0041 75.4373C88.2731 76.4815 88.5188 76.9343 88.7163 77.2979C88.9232 77.6792 89.0727 77.9547 89.09 78.6199C89.1071 79.2767 89.0228 81.5175 87.2192 82.8022C86.1158 83.5885 84.9102 83.6538 84.1626 83.5927L84.1558 83.8092C84.1339 84.4691 84.115 85.0389 84.8348 85.4719L87.4305 86.8187C87.4402 86.8229 87.4496 86.8291 87.4586 86.8353C87.5396 86.8944 87.5806 86.998 87.563 87.1016C87.5333 87.2756 87.4783 87.5999 84.5255 88.4701C83.659 88.726 82.6349 88.8203 81.5941 88.8203Z" fill="#25221C"/>
<path d="M83.459 83.6001C81.4773 83.6001 79.7506 82.1373 79.672 82.0699C79.5767 81.9881 79.5658 81.8441 79.6477 81.7488C79.7298 81.6535 79.8736 81.6421 79.9691 81.7239C79.9883 81.7405 81.928 83.3805 83.9118 83.1142C84.0345 83.0976 84.1511 83.1847 84.168 83.31C84.1847 83.4343 84.0972 83.5493 83.9725 83.5659C83.8002 83.5887 83.6286 83.6001 83.459 83.6001Z" fill="#25221C"/>
<path d="M162.465 185.955C161.587 182.26 158.714 179.262 154.887 178.047C143.571 174.454 132.143 175.025 129.416 175.229C126.688 175.025 115.26 174.454 103.944 178.047C100.117 179.262 97.2441 182.26 96.366 185.955C95.0206 191.614 93.3263 201.672 93.2686 216.576C93.2554 219.978 96.1888 222.746 99.8216 222.746C101.746 222.746 103.573 221.954 104.818 220.58L126.719 196.404C128.163 194.809 130.669 194.809 132.113 196.404L154.013 220.58C155.258 221.954 157.085 222.746 159.009 222.746C162.643 222.746 165.575 219.978 165.563 216.576C165.505 201.672 163.811 191.614 162.465 185.955Z" fill="#F8F1E3"/>
<path d="M129.416 194.979C130.506 194.979 131.55 195.442 132.282 196.251L154.182 220.427C155.387 221.756 157.147 222.518 159.01 222.518C160.758 222.518 162.445 221.832 163.636 220.636C164.738 219.53 165.341 218.088 165.335 216.577C165.277 201.817 163.623 191.806 162.244 186.008C161.389 182.414 158.544 179.447 154.818 178.265C143.689 174.731 132.575 175.222 129.433 175.456C129.421 175.457 129.41 175.457 129.399 175.456C126.258 175.222 115.143 174.731 104.014 178.265C100.288 179.447 97.4424 182.414 96.5879 186.008C95.2093 191.807 93.5539 201.818 93.4967 216.577C93.4909 218.088 94.094 219.53 95.195 220.636C96.387 221.832 98.0735 222.518 99.8219 222.518C101.686 222.518 103.445 221.756 104.65 220.427L126.551 196.251C127.282 195.442 128.326 194.979 129.416 194.979ZM159.01 222.974C157.018 222.974 155.135 222.157 153.844 220.732L131.944 196.556C131.299 195.844 130.377 195.435 129.416 195.435C128.455 195.435 127.534 195.844 126.888 196.556L104.987 220.732C103.697 222.157 101.814 222.974 99.8219 222.974C97.9533 222.974 96.1491 222.239 94.8721 220.957C93.6849 219.766 93.0346 218.209 93.0411 216.575C93.0982 201.772 94.7604 191.725 96.1447 185.902C97.0357 182.154 99.9981 179.06 103.876 177.829C115.062 174.278 126.232 174.764 129.416 175C132.6 174.764 143.768 174.278 154.957 177.829C158.833 179.061 161.796 182.154 162.687 185.902C164.072 191.724 165.733 201.771 165.791 216.575C165.797 218.209 165.147 219.766 163.96 220.957C162.682 222.239 160.879 222.974 159.01 222.974Z" fill="#25221C"/>
<path d="M156.916 180.692C138.519 185.639 120.123 185.639 101.728 180.692V105.193H156.916V180.692Z" fill="#F8F1E3"/>
<path d="M101.956 180.517C120.116 185.37 138.527 185.37 156.688 180.517V105.421H101.956V180.517ZM129.322 184.612C120.083 184.612 110.843 183.379 101.669 180.911C101.569 180.886 101.5 180.794 101.5 180.692L101.5 105.193C101.5 105.133 101.524 105.075 101.567 105.033C101.61 104.989 101.667 104.965 101.728 104.965H156.916C157.042 104.965 157.144 105.068 157.144 105.193V180.692C157.144 180.794 157.075 180.886 156.975 180.911C147.8 183.379 138.561 184.612 129.322 184.612Z" fill="#25221C"/>
<path d="M155.839 107.189C138.161 111.139 120.483 111.139 102.804 107.189C100.233 106.615 98.8117 103.847 99.8292 101.416L124.69 42.0325C126.411 37.9238 132.233 37.9238 133.954 42.0325L158.815 101.416C159.832 103.847 158.411 106.615 155.839 107.189Z" fill="#F8F1E3"/>
<path d="M129.321 39.1786C127.354 39.1786 125.659 40.3068 124.9 42.1208L100.039 101.504C99.5785 102.604 99.6287 103.842 100.176 104.901C100.722 105.955 101.698 106.708 102.854 106.967C120.416 110.89 138.227 110.89 155.789 106.967C156.945 106.708 157.921 105.955 158.466 104.9C159.014 103.842 159.064 102.604 158.604 101.504L133.743 42.1208C132.983 40.3068 131.289 39.1786 129.321 39.1786ZM129.321 110.365C120.445 110.365 111.568 109.381 102.754 107.412C101.466 107.124 100.379 106.284 99.7716 105.111C99.1618 103.931 99.1059 102.553 99.6184 101.328L124.479 41.9447C125.311 39.9576 127.166 38.7227 129.321 38.7227C131.475 38.7227 133.331 39.9576 134.164 41.9447L159.025 101.328C159.536 102.553 159.48 103.931 158.871 105.11C158.263 106.284 157.176 107.124 155.888 107.412C147.074 109.381 138.198 110.365 129.321 110.365Z" fill="#25221C"/>
<path d="M129.322 118.628C120.245 118.628 112.86 126.013 112.86 135.09C112.86 144.168 120.245 151.552 129.322 151.552C138.4 151.552 145.784 144.168 145.784 135.09C145.784 126.013 138.4 118.628 129.322 118.628ZM129.322 152.008C119.993 152.008 112.404 144.418 112.404 135.09C112.404 125.762 119.993 118.172 129.322 118.172C138.65 118.172 146.24 125.762 146.24 135.09C146.24 144.418 138.65 152.008 129.322 152.008Z" fill="#25221C"/>
<path d="M143.353 135.09C143.353 142.84 137.071 149.122 129.322 149.122C121.572 149.122 115.29 142.84 115.29 135.09C115.29 127.341 121.572 121.059 129.322 121.059C137.071 121.059 143.353 127.341 143.353 135.09Z" fill="#25221C"/>
<path d="M130.573 186.764C126.286 186.764 122.426 186.521 119.18 186.196C109.413 185.219 102.964 183.313 102.9 183.293C102.779 183.258 102.711 183.131 102.747 183.01C102.783 182.889 102.911 182.822 103.03 182.857C103.094 182.876 109.51 184.773 119.238 185.744C128.212 186.641 141.921 186.912 156.271 183.11C156.392 183.078 156.516 183.15 156.548 183.273C156.582 183.394 156.509 183.518 156.387 183.55C147.158 185.996 138.194 186.764 130.573 186.764Z" fill="#25221C"/>
<path d="M101.051 99.6591C101.255 99.3327 105.053 94.794 105.053 94.794L110.022 94.4594C110.022 94.4594 109.852 96.0186 107.406 97.0587C104.96 98.0988 105.312 99.5938 103.816 100.663C102.319 101.731 99.0371 102.831 99.0371 102.831L101.051 99.6591Z" fill="#F8F1E3"/>
<path d="M105.165 95.0145C103.642 96.8358 101.385 99.5533 101.243 99.7791C101.243 99.7801 101.243 99.7801 101.243 99.7801L99.5825 102.396C100.6 102.024 102.62 101.236 103.682 100.477C104.252 100.07 104.538 99.5937 104.841 99.0891C105.289 98.3422 105.797 97.4958 107.317 96.8493C109.005 96.1314 109.55 95.172 109.72 94.7079L105.165 95.0145ZM99.0365 103.059C98.9678 103.059 98.9011 103.028 98.8571 102.972C98.7976 102.895 98.7924 102.791 98.8441 102.709L100.858 99.5367C101.067 99.2052 104.488 95.113 104.878 94.6478C104.917 94.6001 104.975 94.5711 105.037 94.567L110.007 94.2324C110.073 94.2272 110.14 94.2531 110.186 94.3018C110.233 94.3505 110.256 94.4168 110.249 94.4841C110.241 94.5535 110.035 96.1883 107.495 97.2689C106.112 97.8563 105.684 98.5691 105.231 99.3243C104.918 99.8464 104.594 100.386 103.948 100.848C102.44 101.924 99.2442 103.002 99.1089 103.048C99.085 103.055 99.0607 103.059 99.0365 103.059Z" fill="#25221C"/>
<path d="M101.108 97.9651L102.405 102.281C102.405 102.281 96.4499 106.259 85.7926 105.206C75.1353 104.152 70.8352 94.4883 72.6457 91.0778C74.4562 87.6683 77.4317 90.136 82.5033 95.0228C89.2207 101.495 101.108 97.9651 101.108 97.9651Z" fill="#F8F1E3"/>
<path d="M89.2979 105.609C88.1847 105.609 87.0088 105.555 85.77 105.433C76.8985 104.555 72.3276 97.7332 72.0318 93.3986C72.0232 93.2732 72.1181 93.1645 72.2437 93.1562C72.3682 93.1479 72.4778 93.2421 72.4864 93.3675C72.7717 97.5467 77.2051 104.127 85.8148 104.979C95.3692 105.924 101.174 102.755 102.136 102.18L100.953 98.244C99.5752 98.6076 91.9841 100.4 85.9087 97.6006C85.7944 97.5478 85.7445 97.4131 85.7971 97.2981C85.8498 97.1841 85.9849 97.1344 86.0994 97.1872C92.6196 100.191 100.959 97.7715 101.043 97.7467C101.163 97.7115 101.29 97.7788 101.326 97.899L102.623 102.216C102.652 102.311 102.614 102.415 102.531 102.471C102.478 102.506 97.7227 105.609 89.2979 105.609Z" fill="#25221C"/>
<path d="M188.2 223.757L188.296 223.746C189.063 223.657 189.612 222.964 189.523 222.197L184.88 182.175C184.791 181.41 184.097 180.861 183.332 180.949L183.234 180.96C182.467 181.049 181.918 181.742 182.008 182.509L186.651 222.531C186.74 223.296 187.433 223.846 188.2 223.757Z" fill="#25221C"/>
<path d="M184.179 182.835H160.894C159.66 182.835 158.659 181.835 158.659 180.601V180.444C158.659 179.209 159.66 178.209 160.894 178.209H184.179C185.414 178.209 186.415 179.209 186.415 180.444V180.601C186.415 181.835 185.414 182.835 184.179 182.835Z" fill="#25221C"/>
<path d="M197.914 206.401H159.159C157.924 206.401 156.923 205.401 156.923 204.167V204.01C156.923 202.775 157.924 201.775 159.159 201.775H197.914C199.148 201.775 200.149 202.775 200.149 204.01V204.167C200.149 205.401 199.148 206.401 197.914 206.401Z" fill="#25221C"/>
<path d="M158.85 223.757L158.753 223.746C157.987 223.657 157.437 222.964 157.526 222.197L162.169 182.175C162.259 181.41 162.952 180.861 163.718 180.949L163.816 180.96C164.581 181.049 165.13 181.742 165.042 182.509L160.399 222.531C160.31 223.296 159.617 223.846 158.85 223.757Z" fill="#25221C"/>
<path d="M196.681 223.757L196.778 223.746C197.544 223.657 198.093 222.964 198.004 222.197L196.1 205.777C196.011 205.01 195.317 204.461 194.551 204.55L194.454 204.56C193.687 204.649 193.138 205.344 193.227 206.109L195.132 222.531C195.222 223.296 195.915 223.846 196.681 223.757Z" fill="#25221C"/>
<path d="M177.861 170.112L173.428 162.643L169.043 164.619L173.236 170.402L177.861 170.112Z" fill="#F8F1E3"/>
<path d="M169.391 164.712L173.346 170.167L177.476 169.908L173.336 162.935L169.391 164.712ZM173.235 170.629C173.163 170.629 173.093 170.595 173.051 170.536L168.858 164.753C168.818 164.697 168.804 164.627 168.822 164.56C168.84 164.494 168.886 164.439 168.948 164.411L173.334 162.435C173.441 162.388 173.565 162.427 173.624 162.527L178.058 169.996C178.098 170.065 178.1 170.149 178.063 170.219C178.026 170.289 177.955 170.335 177.876 170.34L173.249 170.629C173.245 170.629 173.24 170.629 173.235 170.629Z" fill="#25221C"/>
<path d="M194.403 192.847L195.018 187.931L189.524 188.004V192.811L194.403 192.847Z" fill="#F8F1E3"/>
<path d="M189.753 192.585L194.202 192.618L194.76 188.164L189.753 188.229V192.585ZM194.404 193.075C194.403 193.075 194.402 193.075 194.402 193.075L189.523 193.039C189.397 193.038 189.297 192.936 189.297 192.811V188.004C189.297 187.88 189.396 187.778 189.522 187.776L195.016 187.704C195.08 187.706 195.144 187.73 195.188 187.78C195.232 187.829 195.253 187.894 195.245 187.96L194.63 192.875C194.616 192.989 194.518 193.075 194.404 193.075Z" fill="#25221C"/>
<path d="M177.38 136.716C177.38 136.716 176.344 138.282 177.862 144.282C177.862 144.282 163.935 147.053 160.465 151.462C160.465 151.462 159.815 153.921 161.694 157.534C163.573 161.149 164.658 166.499 164.658 166.499C164.658 166.499 171.164 165.414 174.561 163.173L170.585 156.594C170.585 156.594 176.368 156.884 181.429 155.655C181.429 155.655 183.594 169.367 185.693 171.993C185.918 172.272 186.121 172.537 186.304 172.784C187.22 174.016 187.763 175.482 187.889 177.012C188.165 180.331 188.683 186.678 188.755 188.446C188.761 188.589 188.867 188.706 189.009 188.728C190.041 188.879 194.07 189.393 196.833 188.616C196.973 188.578 197.061 188.44 197.043 188.296C196.887 187.041 196.528 183.217 196.464 179.438C196.392 175.173 194.078 168.594 194.007 166.57C193.966 165.446 193.636 162.158 193.326 159.208C193.02 156.298 193.154 153.356 193.772 150.496C194.458 147.324 194.971 142.635 193.284 138.957L192.706 137.15L177.38 136.716Z" fill="#25221C"/>
<path d="M179.44 168.522L179.224 171.45C179.224 171.45 180.958 173.33 180.958 175.679C180.958 175.679 172.898 177.919 165.043 175.944C165.043 175.944 165.67 174.932 168.078 174.402C170.488 173.872 171.789 173.438 171.982 172.618C172.175 171.8 172.175 169.63 172.513 169.197C172.85 168.763 175.742 168.04 177.236 169.197C177.236 169.197 178.416 168.233 179.44 168.522Z" fill="#F8F1E3"/>
<path d="M165.464 175.812C172.431 177.446 179.545 175.802 180.727 175.504C180.644 173.355 179.071 171.622 179.056 171.604C179.012 171.559 178.991 171.496 178.996 171.433L179.198 168.705C178.343 168.601 177.39 169.365 177.379 169.374C177.297 169.441 177.179 169.442 177.096 169.378C175.653 168.261 172.924 169.039 172.692 169.337C172.527 169.55 172.441 170.534 172.378 171.254C172.329 171.81 172.282 172.337 172.204 172.671C171.982 173.613 170.658 174.068 168.128 174.624C166.579 174.965 165.805 175.5 165.464 175.812ZM172.045 176.98C169.826 176.98 167.392 176.77 164.987 176.165C164.916 176.147 164.858 176.097 164.831 176.03C164.803 175.963 164.811 175.886 164.849 175.824C164.876 175.779 165.555 174.724 168.03 174.18C170.268 173.687 171.596 173.265 171.76 172.567C171.832 172.264 171.876 171.754 171.924 171.214C172.021 170.103 172.102 169.353 172.332 169.058C172.736 168.538 175.621 167.839 177.232 168.915C177.594 168.657 178.585 168.044 179.502 168.303C179.606 168.332 179.675 168.431 179.667 168.54L179.458 171.371C179.787 171.754 181.186 173.506 181.186 175.679C181.186 175.781 181.117 175.871 181.019 175.898C180.963 175.914 177.047 176.98 172.045 176.98Z" fill="#25221C"/>
<path d="M164.937 177.706C164.883 177.194 164.854 176.452 165.043 175.944C165.043 175.944 172.97 177.92 180.958 175.679V177.622C180.958 178.045 180.646 178.402 180.226 178.457C178.049 178.745 171.391 179.461 165.566 178.388C165.229 178.326 164.973 178.047 164.937 177.706Z" fill="#F8F1E3"/>
<path d="M165.165 177.682C165.189 177.923 165.372 178.121 165.608 178.164C171.458 179.243 178.254 178.488 180.198 178.232C180.502 178.192 180.731 177.93 180.731 177.622V175.978C173.598 177.889 166.504 176.5 165.2 176.213C165.115 176.575 165.102 177.087 165.165 177.682ZM172.574 179.184C170.316 179.184 167.848 179.041 165.525 178.613C165.092 178.532 164.757 178.169 164.711 177.73C164.654 177.179 164.628 176.408 164.829 175.865C164.87 175.757 164.986 175.695 165.098 175.723C165.177 175.743 173.063 177.658 180.897 175.46C180.966 175.441 181.039 175.454 181.096 175.498C181.153 175.541 181.186 175.607 181.186 175.679V177.622C181.186 178.157 180.788 178.614 180.257 178.684C179.067 178.841 176.07 179.184 172.574 179.184Z" fill="#25221C"/>
<path d="M167.956 175.401C167.865 175.401 167.779 175.346 167.743 175.256L167.518 174.678C167.472 174.561 167.53 174.428 167.647 174.382C167.764 174.337 167.897 174.394 167.942 174.512L168.168 175.09C168.214 175.207 168.157 175.339 168.039 175.385C168.012 175.396 167.984 175.401 167.956 175.401Z" fill="#25221C"/>
<path d="M169.555 175.166C169.471 175.166 169.391 175.119 169.35 175.039L168.981 174.299C168.924 174.187 168.969 174.049 169.082 173.993C169.195 173.937 169.332 173.983 169.388 174.095L169.759 174.836C169.815 174.948 169.769 175.085 169.656 175.142C169.624 175.159 169.589 175.166 169.555 175.166Z" fill="#25221C"/>
<path d="M171.1 174.75C171.022 174.75 170.946 174.71 170.904 174.639L170.416 173.816C170.351 173.708 170.388 173.568 170.495 173.504C170.603 173.44 170.743 173.475 170.808 173.584L171.296 174.407C171.359 174.514 171.324 174.654 171.216 174.718C171.18 174.74 171.14 174.75 171.1 174.75Z" fill="#25221C"/>
<path d="M172.745 173.955C172.695 173.955 172.645 173.939 172.604 173.906L171.618 173.129C171.519 173.051 171.502 172.907 171.58 172.809C171.659 172.711 171.802 172.693 171.9 172.771L172.885 173.549C172.984 173.626 173.001 173.769 172.924 173.869C172.878 173.926 172.812 173.955 172.745 173.955Z" fill="#25221C"/>
<path d="M173.286 172.129C173.256 172.129 173.226 172.124 173.197 172.112L172.023 171.615C171.907 171.566 171.852 171.432 171.902 171.316C171.951 171.2 172.084 171.146 172.201 171.195L173.375 171.692C173.491 171.741 173.545 171.875 173.497 171.991C173.459 172.078 173.375 172.129 173.286 172.129Z" fill="#25221C"/>
<path d="M195.217 191.762L195.134 192.87C195.057 193.909 195.135 194.934 195.659 195.833C196.108 196.602 196.573 197.692 196.573 198.908C196.573 198.908 187.586 200.992 179.73 199.017C179.73 199.017 179.693 198.088 182.103 197.558C184.513 197.028 187.404 196.667 187.597 195.848C187.79 195.028 187.79 192.86 188.127 192.426C188.464 191.992 191.356 191.269 192.849 192.426C192.849 192.426 194.192 191.473 195.217 191.762Z" fill="#F8F1E3"/>
<path d="M180.017 198.853C187.065 200.548 195.048 198.998 196.34 198.724C196.296 197.602 195.844 196.603 195.462 195.948C194.987 195.133 194.81 194.149 194.907 192.853L194.974 191.945C194.092 191.835 192.993 192.603 192.981 192.611C192.899 192.669 192.789 192.667 192.71 192.606C191.267 191.489 188.538 192.268 188.306 192.565C188.141 192.778 188.055 193.763 187.992 194.482C187.943 195.039 187.897 195.565 187.818 195.899C187.641 196.651 186.139 196.984 183.701 197.464C183.187 197.565 182.656 197.67 182.151 197.781C180.621 198.117 180.157 198.602 180.017 198.853ZM187.295 200.089C184.856 200.089 182.201 199.873 179.673 199.237C179.576 199.212 179.505 199.126 179.501 199.025C179.497 198.911 179.53 197.89 182.054 197.335C182.563 197.223 183.097 197.119 183.613 197.016C185.236 196.697 187.257 196.299 187.375 195.795C187.446 195.493 187.491 194.982 187.537 194.442C187.635 193.332 187.717 192.582 187.947 192.286C188.352 191.765 191.247 191.065 192.855 192.149C193.24 191.904 194.352 191.281 195.277 191.543C195.382 191.572 195.45 191.67 195.443 191.778L195.361 192.888C195.272 194.086 195.43 194.987 195.857 195.718C196.286 196.457 196.8 197.609 196.8 198.908C196.8 199.013 196.727 199.106 196.623 199.13C196.562 199.144 192.401 200.089 187.295 200.089Z" fill="#25221C"/>
<path d="M179.702 200.9C179.65 200.388 179.651 199.519 179.729 199.016C179.729 199.016 187.283 200.426 196.573 198.908V200.851C196.573 201.273 196.261 201.631 195.841 201.687C193.663 201.975 186.157 202.655 180.331 201.582C179.995 201.52 179.739 201.241 179.702 200.9Z" fill="#F8F1E3"/>
<path d="M179.926 199.28C179.878 199.779 179.887 200.463 179.929 200.876C179.954 201.117 180.136 201.314 180.372 201.358C185.728 202.344 192.813 201.856 195.811 201.46C196.116 201.42 196.344 201.158 196.344 200.85V199.175C188.153 200.469 181.275 199.497 179.926 199.28ZM187.866 202.392C185.334 202.392 182.648 202.241 180.29 201.807C179.857 201.727 179.522 201.363 179.476 200.924C179.422 200.416 179.418 199.529 179.504 198.98C179.514 198.92 179.547 198.865 179.598 198.83C179.647 198.794 179.71 198.78 179.771 198.792C179.846 198.806 187.396 200.176 196.535 198.683C196.601 198.672 196.669 198.69 196.72 198.734C196.77 198.777 196.8 198.84 196.8 198.908V200.85C196.8 201.386 196.4 201.842 195.871 201.912C194.165 202.137 191.145 202.392 187.866 202.392Z" fill="#25221C"/>
<path d="M183.371 198.389C183.279 198.389 183.192 198.332 183.158 198.239L182.886 197.511C182.843 197.393 182.903 197.262 183.021 197.218C183.139 197.174 183.27 197.234 183.313 197.352L183.584 198.081C183.628 198.199 183.568 198.33 183.451 198.374C183.424 198.383 183.397 198.389 183.371 198.389Z" fill="#25221C"/>
<path d="M185.223 198.353C185.134 198.353 185.049 198.3 185.013 198.212L184.576 197.16C184.528 197.044 184.583 196.911 184.699 196.863C184.815 196.814 184.949 196.869 184.997 196.986L185.434 198.037C185.482 198.153 185.426 198.286 185.31 198.335C185.282 198.346 185.252 198.353 185.223 198.353Z" fill="#25221C"/>
<path d="M187.176 197.846C187.108 197.846 187.041 197.816 186.996 197.759L186.224 196.771C186.148 196.671 186.165 196.528 186.264 196.45C186.363 196.373 186.506 196.391 186.584 196.49L187.355 197.478C187.432 197.578 187.415 197.721 187.315 197.798C187.274 197.83 187.224 197.846 187.176 197.846Z" fill="#25221C"/>
<path d="M189.078 196.557C189.047 196.557 189.015 196.551 188.985 196.536L187.575 195.898C187.46 195.846 187.409 195.711 187.461 195.597C187.514 195.482 187.647 195.431 187.763 195.483L189.172 196.122C189.287 196.174 189.338 196.308 189.286 196.423C189.248 196.507 189.165 196.557 189.078 196.557Z" fill="#25221C"/>
<path d="M189.548 194.569C189.542 194.569 189.537 194.569 189.531 194.568L187.808 194.435C187.682 194.426 187.588 194.316 187.598 194.191C187.608 194.066 187.714 193.972 187.843 193.982L189.566 194.114C189.691 194.124 189.784 194.233 189.775 194.359C189.766 194.478 189.666 194.569 189.548 194.569Z" fill="#25221C"/>
<path d="M196.428 137.095C197.824 136.656 200.561 135.411 201.627 132.784C202.59 130.414 204.42 119.771 204.768 117.721C204.8 117.529 204.978 117.396 205.171 117.421L205.642 117.479C206.104 117.537 206.528 117.217 206.598 116.757L207.247 112.531C207.319 112.059 206.993 111.619 206.52 111.55L196.826 109.861C196.356 109.792 195.913 110.096 195.805 110.558L194.283 119.913L196.428 137.095Z" fill="#F8F1E3"/>
<path d="M194.513 119.917L196.619 136.791C197.743 136.397 200.389 135.227 201.416 132.699C202.368 130.355 204.187 119.778 204.543 117.682C204.596 117.369 204.884 117.156 205.198 117.194L205.67 117.253C206.011 117.296 206.32 117.063 206.372 116.723L207.021 112.496C207.047 112.328 207.005 112.161 206.905 112.025C206.803 111.888 206.655 111.8 206.487 111.775L196.786 110.085C196.443 110.036 196.106 110.266 196.027 110.609L194.513 119.917ZM196.428 137.323C196.384 137.323 196.342 137.31 196.304 137.286C196.247 137.25 196.21 137.19 196.202 137.123L194.056 119.941C194.054 119.92 194.054 119.897 194.057 119.877L195.58 110.521C195.716 109.933 196.273 109.551 196.859 109.635L206.559 111.325C206.841 111.366 207.097 111.519 207.27 111.753C207.444 111.988 207.516 112.276 207.471 112.565L206.823 116.791C206.733 117.378 206.201 117.779 205.614 117.706L205.141 117.647C205.071 117.639 205.005 117.686 204.992 117.758C204.636 119.863 202.808 130.482 201.839 132.87C200.646 135.806 197.448 137.012 196.496 137.312C196.473 137.32 196.45 137.323 196.428 137.323Z" fill="#25221C"/>
<path d="M204.657 118.583C204.644 118.583 204.632 118.581 204.619 118.579C204.495 118.559 204.411 118.441 204.432 118.316L205.082 114.437C205.103 114.313 205.221 114.229 205.345 114.25C205.469 114.271 205.553 114.389 205.532 114.513L204.881 118.392C204.863 118.504 204.766 118.583 204.657 118.583Z" fill="#25221C"/>
<path d="M184.32 111.896L185.766 115.656L192.031 115.174L191.934 108.619L185.669 107.849L184.32 111.896Z" fill="#F8F1E3"/>
<path d="M184.561 111.891L185.918 115.416L191.8 114.963L191.709 108.821L185.826 108.097L184.561 111.891ZM185.765 115.884C185.672 115.884 185.587 115.826 185.553 115.738L184.107 111.978C184.088 111.929 184.087 111.874 184.103 111.825L185.453 107.776C185.488 107.673 185.59 107.609 185.697 107.623L191.962 108.394C192.074 108.407 192.16 108.502 192.162 108.616L192.259 115.17C192.26 115.291 192.168 115.392 192.049 115.401L185.783 115.883C185.777 115.884 185.771 115.884 185.765 115.884Z" fill="#25221C"/>
<path d="M180.801 98.7959C180.43 99.4165 180.423 100.642 180.621 101.702C180.819 102.761 180.017 103.985 179.685 105.144C179.354 106.302 179.166 110.108 181.191 111.439C183.215 112.772 186.176 111.012 186.811 110.543C187.447 110.074 191.581 106.144 191.073 101.437C190.568 96.7302 182.822 95.4144 180.801 98.7959Z" fill="#F8F1E3"/>
<path d="M180.998 98.9131C180.694 99.4208 180.633 100.524 180.847 101.66C180.993 102.444 180.648 103.285 180.315 104.097C180.165 104.465 180.008 104.845 179.905 105.206C179.555 106.431 179.459 110.027 181.317 111.25C183.111 112.43 185.857 110.966 186.677 110.36C187.458 109.783 191.327 105.914 190.848 101.462C190.588 99.0509 188.408 97.7342 186.454 97.3053C184.477 96.8722 182.021 97.2006 180.998 98.9131ZM182.942 112.155C182.289 112.155 181.641 112.009 181.066 111.63C178.843 110.167 179.174 106.101 179.468 105.08C179.577 104.696 179.738 104.303 179.893 103.925C180.216 103.139 180.52 102.396 180.398 101.743C180.22 100.789 180.167 99.4145 180.607 98.679C181.747 96.7717 184.414 96.3915 186.553 96.8598C188.661 97.3229 191.016 98.7608 191.301 101.413C191.863 106.642 186.997 110.69 186.948 110.727C186.268 111.229 184.584 112.155 182.942 112.155Z" fill="#25221C"/>
<path d="M179.927 99.0251C179.305 99.8331 178.891 100.438 179.014 100.916C179.164 101.503 180.005 102.394 180.505 102.246C180.759 102.171 180.657 101.526 181.237 101.339C186.481 99.6539 189.367 104.698 189.84 105.691C189.84 105.691 194.609 96.463 182.296 97.5249C182.296 97.5249 180.731 97.9808 179.927 99.0251Z" fill="#25221C"/>
<path d="M179.514 99.6312C179.514 99.6312 180.842 98.6574 182.958 98.3611C185.072 98.0638 189.361 99.8944 189.857 101.84C190.352 103.787 187.127 106.428 187.369 108.422C187.599 110.311 189.201 111.978 191.374 113.125C192.576 113.76 194.049 113.582 195.057 112.67C197.468 110.487 201.623 105.521 198.506 99.2044C194.272 90.6232 184.589 94.2409 184.589 94.2409C184.589 94.2409 183.281 93.9923 182.791 94.3031C182.301 94.6139 181.612 95.6188 181.612 95.6188C181.612 95.6188 177.78 94.8221 176.912 96.2777C176.044 97.7343 179.514 99.6312 179.514 99.6312Z" fill="#F8F1E3"/>
<path d="M183.427 98.1031C185.669 98.1031 189.562 99.7628 190.077 101.784C190.357 102.885 189.579 104.141 188.826 105.355C188.168 106.416 187.488 107.512 187.596 108.395C187.8 110.077 189.216 111.729 191.48 112.924C192.597 113.514 193.972 113.344 194.905 112.501C197.463 110.186 201.305 105.392 198.302 99.3059C196.587 95.8301 193.781 93.956 189.961 93.7332C187.091 93.5654 184.692 94.445 184.668 94.4543C184.629 94.4688 184.586 94.4729 184.546 94.4647C184.073 94.3756 183.214 94.3041 182.913 94.4947C182.543 94.7299 181.984 95.4789 181.801 95.7482C181.748 95.8239 181.654 95.8612 181.565 95.8425C180.544 95.6302 177.751 95.3162 177.107 96.3947C176.996 96.5822 176.971 96.7863 177.034 97.0173C177.307 98.0202 179.03 99.0862 179.504 99.3629C179.887 99.1121 181.122 98.388 182.926 98.1352C183.081 98.1134 183.249 98.1031 183.427 98.1031ZM192.889 113.728C192.336 113.728 191.778 113.596 191.267 113.327C188.869 112.06 187.366 110.282 187.143 108.45C187.017 107.408 187.74 106.242 188.438 105.115C189.142 103.981 189.868 102.81 189.636 101.897C189.185 100.128 185.069 98.2947 182.989 98.5859C180.961 98.8708 179.662 99.8052 179.649 99.8145C179.578 99.8674 179.483 99.8736 179.405 99.8311C179.306 99.7762 176.961 98.4823 176.595 97.1365C176.498 96.7853 176.54 96.4569 176.716 96.1616C177.564 94.7392 180.771 95.2323 181.51 95.368C181.717 95.0811 182.248 94.3776 182.669 94.1103C183.171 93.7912 184.273 93.9549 184.57 94.0057C185.41 93.7177 194.612 90.7962 198.71 99.1039C201.846 105.459 197.864 110.437 195.21 112.839C194.563 113.424 193.73 113.728 192.889 113.728Z" fill="#25221C"/>
<path d="M190.388 99.5234C190.131 99.5234 189.87 99.4364 189.645 99.2706C187.239 97.4991 184.638 96.4434 182.881 95.8715C182.761 95.8322 182.696 95.7037 182.735 95.5835C182.773 95.4644 182.902 95.3991 183.022 95.4374C184.811 96.0207 187.46 97.0961 189.916 98.9039C190.101 99.0407 190.321 99.0956 190.518 99.0541C190.689 99.0189 190.821 98.9298 190.921 98.7827C191.219 98.3383 190.877 97.8213 190.863 97.7995C190.042 96.5646 187.799 95.4406 186.062 94.7143C185.946 94.6656 185.891 94.532 185.939 94.416C185.988 94.2999 186.122 94.2461 186.238 94.2937C188.033 95.0438 190.358 96.2165 191.241 97.5447C191.26 97.5737 191.772 98.3331 191.298 99.0365C191.134 99.281 190.897 99.4416 190.611 99.5006C190.537 99.5162 190.463 99.5234 190.388 99.5234Z" fill="#25221C"/>
<path d="M159.396 103.198C160.29 103.55 161.232 104.411 162.064 105.35C162.762 106.137 165.51 103.854 165.08 103.392C163.009 101.168 162.108 98.7185 162.108 98.7185C162.108 98.7185 160.467 93.9436 159.06 94.935C158.829 95.0966 158.81 95.4406 158.857 95.7182L159.294 98.3124C159.266 98.0689 155.973 96.0487 154.413 96.0373C154.395 96.0373 154.382 96.0104 154.364 96.0114C152.931 96.0301 152.485 97.7426 153.123 98.5921C154.613 100.58 156.64 102.11 159.396 103.198Z" fill="#F8F1E3"/>
<path d="M159.48 102.986C160.29 103.306 161.217 104.05 162.235 105.199C162.352 105.331 162.641 105.312 163.027 105.147C163.954 104.751 164.885 103.798 164.898 103.531C162.831 101.303 161.932 98.8987 161.895 98.7971C161.57 97.8523 160.531 95.3493 159.614 95.053C159.461 95.0033 159.328 95.0251 159.192 95.1214C159.057 95.2157 159.047 95.4716 159.082 95.6809L159.519 98.274C159.52 98.2781 159.52 98.2822 159.521 98.2864C159.535 98.4097 159.449 98.5205 159.327 98.5381C159.22 98.5527 159.123 98.4936 159.084 98.3993C158.8 98.0688 155.812 96.2755 154.412 96.2652C154.37 96.2641 154.335 96.2538 154.307 96.2413C153.662 96.2745 153.356 96.7013 153.23 96.9582C152.985 97.4555 153.016 98.0709 153.305 98.4553C154.806 100.456 156.826 101.938 159.48 102.986ZM162.481 105.741C162.18 105.741 161.999 105.619 161.894 105.501C160.924 104.406 160.056 103.703 159.313 103.409C156.577 102.33 154.493 100.799 152.941 98.7288C152.553 98.2128 152.505 97.4017 152.822 96.7573C153.121 96.1471 153.683 95.7927 154.361 95.7834C154.417 95.7845 154.449 95.7958 154.478 95.8104C155.637 95.859 157.913 96.9717 158.965 97.7249L158.634 95.7565C158.557 95.3027 158.665 94.9349 158.929 94.7485C159.182 94.5713 159.467 94.5257 159.754 94.619C161.052 95.0385 162.197 98.276 162.324 98.6438C162.332 98.6635 163.234 101.074 165.247 103.236C165.31 103.304 165.402 103.452 165.324 103.699C165.123 104.334 163.744 105.501 162.769 105.708C162.664 105.731 162.567 105.741 162.481 105.741Z" fill="#25221C"/>
<path d="M187.308 142.571C187.308 142.571 186.295 143.342 185.91 143.294C185.525 143.246 183.789 142.355 182.585 142.426C181.612 142.485 179.259 142.98 179.453 143.655C179.608 144.2 180.706 144.51 181.631 144.431C181.971 144.402 182.28 144.632 182.343 144.967C182.49 145.75 182.845 147.039 183.644 147.776C184.849 148.885 186.006 149.174 186.006 149.174L189.476 145.318L187.308 142.571Z" fill="#F8F1E3"/>
<path d="M181.69 144.2C182.117 144.2 182.487 144.5 182.567 144.925C182.698 145.625 183.034 146.905 183.798 147.608C184.714 148.451 185.609 148.805 185.934 148.913L189.177 145.308L187.265 142.885C186.905 143.142 186.25 143.567 185.882 143.52C185.744 143.503 185.541 143.427 185.164 143.283C184.457 143.014 183.389 142.605 182.598 142.654C181.656 142.71 179.985 143.107 179.695 143.517C179.662 143.563 179.668 143.582 179.671 143.593C179.78 143.975 180.743 144.278 181.611 144.203C181.637 144.201 181.664 144.2 181.69 144.2ZM186.006 149.402C185.987 149.402 185.969 149.4 185.951 149.394C185.901 149.382 184.724 149.078 183.491 147.944C182.671 147.191 182.293 145.932 182.119 145.01C182.078 144.789 181.881 144.638 181.65 144.658C180.64 144.744 179.431 144.409 179.233 143.718C179.202 143.608 179.191 143.438 179.323 143.253C179.802 142.576 181.901 142.239 182.571 142.199C183.46 142.145 184.584 142.574 185.326 142.857C185.595 142.96 185.849 143.057 185.938 143.068C186.109 143.089 186.726 142.728 187.169 142.39C187.268 142.314 187.409 142.332 187.486 142.429L189.655 145.177C189.723 145.264 189.719 145.388 189.645 145.47L186.175 149.326C186.131 149.375 186.069 149.402 186.006 149.402Z" fill="#25221C"/>
<path d="M183.638 116.198C182.457 115.44 179.679 113.34 174.55 110.151C170.365 107.551 165.076 102.312 164.137 101.273C164.057 101.184 163.918 101.182 163.835 101.268L160.56 104.644C160.486 104.721 160.482 104.843 160.553 104.924C161.079 105.527 163.146 107.892 164.358 109.292C165.755 110.906 175.117 119.029 175.655 119.852C176.193 120.676 179.688 124.093 179.688 124.093L185.44 118.933L183.638 116.198Z" fill="#F8F1E3"/>
<path d="M160.738 104.789C161.285 105.415 163.329 107.753 164.531 109.143C165.227 109.948 167.937 112.398 170.558 114.768C173.673 117.585 175.583 119.324 175.846 119.727C176.302 120.425 179.019 123.114 179.696 123.78L185.142 118.894L183.475 116.364C183.13 116.14 182.652 115.807 182.054 115.389C180.561 114.346 178.062 112.603 174.43 110.344C170.341 107.804 165.074 102.643 163.984 101.442L160.738 104.789ZM179.688 124.321C179.631 124.321 179.573 124.299 179.53 124.256C179.386 124.115 176.01 120.811 175.465 119.977C175.215 119.594 172.692 117.313 170.252 115.106C167.621 112.727 164.901 110.267 164.186 109.441C162.975 108.041 160.909 105.677 160.381 105.074C160.231 104.902 160.239 104.649 160.398 104.485L163.671 101.109C163.755 101.023 163.866 100.975 163.992 100.977C164.111 100.979 164.226 101.032 164.306 101.12C165.352 102.278 170.603 107.43 174.67 109.958C178.313 112.222 180.818 113.97 182.315 115.016C182.933 115.447 183.421 115.789 183.761 116.006C183.788 116.024 183.811 116.047 183.828 116.072L185.631 118.807C185.693 118.902 185.676 119.027 185.593 119.103L179.841 124.262C179.797 124.301 179.743 124.321 179.688 124.321Z" fill="#25221C"/>
<path d="M177.018 136.354C176.112 135.755 179.301 124.053 181.211 120.234C182.584 117.488 182.826 115.921 184.127 115.271C184.723 114.972 189.283 112.354 192.898 113.511C192.898 113.511 193.108 115.966 193.428 116.33C194.272 117.294 195.965 117.423 197.138 119.029C198.97 121.535 200.946 133.101 200.729 136.065C200.534 138.72 197.324 143.231 193.174 144.403C191.965 144.744 190.797 145.216 189.726 145.873C189.571 145.968 189.369 145.93 189.26 145.785L187.234 143.07C187.125 142.924 187.146 142.719 187.282 142.598L189.669 140.474C189.669 140.474 191.766 138.379 192.126 137.583C192.126 137.583 181.067 139.029 177.018 136.354Z" fill="#F8F1E3"/>
<path d="M192.127 137.355C192.199 137.355 192.267 137.389 192.31 137.447C192.359 137.515 192.369 137.603 192.334 137.677C191.959 138.501 189.916 140.549 189.83 140.636L187.434 142.769C187.386 142.812 187.379 142.882 187.418 142.933L189.444 145.649C189.481 145.7 189.552 145.712 189.606 145.679C190.622 145.057 191.802 144.553 193.113 144.183C197.283 143.006 200.322 138.508 200.502 136.049C200.71 133.198 198.788 121.672 196.955 119.164C196.307 118.278 195.476 117.854 194.741 117.48C194.174 117.192 193.641 116.92 193.256 116.481C192.939 116.119 192.751 114.408 192.685 113.685C191.162 113.245 188.521 113.217 184.403 115.384C184.328 115.423 184.269 115.454 184.229 115.474C183.392 115.893 183.021 116.749 182.408 118.168C182.137 118.796 181.829 119.508 181.415 120.336C179.364 124.439 176.566 135.404 177.152 136.169C181.089 138.761 191.987 137.372 192.097 137.357C192.108 137.356 192.117 137.355 192.127 137.355ZM189.54 146.154C189.364 146.154 189.191 146.073 189.078 145.921L187.052 143.205C186.872 142.964 186.905 142.629 187.131 142.428L189.518 140.305C189.99 139.831 191.155 138.614 191.689 137.866C189.51 138.112 180.535 138.952 176.893 136.545C176.363 136.195 176.681 133.805 177.839 129.443C178.676 126.29 179.98 122.188 181.008 120.133C181.416 119.315 181.721 118.61 181.99 117.987C182.622 116.525 183.039 115.56 184.025 115.067C184.064 115.047 184.119 115.018 184.19 114.981C188.58 112.67 191.386 112.788 192.967 113.294C193.054 113.322 193.117 113.401 193.125 113.492C193.223 114.637 193.433 115.99 193.599 116.18C193.926 116.553 194.399 116.795 194.947 117.074C195.727 117.471 196.611 117.922 197.323 118.895C199.197 121.461 201.168 133.187 200.956 136.082C200.767 138.668 197.592 143.393 193.237 144.622C191.966 144.981 190.824 145.467 189.844 146.068C189.75 146.126 189.644 146.154 189.54 146.154Z" fill="#25221C"/>
<path d="M191.549 138.119C191.489 138.119 191.43 138.096 191.385 138.049C191.297 137.96 191.299 137.815 191.389 137.728C191.423 137.694 194.79 134.294 192.919 127.597C192.885 127.476 192.956 127.349 193.077 127.316C193.198 127.282 193.324 127.353 193.358 127.474C195.305 134.446 191.855 137.909 191.707 138.053C191.663 138.097 191.606 138.119 191.549 138.119Z" fill="#25221C"/>
<path d="M195.388 117.456C195.415 117.474 195.399 117.516 195.367 117.511C194.808 117.427 192.588 117.244 190.44 119.246C188.656 120.909 186.545 137.967 186.545 137.967L183.744 137.933C183.744 137.933 185.115 127.825 187.428 121.319C187.428 121.319 187.67 120.562 188.16 119.672C189.035 118.08 190.608 116.99 192.403 116.712C192.419 116.71 192.433 116.708 192.449 116.704C193.444 116.553 194.461 116.792 195.279 117.378L195.388 117.456Z" fill="#25221C"/>
<path d="M179.605 121.351C180.437 119.584 181.529 117.512 182.707 115.929C183.237 115.216 184.064 114.786 184.952 114.767C185.003 114.766 185.032 114.825 184.998 114.864C184.359 115.581 178.678 123.993 177.548 137.056C177.548 137.056 176.763 136.328 176.609 135.511C176.455 134.689 176.29 133.135 176.886 129.775C177.403 126.857 178.342 124.032 179.605 121.351Z" fill="#25221C"/>
<path d="M203.1 224.294H143.835C143.71 224.294 143.607 224.192 143.607 224.066C143.607 223.941 143.71 223.838 143.835 223.838H203.1C203.226 223.838 203.328 223.941 203.328 224.066C203.328 224.192 203.226 224.294 203.1 224.294Z" fill="#25221C"/>
<path d="M56.0157 191.935C55.9513 191.935 55.8874 191.908 55.8423 191.855C44.9456 179.096 41.6775 166.325 40.8549 157.857C39.9628 148.676 41.6758 142.423 41.6931 142.361C41.7271 142.24 41.8533 142.169 41.9739 142.202C42.0951 142.237 42.1659 142.363 42.1319 142.484C42.1148 142.545 40.4225 148.733 41.3105 157.835C42.1297 166.231 45.3759 178.899 56.1888 191.56C56.2705 191.655 56.2592 191.799 56.1635 191.881C56.1205 191.917 56.0679 191.935 56.0157 191.935Z" fill="#25221C"/>
<path d="M49.5085 171.633C49.4314 171.633 49.3563 171.594 49.3135 171.523C44.0351 162.817 43.2596 154.138 43.5384 148.39C43.8406 142.162 45.4148 137.929 45.4308 137.886C45.4751 137.769 45.6067 137.709 45.7244 137.754C45.8421 137.798 45.9015 137.93 45.8571 138.048C45.8414 138.089 44.2892 142.269 43.9928 148.43C43.7195 154.109 44.4883 162.685 49.7031 171.287C49.7684 171.395 49.734 171.535 49.6265 171.6C49.5895 171.622 49.5488 171.633 49.5085 171.633Z" fill="#25221C"/>
<path d="M217.397 125.296C217.395 125.296 217.394 125.296 217.393 125.296C217.268 125.294 217.168 125.191 217.17 125.065C217.404 108.584 211.875 95.5658 207.195 87.5472C202.126 78.8603 196.943 74.016 196.891 73.9683C196.798 73.8823 196.793 73.7383 196.879 73.6461C196.963 73.5529 197.108 73.5477 197.201 73.6337C197.253 73.6813 202.486 78.5723 207.589 87.3172C212.297 95.3855 217.861 108.486 217.624 125.071C217.623 125.196 217.522 125.296 217.397 125.296Z" fill="#25221C"/>
<path d="M217.254 131.573C216.621 131.573 216.105 131.058 216.105 130.425C216.105 130.299 216.207 130.197 216.333 130.197C216.46 130.197 216.561 130.299 216.561 130.425C216.561 130.807 216.872 131.118 217.254 131.118C217.637 131.118 217.947 130.807 217.947 130.425C217.947 130.043 217.637 129.732 217.254 129.732C217.128 129.732 217.026 129.629 217.026 129.504C217.026 129.378 217.128 129.276 217.254 129.276C217.887 129.276 218.403 129.791 218.403 130.425C218.403 131.058 217.887 131.573 217.254 131.573Z" fill="#25221C"/>
<path d="M212.08 143.457C210.961 143.457 210.052 142.547 210.052 141.429C210.052 140.311 210.961 139.4 212.08 139.4C212.206 139.4 212.308 139.503 212.308 139.628C212.308 139.754 212.206 139.856 212.08 139.856C211.213 139.856 210.507 140.561 210.507 141.429C210.507 142.296 211.213 143.001 212.08 143.001C212.947 143.001 213.653 142.296 213.653 141.429C213.653 141.303 213.754 141.201 213.881 141.201C214.006 141.201 214.109 141.303 214.109 141.429C214.109 142.547 213.198 143.457 212.08 143.457Z" fill="#25221C"/>
<path d="M85.3465 53.1532C85.2313 53.1532 85.1323 53.0661 85.1201 52.9491C85.107 52.8237 85.1979 52.7118 85.3231 52.6994C86.2309 52.6041 87.1562 52.5512 88.073 52.5419C88.1966 52.5409 88.3019 52.6414 88.3032 52.7667C88.3046 52.8931 88.2036 52.9957 88.0777 52.9978C87.175 53.0071 86.2642 53.0589 85.3704 53.1521C85.3624 53.1532 85.3543 53.1532 85.3465 53.1532ZM93.5178 53.4381C93.505 53.4381 93.4921 53.4381 93.4791 53.435C92.584 53.2816 91.6786 53.1666 90.7881 53.0941C90.6627 53.0838 90.5694 52.9739 90.5796 52.8486C90.5899 52.7232 90.6993 52.63 90.8253 52.6403C91.7291 52.7139 92.6477 52.8299 93.556 52.9864C93.6802 53.0071 93.7635 53.1252 93.7422 53.2495C93.7232 53.3604 93.6268 53.4381 93.5178 53.4381ZM190.855 54.1819C190.754 54.1819 190.663 54.1146 190.635 54.013C190.51 53.5541 190.352 53.0931 190.167 52.6403C190.119 52.5243 190.174 52.3907 190.291 52.343C190.407 52.2954 190.54 52.3503 190.589 52.4673C190.781 52.9366 190.945 53.4173 191.075 53.8939C191.108 54.0151 191.036 54.1405 190.915 54.1736C190.895 54.1788 190.875 54.1819 190.855 54.1819ZM79.992 54.2275C79.894 54.2275 79.8035 54.1643 79.7738 54.0659C79.7378 53.9447 79.8063 53.8183 79.9269 53.782C80.8076 53.5178 81.7067 53.2941 82.5997 53.1148C82.7231 53.0889 82.8431 53.1697 82.868 53.293C82.8928 53.4163 82.8128 53.5365 82.6894 53.5613C81.8103 53.7375 80.9246 53.9592 80.0574 54.2182C80.0356 54.2254 80.0137 54.2275 79.992 54.2275ZM98.8049 54.8025C98.7804 54.8025 98.7553 54.7983 98.7308 54.79C97.8685 54.4927 96.9941 54.2296 96.1319 54.0058C96.01 53.9747 95.9368 53.8504 95.9683 53.7281C95.9999 53.6069 96.1243 53.5334 96.246 53.5645C97.1197 53.7913 98.0057 54.0586 98.8792 54.3591C98.9982 54.3995 99.0614 54.53 99.0203 54.6481C98.9879 54.7434 98.8995 54.8025 98.8049 54.8025ZM74.9172 56.2487C74.8337 56.2487 74.7531 56.2021 74.7132 56.1223C74.6568 56.0104 74.7024 55.8727 74.815 55.8167C75.6408 55.4033 76.4856 55.0242 77.3258 54.6885C77.4427 54.6419 77.575 54.6989 77.6219 54.8159C77.6685 54.933 77.6116 55.0656 77.4946 55.1122C76.6664 55.4427 75.8333 55.8167 75.0189 56.2249C74.9862 56.2404 74.9515 56.2487 74.9172 56.2487ZM168.268 56.2871C168.252 56.2871 168.236 56.285 168.219 56.2819C167.325 56.085 166.424 56.0301 165.575 56.1234C165.448 56.1369 165.337 56.0467 165.324 55.9214C165.31 55.796 165.401 55.6841 165.526 55.6696C166.424 55.5722 167.375 55.6292 168.317 55.8364C168.44 55.8633 168.518 55.9846 168.491 56.1078C168.467 56.2146 168.373 56.2871 168.268 56.2871ZM103.829 56.946C103.795 56.946 103.759 56.9387 103.726 56.9211C102.911 56.5057 102.083 56.1182 101.264 55.768C101.149 55.7183 101.095 55.5847 101.145 55.4686C101.194 55.3526 101.328 55.2998 101.444 55.3484C102.271 55.7028 103.109 56.0954 103.932 56.515C104.045 56.572 104.09 56.7097 104.033 56.8216C103.993 56.9004 103.913 56.946 103.829 56.946ZM160.96 58.7693C160.914 58.7693 160.869 58.7558 160.828 58.7279C160.726 58.6554 160.701 58.5134 160.774 58.4098C161.331 57.6183 162.029 56.9812 162.85 56.515C162.96 56.4528 163.098 56.4912 163.159 56.601C163.222 56.7098 163.183 56.8496 163.075 56.9107C162.313 57.3438 161.665 57.9364 161.146 58.6719C161.102 58.7351 161.032 58.7693 160.96 58.7693ZM172.996 58.8854C172.937 58.8854 172.878 58.8626 172.834 58.817C172.221 58.1923 171.507 57.6546 170.71 57.2195C170.599 57.1583 170.559 57.0195 170.62 56.9097C170.68 56.7988 170.819 56.7584 170.928 56.8196C171.765 57.2764 172.515 57.8411 173.159 58.4979C173.247 58.587 173.246 58.732 173.156 58.8201C173.111 58.8636 173.054 58.8854 172.996 58.8854ZM70.262 59.1029C70.1948 59.1029 70.1283 59.0729 70.0832 59.0159C70.0051 58.9175 70.0218 58.7745 70.1205 58.6958C70.5541 58.3528 70.9839 58.0431 71.3982 57.7748C71.7304 57.5593 72.0694 57.3479 72.4055 57.1449C72.5132 57.0796 72.6534 57.1148 72.7184 57.2226C72.7833 57.3303 72.7486 57.4702 72.6409 57.5354C72.3089 57.7354 71.9741 57.9447 71.6458 58.157C71.2437 58.4171 70.8257 58.7186 70.4032 59.0532C70.3615 59.0863 70.3116 59.1029 70.262 59.1029ZM190.946 59.5898C190.928 59.5898 190.911 59.5878 190.893 59.5836C190.771 59.5546 190.695 59.4313 190.724 59.3091C190.918 58.4875 191.017 57.6535 191.017 56.8299C191.017 56.7729 191.015 56.7149 191.014 56.6569C191.012 56.5316 191.112 56.4269 191.238 56.4249C191.357 56.4238 191.468 56.5233 191.47 56.6486C191.471 56.7087 191.471 56.7698 191.471 56.8299C191.472 57.6888 191.37 58.558 191.168 59.4137C191.143 59.5184 191.05 59.5898 190.946 59.5898ZM108.522 59.7421C108.477 59.7421 108.432 59.7287 108.391 59.7007C107.764 59.2593 107.124 58.8418 106.491 58.4596C106.364 58.3829 106.236 58.3073 106.109 58.2316C106 58.1674 105.964 58.0275 106.028 57.9198C106.092 57.811 106.232 57.7748 106.34 57.839C106.47 57.9157 106.598 57.9923 106.727 58.07C107.369 58.4575 108.016 58.8802 108.653 59.3277C108.756 59.4002 108.781 59.5422 108.709 59.6447C108.665 59.7079 108.594 59.7421 108.522 59.7421ZM66.3945 62.9599C66.3436 62.9599 66.2925 62.9434 66.25 62.9081C66.1528 62.8284 66.1388 62.6854 66.2187 62.588C66.8109 61.867 67.4326 61.178 68.0661 60.5419C68.1552 60.4528 68.2992 60.4518 68.3885 60.5409C68.4776 60.63 68.478 60.774 68.3892 60.8631C67.7657 61.4899 67.1538 62.1674 66.5707 62.8771C66.5258 62.932 66.4603 62.9599 66.3945 62.9599ZM112.763 63.1848C112.708 63.1848 112.652 63.164 112.609 63.1247C111.92 62.4917 111.229 61.8918 110.556 61.3427C110.457 61.263 110.443 61.12 110.522 61.0216C110.602 60.9242 110.745 60.9097 110.844 60.9895C111.524 61.5448 112.222 62.1498 112.918 62.789C113.01 62.8739 113.016 63.0179 112.931 63.1102C112.887 63.1599 112.824 63.1848 112.763 63.1848ZM175.049 63.8043C174.927 63.8043 174.827 63.709 174.822 63.5867C174.78 62.6253 174.606 61.753 174.302 60.9936C174.255 60.8765 174.312 60.7439 174.429 60.6973C174.545 60.6507 174.679 60.7077 174.725 60.8247C175.048 61.6318 175.234 62.5549 175.277 63.567C175.282 63.6934 175.184 63.7991 175.059 63.8043C175.056 63.8043 175.052 63.8043 175.049 63.8043ZM159.673 63.9504C159.563 63.9504 159.465 63.8695 159.448 63.7566C159.397 63.4158 159.371 63.0708 159.371 62.7289C159.371 62.1374 159.449 61.5406 159.601 60.9542C159.633 60.833 159.758 60.7595 159.88 60.7916C160.001 60.8227 160.073 60.948 160.042 61.0692C159.899 61.6183 159.827 62.1767 159.827 62.7289C159.827 63.048 159.851 63.3712 159.898 63.6893C159.917 63.8136 159.832 63.9296 159.708 63.9483C159.696 63.9504 159.684 63.9504 159.673 63.9504ZM188.604 64.488C188.557 64.488 188.509 64.4735 188.469 64.4435C188.367 64.3689 188.346 64.2259 188.421 64.1244C188.97 63.3816 189.44 62.6087 189.819 61.8286C189.874 61.7157 190.01 61.6691 190.123 61.723C190.236 61.7779 190.283 61.9146 190.228 62.0275C189.839 62.8325 189.353 63.6292 188.787 64.3958C188.742 64.4559 188.674 64.488 188.604 64.488ZM116.619 67.0573C116.558 67.0573 116.497 67.0335 116.452 66.9848C115.797 66.2751 115.18 65.6307 114.569 65.0143C114.48 64.9252 114.481 64.7802 114.57 64.6921C114.659 64.603 114.804 64.6041 114.892 64.6932C115.508 65.3137 116.127 65.9623 116.787 66.675C116.872 66.7672 116.867 66.9123 116.774 66.9972C116.73 67.0376 116.675 67.0573 116.619 67.0573ZM63.3292 67.4842C63.2923 67.4842 63.2549 67.4748 63.2203 67.4562C63.1098 67.3961 63.069 67.2573 63.1292 67.1464C63.5598 66.357 64.0437 65.5655 64.5678 64.7947C64.6384 64.6901 64.7801 64.6631 64.8843 64.7336C64.9884 64.8051 65.0155 64.946 64.9447 65.0506C64.429 65.81 63.9529 66.588 63.5295 67.365C63.488 67.4406 63.4099 67.4842 63.3292 67.4842ZM184.745 68.3368C184.675 68.3368 184.607 68.3057 184.562 68.2466C184.487 68.1462 184.506 68.0032 184.607 67.9276C185.338 67.3754 186.026 66.7807 186.653 66.1612C186.742 66.0721 186.886 66.0731 186.975 66.1622C187.063 66.2513 187.062 66.3964 186.973 66.4844C186.333 67.1184 185.629 67.7266 184.881 68.2912C184.841 68.3223 184.792 68.3368 184.745 68.3368ZM162.227 68.6838C162.168 68.6838 162.109 68.661 162.064 68.6155C161.377 67.9172 160.809 67.1713 160.376 66.3984C160.314 66.2886 160.353 66.1498 160.463 66.0887C160.574 66.0265 160.711 66.0669 160.774 66.1757C161.186 66.9133 161.73 67.6261 162.39 68.2953C162.478 68.3855 162.477 68.5295 162.387 68.6175C162.342 68.6621 162.285 68.6838 162.227 68.6838ZM174.247 69.1915C174.226 69.1915 174.204 69.1884 174.183 69.1822C174.062 69.1459 173.993 69.0195 174.028 68.8993C174.302 67.9742 174.507 67.0874 174.64 66.2648C174.66 66.1405 174.775 66.0555 174.902 66.0762C175.026 66.0959 175.11 66.213 175.09 66.3373C174.954 67.1796 174.744 68.085 174.465 69.0278C174.436 69.1273 174.346 69.1915 174.247 69.1915ZM180.021 71.077C179.933 71.077 179.848 71.0252 179.812 70.9392C179.762 70.8242 179.815 70.6895 179.931 70.6398C180.757 70.2845 181.571 69.8752 182.35 69.4235C182.459 69.3614 182.599 69.3976 182.661 69.5075C182.724 69.6162 182.687 69.7551 182.578 69.8183C181.784 70.2782 180.954 70.6958 180.112 71.0584C180.082 71.0708 180.051 71.077 180.021 71.077ZM120.242 71.1557C120.178 71.1557 120.114 71.1278 120.069 71.076C119.382 70.2751 118.814 69.6194 118.279 69.0123C118.195 68.918 118.204 68.774 118.299 68.6901C118.393 68.6072 118.537 68.6165 118.621 68.7108C119.157 69.32 119.727 69.9778 120.415 70.7786C120.497 70.875 120.486 71.019 120.39 71.1008C120.347 71.1371 120.294 71.1557 120.242 71.1557ZM166.738 71.7193C166.707 71.7193 166.677 71.7131 166.647 71.7007C165.795 71.3329 164.976 70.8874 164.21 70.3777C164.105 70.3072 164.077 70.1663 164.148 70.0617C164.217 69.9571 164.359 69.9281 164.464 69.9985C165.206 70.4937 166 70.9257 166.828 71.2821C166.943 71.3319 166.997 71.4655 166.946 71.5815C166.91 71.6675 166.826 71.7193 166.738 71.7193ZM61.2996 72.5481C61.2813 72.5481 61.2627 72.546 61.2441 72.5409C61.1221 72.5108 61.0478 72.3865 61.0784 72.2643C61.2928 71.4075 61.5838 70.5238 61.9437 69.639C61.9909 69.522 62.1232 69.466 62.2405 69.5137C62.357 69.5603 62.4132 69.6939 62.3657 69.81C62.0141 70.6761 61.7298 71.5391 61.5206 72.3751C61.4945 72.4787 61.4017 72.5481 61.2996 72.5481ZM174.782 72.5978C174.672 72.5978 174.574 72.517 174.558 72.4041C174.539 72.2798 174.624 72.1638 174.748 72.1451C175.618 72.0136 176.505 71.8157 177.387 71.5577C177.507 71.5225 177.633 71.5919 177.67 71.7131C177.705 71.8333 177.636 71.9597 177.514 71.9949C176.614 72.2591 175.706 72.4601 174.817 72.5958C174.805 72.5968 174.794 72.5978 174.782 72.5978ZM172.059 72.8019C172.058 72.8019 172.058 72.8019 172.057 72.8019C171.101 72.7968 170.173 72.7056 169.297 72.5326C169.173 72.5087 169.093 72.3886 169.118 72.2653C169.141 72.142 169.263 72.0612 169.385 72.0861C170.233 72.2529 171.133 72.3409 172.06 72.3461C172.185 72.3471 172.287 72.4497 172.287 72.5751C172.286 72.7004 172.184 72.8019 172.059 72.8019ZM172.172 74.2368C172.133 74.2368 172.094 74.2275 172.058 74.2068C171.949 74.1436 171.912 74.0037 171.975 73.8949C172.429 73.1096 172.822 72.2922 173.146 71.4655C173.191 71.3484 173.324 71.2904 173.44 71.336C173.558 71.3826 173.616 71.5142 173.569 71.6313C173.239 72.4787 172.835 73.3168 172.37 74.1228C172.327 74.1964 172.25 74.2368 172.172 74.2368ZM123.798 75.3142C123.733 75.3142 123.67 75.2873 123.626 75.2355C123.031 74.5476 122.437 73.8535 121.844 73.1563C121.762 73.0609 121.773 72.9169 121.87 72.8351C121.965 72.7533 122.109 72.7646 122.191 72.861C122.783 73.5572 123.376 74.2503 123.97 74.9371C124.053 75.0325 124.042 75.1765 123.947 75.2583C123.903 75.2956 123.851 75.3142 123.798 75.3142ZM60.9994 77.9685C60.8904 77.9685 60.7939 77.8897 60.775 77.7789C60.6683 77.1521 60.6143 76.4974 60.6143 75.8302C60.6143 75.5587 60.6233 75.2801 60.641 75.0014C60.6491 74.876 60.7588 74.7817 60.8829 74.789C61.0085 74.7962 61.1039 74.905 61.0958 75.0304C61.0787 75.2987 61.07 75.5681 61.07 75.8302C61.07 76.4715 61.1219 77.1013 61.2244 77.7022C61.2455 77.8265 61.162 77.9446 61.038 77.9654C61.025 77.9674 61.0121 77.9685 60.9994 77.9685ZM168.843 78.5559C168.785 78.5559 168.728 78.5341 168.683 78.4906C168.593 78.4015 168.592 78.2575 168.68 78.1684C169.329 77.5085 169.929 76.8237 170.465 76.1337C170.542 76.0343 170.685 76.0167 170.784 76.0933C170.884 76.171 170.903 76.314 170.825 76.4134C170.278 77.1169 169.667 77.8151 169.006 78.4875C168.961 78.5331 168.902 78.5559 168.843 78.5559ZM127.461 79.3774C127.401 79.3774 127.341 79.3536 127.296 79.307C126.704 78.6854 126.095 78.0275 125.436 77.293C125.352 77.1998 125.36 77.0557 125.453 76.9718C125.546 76.8879 125.69 76.8952 125.775 76.9884C126.431 77.7188 127.036 78.3746 127.626 78.992C127.713 79.0832 127.71 79.2272 127.618 79.3142C127.574 79.3567 127.518 79.3774 127.461 79.3774ZM164.664 82.0731C164.592 82.0731 164.522 82.04 164.478 81.9768C164.405 81.8742 164.43 81.7323 164.532 81.6597C165.293 81.12 166.017 80.5626 166.685 80.0042C166.782 79.9234 166.925 79.9358 167.006 80.0322C167.086 80.1285 167.074 80.2725 166.977 80.3533C166.3 80.92 165.566 81.4847 164.795 82.0317C164.756 82.0596 164.709 82.0731 164.664 82.0731ZM131.515 83.0366C131.468 83.0366 131.421 83.0221 131.38 82.992C130.64 82.4502 129.923 81.8628 129.247 81.2453C129.154 81.1604 129.147 81.0164 129.232 80.9231C129.316 80.8309 129.462 80.8247 129.554 80.9086C130.218 81.5147 130.923 82.0918 131.65 82.6243C131.751 82.6989 131.774 82.8418 131.699 82.9433C131.655 83.0034 131.585 83.0366 131.515 83.0366ZM160.013 84.9439C159.931 84.9439 159.853 84.8993 159.811 84.8216C159.753 84.7097 159.796 84.5719 159.907 84.5139C160.185 84.3678 160.463 84.2166 160.733 84.0633C161.258 83.7638 161.773 83.4593 162.262 83.1578C162.369 83.0915 162.51 83.1257 162.576 83.2324C162.643 83.3391 162.609 83.48 162.502 83.5453C162.007 83.8498 161.488 84.1575 160.958 84.459C160.684 84.6155 160.402 84.7698 160.119 84.918C160.085 84.9356 160.049 84.9439 160.013 84.9439ZM136.237 85.7737C136.206 85.7737 136.175 85.7675 136.145 85.754C135.306 85.38 134.48 84.9584 133.689 84.4994C133.581 84.4373 133.543 84.2974 133.607 84.1886C133.67 84.0798 133.809 84.0425 133.917 84.1057C134.694 84.5554 135.507 84.9708 136.33 85.3375C136.445 85.3893 136.497 85.524 136.445 85.639C136.408 85.724 136.324 85.7737 136.237 85.7737ZM154.948 86.9827C154.85 86.9827 154.759 86.9174 154.73 86.818C154.694 86.6978 154.764 86.5714 154.885 86.5362C155.751 86.2834 156.612 85.9861 157.447 85.6494C157.562 85.6038 157.696 85.6587 157.743 85.7758C157.79 85.8928 157.734 86.0254 157.617 86.0731C156.768 86.4139 155.892 86.7175 155.012 86.9734C154.991 86.9796 154.97 86.9827 154.948 86.9827ZM141.426 87.4696C141.41 87.4696 141.394 87.4676 141.378 87.4644C140.48 87.2697 139.585 87.0273 138.717 86.7444C138.598 86.7051 138.533 86.5766 138.571 86.4575C138.61 86.3373 138.738 86.272 138.859 86.3114C139.712 86.5901 140.591 86.8283 141.474 87.019C141.597 87.0459 141.675 87.1671 141.649 87.2894C141.625 87.3971 141.531 87.4696 141.426 87.4696ZM149.582 87.9845C149.465 87.9845 149.365 87.8944 149.355 87.7763C149.344 87.6509 149.438 87.5401 149.563 87.5297C150.459 87.452 151.364 87.3298 152.248 87.164C152.374 87.1402 152.491 87.2231 152.515 87.3463C152.537 87.4696 152.456 87.5888 152.332 87.6126C151.432 87.7804 150.514 87.9047 149.601 87.9835C149.595 87.9845 149.588 87.9845 149.582 87.9845ZM146.851 88.084C146.85 88.084 146.849 88.084 146.848 88.084C145.931 88.0716 145.006 88.0135 144.097 87.911C143.972 87.8965 143.883 87.7846 143.896 87.6592C143.911 87.5339 144.021 87.4437 144.149 87.4582C145.042 87.5598 145.952 87.6167 146.853 87.6281C146.979 87.6302 147.08 87.7328 147.079 87.8592C147.077 87.9835 146.975 88.084 146.851 88.084Z" fill="#25221C"/>
<path d="M176.002 77.3301C174.73 77.3301 173.696 78.364 173.696 79.6362C173.696 80.9074 174.73 81.9424 176.002 81.9424C177.273 81.9424 178.308 80.9074 178.308 79.6362C178.308 78.364 177.273 77.3301 176.002 77.3301ZM176.002 82.3982C174.479 82.3982 173.24 81.1591 173.24 79.6362C173.24 78.1133 174.479 76.8742 176.002 76.8742C177.525 76.8742 178.764 78.1133 178.764 79.6362C178.764 81.1591 177.525 82.3982 176.002 82.3982Z" fill="#25221C"/>
<path d="M165.215 124.321C163.513 124.321 162.13 125.704 162.13 127.405C162.13 129.106 163.513 130.49 165.215 130.49C166.915 130.49 168.299 129.106 168.299 127.405C168.299 125.704 166.915 124.321 165.215 124.321ZM165.215 130.946C163.262 130.946 161.674 129.358 161.674 127.405C161.674 125.453 163.262 123.865 165.215 123.865C167.167 123.865 168.755 125.453 168.755 127.405C168.755 129.358 167.167 130.946 165.215 130.946Z" fill="#25221C"/>
<path d="M55.5619 140.952C54.2885 140.952 53.2526 141.988 53.2526 143.261C53.2526 144.535 54.2885 145.571 55.5619 145.571C56.8351 145.571 57.8709 144.535 57.8709 143.261C57.8709 141.988 56.8351 140.952 55.5619 140.952ZM55.5619 146.025C54.0372 146.025 52.7969 144.785 52.7969 143.261C52.7969 141.736 54.0372 140.496 55.5619 140.496C57.0862 140.496 58.3266 141.736 58.3266 143.261C58.3266 144.785 57.0862 146.025 55.5619 146.025Z" fill="#25221C"/>
<path d="M76.5802 179.187C73.7826 179.187 71.5065 181.463 71.5065 184.261C71.5065 187.058 73.7826 189.334 76.5802 189.334C79.3778 189.334 81.6539 187.058 81.6539 184.261C81.6539 181.463 79.3778 179.187 76.5802 179.187ZM76.5802 189.79C73.5313 189.79 71.0508 187.31 71.0508 184.261C71.0508 181.212 73.5313 178.732 76.5802 178.732C79.6293 178.732 82.1097 181.212 82.1097 184.261C82.1097 187.31 79.6293 189.79 76.5802 189.79Z" fill="#25221C"/>
<path d="M177.971 53.5779L200.284 60.0674L216.12 42.4544L177.971 53.5779Z" fill="#F8F1E3"/>
<path d="M178.784 53.5767L200.21 59.8082L215.415 42.8966L178.784 53.5767ZM200.283 60.2952C200.262 60.2952 200.241 60.2921 200.219 60.2858L177.906 53.7963C177.808 53.7684 177.742 53.6782 177.742 53.5777C177.742 53.4762 177.808 53.3871 177.906 53.3581L216.057 42.2346C216.154 42.2066 216.259 42.246 216.312 42.333C216.367 42.419 216.357 42.5309 216.29 42.6065L200.452 60.2195C200.409 60.2682 200.347 60.2952 200.283 60.2952Z" fill="#25221C"/>
<path d="M189.088 64.0486L185.974 55.9046L210.633 45.5094L189.896 57.0463L194.56 58.4024L189.088 64.0486Z" fill="#25221C"/>
<path d="M186.265 56.0301L189.172 63.6332L194.132 58.5154L189.831 57.265C189.743 57.2391 189.679 57.1624 189.668 57.0712C189.658 56.9801 189.704 56.892 189.784 56.8464L206.862 47.3463L186.265 56.0301ZM189.087 64.2766C189.072 64.2766 189.057 64.2756 189.042 64.2725C188.965 64.2559 188.902 64.203 188.875 64.1305L185.761 55.9865C185.716 55.8715 185.771 55.7431 185.885 55.6954L210.543 45.2992C210.655 45.2525 210.783 45.3002 210.837 45.409C210.89 45.5177 210.848 45.6493 210.743 45.7084L190.483 56.9801L194.624 58.1839C194.7 58.2056 194.759 58.2668 194.78 58.3445C194.801 58.4211 194.779 58.504 194.723 58.561L189.251 64.2072C189.207 64.2517 189.148 64.2766 189.087 64.2766Z" fill="#25221C"/>
<path d="M189.371 61.8171C189.363 61.8171 189.353 61.8171 189.345 61.8161C189.22 61.8016 189.13 61.6887 189.144 61.5633L189.668 57.0194C189.683 56.8951 189.796 56.805 189.921 56.8195C190.046 56.834 190.136 56.9469 190.121 57.0723L189.597 61.6162C189.583 61.7322 189.485 61.8171 189.371 61.8171Z" fill="#F8F1E3"/>
</svg>
