<svg width="420" height="237" viewBox="0 0 420 237" fill="none" xmlns="http://www.w3.org/2000/svg">
<rect x="242.587" y="157.962" width="149.478" height="52" rx="26" fill="#25221C"/>
<path d="M270.813 178.014H269.46V191.462H270.813V178.014ZM275.904 179.216C275.904 178.295 275.341 177.751 274.702 177.751C274.045 177.751 273.594 178.22 273.594 178.859C273.594 179.497 274.026 179.854 274.515 179.854C274.74 179.854 274.909 179.817 275.022 179.742C275.022 180.267 274.533 180.737 273.876 180.869V181.563C275.04 181.394 275.904 180.399 275.904 179.216ZM279.701 191.462V185.827C279.701 184.437 280.621 183.31 282.142 183.31C283.514 183.31 284.396 184.212 284.396 185.752V191.462H285.674V185.846C285.674 184.437 286.575 183.291 288.097 183.291C289.486 183.291 290.35 184.212 290.35 185.771V191.462H291.609V185.508C291.609 183.404 290.313 182.127 288.341 182.127C286.876 182.127 285.768 182.878 285.354 184.062C284.922 182.878 283.852 182.127 282.424 182.127C281.147 182.127 280.133 182.709 279.682 183.667L279.532 182.371H278.405V191.462H279.701ZM302.036 191.687C303.576 191.687 304.816 191.011 305.379 189.865L305.548 191.462H306.638V185.583C306.638 183.179 305.097 182.127 302.994 182.127C300.759 182.127 299.256 183.31 299.256 185.151H300.439C300.439 183.93 301.379 183.216 302.956 183.216C304.29 183.216 305.36 183.78 305.36 185.564V185.865L302.355 186.109C300.233 186.278 298.956 187.33 298.956 189.001C298.956 190.598 300.101 191.687 302.036 191.687ZM302.336 190.635C301.097 190.635 300.27 190.072 300.27 188.964C300.27 187.95 300.965 187.198 302.675 187.048L305.36 186.841V187.33C305.36 189.302 304.252 190.635 302.336 190.635ZM315.574 191.462L315.706 189.602C316.345 191.011 317.603 191.687 319.124 191.687C321.773 191.687 323.35 189.659 323.35 186.935C323.35 184.193 321.81 182.127 319.162 182.127C317.622 182.127 316.382 182.803 315.744 184.137V177.769H314.448V191.462H315.574ZM315.762 186.898C315.762 184.813 316.927 183.291 318.918 183.291C320.89 183.291 322.036 184.813 322.036 186.898C322.036 189.001 320.89 190.504 318.918 190.504C316.927 190.504 315.762 189.001 315.762 186.898ZM331.582 182.371V187.198C331.582 189.358 330.549 190.523 328.802 190.523C327.356 190.523 326.398 189.753 326.398 187.593V182.352H325.083V188.006C325.083 190.222 326.248 191.687 328.389 191.687C329.817 191.687 331.075 190.974 331.582 189.922L331.751 191.462H332.878V182.371H331.582ZM337.663 191.462V183.461H339.485V182.371H337.663V179.497H336.386V182.371H334.564V183.461H336.386V191.462H337.663ZM343.331 191.462V183.461H345.153V182.371H343.331V179.497H342.053V182.371H340.232V183.461H342.053V191.462H343.331ZM346.11 186.917C346.11 189.678 348.063 191.687 350.73 191.687C353.398 191.687 355.351 189.678 355.351 186.917C355.351 184.137 353.398 182.127 350.73 182.127C348.063 182.127 346.11 184.137 346.11 186.917ZM347.425 186.898C347.425 184.794 348.777 183.291 350.73 183.291C352.665 183.291 354.036 184.794 354.036 186.898C354.036 189.039 352.665 190.523 350.73 190.523C348.777 190.523 347.425 189.039 347.425 186.898ZM358.72 191.462V186.71C358.72 184.663 359.772 183.31 361.631 183.31C363.134 183.31 364.092 184.062 364.092 186.184V191.462H365.388V185.902C365.388 183.611 364.355 182.127 361.856 182.127C360.542 182.127 359.34 182.784 358.739 183.949L358.551 182.371H357.424V191.462H358.72Z" fill="#FEFBF7"/>
<rect x="242.587" y="157.962" width="149.478" height="52" rx="26" stroke="black" stroke-width="1.17391"/>
<path d="M268.64 77.54H266.68V92H268.64V77.54ZM274.332 79C274.332 77.92 273.692 77.26 272.892 77.26C272.092 77.26 271.572 77.82 271.572 78.58C271.572 79.36 272.092 79.8 272.692 79.8C272.932 79.8 273.112 79.76 273.252 79.68C273.252 80.32 272.692 80.84 271.912 80.98V81.82C273.312 81.64 274.332 80.46 274.332 79ZM278.806 92V86.2C278.806 84.64 279.746 83.66 281.166 83.66C282.486 83.66 283.326 84.5 283.326 86.04V92H285.186V86.2C285.186 84.64 286.126 83.64 287.546 83.64C288.866 83.64 289.726 84.52 289.726 86.06V92H291.566V85.6C291.566 83.34 290.206 81.94 287.966 81.94C286.446 81.94 285.266 82.7 284.806 83.92C284.306 82.7 283.226 81.94 281.706 81.94C280.326 81.94 279.286 82.58 278.786 83.5L278.606 82.22H276.926V92H278.806ZM302.401 92V83.8H304.321V82.22H302.401V79.16H300.521V82.22H298.601V83.8H300.521V92H302.401ZM305.271 87.1C305.271 90.12 307.431 92.24 310.371 92.24C313.291 92.24 315.451 90.12 315.451 87.1C315.451 84.08 313.291 81.96 310.371 81.96C307.431 81.96 305.271 84.08 305.271 87.1ZM307.171 87.1C307.171 85.06 308.471 83.64 310.371 83.64C312.251 83.64 313.571 85.06 313.571 87.1C313.571 89.14 312.251 90.56 310.371 90.56C308.471 90.56 307.171 89.14 307.171 87.1ZM317.532 96.38H319.412V90.4C320.052 91.6 321.352 92.26 322.912 92.26C325.812 92.26 327.452 90.02 327.452 87.04C327.452 84.04 325.712 81.94 322.912 81.94C321.352 81.94 320.032 82.64 319.372 83.98L319.232 82.22H317.532V96.38ZM319.432 87.12C319.432 85.08 320.592 83.66 322.512 83.66C324.432 83.66 325.572 85.1 325.572 87.12C325.572 89.12 324.432 90.56 322.512 90.56C320.592 90.56 319.432 89.12 319.432 87.12ZM337.753 92V83.8H339.673V82.22H337.753V79.16H335.873V82.22H333.953V83.8H335.873V92H337.753ZM345.482 92.24C347.902 92.24 349.542 91.06 350.022 88.96H348.262C347.942 90.08 346.982 90.68 345.522 90.68C343.662 90.68 342.582 89.54 342.442 87.48L350.002 87.46V86.76C350.002 83.86 348.182 81.94 345.402 81.94C342.562 81.94 340.622 84.06 340.622 87.12C340.622 90.16 342.602 92.24 345.482 92.24ZM345.402 83.52C347.062 83.52 348.122 84.6 348.122 86.22H342.482C342.722 84.5 343.762 83.52 345.402 83.52ZM352.731 92L355.131 88.42L357.571 92H359.751L356.411 87.16L359.811 82.22H357.671L355.251 85.86L352.771 82.22H350.591L353.991 87.16L350.571 92H352.731ZM364.53 92V83.8H366.45V82.22H364.53V79.16H362.65V82.22H360.73V83.8H362.65V92H364.53Z" fill="#D19039"/>
<path d="M295 125.896C295 125.401 295.401 125 295.896 125H337.104C337.599 125 338 125.401 338 125.896V129.479C338 129.974 337.599 130.375 337.104 130.375H295.896C295.401 130.375 295 129.974 295 129.479V125.896Z" fill="#F7B762"/>
<path d="M205 211H26V32H205V211Z" fill="#F8F1E3"/>
<path d="M80.509 177.047C82.9245 175.32 85.4248 173.711 87.9655 172.176C93.1221 169.06 98.469 166.276 103.853 163.577C106.685 162.157 109.593 160.874 112.472 159.553C115.368 158.224 118.27 156.906 121.173 155.59C123.825 154.387 126.477 153.184 129.126 151.975C137.948 133.25 147.687 112.022 146.492 112.022L56.126 109.459C53.9883 109.459 52.249 111.198 52.249 113.335V176.086C52.249 178.224 53.9883 179.964 56.126 179.964L82.7696 180.135C84.1371 179.132 79.13 178.032 80.509 177.047Z" fill="#25221C"/>
<path d="M149.495 109.678H57.9703C55.9501 109.678 54.3125 111.316 54.3125 113.336V176.086C54.3125 178.106 55.9501 179.745 57.9703 179.745H149.495C151.515 179.745 153.153 178.106 153.153 176.086V113.336C153.153 111.316 151.515 109.678 149.495 109.678Z" fill="#F8F1E3"/>
<path d="M57.971 109.838C56.0423 109.838 54.4732 111.407 54.4732 113.335V176.086C54.4732 178.015 56.0423 179.584 57.971 179.584H149.496C151.424 179.584 152.994 178.015 152.994 176.086V113.335C152.994 111.407 151.424 109.838 149.496 109.838H57.971ZM149.496 179.904H57.971C55.8659 179.904 54.1533 178.191 54.1533 176.086V113.335C54.1533 111.23 55.8659 109.518 57.971 109.518H149.496C151.601 109.518 153.314 111.23 153.314 113.335V176.086C153.314 178.191 151.601 179.904 149.496 179.904Z" fill="#25221C"/>
<path d="M94.9838 180.024H57.6205C56.1141 180.024 54.8887 181.249 54.8887 182.755C54.8887 184.262 56.1141 185.487 57.6205 185.487H96.0996C97.6063 185.487 94.9838 180.024 94.9838 180.024Z" fill="#25221C"/>
<path d="M170.657 180.024H82.4584C80.9496 180.024 79.7266 181.247 79.7266 182.755C79.7266 184.264 80.9496 185.487 82.4584 185.487H170.657C172.166 185.487 173.389 184.264 173.389 182.755C173.389 181.247 172.166 180.024 170.657 180.024Z" fill="#F8F1E3"/>
<path d="M82.4582 180.183C81.0399 180.183 79.8862 181.338 79.8862 182.755C79.8862 184.174 81.0399 185.327 82.4582 185.327H170.657C172.076 185.327 173.229 184.174 173.229 182.755C173.229 181.338 172.076 180.183 170.657 180.183H82.4582ZM170.657 185.647H82.4582C80.8637 185.647 79.5664 184.35 79.5664 182.755C79.5664 181.161 80.8637 179.864 82.4582 179.864H170.657C172.252 179.864 173.549 181.161 173.549 182.755C173.549 184.35 172.252 185.647 170.657 185.647Z" fill="#25221C"/>
<path d="M146.428 114.921H61.0379C60.1519 114.921 59.4336 115.639 59.4336 116.525V117.706C59.4336 118.592 60.1519 119.31 61.0379 119.31H146.428C147.314 119.31 148.032 118.592 148.032 117.706V116.525C148.032 115.639 147.314 114.921 146.428 114.921Z" fill="#25221C"/>
<path d="M146.014 117.115C146.014 117.699 145.541 118.172 144.957 118.172C144.374 118.172 143.9 117.699 143.9 117.115C143.9 116.532 144.374 116.058 144.957 116.058C145.541 116.058 146.014 116.532 146.014 117.115Z" fill="#F8F1E3"/>
<path d="M148.032 174.654H59.4697V121.37H148.032V174.654Z" fill="#F8F1E3"/>
<path d="M59.6303 174.494H147.873V121.53H59.6303V174.494ZM148.033 174.814H59.4704C59.3821 174.814 59.3105 174.742 59.3105 174.654V121.37C59.3105 121.282 59.3821 121.21 59.4704 121.21H148.033C148.121 121.21 148.193 121.282 148.193 121.37V174.654C148.193 174.742 148.121 174.814 148.033 174.814Z" fill="#25221C"/>
<path d="M167.826 159.602H145.465L148.917 186.182C154.042 187.275 159.193 187.308 164.374 186.182L167.826 159.602Z" fill="#25221C"/>
<path d="M169.479 153.039H143.812L147.775 183.549C153.657 184.802 159.57 184.84 165.517 183.549L169.479 153.039Z" fill="#F8F1E3"/>
<path d="M147.918 183.415C153.765 184.646 159.636 184.646 165.372 183.416L169.297 153.2H143.994L147.918 183.415ZM156.688 184.658C153.713 184.658 150.724 184.341 147.741 183.705C147.675 183.69 147.624 183.636 147.615 183.569L143.654 153.06C143.647 153.015 143.662 152.968 143.692 152.934C143.723 152.9 143.766 152.88 143.812 152.88H169.479C169.524 152.88 169.569 152.9 169.599 152.934C169.629 152.968 169.643 153.015 169.638 153.06L165.675 183.569C165.667 183.636 165.616 183.69 165.551 183.705C162.625 184.341 159.664 184.658 156.688 184.658Z" fill="#25221C"/>
<path d="M167.862 149.951H145.428L144.621 152.605H168.669L167.862 149.951Z" fill="#25221C"/>
<path d="M144.838 152.445H168.454L167.745 150.111H145.547L144.838 152.445ZM168.67 152.765H144.621C144.571 152.765 144.523 152.741 144.493 152.7C144.463 152.66 144.454 152.607 144.469 152.559L145.275 149.904C145.296 149.837 145.358 149.791 145.428 149.791H167.863C167.934 149.791 167.995 149.837 168.016 149.904L168.823 152.559C168.837 152.607 168.829 152.66 168.798 152.7C168.768 152.741 168.721 152.765 168.67 152.765Z" fill="#F8F1E3"/>
<path d="M170.769 155.474H142.522V152.605H170.769V155.474Z" fill="#25221C"/>
<path d="M142.682 155.314H170.608V152.765H142.682V155.314ZM170.769 155.635H142.523C142.434 155.635 142.362 155.563 142.362 155.474V152.605C142.362 152.516 142.434 152.445 142.523 152.445H170.769C170.857 152.445 170.929 152.516 170.929 152.605V155.474C170.929 155.563 170.857 155.635 170.769 155.635Z" fill="#F8F1E3"/>
<path d="M144.748 163.058L146.777 178.632C146.777 178.632 156.901 181.72 166.564 178.632C167.675 171.093 168.53 163.058 168.53 163.058C168.53 163.058 156.793 164.651 144.748 163.058Z" fill="#25221C"/>
<path d="M159.13 175.97C159.119 175.97 159.109 175.97 159.098 175.97C158.631 175.95 158.378 175.5 158.132 175.065C157.908 174.667 157.696 174.291 157.36 174.256C156.972 174.215 156.607 174.646 156.254 175.063C155.868 175.519 155.503 175.95 155.051 175.84C154.709 175.757 154.587 175.423 154.469 175.099C154.354 174.785 154.245 174.488 153.962 174.375C153.691 174.267 153.447 174.392 153.038 174.621C152.705 174.808 152.327 175.02 151.837 175.083C150.963 175.196 150.012 174.78 149.006 173.85C148.942 173.789 148.937 173.688 148.998 173.623C149.058 173.558 149.159 173.555 149.224 173.615C150.156 174.479 151.022 174.866 151.796 174.766C152.225 174.711 152.574 174.515 152.881 174.342C153.279 174.119 153.655 173.908 154.081 174.078C154.497 174.244 154.648 174.657 154.769 174.989C154.882 175.299 154.963 175.489 155.127 175.529C155.386 175.592 155.703 175.219 156.009 174.857C156.397 174.399 156.839 173.877 157.393 173.938C157.893 173.991 158.169 174.478 158.411 174.908C158.623 175.283 158.823 175.637 159.112 175.65C159.404 175.657 159.643 175.327 159.899 174.971C160.209 174.54 160.561 174.054 161.121 174.007C161.649 173.963 162.199 174.331 162.759 175.098C162.811 175.169 162.796 175.269 162.724 175.321C162.653 175.373 162.553 175.357 162.501 175.287C162.01 174.615 161.555 174.291 161.147 174.326C160.734 174.36 160.441 174.765 160.159 175.158C159.871 175.557 159.573 175.97 159.13 175.97Z" fill="#F8F1E3"/>
<path d="M159.506 132.036C159.217 132.327 158.919 132.609 158.643 132.91C158.501 133.056 158.365 133.209 158.233 133.364L158.029 133.593L157.836 133.83C157.326 134.461 156.863 135.137 156.544 135.872C156.22 136.6 156.07 137.414 156.249 138.179C156.407 138.949 156.892 139.614 157.461 140.18C158.031 140.754 158.682 141.257 159.281 141.835C159.581 142.124 159.862 142.439 160.104 142.785C160.347 143.13 160.535 143.52 160.65 143.93C160.883 144.755 160.768 145.644 160.436 146.41C160.109 147.182 159.606 147.858 159.04 148.457C159.02 148.478 158.987 148.48 158.965 148.459C158.944 148.44 158.943 148.407 158.962 148.386C159.494 147.768 159.968 147.091 160.259 146.338C160.404 145.963 160.501 145.57 160.533 145.173C160.564 144.777 160.528 144.375 160.413 143.997C160.3 143.619 160.119 143.261 159.884 142.94C159.65 142.616 159.373 142.323 159.081 142.043C158.495 141.483 157.839 140.984 157.246 140.395C156.949 140.102 156.67 139.782 156.439 139.424C156.206 139.068 156.03 138.668 155.938 138.247C155.842 137.826 155.838 137.387 155.904 136.966C155.969 136.543 156.1 136.136 156.275 135.753C156.314 135.655 156.36 135.561 156.41 135.469C156.459 135.376 156.504 135.282 156.557 135.191C156.665 135.012 156.769 134.83 156.892 134.662L157.071 134.406C157.133 134.321 157.199 134.241 157.262 134.159L157.455 133.915L157.659 133.68L157.863 133.446L158.076 133.221C158.218 133.071 158.364 132.924 158.516 132.783C158.81 132.494 159.123 132.226 159.435 131.957C159.457 131.938 159.491 131.94 159.509 131.962C159.528 131.984 159.527 132.015 159.507 132.035L159.506 132.036Z" fill="#25221C"/>
<path d="M160.692 135.536C160.471 136.111 160.342 136.721 160.363 137.329C160.366 137.633 160.432 137.93 160.499 138.223C160.55 138.365 160.587 138.511 160.648 138.648L160.745 138.852C160.776 138.921 160.808 138.989 160.85 139.051C161.152 139.576 161.575 140.02 162.014 140.453C162.453 140.886 162.927 141.302 163.32 141.811C163.711 142.312 164.019 142.938 164.028 143.604C164.055 144.266 163.847 144.902 163.559 145.467C162.967 146.601 162.079 147.517 161.149 148.341C161.127 148.361 161.094 148.359 161.076 148.337C161.058 148.317 161.059 148.286 161.076 148.267C161.506 147.819 161.924 147.36 162.307 146.878C162.692 146.397 163.035 145.883 163.297 145.338C163.434 145.066 163.536 144.782 163.611 144.494C163.689 144.206 163.725 143.909 163.712 143.616C163.694 143.026 163.441 142.473 163.076 141.998C162.712 141.517 162.251 141.103 161.809 140.66C161.365 140.22 160.938 139.738 160.631 139.174C160.321 138.612 160.161 137.967 160.169 137.331C160.176 136.693 160.334 136.066 160.596 135.496C160.608 135.47 160.639 135.458 160.665 135.471C160.69 135.482 160.701 135.511 160.692 135.536Z" fill="#25221C"/>
<path d="M168.63 85.4866H129.881C128.753 85.4866 127.838 84.5715 127.838 83.4431V58.1891C127.838 57.0607 128.753 56.1456 129.881 56.1456H168.63C169.758 56.1456 170.673 57.0607 170.673 58.1891V83.4431C170.673 84.5715 169.758 85.4866 168.63 85.4866Z" fill="#F8F1E3"/>
<path d="M129.882 56.306C128.844 56.306 127.999 57.1509 127.999 58.1891V83.4431C127.999 84.482 128.844 85.3269 129.882 85.3269H168.63C169.669 85.3269 170.514 84.482 170.514 83.4431V58.1891C170.514 57.1509 169.669 56.306 168.63 56.306H129.882ZM168.63 85.647H129.882C128.668 85.647 127.679 84.6582 127.679 83.4431V58.1891C127.679 56.974 128.668 55.986 129.882 55.986H168.63C169.845 55.986 170.834 56.974 170.834 58.1891V83.4431C170.834 84.6582 169.845 85.647 168.63 85.647Z" fill="#25221C"/>
<path d="M149.256 81.8851C149.168 81.8851 149.097 81.8135 149.097 81.7248V59.7915C149.097 59.7027 149.168 59.6311 149.256 59.6311C149.345 59.6311 149.417 59.7027 149.417 59.7915V81.7248C149.417 81.8135 149.345 81.8851 149.256 81.8851Z" fill="#25221C"/>
<path d="M165.86 73.2603H132.286C132.198 73.2603 132.126 73.1887 132.126 73.0999C132.126 73.0118 132.198 72.9402 132.286 72.9402H165.86C165.949 72.9402 166.021 73.0118 166.021 73.0999C166.021 73.1887 165.949 73.2603 165.86 73.2603Z" fill="#25221C"/>
<path d="M165.224 73.6426L165.766 73.0998L165.224 72.5578H165.684L166.227 73.0998L165.684 73.6426H165.224Z" fill="#25221C"/>
<path d="M149.331 80.4095C145.493 80.4095 142.37 77.2864 142.37 73.4472V69.4132C142.37 65.7509 139.39 62.7716 135.727 62.7716H132.286C132.198 62.7716 132.126 62.7 132.126 62.6112C132.126 62.5232 132.198 62.4516 132.286 62.4516H135.727C139.566 62.4516 142.689 65.5747 142.689 69.4132V73.4472C142.689 77.1095 145.669 80.0895 149.331 80.0895C152.994 80.0895 155.974 77.1095 155.974 73.4472V69.4132C155.974 65.5747 159.097 62.4516 162.935 62.4516H164.952C165.041 62.4516 165.112 62.5232 165.112 62.6112C165.112 62.7 165.041 62.7716 164.952 62.7716H162.935C159.273 62.7716 156.294 65.7509 156.294 69.4132V73.4472C156.294 77.2864 153.171 80.4095 149.331 80.4095Z" fill="#25221C"/>
<path d="M109.104 101.902C107.517 102.395 106.709 100.123 103.773 99.7701C100.914 99.4257 100.24 101.408 97.1637 101.476C93.6576 101.552 89.7212 99.0834 89.488 96.5717C89.2847 94.3836 91.981 93.1313 91.3907 91.6449C90.8464 90.2745 88.4631 91.1058 86.0696 89.3308C84.015 87.8079 82.5932 84.8393 83.3048 82.7128C83.8459 81.0954 85.1844 81.2686 85.8633 79.4078C86.5831 77.4352 85.3528 76.6132 85.9214 74.6013C86.507 72.5284 88.6363 70.5337 90.6951 70.5129C92.6908 70.4928 93.0174 72.3444 95.2447 72.4783C97.7969 72.6323 98.8272 70.2902 100.362 70.8795C102.017 71.5146 101.321 74.4323 103.518 75.6781C104.433 76.1972 104.693 75.7869 106.545 76.3161C107.489 76.586 109.302 77.1037 110.415 78.2944C112.548 80.5763 110.566 83.678 112.408 85.1644C113.782 86.272 115.28 84.8723 117.312 86.1238C118.568 86.8978 119.878 88.5912 119.596 90.0711C119.154 92.4003 115.249 91.6922 112.515 94.9729C110.01 97.9786 111.009 101.309 109.104 101.902Z" fill="#25221C"/>
<path d="M82.5507 127.479C82.5455 127.479 82.5402 127.479 82.5348 127.479C82.447 127.47 82.3827 127.392 82.3914 127.304L82.8501 122.641C82.8588 122.553 82.9356 122.491 83.0249 122.497C83.1128 122.506 83.1771 122.585 83.1684 122.673L82.7097 127.335C82.7016 127.418 82.632 127.479 82.5507 127.479Z" fill="#25221C"/>
<path d="M164.265 85.0463C163.552 84.3704 162.719 84.3497 161.743 84.4707L161.399 84.2552C160.645 83.784 159.733 83.638 158.869 83.8499L152.07 85.5203C151.785 85.5898 151.526 85.3363 151.591 85.0506C151.721 84.48 151.915 83.6237 152.065 82.9477C152.219 82.2554 151.946 81.848 151.715 81.6382C151.584 81.5186 151.38 81.5315 151.263 81.6654C150.511 82.5282 147.731 85.8304 147.819 87.4628C147.921 89.3509 149.216 94.8484 149.216 94.8484H154.995L153.862 91.1459C153.783 90.8868 153.922 90.6111 154.178 90.5202L162.429 87.6017C162.578 87.5495 162.627 87.3648 162.525 87.2452C162.341 87.0304 162.051 86.7232 161.736 86.5106L164.082 85.5833C164.295 85.4989 164.383 85.2432 164.265 85.0463Z" fill="#F8F1E3"/>
<path d="M149.344 94.6879H154.78L153.71 91.1931C153.605 90.8501 153.787 90.4893 154.125 90.3697L162.377 87.4513C162.404 87.4412 162.414 87.4198 162.417 87.4076C162.421 87.3954 162.423 87.3718 162.404 87.3489C162.224 87.1384 161.946 86.8448 161.647 86.6429C161.597 86.61 161.571 86.552 161.577 86.4925C161.584 86.4338 161.622 86.383 161.678 86.3615L164.024 85.4343C164.082 85.4114 164.127 85.3641 164.147 85.3054C164.165 85.2524 164.161 85.1952 164.138 85.145C163.498 84.5508 162.754 84.5064 161.763 84.6288C161.727 84.6331 161.69 84.6252 161.659 84.6059L161.315 84.3911C160.602 83.9457 159.725 83.8047 158.909 84.0052L152.108 85.6756C151.921 85.7221 151.725 85.6684 151.587 85.5324C151.449 85.3971 151.393 85.2037 151.436 85.0154C151.565 84.4448 151.759 83.5884 151.91 82.9125C152.045 82.3068 151.82 81.9495 151.608 81.7562C151.578 81.7283 151.537 81.7132 151.495 81.7161C151.452 81.719 151.413 81.7383 151.384 81.7705C149.695 83.7073 147.913 86.2169 147.98 87.4541C148.071 89.1503 149.153 93.8638 149.344 94.6879ZM154.996 95.0079H149.217C149.143 95.0079 149.078 94.9571 149.061 94.8848C149.008 94.6592 147.761 89.3515 147.66 87.4713C147.57 85.7937 150.304 82.523 151.144 81.56C151.229 81.4627 151.347 81.4047 151.477 81.3968C151.603 81.3875 151.728 81.4333 151.824 81.5199C152.049 81.724 152.4 82.1865 152.222 82.982C152.072 83.6586 151.878 84.5157 151.747 85.0863C151.729 85.1665 151.752 85.246 151.811 85.3047C151.87 85.3627 151.951 85.3849 152.032 85.3648L158.832 83.6951C159.731 83.4739 160.699 83.6286 161.484 84.1197L161.781 84.3044C162.816 84.182 163.656 84.2479 164.376 84.9302C164.387 84.9403 164.396 84.9517 164.403 84.9646C164.484 85.0985 164.5 85.2603 164.45 85.4085C164.399 85.5567 164.287 85.6742 164.141 85.7314L162.06 86.5541C162.294 86.7482 162.501 86.9701 162.647 87.1405C162.729 87.2372 162.759 87.3682 162.726 87.4899C162.694 87.6124 162.603 87.7105 162.484 87.7527L154.232 90.6711C154.056 90.7334 153.961 90.921 154.016 91.0993L155.149 94.801C155.164 94.8497 155.155 94.902 155.125 94.9428C155.095 94.9836 155.047 95.0079 154.996 95.0079Z" fill="#25221C"/>
<path d="M154.678 88.3915C154.606 88.3915 154.541 88.3435 154.523 88.2705C154.502 88.1853 154.554 88.0979 154.639 88.0764L160.503 86.6086C160.589 86.5872 160.675 86.6394 160.697 86.7246C160.718 86.8105 160.666 86.8972 160.58 86.9187L154.717 88.3865C154.704 88.39 154.691 88.3915 154.678 88.3915Z" fill="#25221C"/>
<path d="M154.08 86.6737C154.009 86.6737 153.944 86.6257 153.926 86.5527C153.904 86.4668 153.956 86.3801 154.042 86.3587L159.905 84.8909C159.991 84.8694 160.078 84.9216 160.099 85.0069C160.121 85.0928 160.068 85.1794 159.983 85.2009L154.12 86.6694C154.106 86.6723 154.093 86.6737 154.08 86.6737Z" fill="#25221C"/>
<path d="M76.8007 110.638C78.4427 110.737 81.1941 110.873 82.8676 110.953C83.6427 110.991 84.2245 111.674 84.1392 112.445L83.0092 122.657C83.0092 122.657 85.5914 121.496 88.4192 118.128C91.247 114.759 93.7943 107.835 100.057 107.59C104.042 107.434 114.04 108.072 120.785 108.557C124.25 108.805 127.611 109.868 130.569 111.689C132.719 113.011 135.91 114.192 139.947 113.459C147.357 112.11 150.705 105.767 147.62 95.5221C147.337 94.5834 148.036 93.6376 149.015 93.6376H155.301C155.984 93.6376 156.583 94.0872 156.775 94.7424C158.207 99.6269 162.992 119.308 149.216 125.505C141.085 129.162 132.54 128.741 132.54 128.741L135.915 159.58C136.276 162.875 134.655 166.075 131.779 167.725C128.76 169.456 124.042 171.045 117.022 170.812C111.162 170.618 106.607 169.58 103.245 168.399C98.6448 166.783 95.3299 162.742 94.6245 157.916C93.8647 152.721 92.986 144.663 92.8414 134.546C92.8414 134.546 88.0794 139.762 79.0183 138.073C67.828 135.987 73.2453 117.109 74.9783 111.873C75.2356 111.095 75.9831 110.59 76.8007 110.638Z" fill="#F8F1E3"/>
<path d="M92.8422 134.386C92.8612 134.386 92.8805 134.389 92.899 134.396C92.9603 134.42 93.0012 134.478 93.0021 134.543C93.1483 144.774 94.0514 152.888 94.7834 157.894C95.4834 162.682 98.7465 166.649 103.299 168.248C107.364 169.677 111.983 170.485 117.029 170.653C122.876 170.845 127.814 169.814 131.7 167.586C134.519 165.97 136.111 162.834 135.756 159.597L132.381 128.758C132.376 128.712 132.392 128.665 132.424 128.631C132.456 128.597 132.502 128.579 132.548 128.581C132.633 128.586 141.151 128.958 149.151 125.359C154.95 122.751 158.109 117.457 158.54 109.623C158.887 103.317 157.315 97.1475 156.622 94.7875C156.452 94.2047 155.908 93.7973 155.302 93.7973H149.016C148.602 93.7973 148.222 93.9885 147.975 94.3207C147.727 94.6551 147.653 95.0761 147.773 95.4763C149.452 101.049 149.287 105.714 147.298 108.964C145.803 111.408 143.271 113.017 139.976 113.616C135.779 114.379 132.499 113.063 130.486 111.825C127.584 110.039 124.226 108.964 120.774 108.717C113.472 108.192 103.951 107.598 100.064 107.75C95.409 107.933 92.8689 111.83 90.6278 115.269C89.9127 116.366 89.2373 117.402 88.5423 118.23C85.7234 121.588 83.1823 122.754 83.0754 122.802C83.0232 122.826 82.9622 122.82 82.9158 122.786C82.8693 122.752 82.8446 122.696 82.8509 122.639L83.9809 112.428C84.0173 112.098 83.9191 111.779 83.7044 111.527C83.4901 111.276 83.1905 111.129 82.8606 111.113C81.3099 111.039 78.4595 110.899 76.7917 110.798C76.0439 110.751 75.3646 111.216 75.1308 111.923C73.9093 115.614 70.2112 128.143 73.9105 134.407C75.0337 136.309 76.7623 137.49 79.0483 137.916C87.919 139.57 92.6771 134.489 92.724 134.437C92.755 134.404 92.7981 134.386 92.8422 134.386ZM118.4 170.995C117.945 170.995 117.484 170.988 117.018 170.972C111.94 170.804 107.289 169.989 103.193 168.55C98.5281 166.911 95.1842 162.845 94.467 157.94C93.7425 152.985 92.8506 144.992 92.6879 134.919C91.5454 135.966 86.8348 139.692 78.9898 138.23C76.609 137.786 74.8074 136.555 73.6351 134.57C69.8672 128.19 73.5949 115.546 74.8272 111.823C75.1066 110.978 75.9258 110.424 76.8109 110.479C78.477 110.58 81.326 110.719 82.876 110.794C83.295 110.814 83.6755 111.001 83.9477 111.319C84.2203 111.639 84.345 112.045 84.2989 112.463L83.2014 122.38C83.9192 121.994 86.0391 120.715 88.2974 118.025C88.9799 117.212 89.6503 116.183 90.3598 115.094C92.5302 111.764 95.2314 107.619 100.052 107.431C103.952 107.278 113.486 107.872 120.797 108.397C124.3 108.649 127.708 109.74 130.654 111.553C132.619 112.762 135.821 114.047 139.919 113.301C143.121 112.719 145.579 111.161 147.026 108.798C148.966 105.626 149.118 101.052 147.467 95.568C147.317 95.0703 147.409 94.5462 147.719 94.1302C148.027 93.7157 148.5 93.4772 149.016 93.4772H155.302C156.049 93.4772 156.719 93.9792 156.929 94.6973C157.626 97.073 159.209 103.285 158.859 109.64C158.421 117.603 155.199 122.989 149.282 125.651C141.87 128.984 134.021 128.94 132.719 128.907L136.075 159.562C136.443 162.926 134.788 166.184 131.859 167.863C128.231 169.944 123.709 170.995 118.4 170.995Z" fill="#25221C"/>
<path d="M82.7952 104.189L82.0608 103.375V97.8942C82.0608 97.3608 81.6284 96.9283 81.0949 96.9283C80.5616 96.9283 80.1291 97.3608 80.1291 97.8942V103.795L74.9893 104.915V107.928C74.9893 109.24 75.7517 110.433 76.9426 110.984L77.1983 111.102C78.74 111.816 80.5409 111.683 81.9608 110.751C82.6461 110.3 83.0995 109.572 83.2012 108.759L83.4946 106.411C83.5955 105.604 83.3403 104.793 82.7952 104.189Z" fill="#F8F1E3"/>
<path d="M75.1489 105.043V107.927C75.1489 109.173 75.8793 110.316 77.0095 110.839L77.2652 110.958C78.767 111.653 80.4895 111.525 81.8728 110.617C82.5199 110.191 82.9462 109.507 83.0423 108.739L83.3358 106.391C83.4309 105.63 83.1905 104.866 82.6762 104.296L81.9418 103.483C81.9152 103.453 81.9005 103.415 81.9005 103.375V97.8942C81.9005 97.4495 81.539 97.0879 81.0946 97.0879C80.6503 97.0879 80.2887 97.4495 80.2887 97.8942V103.795C80.2887 103.871 80.2364 103.936 80.1629 103.952L75.1489 105.043ZM79.2672 111.722C78.5432 111.722 77.8156 111.565 77.1309 111.248L76.8752 111.129C75.6322 110.554 74.8291 109.297 74.8291 107.927V104.915C74.8291 104.839 74.8814 104.774 74.955 104.758L79.969 103.667V97.8942C79.969 97.2734 80.4739 96.7679 81.0946 96.7679C81.7154 96.7679 82.2204 97.2734 82.2204 97.8942V103.314L82.9136 104.082C83.4903 104.721 83.7598 105.577 83.6531 106.431L83.3596 108.778C83.252 109.639 82.7739 110.407 82.0482 110.884C81.2026 111.439 80.2381 111.722 79.2672 111.722Z" fill="#25221C"/>
<path d="M79.3328 105.347H78.704C78.3077 105.347 77.9863 105.026 77.9863 104.63V102.427C77.9863 102.031 78.3077 101.709 78.704 101.709H79.1413C79.6434 101.709 80.0506 102.116 80.0506 102.618V104.63C80.0506 105.026 79.7292 105.347 79.3328 105.347Z" fill="#F8F1E3"/>
<path d="M78.7038 101.869C78.3963 101.869 78.146 102.119 78.146 102.427V104.63C78.146 104.938 78.3963 105.187 78.7038 105.187H79.3326C79.6402 105.187 79.8905 104.938 79.8905 104.63V102.618C79.8905 102.205 79.5543 101.869 79.1411 101.869H78.7038ZM79.3326 105.507H78.7038C78.2199 105.507 77.8262 105.114 77.8262 104.63V102.427C77.8262 101.943 78.2199 101.549 78.7038 101.549H79.1411C79.7307 101.549 80.2103 102.029 80.2103 102.618V104.63C80.2103 105.114 79.8166 105.507 79.3326 105.507Z" fill="#25221C"/>
<path d="M77.269 105.8H77.1425C76.7461 105.8 76.4248 105.478 76.4248 105.082V102.935C76.4248 102.539 76.7461 102.217 77.1425 102.217H77.269C77.6653 102.217 77.9867 102.539 77.9867 102.935V105.082C77.9867 105.478 77.6653 105.8 77.269 105.8Z" fill="#F8F1E3"/>
<path d="M77.1422 102.377C76.8347 102.377 76.5845 102.628 76.5845 102.935V105.082C76.5845 105.389 76.8347 105.64 77.1422 105.64H77.2688C77.5764 105.64 77.8265 105.389 77.8265 105.082V102.935C77.8265 102.628 77.5764 102.377 77.2688 102.377H77.1422ZM77.2688 105.96H77.1422C76.6583 105.96 76.2646 105.566 76.2646 105.082V102.935C76.2646 102.452 76.6583 102.058 77.1422 102.058H77.2688C77.7526 102.058 78.1463 102.452 78.1463 102.935V105.082C78.1463 105.566 77.7526 105.96 77.2688 105.96Z" fill="#25221C"/>
<path d="M75.707 106.365C75.3106 106.365 74.9893 106.044 74.9893 105.648V103.523C74.9893 103.127 75.3106 102.805 75.707 102.805C76.1034 102.805 76.4247 103.127 76.4247 103.523V105.648C76.4247 106.044 76.1034 106.365 75.707 106.365Z" fill="#F8F1E3"/>
<path d="M75.7067 102.966C75.3991 102.966 75.1489 103.216 75.1489 103.523V105.648C75.1489 105.955 75.3991 106.206 75.7067 106.206C76.0143 106.206 76.2645 105.955 76.2645 105.648V103.523C76.2645 103.216 76.0143 102.966 75.7067 102.966ZM75.7067 106.525C75.2228 106.525 74.8291 106.131 74.8291 105.648V103.523C74.8291 103.039 75.2228 102.646 75.7067 102.646C76.1906 102.646 76.5844 103.039 76.5844 103.523V105.648C76.5844 106.131 76.1906 106.525 75.7067 106.525Z" fill="#25221C"/>
<path d="M82.5512 105.507C82.5189 105.507 82.4863 105.497 82.458 105.477L80.2628 103.897C80.1911 103.846 80.1748 103.746 80.2264 103.674C80.2781 103.603 80.3779 103.586 80.4496 103.638L82.6448 105.217C82.7165 105.269 82.7328 105.369 82.6812 105.441C82.65 105.484 82.601 105.507 82.5512 105.507Z" fill="#25221C"/>
<path d="M78.65 109.221C78.5649 109.221 78.4942 109.153 78.4903 109.068C78.4105 107.275 79.5552 106.543 80.0694 106.306L79.2198 105.461C79.1573 105.399 79.157 105.297 79.2194 105.235C79.2816 105.172 79.3828 105.172 79.4455 105.234L80.468 106.252C80.5084 106.292 80.5243 106.351 80.5099 106.405C80.4955 106.46 80.4529 106.504 80.398 106.519C80.3298 106.538 78.7192 107.018 78.8098 109.054C78.8137 109.142 78.7454 109.216 78.6572 109.221C78.6548 109.221 78.6523 109.221 78.65 109.221Z" fill="#25221C"/>
<path d="M102.354 174.817C102.354 174.817 100.381 149.893 106.075 141.942L124.636 141.162C124.636 141.162 131.373 149.66 130.644 174.654L102.354 174.817Z" fill="#25221C"/>
<path d="M101.052 107.548L98.6648 141.247C98.5567 142.769 99.6178 144.128 101.122 144.388C105.898 145.211 116.471 146.476 127.185 144.048C128.394 143.773 129.168 142.592 128.919 141.378L122.219 108.707C122.219 108.707 110.137 107 101.052 107.548Z" fill="#F8F1E3"/>
<path d="M101.202 107.699L98.8238 141.258C98.7214 142.707 99.7209 143.984 101.149 144.23C106.35 145.127 116.642 146.274 127.149 143.892C128.286 143.634 128.995 142.543 128.762 141.41L122.085 108.85C120.849 108.682 109.688 107.211 101.202 107.699ZM113.76 145.628C108.512 145.628 104.008 145.047 101.095 144.545C99.504 144.271 98.3906 142.848 98.5052 141.236L100.892 107.537C100.898 107.456 100.962 107.393 101.043 107.388C110.039 106.844 122.12 108.532 122.241 108.549C122.309 108.558 122.362 108.609 122.376 108.675L129.075 141.345C129.343 142.651 128.528 143.907 127.22 144.204C122.549 145.263 117.92 145.628 113.76 145.628Z" fill="#25221C"/>
<path d="M107.851 140.537C107.783 140.537 107.72 140.493 107.699 140.425C107.672 140.34 107.72 140.251 107.804 140.225C117.139 137.339 121.567 126.629 121.611 126.521C121.644 126.44 121.737 126.4 121.819 126.433C121.901 126.466 121.94 126.56 121.907 126.642C121.863 126.75 117.376 137.6 107.899 140.53C107.883 140.535 107.867 140.537 107.851 140.537Z" fill="#25221C"/>
<path d="M116.655 95.9446C116.103 95.2809 115.73 94.4854 115.571 93.6362C115.288 92.1248 114.98 90.7858 114.98 90.7858C112.722 92.6582 110.176 91.3701 110.176 91.3701C108.05 93.0226 108.435 95.3489 108.435 95.3489C108.435 95.3489 106.457 95.1327 106.595 96.4086C106.733 97.6759 108.64 97.9931 108.668 97.9981L106.346 107.374C106.201 107.961 106.567 108.556 107.158 108.684C110.733 109.465 112.974 109.172 114.106 108.87C114.437 108.781 114.538 108.372 114.294 108.132C113.047 106.9 112.837 103.381 112.841 101.07C113.995 101.328 115.059 101.098 115.588 100.037C115.965 99.279 116.065 98.4814 116.021 97.2835C116.013 97.073 116.793 96.1881 116.655 95.9446Z" fill="#F8F1E3"/>
<path d="M108.116 95.4948C107.77 95.4948 107.21 95.5435 106.924 95.8299C106.784 95.9702 106.728 96.1543 106.754 96.3913C106.877 97.5333 108.675 97.8369 108.693 97.8397C108.738 97.8469 108.776 97.8727 108.801 97.9092C108.826 97.9471 108.834 97.993 108.823 98.0359L106.501 107.413C106.441 107.655 106.48 107.907 106.613 108.119C106.744 108.33 106.949 108.475 107.191 108.528C110.815 109.319 113.053 108.985 114.064 108.715C114.162 108.689 114.233 108.618 114.259 108.522C114.285 108.423 114.256 108.319 114.181 108.245C112.931 107.011 112.675 103.662 112.681 101.07C112.681 101.021 112.703 100.975 112.741 100.945C112.779 100.915 112.828 100.903 112.875 100.914C113.736 101.105 114.88 101.097 115.444 99.9655C115.789 99.271 115.906 98.5206 115.86 97.2891C115.855 97.1581 115.959 96.992 116.158 96.6855C116.282 96.4929 116.511 96.1399 116.511 96.0225C115.954 95.3438 115.574 94.5297 115.413 93.6662C115.204 92.5528 114.98 91.5232 114.879 91.0678C112.867 92.5657 110.676 91.7609 110.198 91.5554C108.254 93.1277 108.588 95.3008 108.592 95.323C108.599 95.3724 108.584 95.4225 108.55 95.4583C108.516 95.4948 108.466 95.5134 108.416 95.5077C108.413 95.5077 108.292 95.4948 108.116 95.4948ZM111.38 109.347C110.237 109.347 108.829 109.213 107.122 108.84C106.796 108.769 106.518 108.573 106.341 108.288C106.163 108.001 106.109 107.663 106.19 107.336L108.472 98.1218C107.974 98.0087 106.562 97.5877 106.436 96.4263C106.399 96.0905 106.488 95.8142 106.698 95.6029C107.112 95.1905 107.89 95.1647 108.254 95.1769C108.209 94.564 108.239 92.6723 110.077 91.2432C110.125 91.2053 110.192 91.1988 110.247 91.2275C110.272 91.2396 112.729 92.4439 114.877 90.6625C114.92 90.6267 114.978 90.6167 115.031 90.6339C115.083 90.6518 115.123 90.6955 115.135 90.7499C115.138 90.7635 115.447 92.1089 115.727 93.6067C115.88 94.428 116.243 95.2006 116.778 95.8421C116.784 95.8492 116.789 95.8571 116.794 95.8657C116.914 96.0784 116.735 96.3827 116.426 96.8595C116.326 97.0135 116.19 97.2233 116.18 97.2863C116.228 98.5672 116.102 99.3605 115.729 100.108C115.242 101.086 114.278 101.493 113.001 101.265C113.008 103.364 113.21 106.838 114.405 108.018C114.563 108.173 114.624 108.393 114.568 108.604C114.513 108.812 114.355 108.969 114.147 109.024C113.495 109.198 112.585 109.347 111.38 109.347Z" fill="#25221C"/>
<path d="M112.841 101.23C112.831 101.23 112.821 101.229 112.812 101.227C111.898 101.058 110.645 100.208 110.592 100.173C110.519 100.122 110.501 100.023 110.55 99.9499C110.6 99.8776 110.7 99.8582 110.773 99.9084C110.785 99.917 112.023 100.756 112.87 100.913C112.957 100.929 113.014 101.012 112.998 101.099C112.984 101.176 112.916 101.23 112.841 101.23Z" fill="#25221C"/>
<path d="M71.6648 106.11H59.7162C58.5018 106.11 57.5137 105.122 57.5137 103.908V78.6208C57.5137 77.4065 58.5018 76.4184 59.7162 76.4184H67.3605C67.4488 76.4184 67.5204 76.49 67.5204 76.5781C67.5204 76.6669 67.4488 76.7385 67.3605 76.7385H59.7162C58.6781 76.7385 57.8335 77.5826 57.8335 78.6208V103.908C57.8335 104.946 58.6781 105.79 59.7162 105.79H71.6648C71.7532 105.79 71.8248 105.862 71.8248 105.951C71.8248 106.039 71.7532 106.11 71.6648 106.11Z" fill="#25221C"/>
<path d="M98.4657 106.11H86.0866C85.9984 106.11 85.9268 106.039 85.9268 105.951C85.9268 105.862 85.9984 105.79 86.0866 105.79H98.4657C99.5039 105.79 100.349 104.946 100.349 103.908V100.04C100.349 99.9519 100.42 99.8803 100.508 99.8803C100.597 99.8803 100.669 99.9519 100.669 100.04V103.908C100.669 105.122 99.68 106.11 98.4657 106.11Z" fill="#25221C"/>
<path d="M100.508 100.2C100.42 100.2 100.349 100.129 100.349 100.04V78.6209C100.349 77.5827 99.5039 76.7386 98.4657 76.7386H86.0866C85.9984 76.7386 85.9268 76.667 85.9268 76.5782C85.9268 76.4901 85.9984 76.4185 86.0866 76.4185H98.4657C99.68 76.4185 100.669 77.4066 100.669 78.6209V100.04C100.669 100.129 100.597 100.2 100.508 100.2Z" fill="#F8F1E3"/>
<path d="M86.0864 76.7385H72.5115C72.4232 76.7385 72.3516 76.6669 72.3516 76.5781C72.3516 76.4901 72.4232 76.4185 72.5115 76.4185H86.0864C86.1748 76.4185 86.2464 76.4901 86.2464 76.5781C86.2464 76.6669 86.1748 76.7385 86.0864 76.7385Z" fill="#25221C"/>
<path d="M91.9457 102.095H86.8806C86.7923 102.095 86.7207 102.023 86.7207 101.935C86.7207 101.847 86.7923 101.775 86.8806 101.775H91.9457C92.0341 101.775 92.1057 101.847 92.1057 101.935C92.1057 102.023 92.0341 102.095 91.9457 102.095Z" fill="#25221C"/>
<path d="M74.288 102.095H64.032C63.9437 102.095 63.8721 102.023 63.8721 101.935C63.8721 101.847 63.9437 101.775 64.032 101.775H74.288C74.3764 101.775 74.448 101.847 74.448 101.935C74.448 102.023 74.3764 102.095 74.288 102.095Z" fill="#25221C"/>
<path d="M65.1538 97.0099H80.197L65.1538 81.4913V97.0099ZM80.5747 97.33H64.9939C64.9057 97.33 64.834 97.2584 64.834 97.1696V81.0968C64.834 81.0316 64.8735 80.9729 64.9339 80.9486C64.9942 80.9243 65.0633 80.9386 65.1087 80.9858L80.6896 97.0586C80.7343 97.1051 80.7471 97.1732 80.722 97.2326C80.6969 97.2913 80.639 97.33 80.5747 97.33Z" fill="#25221C"/>
<path d="M66.463 97.1696C66.463 97.9823 65.8047 98.6403 64.9928 98.6403C64.1807 98.6403 63.5225 97.9823 63.5225 97.1696C63.5225 96.3577 64.1807 95.6996 64.9928 95.6996C65.8047 95.6996 66.463 96.3577 66.463 97.1696Z" fill="#25221C"/>
<path d="M82.045 97.1696C82.045 97.9823 81.3867 98.6403 80.5747 98.6403C79.7627 98.6403 79.1045 97.9823 79.1045 97.1696C79.1045 96.3577 79.7627 95.6996 80.5747 95.6996C81.3867 95.6996 82.045 96.3577 82.045 97.1696Z" fill="#25221C"/>
<path d="M66.463 81.0968C66.463 81.9088 65.8047 82.5675 64.9928 82.5675C64.1807 82.5675 63.5225 81.9088 63.5225 81.0968C63.5225 80.2849 64.1807 79.6269 64.9928 79.6269C65.8047 79.6269 66.463 80.2849 66.463 81.0968Z" fill="#25221C"/>
<path d="M69.0746 141.204C67.106 141.204 65.5044 142.805 65.5044 144.774V169.256C65.5044 171.225 67.106 172.827 69.0746 172.827H86.5903C88.5589 172.827 90.1604 171.225 90.1604 169.256V144.774C90.1604 142.805 88.5589 141.204 86.5903 141.204H69.0746ZM86.5903 173.146H69.0746C66.9296 173.146 65.1846 171.401 65.1846 169.256V144.774C65.1846 142.629 66.9296 140.884 69.0746 140.884H86.5903C88.7352 140.884 90.4803 142.629 90.4803 144.774V169.256C90.4803 171.401 88.7352 173.146 86.5903 173.146Z" fill="#25221C"/>
<path d="M73.754 168.052H68.3135V150.172H73.754V168.052Z" fill="#25221C"/>
<path d="M80.5529 168.052H75.1123V145.238H80.5529V168.052Z" fill="#25221C"/>
<path d="M87.3507 168.052H81.9102V157.392H87.3507V168.052Z" fill="#25221C"/>
<path d="M157.013 127.139C156.973 127.139 156.932 127.123 156.9 127.093C156.838 127.03 156.838 126.929 156.9 126.866L170.46 113.307C170.522 113.244 170.623 113.244 170.686 113.307C170.748 113.369 170.748 113.471 170.686 113.533L157.126 127.093C157.095 127.123 157.054 127.139 157.013 127.139Z" fill="#25221C"/>
<path d="M142.523 141.63C142.481 141.63 142.44 141.614 142.41 141.583C142.347 141.521 142.347 141.419 142.41 141.357L151.195 132.572C151.257 132.509 151.359 132.509 151.421 132.572C151.483 132.634 151.483 132.735 151.421 132.798L142.636 141.583C142.604 141.614 142.563 141.63 142.523 141.63Z" fill="#25221C"/>
<path d="M164.929 112.189C164.889 112.189 164.848 112.173 164.816 112.142C164.754 112.08 164.754 111.979 164.816 111.916L170.572 106.16C171.654 105.078 171.654 103.317 170.572 102.235C169.987 101.65 169.666 100.873 169.666 100.046C169.666 99.2195 169.987 98.4419 170.572 97.8576L178.478 89.9523C178.54 89.89 178.641 89.89 178.704 89.9523C178.766 90.0146 178.766 90.1162 178.704 90.1785L170.798 98.0839C170.274 98.608 169.985 99.3047 169.985 100.046C169.985 100.788 170.274 101.485 170.798 102.009C172.005 103.215 172.005 105.179 170.798 106.386L165.043 112.142C165.011 112.173 164.97 112.189 164.929 112.189Z" fill="#25221C"/>
<path d="M128.802 104.233C128.762 104.233 128.721 104.217 128.689 104.186C128.627 104.123 128.627 104.023 128.689 103.96L142.306 90.3426C142.369 90.2803 142.47 90.2803 142.532 90.3426C142.595 90.4049 142.595 90.5066 142.532 90.5689L128.916 104.186C128.884 104.217 128.843 104.233 128.802 104.233Z" fill="#25221C"/>
<path d="M107.325 71.6449C107.284 71.6449 107.243 71.6291 107.212 71.5984C107.149 71.5353 107.149 71.4344 107.212 71.3721L118.243 60.3414C118.305 60.2791 118.406 60.2791 118.469 60.3414C118.532 60.4037 118.532 60.5047 118.469 60.567L107.438 71.5984C107.407 71.6291 107.366 71.6449 107.325 71.6449Z" fill="#25221C"/>
<path d="M162.069 116.604C161.139 116.604 160.383 115.849 160.383 114.921C160.383 113.992 161.139 113.237 162.069 113.237C162.157 113.237 162.229 113.309 162.229 113.397C162.229 113.485 162.157 113.557 162.069 113.557C161.316 113.557 160.703 114.169 160.703 114.921C160.703 115.672 161.316 116.285 162.069 116.285C162.822 116.285 163.435 115.672 163.435 114.921C163.435 114.833 163.507 114.761 163.595 114.761C163.683 114.761 163.754 114.833 163.754 114.921C163.754 115.849 162.998 116.604 162.069 116.604Z" fill="#25221C"/>
<path d="M140.239 101.506C140.197 101.506 140.157 101.49 140.126 101.458L139.429 100.761C139.366 100.698 139.366 100.597 139.429 100.535C139.491 100.473 139.592 100.473 139.655 100.535L140.352 101.232C140.414 101.295 140.414 101.396 140.351 101.458C140.321 101.49 140.28 101.506 140.239 101.506Z" fill="#25221C"/>
<path d="M142.677 103.947C142.636 103.947 142.595 103.931 142.564 103.9L141.867 103.203C141.805 103.14 141.805 103.039 141.867 102.976C141.93 102.914 142.031 102.914 142.093 102.976L142.79 103.674C142.852 103.737 142.852 103.838 142.79 103.9C142.758 103.931 142.718 103.947 142.677 103.947Z" fill="#25221C"/>
<path d="M139.542 103.947C139.501 103.947 139.46 103.931 139.429 103.9C139.366 103.838 139.366 103.737 139.429 103.674L140.126 102.976C140.188 102.913 140.289 102.914 140.351 102.976C140.414 103.039 140.414 103.14 140.352 103.203L139.655 103.9C139.624 103.931 139.583 103.947 139.542 103.947Z" fill="#25221C"/>
<path d="M141.98 101.506C141.939 101.506 141.899 101.49 141.867 101.458C141.805 101.396 141.805 101.295 141.867 101.232L142.564 100.535C142.626 100.473 142.728 100.473 142.79 100.535C142.852 100.597 142.852 100.698 142.79 100.761L142.093 101.458C142.062 101.49 142.022 101.506 141.98 101.506Z" fill="#25221C"/>
<path d="M115.574 67.0038C115.533 67.0038 115.492 66.988 115.461 66.9565C115.398 66.8942 115.398 66.7933 115.461 66.731L123.746 58.4454C123.809 58.3824 123.91 58.3824 123.973 58.4454C124.035 58.5077 124.035 58.6087 123.973 58.6717L115.687 66.9565C115.656 66.988 115.615 67.0038 115.574 67.0038Z" fill="#25221C"/>
</svg>
