<svg width="368" height="368" viewBox="0 0 368 368" fill="none" xmlns="http://www.w3.org/2000/svg">
<path d="M368 368H0V-8.16584e-06H368V368Z" fill="#302D27"/>
<path d="M180.829 197.457C181.895 193.777 188.806 169.264 183.292 155.708C182.525 153.823 181.333 150.893 178.404 148.726C172.551 144.4 167.372 148.744 162.741 145.616C156.634 141.492 162.356 131.719 154.984 118.942C153.216 115.877 150.463 111.105 145.117 109.043C139.148 106.741 136.09 110.185 130.252 108.517C122.973 106.437 123.168 99.7795 115.972 93.7561C108.391 87.4118 94.293 83.1813 84.6941 89.5241C76.324 95.0559 74.5489 106.527 75.6225 114.182C77.2087 125.491 85.805 134.112 94.3395 137.7C106.608 142.858 118.109 137.348 120.062 141.679C121.88 145.71 111.986 150.658 113.185 158.398C114.021 163.801 119.969 168.643 125.698 169.536C133.639 170.773 137.597 163.867 142.451 165.953C147.542 168.141 145.549 176.746 149.68 184.041C153.087 190.059 161.147 196.048 180.829 197.457Z" fill="#302D27"/>
<path d="M140.547 165.23C141.211 165.23 141.884 165.357 142.579 165.656C145.615 166.96 146.256 170.39 146.998 174.361C147.558 177.36 148.192 180.757 149.962 183.882C154.261 191.476 164.565 195.929 180.591 197.115C182.078 191.921 188.217 168.675 182.992 155.83C182.225 153.945 181.066 151.099 178.211 148.987C175.147 146.723 172.287 146.905 169.52 147.084C167.084 147.24 164.785 147.387 162.56 145.885C159.469 143.797 159.279 140.342 159.038 135.967C158.783 131.36 158.467 125.625 154.704 119.104C152.926 116.021 150.24 111.366 145.001 109.344C141.932 108.161 139.689 108.53 137.314 108.922C135.188 109.274 132.99 109.636 130.164 108.828C125.885 107.606 124.106 104.828 122.047 101.611C120.529 99.2392 118.808 96.5528 115.764 94.0048C107.683 87.2409 93.9191 83.817 84.8726 89.7948C77.0691 94.9512 74.7649 105.735 75.943 114.137C77.6459 126.277 86.9848 134.257 94.4651 137.401C100.921 140.115 107.28 139.84 111.923 139.638C116.237 139.451 119.352 139.317 120.357 141.544C121.261 143.549 119.61 145.656 117.698 148.093C115.435 150.98 112.87 154.252 113.504 158.347C114.275 163.326 119.882 168.302 125.748 169.215C129.762 169.841 132.74 168.329 135.369 166.994C137.196 166.067 138.844 165.23 140.547 165.23ZM180.829 197.781C180.822 197.781 180.813 197.781 180.806 197.781C164.402 196.606 153.834 192.037 149.398 184.2C147.575 180.982 146.931 177.528 146.361 174.479C145.624 170.534 145.042 167.419 142.324 166.251C140.124 165.305 138.056 166.357 135.662 167.571C132.946 168.95 129.868 170.512 125.648 169.855C119.423 168.885 113.689 163.769 112.864 158.447C112.188 154.074 114.96 150.537 117.189 147.694C118.971 145.422 120.509 143.458 119.766 141.811C118.942 139.983 116.009 140.109 111.951 140.286C107.247 140.489 100.804 140.769 94.214 137.998C86.5774 134.788 77.0422 126.636 75.302 114.227C74.0954 105.625 76.4765 94.5671 84.5157 89.2546C93.8139 83.1105 107.917 86.5918 116.18 93.5072C119.3 96.12 121.049 98.8506 122.592 101.262C124.663 104.496 126.298 107.051 130.342 108.205C133.028 108.974 135.153 108.623 137.209 108.283C139.565 107.895 142.001 107.494 145.234 108.741C150.687 110.844 153.441 115.62 155.265 118.78C159.106 125.436 159.426 131.255 159.684 135.932C159.924 140.29 160.098 143.44 162.922 145.348C164.964 146.726 167.156 146.586 169.479 146.437C172.227 146.261 175.342 146.062 178.595 148.466C181.598 150.686 182.797 153.634 183.591 155.584C188.852 168.517 183.045 190.973 181.14 197.548C181.1 197.687 180.972 197.781 180.829 197.781Z" fill="#FCF7ED"/>
<path d="M180.851 194.728C180.713 194.728 180.585 194.638 180.542 194.498C171.139 163.469 149.448 142.547 132.906 130.461C114.969 117.355 99.0506 111.52 98.8919 111.463C98.7239 111.403 98.6368 111.216 98.6976 111.048C98.7584 110.88 98.9436 110.793 99.1121 110.853C99.2717 110.911 115.262 116.771 133.271 129.926C143.85 137.654 153.048 146.351 160.613 155.776C170.072 167.564 176.984 180.528 181.162 194.311C181.213 194.482 181.116 194.663 180.945 194.715C180.915 194.724 180.882 194.728 180.851 194.728Z" fill="#FCF7ED"/>
<path d="M180.829 197.457C194.675 156.815 190.946 139.892 184.028 132.136C181.963 129.82 177.205 125.591 173.873 117.845C169.551 107.798 171.825 101.6 170.743 93.0466C168.626 76.3173 155.024 61.2999 140.801 54.7245C130.864 50.1304 112.127 45.7247 101.688 55.5341C97.2738 59.6807 93.1553 67.4868 95.7033 72.6447C99.3496 80.0238 113.913 74.5539 121.92 84.2102C126.289 89.4799 123.231 92.6006 127.917 98.1574C135.302 106.911 146.332 103.234 149.139 109.655C151.856 115.874 142.104 120.959 144.247 129.056C146.691 138.294 160.603 138.383 161.969 147.368C162.781 152.719 158.016 153.79 158.283 160.064C158.608 167.696 165.84 170.279 173.262 181.031C177.423 187.059 179.444 192.932 180.829 197.457Z" fill="#302D27"/>
<path d="M118.846 49.9507C112.601 49.9507 106.474 51.4801 101.909 55.7695C97.2511 60.1473 93.6649 67.7884 95.9933 72.5003C97.6437 75.8403 101.706 76.4394 106.41 77.1327C111.782 77.9246 117.872 78.8211 122.169 84.004C124.368 86.6565 124.739 88.8145 125.098 90.9018C125.477 93.1054 125.834 95.1853 128.164 97.9482C131.967 102.457 136.714 103.599 140.903 104.608C144.73 105.529 148.034 106.324 149.434 109.526C150.833 112.724 149.115 115.593 147.298 118.63C145.431 121.749 143.501 124.974 144.559 128.974C145.733 133.409 149.699 135.715 153.535 137.945C157.488 140.245 161.574 142.62 162.288 147.319C162.712 150.109 161.692 151.772 160.61 153.532C159.562 155.241 158.477 157.008 158.606 160.049C158.798 164.527 161.468 167.256 165.163 171.033C167.694 173.621 170.565 176.555 173.528 180.847C177.312 186.33 179.37 191.74 180.842 196.409C186.919 178.375 189.963 163.595 189.891 152.467C189.835 143.596 187.78 136.828 183.786 132.35C183.47 131.996 183.093 131.6 182.656 131.139C180.321 128.684 176.415 124.572 173.575 117.972C170.684 111.254 170.716 106.339 170.75 101.135C170.766 98.5871 170.784 95.9522 170.421 93.0877C168.177 75.3457 153.423 60.9171 140.664 55.0173C135.319 52.5473 126.983 49.9507 118.846 49.9507ZM180.829 197.781C180.828 197.781 180.826 197.781 180.823 197.781C180.683 197.779 180.56 197.687 180.518 197.553C179.041 192.721 176.99 187.003 172.995 181.215C170.064 176.968 167.215 174.055 164.699 171.485C160.904 167.606 158.162 164.804 157.96 160.077C157.822 156.837 159.01 154.901 160.058 153.194C161.119 151.464 162.036 149.972 161.647 147.416C160.981 143.024 157.206 140.829 153.21 138.505C149.261 136.208 145.176 133.833 143.933 129.14C142.805 124.876 144.897 121.381 146.742 118.297C148.547 115.283 150.105 112.679 148.841 109.785C147.571 106.877 144.561 106.153 140.751 105.236C136.466 104.206 131.609 103.037 127.669 98.3663C125.226 95.4694 124.836 93.2025 124.46 91.0122C124.099 88.9161 123.759 86.9362 121.67 84.4176C117.532 79.4261 111.573 78.5473 106.315 77.773C101.431 77.0532 97.2136 76.432 95.4129 72.7874C92.6658 67.2276 97.2988 59.2125 101.466 55.2985C112.229 45.1844 131.341 49.9934 140.936 54.43C148.207 57.7921 155.176 63.2768 160.563 69.8728C166.427 77.0562 170.057 85.055 171.064 93.0053C171.432 95.9125 171.414 98.5694 171.398 101.14C171.364 106.272 171.333 111.121 174.17 117.717C176.964 124.21 180.82 128.268 183.125 130.693C183.565 131.157 183.945 131.557 184.269 131.919C188.372 136.518 190.481 143.43 190.538 152.462C190.612 163.857 187.449 179.03 181.135 197.561C181.091 197.694 180.967 197.781 180.829 197.781Z" fill="#FCF7ED"/>
<path d="M180.926 193.734C180.75 193.734 180.605 193.592 180.602 193.415C180.152 159.793 171.728 124.78 158.069 99.7575C148.645 82.4924 137.881 72.2222 130.51 66.6463C122.525 60.6052 116.692 58.6195 116.634 58.6004C116.465 58.5444 116.373 58.3604 116.43 58.1911C116.486 58.0219 116.669 57.9291 116.839 57.9865C116.898 58.0057 122.808 60.0135 130.872 66.1076C138.302 71.7232 149.149 82.0655 158.637 99.4469C164.814 110.764 170.153 124.77 174.076 139.952C178.595 157.441 181.009 175.426 181.25 193.406C181.253 193.584 181.109 193.731 180.931 193.734C180.929 193.734 180.928 193.734 180.926 193.734Z" fill="#FCF7ED"/>
<path d="M293.801 59.438C295.05 59.438 295.052 57.4949 293.801 57.4949C292.55 57.4949 292.548 59.438 293.801 59.438Z" fill="#302D27"/>
<path d="M131.643 284.468H87.514C85.7983 284.468 84.4072 283.077 84.4072 281.361V278.807C84.4072 277.091 85.7983 275.7 87.514 275.7H131.643C133.359 275.7 134.749 277.091 134.749 278.807V281.361C134.749 283.077 133.359 284.468 131.643 284.468Z" fill="#FCF7ED"/>
<path d="M132.705 240.358H86.4512C84.6973 240.358 83.2754 238.936 83.2754 237.182V234.765C83.2754 233.012 84.6973 231.59 86.4512 231.59H132.705C134.459 231.59 135.881 233.012 135.881 234.765V237.182C135.881 238.936 134.459 240.358 132.705 240.358Z" fill="#FCF7ED"/>
<path d="M136.733 317.995L138.234 317.819C139.323 317.693 140.103 316.708 139.977 315.619L131.024 238.449C130.897 237.361 129.912 236.581 128.823 236.706L127.323 236.882C126.234 237.007 125.454 237.993 125.58 239.081L134.533 316.252C134.659 317.34 135.644 318.12 136.733 317.995Z" fill="#FCF7ED"/>
<path d="M82.4228 317.995L80.9224 317.819C79.8334 317.693 79.0531 316.708 79.1794 315.619L88.1326 238.449C88.2589 237.361 89.2441 236.581 90.3329 236.706L91.8335 236.882C92.9225 237.007 93.7026 237.993 93.5763 239.081L84.6233 316.252C84.497 317.34 83.5118 318.12 82.4228 317.995Z" fill="#FCF7ED"/>
<path d="M95.6501 98.1117C93.5266 100.995 93.8184 102.693 91.7819 103.683C88.3497 105.355 85.5654 101.486 81.6795 102.379C77.037 103.445 73.4509 110.705 74.141 117.126C74.846 123.686 80.0983 130.139 84.5281 129.858C88.8414 129.586 90.9993 123.016 94.7478 123.828C96.7057 124.251 96.9175 126.217 98.9362 126.676C101.855 127.34 103.073 122.462 107.006 121.655C109.618 121.118 110.983 122.724 113.847 123.66C121.434 126.14 132.759 121.705 134.286 115.283C135.201 111.433 132.394 107.718 130.768 105.566C127.299 100.975 123.872 102.428 117.03 97.3566C111.992 93.6236 112.283 91.8851 109.323 91.3258C104.599 90.4323 98.7544 93.8944 95.6501 98.1117Z" fill="#FCF7ED"/>
<path d="M122.853 104.728C122.853 104.728 127.417 97.6319 121.218 93.1599C115.02 88.688 106.736 88.9088 101.881 95.6299C97.0254 102.353 98.3767 115.888 109.807 112.662C114.345 111.382 122.853 104.728 122.853 104.728Z" fill="#FCF7ED"/>
<path d="M113.5 224.683L118.055 225.588L120.183 219.714L115.03 217.51L113.5 224.683ZM118.265 226.285C118.244 226.285 118.223 226.282 118.202 226.277L113.052 225.254C112.967 225.237 112.892 225.187 112.844 225.114C112.797 225.042 112.78 224.954 112.798 224.869L114.478 216.99C114.498 216.895 114.56 216.814 114.646 216.77C114.732 216.726 114.833 216.721 114.922 216.759L120.719 219.24C120.877 219.306 120.954 219.486 120.896 219.647L118.569 226.071C118.522 226.201 118.399 226.285 118.265 226.285Z" fill="#FCF7ED"/>
<path d="M112.327 223.208C112.327 223.208 113.492 223.824 115.85 224.917C118.209 226.009 119.145 223.587 121.785 223.208C123.55 222.955 127.757 226.785 130.353 229.352C131.185 230.174 130.603 231.59 129.434 231.59H113.293C111.633 231.59 110.353 230.136 110.556 228.487C110.785 226.625 111.276 224.395 112.327 223.208Z" fill="#302D27"/>
<path d="M112.412 223.616C111.685 224.573 111.157 226.261 110.877 228.527C110.792 229.223 111.008 229.922 111.472 230.446C111.933 230.967 112.597 231.266 113.293 231.266H129.434C129.92 231.266 130.223 230.951 130.344 230.656C130.465 230.362 130.472 229.925 130.126 229.582C126.061 225.562 123.039 223.357 121.831 223.529C120.807 223.676 120.057 224.15 119.333 224.61C118.265 225.287 117.257 225.925 115.714 225.21C113.969 224.4 112.864 223.847 112.412 223.616ZM129.434 231.914H113.293C112.411 231.914 111.57 231.535 110.986 230.874C110.4 230.212 110.126 229.327 110.235 228.447C110.554 225.853 111.177 224.019 112.085 222.993C112.184 222.881 112.346 222.852 112.479 222.921C112.49 222.928 113.666 223.547 115.987 224.623C117.208 225.189 117.954 224.717 118.986 224.062C119.732 223.589 120.577 223.054 121.739 222.887C123.208 222.678 126.184 224.774 130.581 229.123C131.061 229.597 131.2 230.278 130.943 230.902C130.687 231.526 130.109 231.914 129.434 231.914Z" fill="#FCF7ED"/>
<path d="M128.019 229.373H112.327C112.148 229.373 112.003 229.227 112.003 229.049C112.003 228.87 112.148 228.725 112.327 228.725H128.019C128.198 228.725 128.343 228.87 128.343 229.049C128.343 229.227 128.198 229.373 128.019 229.373Z" fill="#FCF7ED"/>
<path d="M122.442 227.203C122.348 227.203 122.254 227.162 122.19 227.082C122.078 226.943 122.099 226.739 122.239 226.628L124.675 224.664C124.815 224.552 125.018 224.574 125.131 224.714C125.243 224.852 125.221 225.057 125.082 225.169L122.645 227.131C122.585 227.18 122.513 227.203 122.442 227.203Z" fill="#FCF7ED"/>
<path d="M112.189 220.458C112.189 220.458 117.432 221.091 121.139 220.369C121.139 220.369 124.873 211.316 126.419 195.386C127.964 179.454 123.757 162.697 123.757 162.697L106.627 165.799C106.627 165.799 105.044 174.691 109.8 189.172C114.472 203.401 112.189 220.458 112.189 220.458Z" fill="#FCF7ED"/>
<path d="M92.3339 224.683L96.889 225.588L99.0166 219.714L93.8633 217.51L92.3339 224.683ZM97.0988 226.285C97.078 226.285 97.0568 226.282 97.0356 226.277L91.8857 225.254C91.8006 225.237 91.726 225.187 91.6783 225.114C91.6307 225.042 91.6141 224.954 91.6321 224.869L93.3121 216.99C93.3324 216.895 93.3939 216.814 93.4797 216.77C93.5657 216.726 93.667 216.721 93.756 216.759L99.5526 219.24C99.7105 219.306 99.7881 219.486 99.7298 219.647L97.4032 226.071C97.3561 226.201 97.2327 226.285 97.0988 226.285Z" fill="#FCF7ED"/>
<path d="M91.1611 223.208C91.1611 223.208 92.3264 223.824 94.6845 224.917C97.0427 226.009 97.9792 223.587 100.619 223.208C102.384 222.955 106.591 226.785 109.187 229.352C110.019 230.174 109.437 231.59 108.268 231.59H92.1269C90.4667 231.59 89.1868 230.136 89.3899 228.487C89.6194 226.625 90.1106 224.395 91.1611 223.208Z" fill="#302D27"/>
<path d="M91.2457 223.616C90.5192 224.573 89.9906 226.261 89.7114 228.527C89.6257 229.223 89.8421 229.922 90.3055 230.446C90.7667 230.967 91.4306 231.266 92.1271 231.266H108.268C108.754 231.266 109.057 230.951 109.178 230.656C109.3 230.361 109.306 229.925 108.96 229.582C104.895 225.562 101.874 223.357 100.666 223.529C99.6405 223.676 98.8911 224.15 98.1667 224.61C97.0988 225.285 96.0899 225.925 94.5487 225.21C92.8029 224.4 91.6983 223.847 91.2457 223.616ZM108.268 231.914H92.1271C91.2452 231.914 90.4044 231.535 89.8203 230.874C89.2343 230.212 88.9604 229.327 89.0686 228.447C89.3885 225.853 90.011 224.019 90.919 222.993C91.0181 222.881 91.1805 222.852 91.3125 222.921C91.324 222.928 92.4997 223.547 94.8209 224.623C96.0425 225.189 96.7881 224.717 97.8201 224.062C98.5659 223.589 99.4112 223.054 100.573 222.887C102.045 222.678 105.018 224.774 109.415 229.123C109.895 229.597 110.034 230.278 109.777 230.902C109.521 231.526 108.943 231.914 108.268 231.914Z" fill="#FCF7ED"/>
<path d="M106.853 229.373H91.1611C90.9822 229.373 90.8374 229.227 90.8374 229.049C90.8374 228.87 90.9822 228.725 91.1611 228.725H106.853C107.032 228.725 107.177 228.87 107.177 229.049C107.177 229.227 107.032 229.373 106.853 229.373Z" fill="#FCF7ED"/>
<path d="M101.276 227.203C101.182 227.203 101.088 227.162 101.024 227.082C100.912 226.943 100.933 226.739 101.073 226.628L103.509 224.664C103.649 224.552 103.852 224.574 103.965 224.714C104.077 224.852 104.055 225.057 103.916 225.169L101.479 227.131C101.419 227.18 101.347 227.203 101.276 227.203Z" fill="#FCF7ED"/>
<path d="M91.9487 217.939C91.9487 217.939 96.8449 219.917 100.612 220.185C100.612 220.185 106.578 212.42 112.223 197.443C117.868 182.465 118.174 165.191 118.174 165.191L100.829 163.719C100.829 163.719 96.9825 171.892 97.7982 187.112C98.5997 202.066 91.9487 217.939 91.9487 217.939Z" fill="#FCF7ED"/>
<path d="M112.379 197.344C112.327 197.344 112.275 197.332 112.226 197.305C112.069 197.22 112.01 197.024 112.094 196.867C115.408 190.706 115.647 180.601 115.649 180.5C115.653 180.322 115.799 180.179 115.979 180.182C116.158 180.186 116.3 180.333 116.297 180.513C116.288 180.932 116.053 190.874 112.665 197.173C112.606 197.282 112.494 197.344 112.379 197.344Z" fill="#302D27"/>
<path d="M152.333 123.19C152.333 123.19 139.468 127.499 128.081 124.156C116.695 120.811 106.588 124.134 103.584 126.595C98.5761 130.696 100.077 149.663 96.1557 158.692C92.2347 167.721 89.172 174.009 96.5961 177.065C104.02 180.123 115.603 171.032 124.609 173.901C133.616 176.768 129.831 178.074 133.147 175.661C136.464 173.25 126.397 134.021 126.397 134.021C126.397 134.021 138.642 142.157 150.873 129.726L152.333 123.19Z" fill="#302D27"/>
<path d="M118.216 123.048C111.082 123.048 105.669 125.306 103.789 126.845C101.108 129.042 100.346 135.814 99.539 142.986C98.8875 148.777 98.2139 154.765 96.4526 158.822L96.0362 159.778C93.5058 165.587 91.507 170.177 92.7878 173.34C93.3792 174.8 94.6652 175.92 96.7193 176.767C100.273 178.23 104.857 176.811 109.71 175.308C114.791 173.734 120.045 172.108 124.707 173.592C128.836 174.906 130.302 175.894 131.006 176.369C131.163 176.474 131.342 176.595 131.393 176.599C131.453 176.59 131.661 176.418 131.862 176.253C132.111 176.048 132.452 175.767 132.957 175.401C133.529 174.984 134.455 172.067 130.699 154.005C128.623 144.019 126.108 134.2 126.083 134.101C126.05 133.971 126.1 133.834 126.209 133.758C126.318 133.68 126.464 133.677 126.576 133.752C126.606 133.771 129.645 135.757 134.111 136.216C138.207 136.639 144.382 135.823 150.577 129.564L151.896 123.664C149.321 124.427 138.026 127.414 127.99 124.467C124.518 123.447 121.215 123.048 118.216 123.048ZM100.132 178.03C98.8393 178.03 97.6139 177.835 96.4728 177.366C94.2493 176.45 92.8477 175.212 92.1876 173.583C90.8048 170.166 92.8515 165.468 95.4427 159.519L95.8585 158.563C97.5812 154.596 98.2495 148.656 98.8955 142.912C99.7174 135.607 100.494 128.707 103.378 126.345C106.132 124.09 116.197 120.329 128.172 123.845C139.333 127.122 152.103 122.927 152.23 122.884C152.34 122.847 152.462 122.872 152.549 122.95C152.636 123.028 152.674 123.148 152.649 123.261L151.187 129.797C151.174 129.856 151.145 129.91 151.102 129.953C144.694 136.466 138.272 137.302 134.014 136.858C130.612 136.502 128.06 135.323 126.901 134.693C127.528 137.182 129.585 145.468 131.333 153.871C135.58 174.294 133.892 175.521 133.338 175.923C132.849 176.28 132.516 176.553 132.274 176.752C131.543 177.354 131.389 177.407 130.645 176.905C129.965 176.447 128.551 175.495 124.511 174.208C120.043 172.787 114.888 174.382 109.902 175.926C106.438 176.999 103.108 178.03 100.132 178.03Z" fill="#FCF7ED"/>
<path d="M110.239 114.453C110.366 114.94 111.256 118.661 110.472 121.399C109.951 123.215 107.392 124.796 107.392 124.796C107.392 124.796 115.395 126.753 120.006 125.393C124.617 124.032 124.076 123.644 124.076 123.644L120.37 121.721C119.144 120.984 119.221 119.943 119.252 118.973L119.269 118.414C119.884 118.495 121.917 118.683 123.737 117.386C126.205 115.627 126.281 112.566 126.259 111.716C126.214 109.991 125.515 110.328 124.727 107.266C124.049 104.637 124.256 103.265 123.068 101.312C122.629 100.588 122.168 100.065 121.868 99.7517C120.299 99.921 118.706 100.411 117.416 101.537C116.043 102.735 116.238 103.585 114.867 104.531C112.868 105.909 110.928 105.154 110.372 106.276C110.167 106.689 110.13 107.4 110.961 108.693C110.961 108.693 108.917 107.518 107.615 108.391C107.109 108.729 106.856 109.264 106.762 109.654C106.409 111.124 107.82 113.042 110.239 114.453Z" fill="#302D27"/>
<path d="M108.187 124.642C110.243 125.075 116.236 126.168 119.914 125.082C122.261 124.39 123.237 123.949 123.594 123.759L120.221 122.008C118.855 121.187 118.894 120.006 118.925 119.059L118.946 118.403C118.949 118.312 118.99 118.227 119.06 118.166C119.13 118.108 119.22 118.081 119.312 118.093C120.218 118.214 121.972 118.246 123.549 117.123C125.851 115.482 125.958 112.576 125.936 111.725C125.915 110.935 125.752 110.636 125.483 110.138C125.201 109.619 124.815 108.908 124.413 107.347C124.179 106.439 124.049 105.674 123.933 104.999C123.715 103.723 123.543 102.715 122.792 101.48C122.492 100.985 122.14 100.52 121.744 100.092C120.062 100.298 118.679 100.866 117.629 101.782C117.017 102.316 116.736 102.775 116.464 103.221C116.152 103.732 115.829 104.261 115.051 104.798C113.982 105.535 112.942 105.694 112.107 105.824C111.289 105.949 110.854 106.033 110.662 106.42C110.383 106.984 110.819 107.873 111.234 108.518C111.314 108.643 111.299 108.808 111.196 108.916C111.093 109.024 110.93 109.047 110.801 108.974C110.782 108.964 108.913 107.911 107.795 108.66C107.285 109 107.117 109.564 107.077 109.729C106.762 111.044 108.098 112.829 110.402 114.173C110.476 114.216 110.53 114.286 110.552 114.37C110.596 114.539 111.626 118.546 110.783 121.489C110.397 122.837 109.011 124.031 108.187 124.642ZM115.933 126.201C111.838 126.201 107.558 125.17 107.315 125.111C107.189 125.08 107.093 124.976 107.073 124.848C107.052 124.718 107.111 124.59 107.222 124.521C107.247 124.506 109.681 122.983 110.161 121.311C110.884 118.785 110.13 115.374 109.958 114.662C107.44 113.159 106.065 111.173 106.448 109.579C106.516 109.293 106.749 108.581 107.435 108.122C108.311 107.534 109.439 107.743 110.216 108.011C109.876 107.255 109.833 106.635 110.082 106.131C110.432 105.425 111.163 105.313 112.008 105.183C112.818 105.058 113.736 104.917 114.683 104.263C115.348 103.806 115.609 103.377 115.912 102.883C116.195 102.419 116.516 101.894 117.203 101.293C118.388 100.26 119.945 99.6326 121.834 99.4309C121.935 99.4191 122.032 99.4559 122.102 99.528C122.575 100.021 122.993 100.564 123.345 101.143C124.16 102.484 124.342 103.547 124.572 104.891C124.685 105.553 124.813 106.304 125.04 107.185C125.422 108.669 125.771 109.312 126.052 109.829C126.346 110.371 126.558 110.762 126.583 111.707C126.607 112.641 126.488 115.825 123.925 117.65C122.357 118.767 120.644 118.86 119.582 118.773L119.572 119.081C119.541 120.018 119.514 120.828 120.537 121.443L124.225 123.357C124.239 123.363 124.252 123.372 124.265 123.38C124.38 123.464 124.438 123.611 124.413 123.759C124.371 124.006 124.293 124.467 120.098 125.703C118.866 126.067 117.411 126.201 115.933 126.201Z" fill="#FCF7ED"/>
<path d="M118.583 118.783C115.767 118.783 113.314 116.705 113.202 116.609C113.067 116.493 113.052 116.288 113.168 116.153C113.285 116.017 113.489 116.001 113.624 116.117C113.652 116.141 116.408 118.471 119.226 118.093C119.401 118.069 119.567 118.193 119.59 118.371C119.614 118.548 119.49 118.711 119.313 118.735C119.068 118.767 118.824 118.783 118.583 118.783Z" fill="#FCF7ED"/>
<path d="M230.839 264.214C229.591 258.964 225.509 254.705 220.071 252.978C203.993 247.873 187.755 248.684 183.881 248.974C180.005 248.684 163.767 247.873 147.689 252.978C142.252 254.705 138.169 258.964 136.922 264.214C135.01 272.255 132.603 286.545 132.521 307.722C132.502 312.556 136.67 316.489 141.831 316.489C144.566 316.489 147.162 315.363 148.931 313.411L180.049 279.06C182.101 276.795 185.66 276.795 187.712 279.06L218.829 313.411C220.598 315.363 223.195 316.489 225.928 316.489C231.091 316.489 235.258 312.556 235.24 307.722C235.158 286.545 232.751 272.255 230.839 264.214Z" fill="#302D27"/>
<path d="M183.881 277.036C185.429 277.036 186.913 277.694 187.952 278.842L219.069 313.193C220.781 315.081 223.282 316.165 225.928 316.165C228.413 316.165 230.809 315.19 232.502 313.49C234.067 311.92 234.924 309.871 234.916 307.723C234.834 286.751 232.483 272.527 230.524 264.289C229.309 259.182 225.267 254.966 219.972 253.287C204.16 248.266 188.369 248.964 183.904 249.296C183.888 249.298 183.872 249.298 183.856 249.296C179.392 248.964 163.601 248.266 147.787 253.287C142.493 254.966 138.45 259.182 137.236 264.289C135.278 272.529 132.925 286.753 132.844 307.723C132.836 309.871 133.693 311.92 135.257 313.49C136.951 315.19 139.347 316.165 141.831 316.165C144.479 316.165 146.98 315.081 148.691 313.193L179.809 278.842C180.848 277.694 182.332 277.036 183.881 277.036ZM225.928 316.812C223.099 316.812 220.423 315.651 218.589 313.627L187.472 279.276C186.555 278.265 185.245 277.684 183.881 277.684C182.515 277.684 181.206 278.265 180.289 279.276L149.171 313.627C147.337 315.651 144.662 316.812 141.831 316.812C139.176 316.812 136.613 315.767 134.798 313.947C133.112 312.254 132.188 310.041 132.197 307.72C132.278 286.688 134.64 272.413 136.607 264.138C137.873 258.813 142.082 254.417 147.591 252.669C163.486 247.623 179.356 248.313 183.881 248.649C188.404 248.313 204.272 247.623 220.17 252.669C225.678 254.419 229.888 258.813 231.154 264.138C233.12 272.411 235.481 286.687 235.564 307.72C235.573 310.041 234.648 312.254 232.961 313.947C231.146 315.767 228.584 316.812 225.928 316.812Z" fill="#FCF7ED"/>
<path d="M222.954 256.736C196.815 263.765 170.677 263.765 144.54 256.736V149.464H222.954V256.736Z" fill="#302D27"/>
<path d="M144.863 256.487C170.666 263.384 196.825 263.384 222.629 256.487V149.788H144.863V256.487ZM183.746 262.306C170.619 262.306 157.49 260.554 144.455 257.048C144.314 257.011 144.215 256.882 144.215 256.736L144.215 149.464C144.215 149.379 144.249 149.296 144.31 149.236C144.371 149.174 144.453 149.14 144.539 149.14H222.953C223.133 149.14 223.277 149.286 223.277 149.464V256.736C223.277 256.882 223.178 257.011 223.037 257.048C210.001 260.554 196.874 262.306 183.746 262.306Z" fill="#FCF7ED"/>
<path d="M221.424 152.299C196.306 157.911 171.188 157.911 146.07 152.299C142.416 151.483 140.396 147.55 141.842 144.097L177.166 59.7217C179.611 53.8838 187.883 53.8838 190.328 59.7217L225.652 144.097C227.097 147.55 225.078 151.483 221.424 152.299Z" fill="#302D27"/>
<path d="M183.747 55.6665C180.952 55.6665 178.544 57.2695 177.465 59.8469L142.141 144.222C141.487 145.784 141.558 147.543 142.336 149.049C143.111 150.546 144.498 151.616 146.14 151.984C171.094 157.558 196.4 157.558 221.354 151.984C222.996 151.616 224.383 150.546 225.157 149.047C225.936 147.543 226.007 145.784 225.353 144.222L190.03 59.8469C188.949 57.2695 186.542 55.6665 183.747 55.6665ZM183.747 156.812C171.135 156.812 158.523 155.414 145.999 152.615C144.169 152.206 142.624 151.014 141.761 149.346C140.895 147.669 140.815 145.712 141.544 143.972L176.867 59.5967C178.049 56.7734 180.685 55.0188 183.747 55.0188C186.807 55.0188 189.444 56.7734 190.627 59.5967L225.951 143.972C226.678 145.712 226.598 147.669 225.733 149.345C224.869 151.014 223.325 152.206 221.494 152.615C208.971 155.414 196.359 156.812 183.747 156.812Z" fill="#FCF7ED"/>
<path d="M183.747 168.553C170.849 168.553 160.357 179.045 160.357 191.943C160.357 204.84 170.849 215.333 183.747 215.333C196.644 215.333 207.137 204.84 207.137 191.943C207.137 179.045 196.644 168.553 183.747 168.553ZM183.747 215.98C170.491 215.98 159.709 205.197 159.709 191.943C159.709 178.689 170.491 167.905 183.747 167.905C197.001 167.905 207.785 178.689 207.785 191.943C207.785 205.197 197.001 215.98 183.747 215.98Z" fill="#FCF7ED"/>
<path d="M203.684 191.943C203.684 202.954 194.757 211.88 183.747 211.88C172.736 211.88 163.81 202.954 163.81 191.943C163.81 180.933 172.736 172.006 183.747 172.006C194.757 172.006 203.684 180.933 203.684 191.943Z" fill="#FCF7ED"/>
<path d="M185.525 265.363C179.434 265.363 173.949 265.019 169.338 264.557C155.46 263.169 146.297 260.46 146.206 260.432C146.035 260.382 145.938 260.201 145.989 260.03C146.04 259.858 146.221 259.762 146.392 259.812C146.482 259.839 155.598 262.534 169.42 263.915C182.171 265.188 201.649 265.574 222.038 260.172C222.21 260.126 222.387 260.229 222.433 260.403C222.48 260.575 222.377 260.752 222.203 260.797C209.09 264.273 196.353 265.363 185.525 265.363Z" fill="#FCF7ED"/>
<path d="M143.578 141.601C143.868 141.137 149.263 134.688 149.263 134.688L156.325 134.213C156.325 134.213 156.083 136.428 152.608 137.906C149.132 139.384 149.631 141.508 147.506 143.027C145.379 144.545 140.716 146.108 140.716 146.108L143.578 141.601Z" fill="#302D27"/>
<path d="M149.424 135.002C147.26 137.589 144.053 141.45 143.852 141.771C143.852 141.773 143.851 141.773 143.851 141.773L141.492 145.49C142.938 144.961 145.807 143.841 147.318 142.763C148.127 142.185 148.533 141.508 148.963 140.791C149.601 139.73 150.322 138.527 152.481 137.608C154.881 136.588 155.655 135.225 155.896 134.566L149.424 135.002ZM140.716 146.432C140.619 146.432 140.524 146.387 140.462 146.308C140.377 146.199 140.37 146.05 140.443 145.934L143.304 141.427C143.601 140.956 148.463 135.141 149.016 134.48C149.072 134.413 149.155 134.372 149.243 134.366L156.304 133.89C156.398 133.883 156.492 133.92 156.559 133.989C156.625 134.058 156.657 134.152 156.647 134.248C156.637 134.347 156.344 136.669 152.734 138.205C150.769 139.039 150.161 140.052 149.518 141.125C149.074 141.867 148.613 142.634 147.694 143.29C145.553 144.818 141.011 146.351 140.819 146.415C140.785 146.426 140.751 146.432 140.716 146.432Z" fill="#FCF7ED"/>
<path d="M143.66 139.194L145.502 145.326C145.502 145.326 137.041 150.979 121.899 149.482C106.756 147.985 100.646 134.254 103.219 129.408C105.791 124.564 110.019 128.07 117.225 135.013C126.77 144.209 143.66 139.194 143.66 139.194Z" fill="#302D27"/>
<path d="M126.879 150.054C125.298 150.054 123.627 149.978 121.867 149.804C109.262 148.557 102.767 138.864 102.347 132.705C102.335 132.527 102.47 132.373 102.648 132.361C102.825 132.349 102.981 132.483 102.993 132.661C103.398 138.599 109.697 147.949 121.931 149.159C135.506 150.502 143.753 145.999 145.121 145.182L143.44 139.59C141.482 140.106 130.696 142.653 122.064 138.676C121.902 138.601 121.831 138.409 121.905 138.246C121.98 138.084 122.172 138.013 122.335 138.088C131.599 142.356 143.449 138.919 143.567 138.883C143.738 138.833 143.918 138.929 143.97 139.1L145.812 145.233C145.853 145.369 145.8 145.516 145.682 145.596C145.606 145.646 138.85 150.054 126.879 150.054Z" fill="#FCF7ED"/>
<path d="M267.403 317.926L267.54 317.909C268.63 317.783 269.41 316.798 269.283 315.709L262.687 258.844C262.561 257.756 261.574 256.976 260.486 257.101L260.348 257.117C259.259 257.244 258.479 258.229 258.605 259.318L265.203 316.183C265.329 317.27 266.314 318.052 267.403 317.926Z" fill="#FCF7ED"/>
<path d="M261.69 259.781H228.606C226.853 259.781 225.431 258.359 225.431 256.606V256.384C225.431 254.629 226.853 253.207 228.606 253.207H261.69C263.445 253.207 264.867 254.629 264.867 256.384V256.606C264.867 258.359 263.445 259.781 261.69 259.781Z" fill="#FCF7ED"/>
<path d="M281.206 293.265H226.14C224.386 293.265 222.964 291.843 222.964 290.09V289.868C222.964 288.113 224.386 286.691 226.14 286.691H281.206C282.96 286.691 284.382 288.113 284.382 289.868V290.09C284.382 291.843 282.96 293.265 281.206 293.265Z" fill="#FCF7ED"/>
<path d="M225.702 317.926L225.563 317.909C224.476 317.783 223.694 316.798 223.821 315.709L230.418 258.844C230.545 257.756 231.529 256.976 232.619 257.101L232.757 257.117C233.845 257.244 234.625 258.229 234.5 259.318L227.902 316.183C227.776 317.27 226.791 318.052 225.702 317.926Z" fill="#FCF7ED"/>
<path d="M279.455 317.926L279.592 317.909C280.681 317.783 281.461 316.798 281.335 315.709L278.629 292.377C278.502 291.288 277.516 290.508 276.428 290.635L276.29 290.649C275.201 290.776 274.421 291.762 274.547 292.85L277.254 316.183C277.381 317.27 278.366 318.052 279.455 317.926Z" fill="#FCF7ED"/>
<path d="M252.714 241.704L246.416 231.091L240.185 233.9L246.142 242.116L252.714 241.704Z" fill="#302D27"/>
<path d="M240.68 234.03L246.3 241.782L252.167 241.414L246.285 231.506L240.68 234.03ZM246.142 242.438C246.039 242.438 245.941 242.39 245.88 242.306L239.923 234.089C239.866 234.01 239.847 233.91 239.872 233.816C239.897 233.721 239.963 233.643 240.051 233.604L246.282 230.796C246.434 230.729 246.61 230.785 246.694 230.926L252.994 241.539C253.052 241.636 253.055 241.757 253.002 241.856C252.949 241.956 252.849 242.02 252.735 242.028L246.161 242.438C246.156 242.438 246.148 242.438 246.142 242.438Z" fill="#FCF7ED"/>
<path d="M276.218 274.007L277.092 267.022L269.286 267.125V273.955L276.218 274.007Z" fill="#302D27"/>
<path d="M269.61 273.634L275.932 273.681L276.724 267.352L269.61 267.445V273.634ZM276.219 274.331C276.218 274.331 276.216 274.331 276.216 274.331L269.283 274.279C269.105 274.278 268.962 274.133 268.962 273.955V267.125C268.962 266.948 269.104 266.804 269.282 266.801L277.088 266.698C277.179 266.701 277.27 266.737 277.332 266.807C277.395 266.876 277.425 266.969 277.413 267.063L276.54 274.046C276.52 274.208 276.381 274.331 276.219 274.331Z" fill="#FCF7ED"/>
<path d="M252.03 194.253C252.03 194.253 250.558 196.478 252.714 205.003C252.714 205.003 232.926 208.94 227.997 215.205C227.997 215.205 227.072 218.698 229.742 223.832C232.413 228.968 233.954 236.57 233.954 236.57C233.954 236.57 243.198 235.028 248.025 231.845L242.375 222.497C242.375 222.497 250.592 222.908 257.782 221.162C257.782 221.162 260.859 240.646 263.841 244.376C264.161 244.773 264.449 245.15 264.71 245.5C266.011 247.251 266.782 249.333 266.962 251.508C267.353 256.224 268.089 265.241 268.192 267.754C268.2 267.957 268.351 268.123 268.553 268.154C270.019 268.369 275.744 269.099 279.67 267.995C279.868 267.941 279.993 267.745 279.968 267.541C279.746 265.758 279.237 260.323 279.146 254.955C279.043 248.895 275.756 239.548 275.654 236.671C275.597 235.074 275.127 230.402 274.687 226.211C274.251 222.076 274.443 217.896 275.32 213.832C276.294 209.326 277.024 202.664 274.627 197.437L273.805 194.869L252.03 194.253Z" fill="#FCF7ED"/>
<path d="M254.957 239.444L254.65 243.604C254.65 243.604 257.114 246.276 257.114 249.613C257.114 249.613 245.662 252.797 234.501 249.99C234.501 249.99 235.392 248.551 238.814 247.799C242.238 247.046 244.087 246.429 244.36 245.264C244.634 244.102 244.634 241.019 245.114 240.404C245.594 239.787 249.702 238.76 251.825 240.404C251.825 240.404 253.502 239.034 254.957 239.444Z" fill="#302D27"/>
<path d="M235.101 249.803C245 252.124 255.107 249.788 256.786 249.364C256.668 246.311 254.434 243.849 254.412 243.824C254.35 243.759 254.321 243.671 254.326 243.581L254.614 239.705C253.399 239.556 252.045 240.643 252.03 240.654C251.912 240.75 251.746 240.752 251.627 240.66C249.578 239.074 245.699 240.179 245.369 240.603C245.135 240.905 245.013 242.303 244.923 243.326C244.854 244.117 244.788 244.864 244.676 245.34C244.361 246.678 242.48 247.324 238.885 248.115C236.685 248.599 235.585 249.358 235.101 249.803ZM244.451 251.462C241.298 251.462 237.84 251.163 234.422 250.303C234.322 250.278 234.24 250.208 234.201 250.112C234.162 250.016 234.172 249.907 234.226 249.819C234.265 249.756 235.229 248.256 238.745 247.483C241.926 246.782 243.813 246.183 244.046 245.191C244.148 244.761 244.211 244.037 244.279 243.269C244.417 241.691 244.532 240.625 244.859 240.206C245.433 239.467 249.532 238.474 251.821 240.002C252.335 239.636 253.744 238.766 255.046 239.134C255.193 239.175 255.292 239.315 255.28 239.47L254.983 243.493C255.451 244.037 257.438 246.526 257.438 249.613C257.438 249.759 257.341 249.887 257.201 249.925C257.122 249.947 251.558 251.462 244.451 251.462Z" fill="#FCF7ED"/>
<path d="M234.351 252.493C234.275 251.766 234.234 250.711 234.502 249.99C234.502 249.99 245.765 252.797 257.114 249.613V252.374C257.114 252.975 256.671 253.483 256.075 253.561C252.981 253.97 243.522 254.987 235.245 253.462C234.767 253.374 234.403 252.978 234.351 252.493Z" fill="#302D27"/>
<path d="M234.674 252.46C234.709 252.801 234.968 253.082 235.304 253.144C243.616 254.677 253.272 253.605 256.034 253.24C256.465 253.184 256.79 252.812 256.79 252.374V250.038C246.656 252.753 236.577 250.78 234.724 250.373C234.603 250.886 234.585 251.613 234.674 252.46ZM245.201 254.593C241.992 254.593 238.486 254.39 235.186 253.782C234.571 253.667 234.095 253.152 234.029 252.528C233.948 251.744 233.911 250.649 234.197 249.878C234.256 249.723 234.42 249.637 234.579 249.676C234.691 249.704 245.896 252.425 257.027 249.302C257.125 249.274 257.229 249.294 257.31 249.355C257.391 249.417 257.438 249.511 257.438 249.613V252.374C257.438 253.134 256.871 253.783 256.118 253.883C254.426 254.106 250.168 254.593 245.201 254.593Z" fill="#FCF7ED"/>
<path d="M238.639 249.218C238.509 249.218 238.387 249.14 238.337 249.012L238.016 248.191C237.951 248.024 238.034 247.836 238.2 247.771C238.367 247.707 238.555 247.787 238.62 247.955L238.941 248.777C239.005 248.943 238.924 249.13 238.757 249.196C238.718 249.211 238.679 249.218 238.639 249.218Z" fill="#FCF7ED"/>
<path d="M240.912 248.884C240.793 248.884 240.679 248.818 240.622 248.705L240.096 247.652C240.015 247.493 240.08 247.297 240.241 247.218C240.401 247.138 240.595 247.203 240.675 247.362L241.202 248.416C241.281 248.575 241.217 248.769 241.056 248.85C241.011 248.874 240.96 248.884 240.912 248.884Z" fill="#FCF7ED"/>
<path d="M243.108 248.294C242.996 248.294 242.889 248.237 242.828 248.135L242.135 246.966C242.044 246.813 242.095 246.614 242.248 246.523C242.401 246.432 242.6 246.482 242.693 246.636L243.386 247.805C243.476 247.958 243.426 248.157 243.273 248.248C243.221 248.279 243.164 248.294 243.108 248.294Z" fill="#FCF7ED"/>
<path d="M245.444 247.164C245.373 247.164 245.303 247.141 245.244 247.094L243.844 245.99C243.703 245.88 243.679 245.675 243.79 245.536C243.902 245.396 244.105 245.371 244.244 245.481L245.644 246.587C245.784 246.697 245.809 246.9 245.699 247.041C245.634 247.122 245.54 247.164 245.444 247.164Z" fill="#FCF7ED"/>
<path d="M246.214 244.57C246.171 244.57 246.128 244.562 246.087 244.545L244.419 243.838C244.255 243.769 244.177 243.579 244.247 243.414C244.316 243.249 244.506 243.173 244.671 243.242L246.34 243.949C246.505 244.018 246.582 244.208 246.513 244.373C246.46 244.496 246.34 244.57 246.214 244.57Z" fill="#FCF7ED"/>
<path d="M277.374 272.464L277.256 274.039C277.147 275.516 277.257 276.972 278.002 278.249C278.64 279.341 279.3 280.89 279.3 282.618C279.3 282.618 266.531 285.58 255.369 282.773C255.369 282.773 255.317 281.454 258.741 280.7C262.165 279.946 266.273 279.434 266.547 278.27C266.821 277.105 266.821 274.025 267.301 273.408C267.779 272.791 271.887 271.765 274.01 273.408C274.01 273.408 275.918 272.054 277.374 272.464Z" fill="#302D27"/>
<path d="M255.778 282.54C265.792 284.948 277.135 282.746 278.971 282.358C278.907 280.764 278.266 279.343 277.722 278.413C277.048 277.254 276.796 275.857 276.933 274.016L277.029 272.725C275.776 272.569 274.215 273.66 274.197 273.671C274.081 273.754 273.925 273.751 273.813 273.664C271.762 272.077 267.885 273.184 267.555 273.607C267.321 273.908 267.199 275.308 267.109 276.33C267.039 277.122 266.974 277.868 266.862 278.344C266.61 279.412 264.476 279.885 261.012 280.566C260.282 280.711 259.527 280.859 258.81 281.017C256.636 281.495 255.976 282.184 255.778 282.54ZM266.119 284.296C262.653 284.296 258.881 283.99 255.289 283.086C255.151 283.051 255.051 282.929 255.045 282.785C255.039 282.623 255.086 281.173 258.672 280.384C259.394 280.225 260.154 280.076 260.887 279.93C263.194 279.477 266.064 278.912 266.232 278.195C266.333 277.767 266.397 277.041 266.463 276.273C266.601 274.696 266.718 273.63 267.044 273.209C267.62 272.469 271.734 271.475 274.019 273.015C274.565 272.668 276.146 271.781 277.46 272.154C277.609 272.195 277.706 272.335 277.696 272.488L277.58 274.065C277.453 275.768 277.677 277.047 278.283 278.086C278.894 279.136 279.624 280.772 279.624 282.618C279.624 282.768 279.52 282.899 279.372 282.933C279.286 282.954 273.374 284.296 266.119 284.296Z" fill="#FCF7ED"/>
<path d="M255.33 285.449C255.255 284.722 255.256 283.487 255.368 282.771C255.368 282.771 266.101 284.775 279.3 282.618V285.378C279.3 285.979 278.857 286.487 278.261 286.566C275.165 286.975 264.501 287.942 256.224 286.417C255.745 286.329 255.382 285.933 255.33 285.449Z" fill="#302D27"/>
<path d="M255.648 283.146C255.58 283.856 255.592 284.827 255.653 285.415C255.688 285.756 255.947 286.037 256.283 286.099C263.891 287.501 273.958 286.807 278.218 286.245C278.651 286.188 278.976 285.815 278.976 285.378V282.998C267.337 284.836 257.565 283.456 255.648 283.146ZM266.93 287.568C263.332 287.568 259.515 287.353 256.165 286.737C255.55 286.623 255.074 286.107 255.009 285.483C254.933 284.761 254.927 283.501 255.049 282.721C255.062 282.636 255.109 282.558 255.182 282.508C255.252 282.456 255.342 282.437 255.427 282.453C255.535 282.474 266.261 284.42 279.247 282.299C279.341 282.282 279.437 282.309 279.509 282.371C279.581 282.433 279.624 282.522 279.624 282.618V285.378C279.624 286.139 279.056 286.787 278.304 286.887C275.879 287.206 271.588 287.568 266.93 287.568Z" fill="#FCF7ED"/>
<path d="M260.543 281.88C260.412 281.88 260.288 281.799 260.239 281.668L259.854 280.634C259.792 280.466 259.877 280.279 260.045 280.217C260.213 280.155 260.398 280.239 260.46 280.407L260.846 281.443C260.908 281.611 260.822 281.796 260.656 281.86C260.618 281.873 260.579 281.88 260.543 281.88Z" fill="#FCF7ED"/>
<path d="M263.174 281.829C263.048 281.829 262.927 281.754 262.876 281.629L262.254 280.135C262.187 279.97 262.265 279.782 262.43 279.712C262.594 279.643 262.784 279.721 262.853 279.888L263.473 281.38C263.542 281.545 263.463 281.735 263.298 281.804C263.258 281.82 263.216 281.829 263.174 281.829Z" fill="#FCF7ED"/>
<path d="M265.948 281.109C265.852 281.109 265.757 281.067 265.693 280.986L264.597 279.581C264.488 279.44 264.513 279.237 264.653 279.127C264.794 279.016 264.997 279.043 265.107 279.183L266.203 280.587C266.313 280.728 266.288 280.931 266.147 281.042C266.088 281.087 266.017 281.109 265.948 281.109Z" fill="#FCF7ED"/>
<path d="M268.652 279.278C268.608 279.278 268.562 279.269 268.519 279.249L266.516 278.342C266.353 278.269 266.28 278.076 266.354 277.914C266.429 277.75 266.619 277.678 266.784 277.752L268.786 278.66C268.949 278.734 269.021 278.925 268.948 279.088C268.893 279.208 268.775 279.278 268.652 279.278Z" fill="#FCF7ED"/>
<path d="M269.32 276.454C269.311 276.454 269.304 276.454 269.295 276.452L266.847 276.264C266.669 276.25 266.535 276.094 266.55 275.916C266.563 275.738 266.715 275.606 266.897 275.619L269.345 275.807C269.523 275.821 269.656 275.977 269.643 276.155C269.629 276.324 269.488 276.454 269.32 276.454Z" fill="#FCF7ED"/>
<path d="M279.094 194.792C281.079 194.167 284.968 192.4 286.482 188.667C287.85 185.299 290.451 170.177 290.944 167.264C290.99 166.991 291.243 166.803 291.517 166.838L292.186 166.921C292.843 167.003 293.445 166.548 293.545 165.895L294.467 159.89C294.57 159.219 294.106 158.594 293.435 158.496L279.66 156.096C278.993 155.998 278.363 156.43 278.21 157.086L276.047 170.378L279.094 194.792Z" fill="#302D27"/>
<path d="M276.374 170.384L279.366 194.36C280.964 193.799 284.723 192.137 286.182 188.545C287.535 185.214 290.119 170.186 290.624 167.209C290.701 166.764 291.11 166.461 291.556 166.515L292.226 166.599C292.71 166.66 293.15 166.328 293.224 165.846L294.145 159.84C294.182 159.601 294.123 159.364 293.98 159.17C293.836 158.976 293.626 158.851 293.387 158.815L279.603 156.414C279.116 156.344 278.638 156.671 278.524 157.159L276.374 170.384ZM279.094 195.115C279.032 195.115 278.972 195.097 278.919 195.063C278.838 195.012 278.785 194.926 278.773 194.831L275.725 170.418C275.722 170.388 275.722 170.356 275.726 170.326L277.89 157.034C278.083 156.198 278.875 155.655 279.706 155.774L293.489 158.176C293.891 158.234 294.254 158.452 294.5 158.784C294.747 159.118 294.849 159.528 294.786 159.938L293.864 165.943C293.736 166.776 292.981 167.345 292.146 167.242L291.475 167.159C291.375 167.147 291.281 167.214 291.263 167.316C290.757 170.307 288.16 185.395 286.782 188.788C285.088 192.96 280.544 194.673 279.191 195.1C279.159 195.11 279.126 195.115 279.094 195.115Z" fill="#FCF7ED"/>
<path d="M290.786 168.488C290.769 168.488 290.751 168.487 290.733 168.484C290.557 168.454 290.437 168.287 290.467 168.11L291.391 162.599C291.421 162.422 291.589 162.303 291.764 162.332C291.94 162.362 292.06 162.53 292.03 162.706L291.106 168.217C291.079 168.376 290.942 168.488 290.786 168.488Z" fill="#FCF7ED"/>
<path d="M261.891 158.988L263.944 164.33L272.847 163.645L272.708 154.332L263.807 153.237L261.891 158.988Z" fill="#302D27"/>
<path d="M262.234 158.98L264.161 163.988L272.519 163.345L272.389 154.619L264.031 153.59L262.234 158.98ZM263.945 164.653C263.812 164.653 263.691 164.571 263.643 164.446L261.588 159.104C261.561 159.035 261.56 158.957 261.584 158.886L263.502 153.133C263.55 152.988 263.696 152.896 263.847 152.916L272.749 154.011C272.909 154.03 273.031 154.165 273.033 154.327L273.171 163.639C273.173 163.811 273.042 163.954 272.872 163.967L263.97 164.652C263.961 164.653 263.953 164.653 263.945 164.653Z" fill="#FCF7ED"/>
<path d="M256.892 140.374C256.365 141.256 256.355 142.998 256.636 144.503C256.917 146.008 255.778 147.748 255.307 149.393C254.836 151.039 254.569 156.447 257.446 158.339C260.322 160.232 264.529 157.732 265.431 157.066C266.335 156.399 272.208 150.815 271.487 144.127C270.769 137.439 259.764 135.57 256.892 140.374Z" fill="#302D27"/>
<path d="M257.17 140.541C256.739 141.262 256.652 142.83 256.955 144.443C257.163 145.557 256.673 146.753 256.2 147.907C255.987 148.429 255.765 148.97 255.617 149.482C255.12 151.223 254.984 156.332 257.624 158.069C260.173 159.746 264.074 157.666 265.24 156.805C266.35 155.985 271.846 150.489 271.166 144.162C270.797 140.737 267.7 138.866 264.923 138.256C262.113 137.641 258.625 138.108 257.17 140.541ZM259.933 159.356C259.004 159.356 258.084 159.148 257.268 158.61C254.109 156.531 254.58 150.754 254.996 149.304C255.152 148.758 255.38 148.2 255.601 147.662C256.059 146.545 256.492 145.49 256.318 144.562C256.065 143.207 255.99 141.253 256.615 140.208C258.235 137.498 262.025 136.958 265.063 137.623C268.059 138.281 271.405 140.324 271.809 144.093C272.609 151.522 265.695 157.275 265.624 157.326C264.658 158.04 262.266 159.356 259.933 159.356Z" fill="#FCF7ED"/>
<path d="M255.65 140.7C254.765 141.848 254.178 142.707 254.351 143.386C254.565 144.221 255.76 145.487 256.471 145.276C256.832 145.17 256.686 144.253 257.51 143.988C264.961 141.593 269.062 148.76 269.734 150.17C269.734 150.17 276.509 137.059 259.015 138.568C259.015 138.568 256.792 139.216 255.65 140.7Z" fill="#FCF7ED"/>
<path d="M255.062 141.561C255.062 141.561 256.949 140.177 259.955 139.756C262.96 139.334 269.054 141.935 269.757 144.699C270.461 147.465 265.879 151.219 266.223 154.051C266.55 156.736 268.825 159.104 271.914 160.734C273.621 161.636 275.714 161.383 277.147 160.087C280.572 156.986 286.475 149.929 282.047 140.954C276.031 128.762 262.272 133.902 262.272 133.902C262.272 133.902 260.414 133.549 259.718 133.99C259.022 134.432 258.043 135.86 258.043 135.86C258.043 135.86 252.598 134.728 251.365 136.796C250.131 138.866 255.062 141.561 255.062 141.561Z" fill="#302D27"/>
<path d="M260.622 139.39C263.808 139.39 269.339 141.748 270.071 144.62C270.468 146.184 269.363 147.968 268.293 149.694C267.358 151.201 266.392 152.758 266.545 154.012C266.835 156.403 268.848 158.749 272.064 160.448C273.651 161.286 275.606 161.044 276.93 159.847C280.565 156.558 286.024 149.747 281.757 141.099C279.321 136.16 275.333 133.497 269.906 133.181C265.829 132.942 262.419 134.192 262.386 134.205C262.33 134.226 262.269 134.232 262.212 134.22C261.541 134.093 260.319 133.992 259.892 134.263C259.366 134.597 258.572 135.661 258.311 136.044C258.236 136.151 258.104 136.204 257.977 136.178C256.526 135.876 252.557 135.43 251.643 136.962C251.484 137.229 251.449 137.519 251.538 137.847C251.927 139.272 254.375 140.787 255.048 141.18C255.592 140.823 257.347 139.794 259.91 139.435C260.13 139.404 260.369 139.39 260.622 139.39ZM274.066 161.59C273.28 161.59 272.488 161.403 271.762 161.021C268.355 159.22 266.219 156.694 265.902 154.09C265.723 152.611 266.75 150.954 267.742 149.352C268.742 147.742 269.774 146.077 269.444 144.78C268.803 142.267 262.955 139.662 259.999 140.076C257.119 140.48 255.273 141.808 255.254 141.821C255.154 141.896 255.018 141.905 254.908 141.845C254.766 141.767 251.435 139.928 250.914 138.016C250.777 137.517 250.836 137.051 251.086 136.631C252.292 134.61 256.848 135.311 257.899 135.504C258.192 135.096 258.947 134.096 259.545 133.717C260.259 133.263 261.825 133.496 262.246 133.568C263.44 133.159 276.514 129.008 282.337 140.812C286.793 149.841 281.134 156.914 277.365 160.327C276.445 161.159 275.261 161.59 274.066 161.59Z" fill="#FCF7ED"/>
<path d="M270.513 141.408C270.147 141.408 269.777 141.284 269.457 141.049C266.038 138.531 262.343 137.031 259.846 136.219C259.676 136.163 259.583 135.98 259.639 135.81C259.693 135.64 259.876 135.548 260.047 135.602C262.589 136.431 266.353 137.959 269.841 140.527C270.105 140.722 270.417 140.8 270.697 140.741C270.941 140.691 271.128 140.564 271.269 140.355C271.693 139.724 271.207 138.989 271.187 138.958C270.021 137.204 266.834 135.607 264.365 134.575C264.201 134.506 264.123 134.316 264.192 134.151C264.261 133.986 264.451 133.909 264.616 133.977C267.167 135.043 270.47 136.709 271.724 138.596C271.752 138.637 272.479 139.716 271.805 140.716C271.572 141.063 271.235 141.291 270.829 141.375C270.724 141.397 270.618 141.408 270.513 141.408Z" fill="#FCF7ED"/>
<path d="M226.477 146.629C227.748 147.129 229.087 148.353 230.269 149.686C231.26 150.805 235.165 147.561 234.554 146.904C231.612 143.744 230.331 140.264 230.331 140.264C230.331 140.264 227.999 133.48 226 134.888C225.672 135.118 225.646 135.607 225.712 136.001L226.333 139.687C226.293 139.341 221.614 136.471 219.398 136.454C219.372 136.454 219.354 136.416 219.328 136.418C217.292 136.444 216.659 138.877 217.564 140.084C219.682 142.909 222.562 145.083 226.477 146.629Z" fill="#302D27"/>
<path d="M226.597 146.327C227.748 146.782 229.065 147.839 230.511 149.471C230.677 149.66 231.088 149.632 231.637 149.398C232.954 148.835 234.276 147.481 234.295 147.101C231.359 143.937 230.081 140.52 230.028 140.376C229.566 139.033 228.09 135.477 226.787 135.056C226.57 134.985 226.381 135.016 226.188 135.153C225.996 135.287 225.982 135.651 226.032 135.948L226.653 139.633C226.654 139.638 226.654 139.644 226.656 139.65C226.675 139.825 226.553 139.983 226.379 140.008C226.227 140.028 226.089 139.945 226.035 139.811C225.631 139.341 221.385 136.793 219.396 136.778C219.337 136.777 219.287 136.762 219.247 136.744C218.33 136.792 217.896 137.398 217.716 137.763C217.369 138.47 217.413 139.344 217.824 139.89C219.955 142.733 222.826 144.839 226.597 146.327ZM230.861 150.243C230.433 150.243 230.175 150.069 230.027 149.901C228.649 148.345 227.415 147.346 226.36 146.929C222.472 145.395 219.511 143.22 217.306 140.279C216.755 139.546 216.686 138.393 217.136 137.477C217.562 136.61 218.36 136.107 219.324 136.094C219.403 136.095 219.449 136.111 219.49 136.132C221.137 136.201 224.37 137.782 225.865 138.852L225.394 136.056C225.285 135.411 225.438 134.888 225.814 134.623C226.173 134.372 226.578 134.307 226.986 134.439C228.83 135.035 230.458 139.635 230.638 140.158C230.649 140.186 231.931 143.611 234.792 146.683C234.88 146.779 235.011 146.99 234.9 147.341C234.615 148.242 232.656 149.901 231.271 150.196C231.12 150.228 230.983 150.243 230.861 150.243Z" fill="#FCF7ED"/>
<path d="M266.136 202.572C266.136 202.572 264.698 203.667 264.15 203.6C263.602 203.53 261.137 202.264 259.425 202.366C258.043 202.45 254.7 203.154 254.975 204.112C255.196 204.886 256.756 205.326 258.071 205.214C258.553 205.173 258.992 205.5 259.082 205.977C259.291 207.088 259.794 208.921 260.931 209.967C262.643 211.542 264.287 211.953 264.287 211.953L269.217 206.474L266.136 202.572Z" fill="#302D27"/>
<path d="M258.155 204.886C258.762 204.886 259.287 205.313 259.4 205.917C259.587 206.912 260.064 208.73 261.151 209.729C262.452 210.926 263.724 211.429 264.184 211.583L268.793 206.461L266.076 203.018C265.565 203.384 264.633 203.987 264.111 203.921C263.915 203.896 263.626 203.788 263.091 203.584C262.087 203.201 260.569 202.621 259.445 202.69C258.106 202.77 255.732 203.333 255.32 203.916C255.273 203.981 255.282 204.009 255.286 204.024C255.441 204.567 256.81 204.997 258.043 204.891C258.08 204.888 258.118 204.886 258.155 204.886ZM264.287 212.277C264.261 212.277 264.234 212.274 264.209 212.267C264.139 212.249 262.465 211.818 260.713 210.206C259.549 209.136 259.012 207.348 258.764 206.038C258.706 205.724 258.426 205.509 258.098 205.537C256.662 205.659 254.945 205.184 254.663 204.202C254.619 204.046 254.605 203.805 254.792 203.541C255.472 202.58 258.455 202.1 259.406 202.044C260.669 201.967 262.266 202.577 263.322 202.979C263.703 203.124 264.064 203.263 264.19 203.278C264.433 203.308 265.31 202.795 265.939 202.315C266.08 202.207 266.28 202.232 266.389 202.371L269.472 206.275C269.569 206.398 269.563 206.575 269.457 206.691L264.527 212.17C264.466 212.239 264.377 212.277 264.287 212.277Z" fill="#FCF7ED"/>
<path d="M260.922 165.1C259.244 164.022 255.296 161.039 248.008 156.508C242.063 152.814 234.548 145.371 233.213 143.894C233.1 143.768 232.903 143.765 232.785 143.887L228.132 148.684C228.026 148.793 228.02 148.967 228.122 149.081C228.869 149.938 231.806 153.299 233.528 155.287C235.513 157.581 248.815 169.123 249.579 170.292C250.343 171.462 255.309 176.318 255.309 176.318L263.482 168.986L260.922 165.1Z" fill="#302D27"/>
<path d="M228.384 148.89C229.161 149.779 232.065 153.101 233.773 155.075C234.762 156.219 238.612 159.7 242.337 163.068C246.763 167.071 249.476 169.542 249.85 170.115C250.497 171.105 254.358 174.927 255.32 175.873L263.058 168.931L260.69 165.335C260.199 165.017 259.521 164.545 258.67 163.95C256.549 162.469 252.998 159.992 247.837 156.783C242.027 153.174 234.544 145.84 232.995 144.134L228.384 148.89ZM255.309 176.642C255.228 176.642 255.146 176.611 255.084 176.549C254.88 176.349 250.082 171.654 249.308 170.47C248.953 169.925 245.369 166.684 241.902 163.548C238.163 160.168 234.298 156.672 233.282 155.499C231.562 153.511 228.626 150.151 227.877 149.295C227.664 149.05 227.674 148.691 227.901 148.457L232.551 143.661C232.67 143.539 232.827 143.47 233.007 143.473C233.176 143.476 233.34 143.551 233.453 143.676C234.94 145.322 242.4 152.642 248.179 156.234C253.355 159.45 256.914 161.935 259.041 163.42C259.92 164.032 260.613 164.518 261.096 164.827C261.134 164.852 261.166 164.885 261.191 164.922L263.753 168.808C263.841 168.942 263.818 169.12 263.698 169.227L255.526 176.558C255.464 176.614 255.387 176.642 255.309 176.642Z" fill="#FCF7ED"/>
<path d="M251.516 193.739C250.228 192.888 254.761 176.26 257.474 170.835C259.426 166.932 259.769 164.707 261.617 163.782C262.464 163.358 268.943 159.639 274.079 161.283C274.079 161.283 274.378 164.77 274.833 165.288C276.031 166.657 278.438 166.841 280.104 169.123C282.707 172.683 285.514 189.117 285.206 193.328C284.929 197.101 280.368 203.51 274.472 205.175C272.754 205.659 271.094 206.33 269.572 207.264C269.353 207.399 269.066 207.345 268.911 207.138L266.032 203.28C265.877 203.073 265.907 202.783 266.1 202.611L269.491 199.593C269.491 199.593 272.47 196.615 272.983 195.485C272.983 195.485 257.269 197.54 251.516 193.739Z" fill="#302D27"/>
<path d="M272.984 195.161C273.085 195.161 273.183 195.209 273.243 195.292C273.314 195.388 273.327 195.513 273.278 195.619C272.745 196.789 269.843 199.699 269.72 199.823L266.316 202.854C266.248 202.914 266.238 203.014 266.292 203.086L269.171 206.946C269.224 207.018 269.324 207.036 269.401 206.988C270.845 206.104 272.522 205.388 274.385 204.863C280.31 203.191 284.627 196.799 284.884 193.305C285.179 189.254 282.447 172.878 279.843 169.314C278.923 168.055 277.741 167.453 276.698 166.922C275.893 166.513 275.134 166.126 274.588 165.502C274.138 164.988 273.87 162.556 273.776 161.529C271.612 160.905 267.86 160.865 262.009 163.943C261.903 163.999 261.819 164.043 261.761 164.071C260.572 164.667 260.045 165.883 259.175 167.899C258.789 168.791 258.352 169.803 257.763 170.979C254.849 176.809 250.874 192.389 251.706 193.475C257.3 197.158 272.785 195.184 272.941 195.164C272.956 195.162 272.969 195.161 272.984 195.161ZM269.308 207.663C269.058 207.663 268.812 207.548 268.652 207.331L265.773 203.473C265.516 203.13 265.564 202.655 265.884 202.369L269.276 199.352C269.947 198.679 271.603 196.949 272.361 195.887C269.266 196.237 256.514 197.429 251.338 194.01C250.586 193.512 251.038 190.116 252.682 183.919C253.871 179.438 255.725 173.611 257.185 170.69C257.765 169.529 258.198 168.527 258.58 167.642C259.478 165.565 260.072 164.193 261.471 163.492C261.527 163.464 261.605 163.423 261.707 163.37C267.944 160.088 271.931 160.255 274.178 160.974C274.301 161.013 274.39 161.125 274.401 161.255C274.541 162.881 274.839 164.804 275.076 165.075C275.539 165.605 276.212 165.948 276.991 166.345C278.099 166.909 279.355 167.549 280.366 168.931C283.029 172.577 285.83 189.239 285.528 193.352C285.26 197.026 280.749 203.74 274.56 205.486C272.754 205.996 271.132 206.687 269.74 207.54C269.606 207.623 269.456 207.663 269.308 207.663Z" fill="#FCF7ED"/>
<path d="M272.163 196.246C272.077 196.246 271.993 196.213 271.93 196.147C271.805 196.02 271.808 195.814 271.936 195.691C271.984 195.642 276.768 190.811 274.11 181.296C274.061 181.124 274.161 180.944 274.334 180.897C274.506 180.848 274.686 180.949 274.733 181.121C277.5 191.027 272.598 195.948 272.388 196.153C272.324 196.215 272.243 196.246 272.163 196.246Z" fill="#FCF7ED"/>
<path d="M277.616 166.887C277.654 166.913 277.632 166.972 277.587 166.966C276.792 166.845 273.639 166.586 270.586 169.43C268.051 171.793 265.053 196.031 265.053 196.031L261.072 195.982C261.072 195.982 263.02 181.62 266.307 172.376C266.307 172.376 266.65 171.301 267.346 170.035C268.59 167.774 270.824 166.226 273.375 165.83C273.397 165.827 273.418 165.824 273.44 165.819C274.855 165.605 276.299 165.945 277.462 166.776L277.616 166.887Z" fill="#FCF7ED"/>
<path d="M255.19 172.421C256.374 169.91 257.925 166.966 259.599 164.717C260.351 163.704 261.527 163.093 262.789 163.067C262.861 163.065 262.902 163.149 262.854 163.204C261.945 164.224 253.875 176.175 252.269 194.735C252.269 194.735 251.153 193.702 250.935 192.541C250.716 191.373 250.482 189.165 251.328 184.39C252.062 180.245 253.396 176.231 255.19 172.421Z" fill="#FCF7ED"/>
<path d="M288.574 318.688H204.368C204.19 318.688 204.044 318.544 204.044 318.364C204.044 318.186 204.19 318.04 204.368 318.04H288.574C288.753 318.04 288.897 318.186 288.897 318.364C288.897 318.544 288.753 318.688 288.574 318.688Z" fill="#FCF7ED"/>
<path d="M79.5893 272.71C79.4979 272.71 79.407 272.672 79.343 272.597C63.8604 254.469 59.2169 236.322 58.0482 224.291C56.7806 211.247 59.2144 202.362 59.239 202.273C59.2874 202.101 59.4667 202.001 59.6381 202.048C59.8103 202.097 59.9108 202.276 59.8626 202.448C59.8383 202.535 57.4338 211.328 58.6954 224.259C59.8595 236.19 64.4718 254.188 79.8352 272.177C79.9514 272.313 79.9353 272.517 79.7993 272.633C79.7382 272.685 79.6635 272.71 79.5893 272.71Z" fill="#FCF7ED"/>
<path d="M70.3439 243.865C70.2344 243.865 70.1277 243.809 70.0669 243.709C62.567 231.338 61.4652 219.007 61.8613 210.84C62.2907 201.991 64.5274 195.976 64.5501 195.916C64.6131 195.749 64.8 195.664 64.9673 195.727C65.1345 195.791 65.219 195.978 65.1558 196.145C65.1336 196.204 62.9281 202.142 62.507 210.896C62.1186 218.966 63.211 231.151 70.6205 243.373C70.7132 243.526 70.6643 243.725 70.5116 243.818C70.459 243.849 70.4011 243.865 70.3439 243.865Z" fill="#FCF7ED"/>
<path d="M308.887 178.026C308.886 178.026 308.884 178.026 308.883 178.026C308.705 178.023 308.562 177.878 308.565 177.698C308.898 154.282 301.042 135.784 294.393 124.391C287.19 112.048 279.826 105.165 279.752 105.098C279.62 104.975 279.612 104.771 279.734 104.64C279.855 104.507 280.06 104.5 280.192 104.622C280.266 104.69 287.702 111.639 294.952 124.064C301.642 135.528 309.547 154.142 309.211 177.707C309.21 177.885 309.065 178.026 308.887 178.026Z" fill="#FCF7ED"/>
<path d="M308.686 186.945C307.786 186.945 307.053 186.214 307.053 185.314C307.053 185.135 307.197 184.99 307.377 184.99C307.557 184.99 307.701 185.135 307.701 185.314C307.701 185.858 308.143 186.299 308.686 186.299C309.229 186.299 309.67 185.858 309.67 185.314C309.67 184.771 309.229 184.33 308.686 184.33C308.506 184.33 308.362 184.184 308.362 184.006C308.362 183.826 308.506 183.682 308.686 183.682C309.585 183.682 310.318 184.413 310.318 185.314C310.318 186.214 309.585 186.945 308.686 186.945Z" fill="#FCF7ED"/>
<path d="M301.334 203.831C299.745 203.831 298.452 202.539 298.452 200.949C298.452 199.361 299.745 198.067 301.334 198.067C301.512 198.067 301.658 198.212 301.658 198.391C301.658 198.57 301.512 198.714 301.334 198.714C300.102 198.714 299.098 199.717 299.098 200.949C299.098 202.181 300.102 203.183 301.334 203.183C302.566 203.183 303.569 202.181 303.569 200.949C303.569 200.771 303.713 200.625 303.893 200.625C304.071 200.625 304.216 200.771 304.216 200.949C304.216 202.539 302.923 203.831 301.334 203.831Z" fill="#FCF7ED"/>
<path d="M121.265 75.5224C121.101 75.5224 120.961 75.3987 120.943 75.2324C120.924 75.0543 121.054 74.8953 121.232 74.8777C122.521 74.7422 123.836 74.6671 125.139 74.6539C125.314 74.6524 125.464 74.7952 125.466 74.9733C125.468 75.1529 125.324 75.2986 125.145 75.3016C123.863 75.3148 122.569 75.3884 121.299 75.5209C121.287 75.5224 121.276 75.5224 121.265 75.5224ZM132.875 75.9272C132.857 75.9272 132.839 75.9272 132.82 75.9228C131.548 75.7049 130.262 75.5415 128.996 75.4385C128.818 75.4238 128.686 75.2677 128.7 75.0896C128.715 74.9115 128.87 74.779 129.049 74.7937C130.333 74.8982 131.639 75.0631 132.929 75.2854C133.106 75.3148 133.224 75.4826 133.194 75.6593C133.167 75.8168 133.03 75.9272 132.875 75.9272ZM271.176 76.9841C271.034 76.9841 270.904 76.8884 270.864 76.7441C270.686 76.092 270.462 75.437 270.199 74.7937C270.131 74.6289 270.209 74.439 270.376 74.3713C270.54 74.3036 270.729 74.3816 270.798 74.5479C271.072 75.2147 271.304 75.8977 271.488 76.5748C271.536 76.7471 271.434 76.9252 271.262 76.9723C271.234 76.9796 271.204 76.9841 271.176 76.9841ZM113.657 77.0489C113.518 77.0489 113.389 76.959 113.347 76.8192C113.296 76.647 113.393 76.4674 113.564 76.4159C114.816 76.0405 116.093 75.7226 117.362 75.4679C117.537 75.4311 117.708 75.5459 117.743 75.7211C117.779 75.8963 117.665 76.067 117.49 76.1023C116.24 76.3526 114.982 76.6676 113.75 77.0356C113.719 77.0459 113.688 77.0489 113.657 77.0489ZM140.387 77.8658C140.352 77.8658 140.317 77.8599 140.282 77.8481C139.057 77.4257 137.814 77.0518 136.589 76.7338C136.416 76.6897 136.312 76.513 136.357 76.3393C136.402 76.1671 136.578 76.0626 136.751 76.1068C137.993 76.4291 139.252 76.8089 140.493 77.2358C140.662 77.2932 140.752 77.4787 140.693 77.6465C140.647 77.7819 140.522 77.8658 140.387 77.8658ZM106.446 79.9207C106.328 79.9207 106.213 79.8545 106.156 79.7411C106.076 79.5821 106.141 79.3864 106.301 79.3069C107.475 78.7195 108.675 78.1808 109.869 77.7039C110.035 77.6377 110.223 77.7186 110.289 77.8849C110.356 78.0513 110.275 78.2397 110.108 78.3059C108.932 78.7755 107.748 79.3069 106.591 79.8868C106.544 79.9089 106.495 79.9207 106.446 79.9207ZM239.084 79.9752C239.062 79.9752 239.038 79.9722 239.015 79.9678C237.744 79.6881 236.464 79.6101 235.258 79.7426C235.077 79.7617 234.92 79.6337 234.9 79.4556C234.881 79.2775 235.011 79.1185 235.187 79.0979C236.464 78.9595 237.815 79.0404 239.153 79.3348C239.328 79.3731 239.439 79.5454 239.4 79.7205C239.366 79.8721 239.232 79.9752 239.084 79.9752ZM147.525 80.9114C147.477 80.9114 147.427 80.9011 147.38 80.8761C146.221 80.2858 145.044 79.7352 143.882 79.2377C143.718 79.167 143.641 78.9772 143.711 78.8123C143.782 78.6474 143.972 78.5724 144.136 78.6415C145.312 79.145 146.502 79.7028 147.673 80.299C147.833 80.38 147.896 80.5757 147.815 80.7347C147.758 80.8466 147.645 80.9114 147.525 80.9114ZM228.7 83.5021C228.636 83.5021 228.571 83.4829 228.513 83.4432C228.368 83.3402 228.332 83.1385 228.435 82.9913C229.227 81.8667 230.219 80.9614 231.385 80.299C231.541 80.2107 231.739 80.2652 231.825 80.4212C231.914 80.5758 231.859 80.7745 231.705 80.8613C230.623 81.4766 229.701 82.3186 228.964 83.3637C228.902 83.4535 228.802 83.5021 228.7 83.5021ZM245.802 83.667C245.718 83.667 245.634 83.6346 245.571 83.5698C244.701 82.6822 243.685 81.9182 242.553 81.3C242.396 81.2131 242.338 81.0159 242.425 80.8598C242.511 80.7023 242.708 80.6449 242.864 80.7318C244.052 81.3809 245.118 82.1832 246.033 83.1164C246.158 83.243 246.157 83.4491 246.029 83.5742C245.965 83.636 245.884 83.667 245.802 83.667ZM99.832 83.9761C99.7365 83.9761 99.642 83.9334 99.578 83.8524C99.467 83.7126 99.4907 83.5094 99.6309 83.3976C100.247 82.9103 100.858 82.4702 101.446 82.089C101.918 81.7828 102.4 81.4825 102.878 81.194C103.031 81.1013 103.23 81.1513 103.322 81.3044C103.414 81.4575 103.365 81.6562 103.212 81.7489C102.74 82.033 102.265 82.3304 101.798 82.6321C101.227 83.0016 100.633 83.43 100.033 83.9054C99.9733 83.9525 99.9025 83.9761 99.832 83.9761ZM271.306 84.6679C271.281 84.6679 271.256 84.665 271.231 84.6591C271.057 84.6179 270.95 84.4427 270.991 84.269C271.266 83.1017 271.406 81.9167 271.406 80.7465C271.406 80.6655 271.405 80.5831 271.403 80.5007C271.4 80.3226 271.541 80.1739 271.721 80.171C271.89 80.1695 272.048 80.3108 272.051 80.4889C272.052 80.5743 272.052 80.6611 272.052 80.7465C272.054 81.9668 271.908 83.2018 271.621 84.4177C271.586 84.5663 271.453 84.6679 271.306 84.6679ZM154.194 84.8843C154.13 84.8843 154.066 84.8652 154.008 84.8254C153.116 84.1983 152.208 83.6051 151.308 83.062C151.127 82.953 150.946 82.8456 150.765 82.7381C150.611 82.6469 150.559 82.4481 150.65 82.295C150.742 82.1405 150.94 82.089 151.094 82.1802C151.278 82.2892 151.46 82.3981 151.643 82.5085C152.555 83.059 153.475 83.6596 154.381 84.2955C154.526 84.3985 154.562 84.6002 154.46 84.7459C154.397 84.8357 154.297 84.8843 154.194 84.8843ZM94.3369 89.4563C94.2646 89.4563 94.1919 89.4328 94.1316 89.3827C93.9935 89.2694 93.9736 89.0663 94.0871 88.9279C94.9285 87.9034 95.8118 86.9245 96.712 86.0207C96.8386 85.8941 97.0432 85.8926 97.1701 86.0192C97.2967 86.1458 97.2972 86.3504 97.1711 86.477C96.2851 87.3676 95.4157 88.3302 94.5873 89.3386C94.5234 89.4166 94.4304 89.4563 94.3369 89.4563ZM160.22 89.7758C160.142 89.7758 160.062 89.7463 160.001 89.6904C159.022 88.791 158.04 87.9387 157.083 87.1585C156.943 87.0452 156.923 86.842 157.036 86.7022C157.149 86.5638 157.352 86.5432 157.492 86.6566C158.459 87.4456 159.452 88.3052 160.439 89.2134C160.57 89.3341 160.579 89.5387 160.458 89.6698C160.395 89.7404 160.307 89.7758 160.22 89.7758ZM248.718 90.656C248.546 90.656 248.403 90.5206 248.396 90.3469C248.337 88.9809 248.09 87.7415 247.657 86.6625C247.59 86.4961 247.671 86.3077 247.838 86.2415C248.003 86.1753 248.193 86.2562 248.259 86.4225C248.717 87.5692 248.982 88.8808 249.042 90.3189C249.049 90.4985 248.911 90.6486 248.733 90.656C248.728 90.656 248.722 90.656 248.718 90.656ZM226.872 90.8636C226.715 90.8636 226.576 90.7487 226.551 90.5883C226.479 90.104 226.442 89.6138 226.442 89.1281C226.442 88.2876 226.553 87.4397 226.769 86.6065C226.815 86.4343 226.993 86.3298 227.165 86.3754C227.337 86.4196 227.44 86.5977 227.396 86.7699C227.193 87.5501 227.09 88.3435 227.09 89.1281C227.09 89.5815 227.124 90.0407 227.192 90.4926C227.218 90.6692 227.097 90.8341 226.921 90.8606C226.904 90.8636 226.887 90.8636 226.872 90.8636ZM267.978 91.6275C267.911 91.6275 267.844 91.6069 267.786 91.5642C267.642 91.4583 267.611 91.2551 267.719 91.1108C268.499 90.0554 269.166 88.9573 269.704 87.8489C269.782 87.6885 269.975 87.6222 270.137 87.6988C270.298 87.7768 270.364 87.9711 270.286 88.1315C269.732 89.2753 269.042 90.4073 268.238 91.4965C268.175 91.5819 268.078 91.6275 267.978 91.6275ZM165.699 95.2781C165.612 95.2781 165.525 95.2442 165.462 95.175C164.53 94.1667 163.654 93.2511 162.786 92.3753C162.659 92.2487 162.661 92.0426 162.787 91.9175C162.914 91.7909 163.12 91.7924 163.245 91.919C164.119 92.8007 165 93.7222 165.937 94.7349C166.058 94.8659 166.051 95.072 165.918 95.1927C165.856 95.2501 165.778 95.2781 165.699 95.2781ZM89.9815 95.8846C89.9291 95.8846 89.876 95.8713 89.8268 95.8448C89.6698 95.7594 89.6118 95.5622 89.6974 95.4047C90.3092 94.283 90.9968 93.1584 91.7415 92.0632C91.8417 91.9146 92.0431 91.8763 92.1912 91.9764C92.339 92.078 92.3775 92.2782 92.277 92.4268C91.5442 93.5058 90.8677 94.6113 90.2661 95.7153C90.2072 95.8227 90.0962 95.8846 89.9815 95.8846ZM262.494 97.096C262.396 97.096 262.299 97.0518 262.235 96.9679C262.128 96.8252 262.156 96.622 262.299 96.5146C263.338 95.73 264.315 94.8851 265.206 94.0048C265.333 93.8782 265.537 93.8797 265.664 94.0063C265.789 94.1329 265.787 94.339 265.661 94.4641C264.751 95.3649 263.752 96.229 262.689 97.0312C262.631 97.0754 262.562 97.096 262.494 97.096ZM230.501 97.5891C230.417 97.5891 230.333 97.5567 230.269 97.492C229.292 96.4998 228.485 95.44 227.87 94.3419C227.782 94.1859 227.838 93.9886 227.994 93.9018C228.151 93.8134 228.347 93.8708 228.435 94.0254C229.021 95.0735 229.794 96.0862 230.732 97.0371C230.857 97.1652 230.855 97.3698 230.727 97.4949C230.664 97.5582 230.583 97.5891 230.501 97.5891ZM247.579 98.3104C247.549 98.3104 247.518 98.306 247.487 98.2972C247.317 98.2456 247.218 98.0661 247.268 97.8953C247.657 96.5808 247.948 95.3208 248.138 94.152C248.166 93.9754 248.329 93.8547 248.509 93.8841C248.686 93.9121 248.805 94.0784 248.777 94.255C248.584 95.4518 248.285 96.7383 247.889 98.0778C247.848 98.2191 247.72 98.3104 247.579 98.3104ZM255.784 100.989C255.659 100.989 255.538 100.916 255.486 100.794C255.416 100.63 255.491 100.439 255.656 100.368C256.829 99.8634 257.986 99.2819 259.093 98.6401C259.247 98.5518 259.446 98.6033 259.534 98.7594C259.624 98.9139 259.571 99.1112 259.417 99.201C258.288 99.8545 257.108 100.448 255.912 100.963C255.869 100.981 255.826 100.989 255.784 100.989ZM170.846 101.101C170.755 101.101 170.664 101.062 170.6 100.988C169.625 99.8501 168.816 98.9183 168.057 98.0558C167.938 97.9218 167.951 97.7172 168.085 97.598C168.219 97.4802 168.423 97.4935 168.543 97.6274C169.305 98.4929 170.115 99.4277 171.092 100.566C171.208 100.702 171.192 100.907 171.057 101.023C170.995 101.075 170.92 101.101 170.846 101.101ZM236.91 101.902C236.866 101.902 236.823 101.893 236.78 101.876C235.57 101.353 234.406 100.72 233.318 99.9958C233.169 99.8957 233.13 99.6955 233.23 99.5469C233.328 99.3982 233.53 99.357 233.679 99.4571C234.733 100.161 235.862 100.775 237.038 101.281C237.201 101.352 237.278 101.541 237.206 101.706C237.154 101.828 237.035 101.902 236.91 101.902ZM87.0978 103.08C87.0718 103.08 87.0453 103.077 87.019 103.069C86.8456 103.027 86.7401 102.85 86.7835 102.676C87.0882 101.459 87.5017 100.203 88.0129 98.9463C88.08 98.78 88.268 98.7005 88.4346 98.7682C88.6002 98.8344 88.68 99.0243 88.6126 99.1892C88.113 100.42 87.7091 101.646 87.4117 102.834C87.3748 102.981 87.2429 103.08 87.0978 103.08ZM248.34 103.15C248.182 103.15 248.044 103.036 248.02 102.875C247.994 102.698 248.115 102.534 248.291 102.507C249.528 102.32 250.788 102.039 252.04 101.672C252.211 101.622 252.391 101.721 252.442 101.893C252.492 102.064 252.394 102.244 252.221 102.294C250.942 102.669 249.653 102.955 248.388 103.147C248.372 103.149 248.356 103.15 248.34 103.15ZM244.47 103.44C244.468 103.44 244.468 103.44 244.467 103.44C243.11 103.433 241.791 103.303 240.546 103.058C240.37 103.024 240.256 102.853 240.291 102.678C240.325 102.503 240.497 102.388 240.671 102.423C241.876 102.66 243.154 102.785 244.471 102.793C244.649 102.794 244.794 102.94 244.794 103.118C244.792 103.296 244.648 103.44 244.47 103.44ZM244.63 105.479C244.576 105.479 244.52 105.466 244.468 105.436C244.314 105.347 244.261 105.148 244.351 104.993C244.995 103.877 245.555 102.716 246.014 101.541C246.079 101.375 246.267 101.293 246.432 101.357C246.6 101.424 246.682 101.611 246.616 101.777C246.146 102.981 245.572 104.172 244.911 105.317C244.851 105.422 244.742 105.479 244.63 105.479ZM175.898 107.01C175.807 107.01 175.717 106.972 175.654 106.898C174.809 105.921 173.965 104.934 173.122 103.944C173.006 103.808 173.022 103.604 173.159 103.487C173.294 103.371 173.499 103.387 173.615 103.524C174.457 104.513 175.299 105.498 176.143 106.474C176.26 106.61 176.246 106.814 176.11 106.93C176.048 106.983 175.973 107.01 175.898 107.01ZM86.6713 110.781C86.5163 110.781 86.3793 110.669 86.3525 110.512C86.2009 109.621 86.124 108.691 86.124 107.743C86.124 107.357 86.1368 106.961 86.162 106.565C86.1735 106.387 86.3294 106.253 86.5057 106.264C86.6841 106.274 86.8197 106.428 86.8082 106.607C86.7839 106.988 86.7716 107.371 86.7716 107.743C86.7716 108.654 86.8453 109.549 86.9909 110.403C87.0209 110.58 86.9023 110.747 86.7261 110.777C86.7077 110.78 86.6893 110.781 86.6713 110.781ZM239.901 111.616C239.818 111.616 239.737 111.585 239.674 111.523C239.546 111.396 239.545 111.192 239.67 111.065C240.591 110.128 241.443 109.155 242.206 108.174C242.315 108.033 242.518 108.008 242.659 108.117C242.801 108.227 242.827 108.43 242.717 108.572C241.939 109.571 241.071 110.563 240.132 111.519C240.069 111.583 239.985 111.616 239.901 111.616ZM181.103 112.783C181.018 112.783 180.932 112.749 180.869 112.683C180.027 111.8 179.162 110.865 178.225 109.821C178.106 109.689 178.118 109.484 178.25 109.365C178.383 109.246 178.588 109.256 178.708 109.389C179.64 110.426 180.5 111.358 181.337 112.236C181.461 112.365 181.456 112.57 181.327 112.693C181.264 112.754 181.184 112.783 181.103 112.783ZM233.963 116.613C233.861 116.613 233.761 116.566 233.699 116.476C233.595 116.331 233.63 116.129 233.776 116.026C234.856 115.259 235.885 114.467 236.835 113.674C236.973 113.559 237.176 113.577 237.291 113.713C237.404 113.85 237.387 114.055 237.25 114.17C236.287 114.975 235.245 115.777 234.15 116.554C234.094 116.594 234.028 116.613 233.963 116.613ZM186.863 117.982C186.797 117.982 186.729 117.962 186.672 117.919C185.621 117.149 184.601 116.314 183.641 115.437C183.508 115.316 183.498 115.112 183.619 114.979C183.74 114.848 183.946 114.839 184.077 114.959C185.02 115.82 186.023 116.64 187.055 117.396C187.199 117.502 187.231 117.705 187.125 117.85C187.062 117.935 186.963 117.982 186.863 117.982ZM227.355 120.692C227.239 120.692 227.127 120.629 227.068 120.518C226.985 120.359 227.046 120.164 227.205 120.081C227.599 119.874 227.994 119.659 228.378 119.441C229.124 119.016 229.856 118.583 230.551 118.154C230.702 118.06 230.902 118.109 230.997 118.26C231.091 118.412 231.044 118.612 230.891 118.705C230.189 119.138 229.451 119.575 228.697 120.003C228.309 120.226 227.907 120.445 227.505 120.655C227.456 120.68 227.406 120.692 227.355 120.692ZM193.573 121.871C193.528 121.871 193.484 121.862 193.442 121.843C192.249 121.312 191.076 120.713 189.953 120.061C189.798 119.972 189.745 119.774 189.835 119.619C189.925 119.465 190.122 119.412 190.277 119.501C191.381 120.14 192.535 120.73 193.705 121.252C193.868 121.325 193.942 121.516 193.868 121.68C193.815 121.801 193.696 121.871 193.573 121.871ZM220.158 123.589C220.018 123.589 219.889 123.496 219.848 123.355C219.798 123.184 219.896 123.005 220.069 122.955C221.299 122.595 222.522 122.173 223.709 121.695C223.872 121.63 224.062 121.708 224.13 121.874C224.196 122.041 224.117 122.229 223.95 122.297C222.745 122.781 221.499 123.212 220.25 123.576C220.219 123.585 220.189 123.589 220.158 123.589ZM200.946 124.281C200.922 124.281 200.9 124.278 200.877 124.274C199.602 123.997 198.33 123.652 197.096 123.251C196.927 123.195 196.834 123.012 196.889 122.843C196.945 122.672 197.126 122.579 197.298 122.635C198.51 123.031 199.759 123.37 201.013 123.641C201.189 123.679 201.299 123.851 201.262 124.025C201.228 124.178 201.094 124.281 200.946 124.281ZM212.533 125.012C212.367 125.012 212.226 124.884 212.211 124.717C212.196 124.538 212.329 124.381 212.507 124.366C213.78 124.256 215.065 124.082 216.322 123.847C216.5 123.813 216.667 123.931 216.701 124.106C216.733 124.281 216.617 124.45 216.442 124.484C215.162 124.723 213.858 124.899 212.561 125.011C212.552 125.012 212.542 125.012 212.533 125.012ZM208.653 125.154C208.652 125.154 208.65 125.154 208.649 125.154C207.346 125.136 206.032 125.054 204.741 124.908C204.562 124.887 204.436 124.728 204.455 124.55C204.476 124.372 204.633 124.244 204.814 124.265C206.083 124.409 207.375 124.49 208.656 124.506C208.836 124.509 208.978 124.655 208.977 124.834C208.974 125.011 208.83 125.154 208.653 125.154Z" fill="#FCF7ED"/>
<path d="M250.072 109.874C248.265 109.874 246.796 111.343 246.796 113.151C246.796 114.957 248.265 116.428 250.072 116.428C251.878 116.428 253.349 114.957 253.349 113.151C253.349 111.343 251.878 109.874 250.072 109.874ZM250.072 117.075C247.908 117.075 246.148 115.315 246.148 113.151C246.148 110.987 247.908 109.227 250.072 109.227C252.236 109.227 253.997 110.987 253.997 113.151C253.997 115.315 252.236 117.075 250.072 117.075Z" fill="#FCF7ED"/>
<path d="M234.746 176.642C232.327 176.642 230.362 178.607 230.362 181.024C230.362 183.441 232.327 185.407 234.746 185.407C237.161 185.407 239.128 183.441 239.128 181.024C239.128 178.607 237.161 176.642 234.746 176.642ZM234.746 186.055C231.971 186.055 229.714 183.799 229.714 181.024C229.714 178.251 231.971 175.994 234.746 175.994C237.519 175.994 239.775 178.251 239.775 181.024C239.775 183.799 237.519 186.055 234.746 186.055Z" fill="#FCF7ED"/>
<path d="M78.9452 200.272C77.136 200.272 75.6641 201.744 75.6641 203.553C75.6641 205.362 77.136 206.834 78.9452 206.834C80.7543 206.834 82.226 205.362 82.226 203.553C82.226 201.744 80.7543 200.272 78.9452 200.272ZM78.9452 207.48C76.7789 207.48 75.0166 205.718 75.0166 203.553C75.0166 201.386 76.7789 199.624 78.9452 199.624C81.1111 199.624 82.8736 201.386 82.8736 203.553C82.8736 205.718 81.1111 207.48 78.9452 207.48Z" fill="#FCF7ED"/>
<path d="M108.809 254.597C104.834 254.597 101.6 257.831 101.6 261.807C101.6 265.781 104.834 269.015 108.809 269.015C112.784 269.015 116.018 265.781 116.018 261.807C116.018 257.831 112.784 254.597 108.809 254.597ZM108.809 269.663C104.477 269.663 100.952 266.139 100.952 261.807C100.952 257.475 104.477 253.951 108.809 253.951C113.141 253.951 116.665 257.475 116.665 261.807C116.665 266.139 113.141 269.663 108.809 269.663Z" fill="#FCF7ED"/>
<path d="M252.869 76.1261L284.573 85.3467L307.074 60.3212L252.869 76.1261Z" fill="#302D27"/>
<path d="M254.026 76.1245L284.469 84.9786L306.073 60.9496L254.026 76.1245ZM284.573 85.6704C284.542 85.6704 284.513 85.666 284.482 85.6572L252.778 76.4365C252.64 76.3968 252.545 76.2687 252.545 76.126C252.545 75.9817 252.64 75.8551 252.778 75.8139L306.984 60.009C307.123 59.9693 307.271 60.0252 307.348 60.1489C307.426 60.271 307.411 60.43 307.316 60.5375L284.813 85.5629C284.751 85.6321 284.663 85.6704 284.573 85.6704Z" fill="#FCF7ED"/>
<path d="M268.665 91.0034L264.24 79.432L299.277 64.662L269.813 81.0542L276.44 82.981L268.665 91.0034Z" fill="#FCF7ED"/>
<path d="M264.655 79.61L268.786 90.413L275.834 83.1413L269.722 81.3646C269.597 81.3278 269.506 81.2189 269.491 81.0894C269.476 80.9599 269.541 80.8347 269.656 80.7699L293.92 67.2717L264.655 79.61ZM268.665 91.3271C268.643 91.3271 268.622 91.3257 268.6 91.3213C268.491 91.2977 268.402 91.2226 268.363 91.1196L263.938 79.5482C263.875 79.3848 263.953 79.2023 264.115 79.1346L299.15 64.363C299.309 64.2968 299.492 64.3645 299.568 64.5191C299.643 64.6736 299.584 64.8606 299.434 64.9445L270.648 80.9598L276.531 82.6703C276.64 82.7012 276.724 82.7881 276.754 82.8985C276.783 83.0074 276.752 83.1251 276.673 83.2061L268.898 91.2285C268.836 91.2918 268.752 91.3271 268.665 91.3271Z" fill="#FCF7ED"/>
<path d="M269.068 87.833C269.056 87.833 269.043 87.833 269.031 87.8315C268.853 87.8109 268.725 87.6505 268.746 87.4724L269.491 81.0162C269.511 80.8395 269.672 80.7115 269.85 80.7321C270.028 80.7527 270.155 80.9131 270.134 81.0912L269.389 87.5474C269.37 87.7123 269.23 87.833 269.068 87.833Z" fill="#302D27"/>
</svg>
