<svg width="368" height="368" viewBox="0 0 368 368" fill="none" xmlns="http://www.w3.org/2000/svg">
<path d="M368 368H0V-8.16584e-06H368V368Z" fill="#302D27"/>
<path d="M112.064 298.196C117.029 294.647 122.17 291.338 127.393 288.184C137.994 281.777 148.987 276.053 160.056 270.505C165.878 267.586 171.856 264.947 177.775 262.231C183.729 259.499 189.695 256.79 195.663 254.085C201.115 251.612 206.567 249.139 212.014 246.653C230.15 208.157 250.172 164.515 247.716 164.515L61.9354 159.245C57.5405 159.245 53.9648 162.821 53.9648 167.215V296.222C53.9648 300.618 57.5405 304.193 61.9354 304.193L116.711 304.546C119.522 302.483 109.229 300.223 112.064 298.196Z" fill="#FEFBF7"/>
<path d="M253.891 159.696H65.7274C61.5743 159.696 58.2075 163.062 58.2075 167.215V296.222C58.2075 300.375 61.5743 303.743 65.7274 303.743H253.891C258.043 303.743 261.41 300.375 261.41 296.222V167.215C261.41 163.062 258.043 159.696 253.891 159.696Z" fill="#302D27"/>
<path d="M65.7271 160.024C61.7619 160.024 58.536 163.251 58.536 167.215V296.223C58.536 300.188 61.7619 303.413 65.7271 303.413H253.891C257.855 303.413 261.081 300.188 261.081 296.223V167.215C261.081 163.251 257.855 160.024 253.891 160.024H65.7271ZM253.891 304.071H65.7271C61.3993 304.071 57.8784 300.55 57.8784 296.223V167.215C57.8784 162.887 61.3993 159.366 65.7271 159.366H253.891C258.218 159.366 261.739 162.887 261.739 167.215V296.223C261.739 300.55 258.218 304.071 253.891 304.071Z" fill="#FEFBF7"/>
<path d="M141.822 304.317H65.0079C61.9109 304.317 59.3916 306.837 59.3916 309.933C59.3916 313.03 61.9109 315.55 65.0079 315.55H144.116C147.213 315.55 141.822 304.317 141.822 304.317Z" fill="#FEFBF7"/>
<path d="M297.395 304.317H116.07C112.968 304.317 110.454 306.831 110.454 309.933C110.454 313.034 112.968 315.55 116.07 315.55H297.395C300.497 315.55 303.011 313.034 303.011 309.933C303.011 306.831 300.497 304.317 297.395 304.317Z" fill="#302D27"/>
<path d="M116.07 304.645C113.154 304.645 110.783 307.018 110.783 309.933C110.783 312.849 113.154 315.22 116.07 315.22H297.395C300.312 315.22 302.683 312.849 302.683 309.933C302.683 307.018 300.312 304.645 297.395 304.645H116.07ZM297.395 315.878H116.07C112.792 315.878 110.125 313.211 110.125 309.933C110.125 306.654 112.792 303.989 116.07 303.989H297.395C300.674 303.989 303.341 306.654 303.341 309.933C303.341 313.211 300.674 315.878 297.395 315.878Z" fill="#FEFBF7"/>
<path d="M247.583 170.474H72.0332C70.2116 170.474 68.7349 171.95 68.7349 173.772V176.2C68.7349 178.021 70.2116 179.497 72.0332 179.497H247.583C249.405 179.497 250.882 178.021 250.882 176.2V173.772C250.882 171.95 249.405 170.474 247.583 170.474Z" fill="#FEFBF7"/>
<path d="M246.732 174.986C246.732 176.185 245.759 177.158 244.559 177.158C243.36 177.158 242.387 176.185 242.387 174.986C242.387 173.786 243.36 172.813 244.559 172.813C245.759 172.813 246.732 173.786 246.732 174.986Z" fill="#302D27"/>
<path d="M250.882 293.278H68.8101V183.732H250.882V293.278Z" fill="#302D27"/>
<path d="M69.1384 292.948H250.553V184.062H69.1384V292.948ZM250.882 293.606H68.8097C68.6282 293.606 68.481 293.459 68.481 293.278V183.732C68.481 183.551 68.6282 183.404 68.8097 183.404H250.882C251.064 183.404 251.211 183.551 251.211 183.732V293.278C251.211 293.459 251.064 293.606 250.882 293.606Z" fill="#FEFBF7"/>
<path d="M291.575 262.333H245.603L252.7 316.978C263.236 319.224 273.827 319.293 284.479 316.978L291.575 262.333Z" fill="#FEFBF7"/>
<path d="M294.972 248.84H242.206L250.352 311.563C262.444 314.139 274.601 314.219 286.828 311.563L294.972 248.84Z" fill="#302D27"/>
<path d="M250.648 311.29C262.668 313.819 274.739 313.819 286.531 311.291L294.599 249.17H242.58L250.648 311.29ZM268.677 313.845C262.561 313.845 256.415 313.192 250.283 311.885C250.147 311.855 250.043 311.743 250.025 311.606L241.881 248.883C241.867 248.79 241.897 248.695 241.959 248.624C242.022 248.553 242.112 248.512 242.206 248.512H294.973C295.067 248.512 295.158 248.553 295.22 248.624C295.282 248.695 295.311 248.79 295.299 248.883L287.153 311.606C287.136 311.743 287.033 311.855 286.897 311.885C280.883 313.192 274.794 313.845 268.677 313.845Z" fill="#FEFBF7"/>
<path d="M291.65 242.492H245.528L243.869 247.948H293.309L291.65 242.492Z" fill="#FEFBF7"/>
<path d="M244.314 247.618H292.866L291.407 242.82H245.771L244.314 247.618ZM293.309 248.276H243.869C243.766 248.276 243.667 248.226 243.606 248.144C243.544 248.06 243.525 247.953 243.556 247.852L245.213 242.396C245.256 242.257 245.382 242.163 245.528 242.163H291.65C291.796 242.163 291.923 242.257 291.965 242.396L293.624 247.852C293.654 247.953 293.636 248.06 293.573 248.144C293.511 248.226 293.414 248.276 293.309 248.276Z" fill="#302D27"/>
<path d="M297.625 253.846H239.555V247.948H297.625V253.846Z" fill="#FEFBF7"/>
<path d="M239.883 253.518H297.295V248.276H239.883V253.518ZM297.625 254.176H239.555C239.372 254.176 239.225 254.029 239.225 253.847V247.948C239.225 247.766 239.372 247.619 239.555 247.619H297.625C297.806 247.619 297.953 247.766 297.953 247.948V253.847C297.953 254.029 297.806 254.176 297.625 254.176Z" fill="#302D27"/>
<path d="M244.13 269.438L248.302 301.455C248.302 301.455 269.116 307.804 288.98 301.455C291.265 285.957 293.022 269.438 293.022 269.438C293.022 269.438 268.892 272.713 244.13 269.438Z" fill="#FEFBF7"/>
<path d="M273.698 295.984C273.675 295.984 273.655 295.984 273.633 295.982C272.672 295.941 272.152 295.017 271.647 294.123C271.186 293.305 270.751 292.532 270.059 292.458C269.262 292.376 268.512 293.262 267.785 294.119C266.991 295.057 266.242 295.943 265.313 295.716C264.609 295.545 264.358 294.858 264.115 294.192C263.879 293.546 263.656 292.937 263.074 292.704C262.516 292.482 262.014 292.738 261.174 293.209C260.489 293.593 259.712 294.031 258.704 294.16C256.908 294.393 254.953 293.537 252.885 291.624C252.752 291.5 252.744 291.293 252.867 291.159C252.991 291.025 253.198 291.017 253.332 291.141C255.249 292.918 257.029 293.714 258.62 293.508C259.502 293.395 260.22 292.991 260.851 292.637C261.67 292.177 262.443 291.745 263.317 292.093C264.172 292.435 264.483 293.284 264.733 293.966C264.966 294.603 265.13 294.995 265.468 295.077C266.002 295.205 266.653 294.438 267.283 293.695C268.08 292.753 268.987 291.681 270.128 291.805C271.155 291.914 271.722 292.916 272.22 293.799C272.655 294.571 273.066 295.299 273.661 295.326C274.261 295.341 274.753 294.661 275.28 293.929C275.917 293.044 276.64 292.043 277.791 291.948C278.877 291.858 280.007 292.613 281.159 294.19C281.267 294.337 281.234 294.543 281.087 294.649C280.941 294.756 280.735 294.724 280.628 294.578C279.619 293.197 278.683 292.532 277.846 292.603C276.996 292.673 276.394 293.507 275.813 294.313C275.221 295.135 274.609 295.984 273.698 295.984Z" fill="#302D27"/>
<path d="M274.471 205.66C273.876 206.26 273.265 206.838 272.697 207.458C272.404 207.758 272.126 208.072 271.854 208.391L271.435 208.861L271.038 209.348C269.988 210.646 269.038 212.036 268.383 213.546C267.716 215.043 267.408 216.717 267.776 218.289C268.1 219.873 269.098 221.24 270.267 222.404C271.438 223.583 272.778 224.618 274.008 225.806C274.625 226.399 275.202 227.047 275.7 227.76C276.2 228.469 276.587 229.27 276.823 230.113C277.301 231.809 277.066 233.637 276.383 235.211C275.71 236.799 274.677 238.189 273.514 239.419C273.473 239.463 273.404 239.466 273.359 239.424C273.317 239.384 273.314 239.318 273.352 239.274C274.446 238.003 275.422 236.612 276.019 235.064C276.318 234.292 276.517 233.486 276.583 232.669C276.646 231.855 276.571 231.029 276.336 230.252C276.103 229.473 275.732 228.738 275.248 228.078C274.768 227.412 274.198 226.81 273.598 226.235C272.392 225.082 271.044 224.056 269.825 222.846C269.214 222.244 268.642 221.586 268.166 220.85C267.686 220.118 267.326 219.294 267.136 218.429C266.938 217.564 266.93 216.662 267.067 215.795C267.199 214.927 267.468 214.089 267.828 213.303C267.909 213.101 268.004 212.907 268.106 212.719C268.207 212.527 268.3 212.333 268.408 212.146C268.631 211.78 268.843 211.404 269.098 211.058L269.466 210.533C269.592 210.359 269.728 210.194 269.857 210.025L270.255 209.523L270.673 209.04L271.092 208.559L271.531 208.097C271.824 207.787 272.123 207.486 272.435 207.197C273.04 206.602 273.683 206.05 274.325 205.498C274.371 205.459 274.44 205.463 274.478 205.509C274.516 205.553 274.513 205.618 274.474 205.657L274.471 205.66Z" fill="#FEFBF7"/>
<path d="M276.908 212.856C276.455 214.038 276.188 215.292 276.233 216.541C276.238 217.167 276.374 217.778 276.512 218.38C276.617 218.671 276.693 218.972 276.818 219.254L277.017 219.674C277.082 219.815 277.147 219.955 277.233 220.083C277.853 221.162 278.725 222.075 279.625 222.965C280.528 223.854 281.502 224.71 282.312 225.756C283.116 226.787 283.749 228.075 283.768 229.443C283.822 230.804 283.395 232.112 282.802 233.272C281.585 235.605 279.759 237.486 277.847 239.182C277.803 239.222 277.735 239.218 277.697 239.173C277.66 239.132 277.662 239.069 277.699 239.029C278.582 238.108 279.441 237.166 280.229 236.173C281.021 235.186 281.725 234.129 282.265 233.007C282.546 232.449 282.755 231.865 282.91 231.272C283.07 230.68 283.144 230.071 283.117 229.469C283.08 228.256 282.561 227.118 281.81 226.14C281.062 225.153 280.113 224.3 279.204 223.391C278.292 222.487 277.415 221.495 276.783 220.335C276.146 219.181 275.817 217.853 275.834 216.546C275.848 215.234 276.172 213.945 276.711 212.773C276.736 212.72 276.799 212.697 276.852 212.722C276.904 212.745 276.927 212.804 276.908 212.856Z" fill="#FEFBF7"/>
<path d="M293.229 109.961H213.567C211.247 109.961 209.366 108.08 209.366 105.76V53.8414C209.366 51.5215 211.247 49.6404 213.567 49.6404H293.229C295.548 49.6404 297.43 51.5215 297.43 53.8414V105.76C297.43 108.08 295.548 109.961 293.229 109.961Z" fill="#302D27"/>
<path d="M213.566 49.9699C211.432 49.9699 209.695 51.7069 209.695 53.8413V105.76C209.695 107.896 211.432 109.633 213.566 109.633H293.228C295.364 109.633 297.101 107.896 297.101 105.76V53.8413C297.101 51.7069 295.364 49.9699 293.228 49.9699H213.566ZM293.228 110.291H213.566C211.07 110.291 209.037 108.258 209.037 105.76V53.8413C209.037 51.3433 211.07 49.312 213.566 49.312H293.228C295.726 49.312 297.759 51.3433 297.759 53.8413V105.76C297.759 108.258 295.726 110.291 293.228 110.291Z" fill="#FEFBF7"/>
<path d="M253.398 102.557C253.217 102.557 253.069 102.41 253.069 102.227V57.1356C253.069 56.9531 253.217 56.8059 253.398 56.8059C253.58 56.8059 253.727 56.9531 253.727 57.1356V102.227C253.727 102.41 253.58 102.557 253.398 102.557Z" fill="#FEFBF7"/>
<path d="M287.534 84.8257H218.509C218.328 84.8257 218.181 84.6785 218.181 84.4959C218.181 84.3149 218.328 84.1677 218.509 84.1677H287.534C287.717 84.1677 287.864 84.3149 287.864 84.4959C287.864 84.6785 287.717 84.8257 287.534 84.8257Z" fill="#FEFBF7"/>
<path d="M286.225 85.6113L287.34 84.4955L286.225 83.3812H287.171L288.287 84.4955L287.171 85.6113H286.225Z" fill="#FEFBF7"/>
<path d="M253.553 99.5234C245.662 99.5234 239.241 93.1026 239.241 85.2097V76.9165C239.241 69.3872 233.115 63.2622 225.585 63.2622H218.509C218.328 63.2622 218.181 63.115 218.181 62.9325C218.181 62.7514 218.328 62.6042 218.509 62.6042H225.585C233.477 62.6042 239.898 69.0251 239.898 76.9165V85.2097C239.898 92.739 246.024 98.8655 253.553 98.8655C261.083 98.8655 267.209 92.739 267.209 85.2097V76.9165C267.209 69.0251 273.63 62.6042 281.521 62.6042H285.668C285.849 62.6042 285.996 62.7514 285.996 62.9325C285.996 63.115 285.849 63.2622 285.668 63.2622H281.521C273.992 63.2622 267.867 69.3872 267.867 76.9165V85.2097C267.867 93.1026 261.446 99.5234 253.553 99.5234Z" fill="#FEFBF7"/>
<path d="M170.85 143.71C167.588 144.723 165.927 140.052 159.891 139.326C154.014 138.618 152.627 142.693 146.303 142.833C139.095 142.99 131.002 137.915 130.523 132.751C130.105 128.252 135.648 125.678 134.434 122.622C133.315 119.805 128.416 121.514 123.495 117.865C119.271 114.734 116.348 108.631 117.811 104.259C118.923 100.934 121.675 101.29 123.071 97.4641C124.551 93.4088 122.021 91.7189 123.19 87.5826C124.394 83.3212 128.772 79.2202 133.004 79.1775C137.107 79.1363 137.779 82.9429 142.358 83.2181C147.605 83.5346 149.723 78.7197 152.877 79.9311C156.281 81.2368 154.85 87.2352 159.366 89.7965C161.249 90.8637 161.781 90.0202 165.59 91.108C167.531 91.663 171.258 92.7272 173.546 95.1752C177.931 99.8664 173.856 106.243 177.644 109.299C180.467 111.576 183.548 108.698 187.725 111.271C190.307 112.863 193 116.344 192.421 119.387C191.511 124.175 183.483 122.719 177.863 129.464C172.714 135.643 174.767 142.491 170.85 143.71Z" fill="#FEFBF7"/>
<path d="M116.262 196.292C116.251 196.292 116.24 196.292 116.229 196.291C116.049 196.273 115.916 196.113 115.934 195.932L116.877 186.346C116.895 186.165 117.053 186.037 117.237 186.05C117.417 186.068 117.549 186.23 117.532 186.411L116.589 195.997C116.572 196.166 116.429 196.292 116.262 196.292Z" fill="#FEFBF7"/>
<path d="M284.255 109.056C282.789 107.667 281.075 107.624 279.069 107.873L278.363 107.43C276.813 106.461 274.937 106.161 273.162 106.597L259.182 110.031C258.597 110.174 258.065 109.652 258.198 109.065C258.466 107.892 258.864 106.131 259.174 104.742C259.49 103.318 258.928 102.481 258.454 102.05C258.184 101.804 257.765 101.83 257.525 102.106C255.978 103.879 250.264 110.668 250.445 114.024C250.654 117.906 253.317 129.208 253.317 129.208H265.197L262.868 121.596C262.705 121.063 262.99 120.497 263.516 120.31L280.481 114.31C280.787 114.202 280.887 113.823 280.677 113.577C280.3 113.135 279.704 112.504 279.054 112.067L283.878 110.16C284.317 109.987 284.496 109.461 284.255 109.056Z" fill="#302D27"/>
<path d="M253.577 128.878H264.752L262.553 121.693C262.338 120.988 262.712 120.246 263.407 120.001L280.372 114.001C280.428 113.98 280.448 113.936 280.454 113.911C280.462 113.886 280.466 113.837 280.426 113.79C280.057 113.357 279.486 112.754 278.87 112.339C278.769 112.271 278.714 112.152 278.728 112.03C278.741 111.909 278.82 111.804 278.934 111.76L283.757 109.854C283.877 109.807 283.969 109.71 284.011 109.589C284.047 109.48 284.04 109.362 283.991 109.259C282.675 108.038 281.146 107.946 279.109 108.198C279.035 108.207 278.959 108.191 278.895 108.151L278.187 107.709C276.723 106.794 274.92 106.504 273.241 106.916L259.26 110.35C258.875 110.446 258.473 110.335 258.189 110.056C257.906 109.777 257.79 109.38 257.878 108.993C258.145 107.82 258.544 106.059 258.853 104.67C259.131 103.424 258.669 102.69 258.233 102.292C258.17 102.235 258.086 102.204 257.999 102.21C257.912 102.216 257.831 102.256 257.772 102.322C254.298 106.304 250.636 111.463 250.773 114.007C250.96 117.494 253.184 127.184 253.577 128.878ZM265.197 129.536H253.316C253.163 129.536 253.031 129.432 252.996 129.283C252.887 128.819 250.324 117.907 250.116 114.042C249.931 110.593 255.551 103.869 257.278 101.889C257.453 101.689 257.696 101.57 257.962 101.553C258.223 101.534 258.479 101.628 258.676 101.807C259.138 102.226 259.859 103.177 259.494 104.812C259.185 106.203 258.786 107.965 258.518 109.139C258.482 109.304 258.529 109.467 258.65 109.588C258.772 109.707 258.938 109.752 259.104 109.711L273.084 106.279C274.933 105.824 276.921 106.142 278.536 107.151L279.146 107.531C281.274 107.279 283.001 107.415 284.482 108.818C284.504 108.838 284.523 108.862 284.538 108.888C284.702 109.164 284.736 109.496 284.633 109.801C284.529 110.106 284.298 110.347 283.999 110.465L279.72 112.156C280.201 112.555 280.626 113.011 280.927 113.362C281.096 113.561 281.156 113.83 281.09 114.08C281.022 114.332 280.835 114.533 280.591 114.62L263.626 120.62C263.264 120.748 263.07 121.134 263.182 121.5L265.512 129.111C265.543 129.211 265.524 129.318 265.462 129.402C265.4 129.486 265.301 129.536 265.197 129.536Z" fill="#FEFBF7"/>
<path d="M264.545 115.933C264.398 115.933 264.264 115.834 264.227 115.684C264.183 115.509 264.289 115.33 264.465 115.285L276.52 112.268C276.696 112.224 276.874 112.331 276.918 112.506C276.963 112.683 276.855 112.861 276.678 112.905L264.624 115.923C264.598 115.93 264.571 115.933 264.545 115.933Z" fill="#FEFBF7"/>
<path d="M263.317 112.402C263.17 112.402 263.036 112.303 262.999 112.153C262.955 111.976 263.061 111.798 263.238 111.754L275.292 108.737C275.469 108.692 275.647 108.8 275.691 108.975C275.735 109.152 275.628 109.33 275.452 109.374L263.398 112.393C263.37 112.399 263.344 112.402 263.317 112.402Z" fill="#FEFBF7"/>
<path d="M104.44 161.67C107.816 161.873 113.473 162.152 116.913 162.317C118.507 162.394 119.703 163.798 119.527 165.385L117.204 186.379C117.204 186.379 122.513 183.991 128.327 177.067C134.14 170.141 139.377 155.907 152.252 155.403C160.445 155.082 180.999 156.394 194.866 157.391C201.989 157.901 208.899 160.086 214.981 163.829C219.4 166.548 225.962 168.977 234.26 167.468C249.495 164.696 256.378 151.656 250.035 130.593C249.454 128.663 250.891 126.719 252.904 126.719H265.827C267.23 126.719 268.462 127.643 268.858 128.99C271.802 139.032 281.639 179.494 253.316 192.234C236.6 199.752 219.032 198.886 219.032 198.886L225.971 262.287C226.713 269.062 223.382 275.641 217.469 279.032C211.263 282.59 201.562 285.858 187.131 285.38C175.083 284.981 165.719 282.846 158.807 280.417C149.349 277.095 142.534 268.787 141.084 258.867C139.522 248.186 137.715 231.621 137.418 210.82C137.418 210.82 127.628 221.543 109 218.071C85.9939 213.783 97.131 174.972 100.694 164.207C101.223 162.609 102.76 161.57 104.44 161.67Z" fill="#302D27"/>
<path d="M137.418 210.492C137.458 210.492 137.497 210.497 137.535 210.512C137.661 210.561 137.745 210.68 137.747 210.815C138.048 231.849 139.905 248.529 141.409 258.82C142.849 268.663 149.557 276.82 158.916 280.108C167.274 283.045 176.77 284.707 187.143 285.051C199.165 285.447 209.316 283.328 217.306 278.747C223.099 275.424 226.373 268.977 225.645 262.322L218.706 198.922C218.695 198.826 218.728 198.73 218.794 198.661C218.86 198.59 218.953 198.554 219.049 198.558C219.224 198.567 236.735 199.332 253.181 191.934C265.104 186.572 271.599 175.688 272.484 159.582C273.197 146.618 269.965 133.934 268.542 129.083C268.191 127.884 267.074 127.047 265.827 127.047H252.905C252.052 127.047 251.272 127.44 250.764 128.123C250.253 128.81 250.102 129.676 250.349 130.499C253.801 141.955 253.462 151.545 249.373 158.228C246.298 163.252 241.093 166.56 234.319 167.792C225.69 169.361 218.947 166.655 214.809 164.109C208.843 160.438 201.939 158.228 194.843 157.719C179.83 156.64 160.257 155.42 152.265 155.732C142.696 156.107 137.473 164.119 132.866 171.189C131.396 173.446 130.007 175.576 128.579 177.277C122.783 184.181 117.559 186.579 117.339 186.678C117.232 186.726 117.106 186.714 117.011 186.644C116.916 186.574 116.865 186.46 116.878 186.342L119.201 165.348C119.276 164.671 119.074 164.015 118.632 163.496C118.192 162.981 117.576 162.678 116.898 162.646C113.71 162.493 107.849 162.205 104.421 161.998C102.883 161.901 101.487 162.858 101.006 164.31C98.4949 171.899 90.8922 197.657 98.4974 210.536C100.807 214.445 104.36 216.873 109.06 217.748C127.297 221.149 137.079 210.703 137.176 210.598C137.239 210.528 137.328 210.492 137.418 210.492ZM189.962 285.755C189.026 285.755 188.079 285.74 187.121 285.708C176.681 285.362 167.119 283.687 158.698 280.728C149.108 277.359 142.233 269.001 140.759 258.916C139.269 248.73 137.436 232.296 137.101 211.587C134.752 213.74 125.068 221.401 108.94 218.395C104.045 217.482 100.341 214.95 97.9313 210.87C90.1849 197.753 97.8486 171.759 100.382 164.104C100.957 162.367 102.641 161.23 104.46 161.341C107.886 161.549 113.743 161.836 116.929 161.989C117.791 162.03 118.573 162.415 119.133 163.07C119.693 163.728 119.949 164.562 119.855 165.42L117.598 185.809C119.074 185.016 123.432 182.385 128.075 176.855C129.478 175.184 130.856 173.069 132.315 170.83C136.777 163.984 142.33 155.462 152.24 155.075C160.258 154.762 179.859 155.983 194.89 157.062C202.091 157.579 209.098 159.822 215.154 163.549C219.194 166.036 225.777 168.676 234.201 167.144C240.786 165.947 245.837 162.744 248.812 157.885C252.801 151.366 253.115 141.961 249.721 130.687C249.411 129.664 249.6 128.586 250.237 127.731C250.87 126.879 251.843 126.389 252.905 126.389H265.827C267.364 126.389 268.74 127.421 269.173 128.897C270.605 133.781 273.86 146.552 273.14 159.618C272.241 175.988 265.615 187.062 253.451 192.535C238.214 199.387 222.076 199.295 219.4 199.228L226.3 262.25C227.056 269.165 223.654 275.865 217.632 279.316C210.174 283.594 200.877 285.755 189.962 285.755Z" fill="#FEFBF7"/>
<path d="M116.764 148.411L115.254 146.738V135.469C115.254 134.373 114.365 133.484 113.268 133.484C112.172 133.484 111.283 134.373 111.283 135.469V147.602L100.716 149.902V156.097C100.716 158.795 102.283 161.247 104.732 162.381L105.257 162.623C108.427 164.091 112.129 163.817 115.048 161.901C116.457 160.975 117.389 159.478 117.598 157.806L118.202 152.979C118.409 151.32 117.884 149.652 116.764 148.411Z" fill="#302D27"/>
<path d="M101.045 150.168V156.097C101.045 158.657 102.546 161.007 104.87 162.082L105.396 162.326C108.483 163.756 112.024 163.494 114.868 161.626C116.199 160.751 117.075 159.344 117.273 157.765L117.876 152.938C118.071 151.373 117.577 149.803 116.52 148.631L115.01 146.959C114.955 146.898 114.925 146.819 114.925 146.738V135.47C114.925 134.556 114.182 133.812 113.268 133.812C112.355 133.812 111.612 134.556 111.612 135.47V147.602C111.612 147.756 111.504 147.89 111.353 147.924L101.045 150.168ZM109.511 163.897C108.023 163.897 106.527 163.575 105.119 162.923L104.594 162.68C102.038 161.496 100.387 158.913 100.387 156.097V149.903C100.387 149.748 100.495 149.614 100.646 149.58L110.954 147.337V135.47C110.954 134.193 111.992 133.154 113.268 133.154C114.544 133.154 115.583 134.193 115.583 135.47V146.611L117.008 148.191C118.193 149.504 118.748 151.264 118.528 153.02L117.925 157.846C117.704 159.616 116.721 161.194 115.229 162.175C113.49 163.317 111.507 163.897 109.511 163.897Z" fill="#FEFBF7"/>
<path d="M109.646 150.792H108.353C107.539 150.792 106.878 150.132 106.878 149.317V144.789C106.878 143.973 107.539 143.312 108.353 143.312H109.252C110.285 143.312 111.122 144.15 111.122 145.182V149.317C111.122 150.132 110.461 150.792 109.646 150.792Z" fill="#302D27"/>
<path d="M108.353 143.642C107.721 143.642 107.206 144.156 107.206 144.789V149.317C107.206 149.95 107.721 150.464 108.353 150.464H109.646C110.278 150.464 110.793 149.95 110.793 149.317V145.182C110.793 144.333 110.102 143.642 109.252 143.642H108.353ZM109.646 151.122H108.353C107.358 151.122 106.549 150.312 106.549 149.317V144.789C106.549 143.794 107.358 142.984 108.353 142.984H109.252C110.464 142.984 111.45 143.971 111.45 145.182V149.317C111.45 150.312 110.641 151.122 109.646 151.122Z" fill="#FEFBF7"/>
<path d="M105.403 151.722H105.143C104.328 151.722 103.667 151.061 103.667 150.247V145.833C103.667 145.019 104.328 144.358 105.143 144.358H105.403C106.217 144.358 106.878 145.019 106.878 145.833V150.247C106.878 151.061 106.217 151.722 105.403 151.722Z" fill="#302D27"/>
<path d="M105.142 144.686C104.51 144.686 103.995 145.201 103.995 145.833V150.247C103.995 150.879 104.51 151.394 105.142 151.394H105.402C106.035 151.394 106.549 150.879 106.549 150.247V145.833C106.549 145.201 106.035 144.686 105.402 144.686H105.142ZM105.402 152.052H105.142C104.147 152.052 103.338 151.242 103.338 150.247V145.833C103.338 144.839 104.147 144.029 105.142 144.029H105.402C106.397 144.029 107.206 144.839 107.206 145.833V150.247C107.206 151.242 106.397 152.052 105.402 152.052Z" fill="#FEFBF7"/>
<path d="M102.191 152.885C101.376 152.885 100.716 152.224 100.716 151.41V147.042C100.716 146.227 101.376 145.566 102.191 145.566C103.006 145.566 103.667 146.227 103.667 147.042V151.41C103.667 152.224 103.006 152.885 102.191 152.885Z" fill="#302D27"/>
<path d="M102.191 145.896C101.559 145.896 101.045 146.409 101.045 147.042V151.41C101.045 152.041 101.559 152.556 102.191 152.556C102.824 152.556 103.338 152.041 103.338 151.41V147.042C103.338 146.409 102.824 145.896 102.191 145.896ZM102.191 153.213C101.197 153.213 100.387 152.403 100.387 151.41V147.042C100.387 146.047 101.197 145.238 102.191 145.238C103.186 145.238 103.996 146.047 103.996 147.042V151.41C103.996 152.403 103.186 153.213 102.191 153.213Z" fill="#FEFBF7"/>
<path d="M116.261 151.122C116.194 151.122 116.127 151.101 116.069 151.06L111.556 147.811C111.409 147.707 111.375 147.5 111.481 147.353C111.588 147.206 111.793 147.172 111.94 147.278L116.453 150.525C116.601 150.631 116.634 150.837 116.528 150.985C116.464 151.073 116.363 151.122 116.261 151.122Z" fill="#FEFBF7"/>
<path d="M108.243 158.755C108.068 158.755 107.922 158.617 107.914 158.442C107.75 154.756 110.104 153.252 111.161 152.764L109.414 151.026C109.286 150.898 109.285 150.689 109.413 150.561C109.541 150.431 109.749 150.431 109.878 150.559L111.98 152.652C112.063 152.735 112.096 152.856 112.066 152.967C112.037 153.081 111.949 153.171 111.836 153.202C111.696 153.241 108.385 154.228 108.571 158.412C108.579 158.593 108.439 158.747 108.258 158.755C108.253 158.755 108.248 158.755 108.243 158.755Z" fill="#FEFBF7"/>
<path d="M156.974 293.612C156.974 293.612 152.919 242.372 164.624 226.025L202.783 224.422C202.783 224.422 216.634 241.892 215.134 293.278L156.974 293.612Z" fill="#FEFBF7"/>
<path d="M154.297 155.317L149.389 224.597C149.167 227.727 151.348 230.521 154.441 231.054C164.259 232.747 185.996 235.348 208.022 230.355C210.508 229.791 212.099 227.362 211.587 224.866L197.813 157.7C197.813 157.7 172.975 154.189 154.297 155.317Z" fill="#302D27"/>
<path d="M154.604 155.627L149.716 224.62C149.505 227.598 151.56 230.224 154.495 230.73C165.188 232.573 186.348 234.931 207.949 230.034C210.287 229.504 211.743 227.262 211.264 224.932L197.538 157.994C194.997 157.648 172.05 154.623 154.604 155.627ZM180.422 233.604C169.633 233.604 160.374 232.41 154.385 231.378C151.114 230.814 148.825 227.889 149.061 224.574L153.968 155.293C153.98 155.128 154.112 154.997 154.277 154.988C172.773 153.87 197.61 157.339 197.859 157.375C197.997 157.394 198.108 157.498 198.136 157.634L211.909 224.799C212.46 227.484 210.784 230.065 208.095 230.676C198.492 232.853 188.975 233.604 180.422 233.604Z" fill="#FEFBF7"/>
<path d="M168.274 223.138C168.135 223.138 168.004 223.048 167.961 222.907C167.906 222.733 168.004 222.549 168.177 222.496C187.368 216.562 196.472 194.546 196.562 194.323C196.63 194.155 196.822 194.075 196.99 194.142C197.158 194.21 197.239 194.403 197.171 194.571C197.08 194.794 187.856 217.1 168.372 223.123C168.339 223.133 168.307 223.138 168.274 223.138Z" fill="#FEFBF7"/>
<path d="M186.374 131.462C185.239 130.097 184.471 128.462 184.144 126.716C183.563 123.608 182.93 120.856 182.93 120.856C178.287 124.705 173.054 122.057 173.054 122.057C168.682 125.454 169.474 130.237 169.474 130.237C169.474 130.237 165.407 129.792 165.693 132.415C165.975 135.021 169.895 135.673 169.954 135.683L165.18 154.959C164.881 156.166 165.634 157.388 166.848 157.653C174.198 159.257 178.805 158.655 181.134 158.034C181.814 157.852 182.021 157.011 181.519 156.517C178.957 153.985 178.524 146.75 178.533 141.998C180.904 142.528 183.093 142.056 184.179 139.876C184.955 138.317 185.161 136.677 185.07 134.214C185.054 133.781 186.657 131.962 186.374 131.462Z" fill="#302D27"/>
<path d="M168.821 130.537C168.108 130.537 166.959 130.637 166.37 131.226C166.081 131.514 165.967 131.893 166.02 132.38C166.274 134.728 169.971 135.352 170.007 135.358C170.099 135.372 170.178 135.425 170.23 135.5C170.28 135.578 170.296 135.673 170.274 135.761L165.5 155.038C165.376 155.537 165.457 156.054 165.73 156.491C166.001 156.924 166.422 157.223 166.919 157.332C174.369 158.958 178.97 158.271 181.049 157.716C181.25 157.663 181.396 157.517 181.449 157.32C181.504 157.115 181.443 156.902 181.289 156.75C178.72 154.212 178.193 147.326 178.205 141.998C178.205 141.898 178.251 141.804 178.329 141.742C178.407 141.68 178.508 141.656 178.605 141.678C180.375 142.071 182.727 142.054 183.885 139.728C184.596 138.3 184.836 136.758 184.742 134.226C184.732 133.956 184.945 133.615 185.353 132.985C185.609 132.589 186.08 131.863 186.08 131.622C184.935 130.226 184.153 128.553 183.822 126.777C183.392 124.488 182.933 122.372 182.724 121.435C178.588 124.515 174.083 122.86 173.101 122.438C169.105 125.67 169.791 130.138 169.798 130.184C169.814 130.285 169.784 130.388 169.713 130.462C169.642 130.537 169.541 130.575 169.438 130.563C169.43 130.563 169.182 130.537 168.821 130.537ZM175.53 159.014C173.181 159.014 170.286 158.74 166.778 157.973C166.107 157.828 165.535 157.424 165.172 156.839C164.805 156.248 164.695 155.553 164.861 154.881L169.552 135.938C168.529 135.705 165.625 134.84 165.366 132.452C165.291 131.762 165.474 131.193 165.906 130.759C166.756 129.911 168.356 129.858 169.105 129.883C169.012 128.623 169.074 124.734 172.853 121.796C172.951 121.718 173.088 121.705 173.202 121.764C173.253 121.789 178.303 124.265 182.721 120.602C182.808 120.529 182.927 120.508 183.036 120.543C183.143 120.58 183.226 120.67 183.251 120.782C183.257 120.81 183.891 123.576 184.468 126.655C184.783 128.344 185.53 129.932 186.628 131.251C186.641 131.265 186.651 131.282 186.662 131.299C186.907 131.737 186.539 132.362 185.905 133.342C185.7 133.659 185.421 134.09 185.399 134.22C185.497 136.853 185.238 138.484 184.473 140.021C183.472 142.032 181.489 142.869 178.863 142.4C178.878 146.716 179.294 153.856 181.751 156.282C182.075 156.602 182.2 157.053 182.085 157.488C181.972 157.915 181.648 158.237 181.22 158.352C179.879 158.709 178.008 159.014 175.53 159.014Z" fill="#FEFBF7"/>
<path d="M178.535 142.328C178.514 142.328 178.494 142.326 178.474 142.322C176.596 141.974 174.02 140.227 173.911 140.153C173.761 140.05 173.723 139.846 173.824 139.696C173.927 139.547 174.132 139.507 174.282 139.61C174.307 139.628 176.852 141.353 178.594 141.676C178.772 141.708 178.889 141.88 178.857 142.058C178.828 142.217 178.689 142.328 178.535 142.328Z" fill="#FEFBF7"/>
<path d="M93.88 152.361H69.3153C66.8185 152.361 64.7871 150.329 64.7871 147.833V95.8464C64.7871 93.3498 66.8185 91.3185 69.3153 91.3185H85.0308C85.2124 91.3185 85.3596 91.4657 85.3596 91.6467C85.3596 91.8293 85.2124 91.9765 85.0308 91.9765H69.3153C67.181 91.9765 65.4447 93.712 65.4447 95.8464V147.833C65.4447 149.967 67.181 151.703 69.3153 151.703H93.88C94.0617 151.703 94.2089 151.85 94.2089 152.033C94.2089 152.214 94.0617 152.361 93.88 152.361Z" fill="#FEFBF7"/>
<path d="M148.98 152.361H123.53C123.348 152.361 123.201 152.214 123.201 152.033C123.201 151.85 123.348 151.703 123.53 151.703H148.98C151.114 151.703 152.851 149.967 152.851 147.833V139.881C152.851 139.7 152.998 139.553 153.179 139.553C153.362 139.553 153.509 139.7 153.509 139.881V147.833C153.509 150.329 151.476 152.361 148.98 152.361Z" fill="#FEFBF7"/>
<path d="M153.179 140.211C152.998 140.211 152.851 140.064 152.851 139.881V95.8463C152.851 93.7119 151.114 91.9764 148.98 91.9764H123.53C123.348 91.9764 123.201 91.8292 123.201 91.6467C123.201 91.4657 123.348 91.3184 123.53 91.3184H148.98C151.476 91.3184 153.509 93.3498 153.509 95.8463V139.881C153.509 140.064 153.362 140.211 153.179 140.211Z" fill="#302D27"/>
<path d="M123.53 91.9766H95.6218C95.4402 91.9766 95.293 91.8294 95.293 91.6468C95.293 91.4658 95.4402 91.3186 95.6218 91.3186H123.53C123.712 91.3186 123.859 91.4658 123.859 91.6468C123.859 91.8294 123.712 91.9766 123.53 91.9766Z" fill="#FEFBF7"/>
<path d="M135.576 144.106H125.163C124.981 144.106 124.834 143.959 124.834 143.776C124.834 143.595 124.981 143.448 125.163 143.448H135.576C135.758 143.448 135.905 143.595 135.905 143.776C135.905 143.959 135.758 144.106 135.576 144.106Z" fill="#FEFBF7"/>
<path d="M99.2746 144.106H78.1897C78.008 144.106 77.8608 143.959 77.8608 143.776C77.8608 143.595 78.008 143.448 78.1897 143.448H99.2746C99.4563 143.448 99.6035 143.595 99.6035 143.776C99.6035 143.959 99.4563 144.106 99.2746 144.106Z" fill="#FEFBF7"/>
<path d="M80.4945 133.652H111.421L80.4945 101.747V133.652ZM112.198 134.31H80.1658C79.9843 134.31 79.8369 134.162 79.8369 133.98V100.936C79.8369 100.802 79.9182 100.682 80.0423 100.632C80.1664 100.582 80.3084 100.611 80.4017 100.708L112.434 133.752C112.526 133.847 112.552 133.987 112.501 134.109C112.449 134.23 112.33 134.31 112.198 134.31Z" fill="#FEFBF7"/>
<path d="M83.1879 133.98C83.1879 135.651 81.8346 137.003 80.1653 137.003C78.4959 137.003 77.1426 135.651 77.1426 133.98C77.1426 132.311 78.4959 130.958 80.1653 130.958C81.8346 130.958 83.1879 132.311 83.1879 133.98Z" fill="#FEFBF7"/>
<path d="M115.22 133.98C115.22 135.651 113.867 137.003 112.197 137.003C110.528 137.003 109.175 135.651 109.175 133.98C109.175 132.311 110.528 130.958 112.197 130.958C113.867 130.958 115.22 132.311 115.22 133.98Z" fill="#FEFBF7"/>
<path d="M83.1879 100.936C83.1879 102.606 81.8346 103.96 80.1653 103.96C78.4959 103.96 77.1426 102.606 77.1426 100.936C77.1426 99.2672 78.4959 97.9145 80.1653 97.9145C81.8346 97.9145 83.1879 99.2672 83.1879 100.936Z" fill="#FEFBF7"/>
<path d="M88.5555 224.508C84.5082 224.508 81.2156 227.801 81.2156 231.847V282.179C81.2156 286.227 84.5082 289.52 88.5555 289.52H124.565C128.613 289.52 131.905 286.227 131.905 282.179V231.847C131.905 227.801 128.613 224.508 124.565 224.508H88.5555ZM124.565 290.177H88.5555C84.1457 290.177 80.5581 286.589 80.5581 282.179V231.847C80.5581 227.439 84.1457 223.85 88.5555 223.85H124.565C128.975 223.85 132.563 227.439 132.563 231.847V282.179C132.563 286.589 128.975 290.177 124.565 290.177Z" fill="#FEFBF7"/>
<path d="M98.1762 279.704H86.9912V242.946H98.1762V279.704Z" fill="#FEFBF7"/>
<path d="M112.153 279.704H100.968V232.803H112.153V279.704Z" fill="#FEFBF7"/>
<path d="M126.13 279.704H114.945V257.79H126.13V279.704Z" fill="#FEFBF7"/>
<path d="M269.345 195.594C269.261 195.594 269.177 195.561 269.113 195.498C268.985 195.369 268.985 195.161 269.113 195.033L296.989 167.156C297.117 167.028 297.325 167.028 297.455 167.156C297.583 167.284 297.583 167.493 297.455 167.621L269.578 195.498C269.513 195.561 269.429 195.594 269.345 195.594Z" fill="#FEFBF7"/>
<path d="M239.555 225.384C239.469 225.384 239.386 225.351 239.322 225.288C239.193 225.16 239.193 224.951 239.322 224.823L257.384 206.762C257.512 206.632 257.721 206.632 257.849 206.762C257.977 206.89 257.977 207.097 257.849 207.227L239.787 225.288C239.723 225.351 239.639 225.384 239.555 225.384Z" fill="#FEFBF7"/>
<path d="M285.621 164.858C285.537 164.858 285.453 164.826 285.389 164.761C285.26 164.633 285.26 164.425 285.389 164.297L297.222 152.464C299.446 150.238 299.446 146.618 297.222 144.394C296.019 143.192 295.358 141.593 295.358 139.894C295.358 138.194 296.019 136.596 297.222 135.394L313.474 119.142C313.602 119.014 313.81 119.014 313.939 119.142C314.067 119.27 314.067 119.479 313.939 119.607L297.687 135.86C296.61 136.937 296.015 138.369 296.015 139.894C296.015 141.418 296.61 142.852 297.687 143.929C300.167 146.409 300.167 150.447 297.687 152.927L285.854 164.761C285.789 164.826 285.705 164.858 285.621 164.858Z" fill="#FEFBF7"/>
<path d="M211.348 148.501C211.264 148.501 211.18 148.469 211.116 148.404C210.988 148.276 210.988 148.069 211.116 147.939L239.11 119.945C239.24 119.817 239.447 119.817 239.575 119.945C239.703 120.073 239.703 120.282 239.575 120.41L211.581 148.404C211.516 148.469 211.432 148.501 211.348 148.501Z" fill="#FEFBF7"/>
<path d="M167.194 81.5049C167.11 81.5049 167.027 81.4725 166.962 81.4092C166.834 81.2797 166.834 81.0721 166.962 80.9441L189.641 58.2664C189.769 58.1384 189.976 58.1384 190.105 58.2664C190.234 58.3945 190.234 58.602 190.105 58.7301L167.427 81.4092C167.364 81.4725 167.278 81.5049 167.194 81.5049Z" fill="#FEFBF7"/>
<path d="M279.74 173.935C277.828 173.935 276.274 172.383 276.274 170.474C276.274 168.565 277.828 167.013 279.74 167.013C279.922 167.013 280.069 167.16 280.069 167.341C280.069 167.523 279.922 167.67 279.74 167.67C278.192 167.67 276.932 168.928 276.932 170.474C276.932 172.019 278.192 173.278 279.74 173.278C281.289 173.278 282.549 172.019 282.549 170.474C282.549 170.293 282.696 170.146 282.877 170.146C283.058 170.146 283.206 170.293 283.206 170.474C283.206 172.383 281.651 173.935 279.74 173.935Z" fill="#FEFBF7"/>
<path d="M234.859 142.895C234.774 142.895 234.69 142.862 234.627 142.797L233.194 141.364C233.065 141.234 233.065 141.027 233.194 140.899C233.322 140.77 233.53 140.77 233.659 140.899L235.092 142.332C235.22 142.462 235.22 142.669 235.09 142.797C235.027 142.862 234.943 142.895 234.859 142.895Z" fill="#FEFBF7"/>
<path d="M239.871 147.913C239.787 147.913 239.703 147.882 239.639 147.817L238.206 146.383C238.078 146.254 238.078 146.046 238.206 145.918C238.336 145.79 238.543 145.79 238.672 145.918L240.104 147.352C240.232 147.481 240.232 147.689 240.104 147.817C240.039 147.882 239.955 147.913 239.871 147.913Z" fill="#FEFBF7"/>
<path d="M233.427 147.913C233.342 147.913 233.258 147.882 233.194 147.817C233.065 147.689 233.065 147.481 233.194 147.352L234.627 145.918C234.755 145.789 234.962 145.79 235.09 145.918C235.22 146.046 235.22 146.254 235.092 146.383L233.659 147.817C233.595 147.882 233.511 147.913 233.427 147.913Z" fill="#FEFBF7"/>
<path d="M238.439 142.895C238.355 142.895 238.271 142.862 238.206 142.797C238.078 142.669 238.078 142.462 238.206 142.332L239.639 140.899C239.767 140.77 239.976 140.77 240.104 140.899C240.232 141.027 240.232 141.234 240.104 141.364L238.672 142.797C238.608 142.862 238.524 142.895 238.439 142.895Z" fill="#FEFBF7"/>
<path d="M184.153 71.9634C184.069 71.9634 183.985 71.931 183.92 71.8662C183.792 71.7381 183.792 71.5306 183.92 71.4025L200.954 54.3685C201.082 54.239 201.291 54.239 201.419 54.3685C201.547 54.4966 201.547 54.7042 201.419 54.8337L184.385 71.8662C184.321 71.931 184.237 71.9634 184.153 71.9634Z" fill="#FEFBF7"/>
</svg>
