<svg width="32" height="32" viewBox="0 0 32 32" fill="none" xmlns="http://www.w3.org/2000/svg">
<g clip-path="url(#clip0_248_1423)">
<path d="M20.4004 7.39998C19.387 7.39981 18.414 7.79748 17.6909 8.5074C16.9677 9.21733 16.5522 10.1828 16.5337 11.196L16.4963 13.296C16.4942 13.4087 16.4682 13.5197 16.4201 13.6217C16.372 13.7237 16.3028 13.8144 16.2172 13.8878C16.1316 13.9612 16.0314 14.0157 15.9233 14.0477C15.8151 14.0796 15.7014 14.0884 15.5897 14.0733L13.5084 13.7906C10.7697 13.4173 8.14568 12.156 5.62835 10.0586C4.83102 14.472 6.38835 17.5293 10.139 19.888L12.4684 21.352C12.579 21.4215 12.671 21.5171 12.7361 21.6305C12.8013 21.7438 12.8377 21.8713 12.8422 22.002C12.8467 22.1326 12.8191 22.2623 12.7618 22.3798C12.7045 22.4973 12.6193 22.599 12.5137 22.676L10.391 24.2266C11.6537 24.3053 12.8524 24.2493 13.847 24.052C20.1377 22.796 24.3203 18.0626 24.3203 10.2546C24.3203 9.61731 22.971 7.39998 20.4004 7.39998V7.39998ZM13.867 11.1466C13.8903 9.86138 14.2922 8.61154 15.0224 7.55361C15.7527 6.49568 16.7788 5.67667 17.9722 5.19914C19.1657 4.7216 20.4736 4.60675 21.732 4.86898C22.9905 5.1312 24.1436 5.75884 25.047 6.67331C25.995 6.66665 26.8017 6.90665 28.6057 5.81331C28.159 7.99998 27.939 8.94931 26.987 10.2546C26.987 20.444 20.7244 25.3986 14.3697 26.6666C10.0124 27.536 3.67635 26.108 1.86035 24.212C2.78568 24.14 6.54568 23.736 8.71902 22.1453C6.88035 20.9333 -0.438315 16.6266 4.37102 5.04798C6.62835 7.68398 8.91769 9.47865 11.2377 10.4306C12.7817 11.064 13.1604 11.0506 13.8684 11.148L13.867 11.1466Z" fill="#FEFBF7"/>
</g>
<defs>
<clipPath id="clip0_248_1423">
<rect width="32" height="32" fill="white"/>
</clipPath>
</defs>
</svg>
