<svg width="32" height="32" viewBox="0 0 32 32" fill="none" xmlns="http://www.w3.org/2000/svg">
<g clip-path="url(#clip0_248_1421)">
<path d="M26.1417 9.32704C26.0403 8.92971 25.7523 8.62971 25.423 8.53771C24.8403 8.37371 22.0003 8.00038 16.0003 8.00038C10.0003 8.00038 7.16299 8.37371 6.57499 8.53771C6.24966 8.62838 5.96166 8.92838 5.85899 9.32704C5.71366 9.89238 5.33366 12.2617 5.33366 16.0004C5.33366 19.739 5.71366 22.107 5.85899 22.675C5.96033 23.071 6.24833 23.371 6.57633 23.4617C7.16299 23.627 10.0003 24.0004 16.0003 24.0004C22.0003 24.0004 24.839 23.627 25.4257 23.463C25.751 23.3724 26.039 23.0724 26.1417 22.6737C26.287 22.1084 26.667 19.7337 26.667 16.0004C26.667 12.267 26.287 9.89371 26.1417 9.32704ZM28.7243 8.66438C29.3337 11.0404 29.3337 16.0004 29.3337 16.0004C29.3337 16.0004 29.3337 20.9604 28.7243 23.3364C28.3857 24.6497 27.395 25.683 26.1403 26.0324C23.8617 26.667 16.0003 26.667 16.0003 26.667C16.0003 26.667 8.14299 26.667 5.86033 26.0324C4.60033 25.6777 3.61099 24.6457 3.27633 23.3364C2.66699 20.9604 2.66699 16.0004 2.66699 16.0004C2.66699 16.0004 2.66699 11.0404 3.27633 8.66438C3.61499 7.35104 4.60566 6.31771 5.86033 5.96838C8.14299 5.33371 16.0003 5.33371 16.0003 5.33371C16.0003 5.33371 23.8617 5.33371 26.1403 5.96838C27.4003 6.32304 28.3897 7.35504 28.7243 8.66438V8.66438ZM13.3337 20.667V11.3337L21.3337 16.0004L13.3337 20.667Z" fill="#FEFBF7"/>
</g>
<defs>
<clipPath id="clip0_248_1421">
<rect width="32" height="32" fill="white"/>
</clipPath>
</defs>
</svg>
